<?xml version="1.0" encoding="UTF-8" standalone="no"?>
<!DOCTYPE svg PUBLIC "-//W3C//DTD SVG 1.1//EN" "http://www.w3.org/Graphics/SVG/1.1/DTD/svg11.dtd">
<svg width="100%" height="100%" viewBox="0 0 1002 382" version="1.1" xmlns="http://www.w3.org/2000/svg" xmlns:xlink="http://www.w3.org/1999/xlink" xml:space="preserve" xmlns:serif="http://www.serif.com/" style="fill-rule:evenodd;clip-rule:evenodd;stroke-linejoin:round;stroke-miterlimit:2;">
    <g transform="matrix(1,0,0,1,-11.4327,-11.455)">
        <g>
            <path id="path668" d="M985.617,11.455C968.701,11.455 958.674,23.286 958.674,36.177C958.674,49.068 967.782,60.899 985.617,60.899C1003.45,60.899 1012.57,49.174 1012.57,36.177C1012.57,23.357 1002.53,11.455 985.617,11.455ZM97.856,14.987L11.433,222.578L60.352,222.578L77.266,182.212L153.977,182.212L170.891,222.578L219.769,222.578L133.173,14.987L97.856,14.987ZM892.841,14.987L892.841,70.149C885.351,68.156 877.636,67.136 869.885,67.114C840.113,67.114 823.973,81.241 816.91,87.987C802.424,103.065 794.354,123.199 794.416,144.108C794.168,194.011 821.434,213.789 834.996,220.005C844.118,224.27 854.142,226.256 864.201,225.792C875.547,225.009 886.362,220.671 895.104,213.397L896.483,222.612L938.864,222.612L938.864,14.987L892.841,14.987ZM726.023,67.093C718.41,67.075 711.528,68.225 706.654,69.907C698.258,72.606 690.562,77.129 684.119,83.151L682.249,70.715L639.869,70.715L639.869,222.578L686.271,222.578L686.271,117.827C690.138,114.437 694.353,111.466 698.846,108.963C706.959,104.447 716.798,104.21 725.12,108.329C733.243,112.884 736.991,123.585 736.991,136.582L736.991,222.723L783.393,222.723L783.393,133.402C783.428,100.699 771.386,86.148 764.217,79.861C753.423,70.392 738.712,67.123 726.023,67.093ZM399.251,67.114C381.43,67.701 364.101,73.137 349.138,82.835C338.861,72.239 313.645,62.557 292.914,69.832C284.521,72.538 276.826,77.06 270.378,83.076L268.757,70.681L226.129,70.681L226.129,222.544L272.537,222.544L272.537,117.406C276.183,113.97 280.324,111.101 284.822,108.895C290.014,106.387 302.836,101.834 312.124,109.639C319.188,115.679 319.608,129.908 319.608,133.934L319.608,222.509L365.52,222.509L365.52,131.533C365.452,126.004 364.945,120.489 364.003,115.04C368.331,112.287 372.894,109.923 377.64,107.977C388.235,103.28 400.241,105.609 404.197,108.363C412.708,114.297 413.557,127.755 413.557,133.865L413.557,222.44L459.469,222.44L459.469,132.237C459.469,115.638 457.135,94.732 442.232,81.241C427.328,67.75 404.089,67.114 399.251,67.114L399.251,67.114ZM476.666,70.681L476.666,160.491C476.666,177.337 479.671,195.81 491.255,208.665C502.839,221.521 521.486,226.711 538.65,225.51C546.576,224.944 554.31,222.796 561.392,219.191C566.441,216.755 571.057,213.509 575.057,209.583L577.036,222.613L619.417,222.613L619.417,70.749L619.562,70.68L573.153,70.68L573.153,175.894C569.347,178.765 565.294,181.293 561.04,183.447C552.884,187.174 543.62,187.718 535.084,184.971C524.489,180.945 523.04,163.778 523.04,156.538L523.04,70.68L476.666,70.681ZM962.558,70.681L962.558,222.578L1008.65,222.578L1008.65,70.68L962.558,70.681ZM115.514,78.096L140.236,142.832L90.793,142.832L115.514,78.096ZM873.189,105.501C873.913,105.479 874.638,105.482 875.362,105.508C881.381,105.574 887.347,106.635 893.02,108.646L892.841,176.666C889.856,180.28 885.953,183.025 881.542,184.612C865.508,191.181 845.023,183.8 840.714,156.359C838.826,146.743 839.597,136.792 842.942,127.581C847.496,114.716 859.548,105.918 873.189,105.501L873.189,105.501Z" style="fill:rgb(26,26,26);fill-rule:nonzero;"/>
            <rect id="rect682" x="13.236" y="261.676" width="995.446" height="39.096" style="fill:rgb(26,26,26);"/>
            <path id="path686" d="M299.322,338.8C297.619,338.798 295.921,338.967 294.252,339.303C287.4,340.328 280.762,344.424 279.49,351.699C278.457,356.561 280.104,361.621 283.802,364.943C287.912,367.832 292.54,369.907 297.432,371.054C299.551,371.642 301.591,372.482 303.509,373.558C305.429,374.636 306.18,377.06 305.206,379.035C304.181,380.907 301.354,381.367 299.411,381.367C296.948,381.479 294.502,380.903 292.348,379.704C290.635,378.764 289.114,377.51 287.864,376.007L278.642,383.132C280.796,385.913 283.582,388.14 286.768,389.63C298.316,395.352 319.399,392.104 319.188,376.034C319.276,371.267 316.998,366.752 313.111,363.991C308.696,361.442 303.939,359.539 298.984,358.341C296.834,357.834 294.859,356.76 293.265,355.231C292.847,354.636 292.622,353.926 292.622,353.198C292.622,351.893 293.346,350.689 294.5,350.078C296.611,349.108 298.99,348.881 301.246,349.436C303.618,349.955 305.775,351.188 307.427,352.968C307.992,353.565 308.511,354.203 308.979,354.879L318.201,347.815C317.402,346.635 316.477,345.546 315.442,344.566C310.895,340.845 305.198,338.807 299.322,338.8ZM287.864,376.007L288.106,375.821L287.754,375.89C287.791,375.929 287.827,375.968 287.864,376.007ZM344.241,338.8C342.54,338.798 340.844,338.967 339.178,339.303C332.326,340.328 325.688,344.424 324.416,351.699C323.381,356.559 325.026,361.619 328.72,364.943C332.833,367.833 337.463,369.908 342.357,371.054C344.474,371.642 346.512,372.483 348.428,373.558C350.348,374.636 351.099,377.06 350.124,379.035C349.1,380.942 346.273,381.367 344.33,381.367C341.867,381.481 339.42,380.905 337.267,379.704C335.546,378.76 334.02,377.498 332.769,375.986L323.568,383.098C325.722,385.878 328.507,388.106 331.693,389.596C343.242,395.317 364.325,392.069 364.113,376C364.202,371.232 361.924,366.718 358.036,363.956C353.622,361.406 348.865,359.503 343.91,358.307C341.759,357.801 339.784,356.727 338.191,355.196C337.77,354.6 337.544,353.888 337.544,353.159C337.544,351.852 338.27,350.647 339.426,350.036C341.537,349.066 343.917,348.842 346.172,349.402C348.545,349.919 350.703,351.152 352.352,352.934C352.918,353.529 353.437,354.168 353.905,354.844L363.12,347.781C362.321,346.613 361.399,345.535 360.368,344.566C355.819,340.843 350.119,338.805 344.241,338.8ZM332.769,375.986L333.032,375.786L332.68,375.89C332.71,375.922 332.739,375.954 332.769,375.987L332.769,375.986ZM725.754,339.007C724.805,339.042 723.86,339.12 722.933,339.235C715.582,340.039 709.129,344.544 705.84,351.168C703.38,356.438 702.321,362.255 702.764,368.054C702.881,373.661 704.666,379.108 707.889,383.698C713.363,390.903 721.417,393.023 730.493,392.458C736.149,392.256 741.744,391.207 747.089,389.347L747.089,363.142L726.886,363.142L726.886,373.317L726.962,373.524L734.266,373.524L734.266,381.015C731.084,381.668 727.79,381.545 724.665,380.656C722.51,379.773 716.078,376.597 716.925,363.494C716.899,359.578 718.35,355.793 720.988,352.899C723.938,350.027 728.575,349.698 731.9,352.127C733.304,353.396 734.425,354.948 735.191,356.679L746.669,350.816C745.876,349.059 744.865,347.409 743.661,345.905C739.366,340.589 732.399,338.765 725.754,339.007L725.754,339.007ZM241.738,339.903L221.817,391.182L235.806,391.292L239.338,382.463L256.569,382.463L259.894,391.292L274.655,391.292L254.596,339.903L241.738,339.903ZM372.342,339.903L372.342,391.182L410.481,391.182L410.481,379.352L386.111,379.352L386.111,370.985L404.652,370.985L404.652,360.142L386.111,360.142L386.111,351.664L408.894,351.664L408.894,339.903L372.342,339.903ZM414.509,339.903L414.509,351.664L428.884,351.664L428.884,391.182L442.763,391.182L442.763,351.664L456.89,351.664L456.89,339.903L414.509,339.903ZM479.28,339.903L479.28,391.182L492.489,391.217L492.489,366.006L503.084,391.535L508.699,391.535L518.943,366.144L518.943,391.217L532.256,391.217L532.256,339.903L518.129,339.903L506.189,370.454L493.407,339.903L479.28,339.903ZM558.64,339.903L538.719,391.182L552.742,391.292L556.274,382.463L573.47,382.463L576.788,391.292L591.55,391.292L571.491,339.903L558.64,339.903ZM597.875,339.903L597.875,391.182L611.333,391.217L611.333,362.226L629.481,391.217L642.021,391.217L642.021,339.903L628.494,339.903L628.494,367.06L611.788,339.903L597.875,339.903ZM668.261,339.903L648.305,391.182L662.328,391.292L665.86,382.463L683.098,382.463L686.416,391.292L701.177,391.292L681.118,339.903L668.261,339.903ZM757.015,339.903L757.015,391.182L795.188,391.182L795.188,379.352L770.825,379.352L770.825,370.985L789.366,370.985L789.366,360.142L770.825,360.142L770.825,351.664L793.602,351.664L793.602,339.903L757.015,339.903ZM803.776,339.903L803.776,391.182L817.261,391.217L817.261,366.006L827.856,391.535L833.333,391.535L843.577,366.144L843.577,391.217L856.89,391.217L856.89,339.903L842.763,339.903L830.685,370.454L817.903,339.903L803.776,339.903ZM868.437,339.903L868.437,391.182L906.616,391.182L906.616,379.352L882.212,379.352L882.212,370.985L900.753,370.985L900.753,360.142L882.212,360.142L882.212,351.664L904.988,351.664L904.988,339.903L868.437,339.903ZM915.232,339.903L915.232,391.182L928.689,391.217L928.689,362.226L946.844,391.217L959.378,391.217L959.378,339.903L945.851,339.903L945.851,367.06L929.151,339.903L915.232,339.903ZM966.234,339.903L966.234,351.664L980.603,351.664L980.603,391.182L994.488,391.182L994.488,351.664L1008.62,351.664L1008.62,339.903L966.234,339.903ZM247.884,356.258L253.43,371.868L242.339,371.868L247.884,356.258ZM564.786,356.258L570.325,371.868L559.24,371.868L564.786,356.258ZM674.407,356.258L679.953,371.868L668.861,371.868L674.407,356.258Z" style="fill:rgb(26,26,26);fill-rule:nonzero;"/>
        </g>
    </g>
</svg>
