<?xml version="1.0" encoding="UTF-8" standalone="no"?>
<!DOCTYPE svg PUBLIC "-//W3C//DTD SVG 1.1//EN" "http://www.w3.org/Graphics/SVG/1.1/DTD/svg11.dtd">
<svg width="100%" height="100%" viewBox="0 0 152 22" version="1.1" xmlns="http://www.w3.org/2000/svg" xmlns:xlink="http://www.w3.org/1999/xlink" xml:space="preserve" xmlns:serif="http://www.serif.com/" style="fill-rule:evenodd;clip-rule:evenodd;stroke-linejoin:round;stroke-miterlimit:2;">
    <g id="BlackRock_Wordmark_Blk_RGB">
        <path id="Shape" d="M19.337,21.127L19.337,0L24.15,0L24.15,21.127L19.337,21.127ZM112.885,13.234C112.885,8.128 108.924,4.959 104.287,4.959C99.622,4.959 95.69,8.158 95.69,13.234C95.69,18.34 99.651,21.538 104.287,21.538C108.924,21.538 112.885,18.31 112.885,13.234ZM108.131,13.234C108.131,15.904 106.341,17.401 104.258,17.401C102.175,17.401 100.385,15.904 100.385,13.234C100.385,10.534 102.175,9.097 104.258,9.097C106.341,9.097 108.131,10.534 108.131,13.234ZM17.401,15.053C17.401,12.676 16.168,10.857 13.968,10.036C16.051,8.891 16.785,7.395 16.785,5.634C16.785,2.553 14.554,0 9.566,0.029L0,0.029L0,21.157L9.977,21.157C14.995,21.127 17.401,18.633 17.401,15.053ZM11.679,6.25C11.679,7.688 10.769,8.51 9.008,8.51L5.018,8.51L5.018,4.108L9.008,4.108C10.622,4.108 11.679,4.812 11.679,6.25ZM12.119,14.731C12.119,16.11 11.151,17.019 9.361,17.019L5.018,17.019L5.018,12.442L9.361,12.442C11.092,12.442 12.119,13.322 12.119,14.731ZM59.303,9.273C57.983,6.514 55.518,4.988 51.792,4.988C47.39,4.988 43.458,7.747 43.458,13.234C43.458,18.575 46.92,21.538 51.733,21.538C55.107,21.538 57.954,20.188 59.303,17.283L55.43,15.288C54.726,16.579 53.64,17.401 51.909,17.401C49.679,17.401 48.241,15.816 48.241,13.234C48.241,10.652 49.884,9.097 51.88,9.097C53.435,9.097 54.608,9.801 55.342,11.327L59.303,9.273ZM130.227,9.273C128.907,6.514 126.442,4.988 122.715,4.988C118.314,4.988 114.381,7.747 114.381,13.234C114.381,18.575 117.844,21.538 122.656,21.538C126.031,21.538 128.877,20.188 130.227,17.283L126.354,15.288C125.649,16.579 124.564,17.401 122.832,17.401C120.602,17.401 119.164,15.816 119.164,13.234C119.164,10.652 120.808,9.097 122.803,9.097C124.358,9.097 125.532,9.801 126.266,11.327L130.227,9.273ZM89.88,21.127L85.859,14.026L82.778,14.026L82.778,21.127L77.819,21.127L77.819,0L86.769,0C91.611,0 94.985,2.318 94.985,6.866C94.985,9.771 93.547,11.825 90.995,13.087L95.631,21.127L89.88,21.127ZM82.808,9.83L86.505,9.83C88.794,9.83 89.909,8.539 89.909,7.013C89.909,5.194 88.853,4.196 86.505,4.196L82.808,4.196L82.808,9.83ZM42.666,20.863L42.666,17.547C42.46,17.606 42.167,17.665 41.844,17.665C41.228,17.665 40.905,17.342 40.905,16.785L40.905,11.297C40.905,7.189 38.147,5.018 33.598,5.018C30.635,5.018 28.111,6.103 26.527,7.512L29.197,10.505C30.253,9.566 31.662,8.979 33.041,8.979C35.154,8.979 36.151,10.036 36.151,11.767L36.151,12.266C35.154,12.031 33.892,11.796 32.366,11.796C28.522,11.796 26.028,13.645 26.028,16.697C26.028,19.836 28.111,21.48 31.339,21.48C33.54,21.48 35.506,20.57 36.533,19.396C37.149,20.951 38.499,21.362 39.819,21.362C40.729,21.392 41.785,21.245 42.666,20.863ZM36.181,15.904C36.181,17.342 34.802,18.281 33.217,18.281C31.72,18.281 30.987,17.518 30.987,16.462C30.987,15.347 31.808,14.525 33.481,14.525C34.508,14.525 35.418,14.701 36.181,14.877L36.181,15.904ZM147.422,21.127L141.759,11.297L147.07,5.517L141.73,5.517L136.125,11.737L136.125,0.029L131.342,0.029L131.342,21.157L136.125,21.157L136.125,17.342L138.414,14.907L141.994,21.157L147.422,21.157L147.422,21.127ZM76.558,21.127L70.894,11.297L76.205,5.517L70.806,5.517L65.26,11.737L65.26,0.029L60.477,0.029L60.477,21.157L65.26,21.157L65.26,17.342L67.549,14.907L71.129,21.157L76.558,21.157L76.558,21.127ZM150.357,18.193C151.354,18.193 151.941,18.809 151.941,19.748C151.941,20.687 151.354,21.303 150.357,21.303C149.359,21.303 148.772,20.687 148.772,19.748C148.772,18.809 149.359,18.193 150.357,18.193ZM150.357,21.098C151.149,21.098 151.677,20.629 151.677,19.748C151.677,18.868 151.12,18.398 150.357,18.398C149.564,18.398 149.036,18.868 149.036,19.748C149.007,20.658 149.564,21.098 150.357,21.098ZM149.741,18.956L150.386,18.956C150.768,18.956 150.973,19.161 150.973,19.455C150.973,19.719 150.856,19.866 150.65,19.954L150.944,20.511L150.65,20.511L150.386,20.012L150.034,20.012L150.034,20.511L149.741,20.511L149.741,18.956ZM150.034,19.191L150.034,19.748L150.357,19.748C150.562,19.748 150.68,19.69 150.68,19.484C150.68,19.308 150.592,19.22 150.386,19.22L150.034,19.22L150.034,19.191Z" style="fill:rgb(26,26,26);fill-rule:nonzero;"/>
    </g>
</svg>
