<?xml version="1.0" encoding="UTF-8" standalone="no"?>
<!DOCTYPE svg PUBLIC "-//W3C//DTD SVG 1.1//EN" "http://www.w3.org/Graphics/SVG/1.1/DTD/svg11.dtd">
<svg width="100%" height="100%" viewBox="0 0 600 237" version="1.1" xmlns="http://www.w3.org/2000/svg" xmlns:xlink="http://www.w3.org/1999/xlink" xml:space="preserve" xmlns:serif="http://www.serif.com/" style="fill-rule:evenodd;clip-rule:evenodd;stroke-linejoin:round;stroke-miterlimit:2;">
    <g transform="matrix(1,0,0,1,-21.4,-202.6)">
        <g>
            <g transform="matrix(1,0,0,1,153,46)">
                <path d="M293.5,296.1L311.9,296.1L311.9,171.7L352.1,171.7L352.1,158L293.5,158L293.5,296.1ZM293.5,391.1L352.1,391.1L352.1,377.9L311.9,377.9L311.9,309.8L293.5,309.8L293.5,391.1ZM-131.6,273.9C-131.6,382.6 -97.1,393 -78.6,393C-70.1,393 -64.4,391.1 -64.4,391.1L-64.4,378.3C-67.2,378.8 -69.6,379.2 -72.4,379.2C-88.5,379.2 -112.6,365 -112.6,273.8C-112.6,184.4 -89.4,170.3 -73.4,170.3C-70.1,170.3 -66.8,171.2 -64.4,172.2L-64.4,159C-64.4,159 -70.1,157.1 -78.6,157.1C-97,157.1 -131.6,165.6 -131.6,273.9ZM0.8,157.1C-16.2,157.1 -41.8,168.4 -41.8,275.3C-41.8,381.7 -16.3,393.5 0.8,393.5C17.9,393.5 43.4,382.2 43.4,275.3C43.4,168.4 17.9,157.1 0.8,157.1ZM0.8,379.3C-10.1,379.3 -22.8,366.1 -22.8,274.8C-22.8,183.5 -10,170.3 0.8,170.3C11.6,170.3 24.4,183.5 24.4,274.8C24.4,366.1 11.7,379.3 0.8,379.3ZM133.7,312.6L87.8,158.5L78.3,158.5L78.3,391.6L96.7,391.6L96.7,238.9L142.6,391.6L152.1,391.6L152.1,158.5L133.7,158.5L133.7,312.6ZM204.6,195.4C204.6,178.4 214.5,170.3 224.9,170.3C231,170.3 235.8,171.7 240,174.1L246.1,161.8C246.1,161.8 236.6,156.6 225.3,156.6C202.1,156.6 186.1,170.8 186.1,195.4C186.1,219.5 194.6,236.1 214,267.3C226.3,287.2 239.5,311.7 239.5,337.3C239.5,369.5 221.5,378.9 211.1,378.9C204,378.9 196.9,377.5 191.7,374.2L186,385.5C192.1,389.8 200.7,392.1 211.1,392.1C229.1,392.1 258.9,379.3 258.9,336.8C258.9,303.7 245.2,279.6 227.7,251.2C215.5,232.3 204.6,213.8 204.6,195.4ZM448.1,362.3C454.2,344.8 458,317.4 458,274.8C458,168.4 432.5,156.6 415.4,156.6C398.3,156.6 372.8,167.9 372.8,274.8C372.8,381.2 398.3,393 415.4,393C423.4,393 433.8,390.2 441.9,376L458.9,393L468.4,383.5L448.1,362.3ZM434.4,348.6L427.3,341.5L417.8,351L430.6,363.8C426.3,376.1 420.7,378.9 415.5,378.9C404.6,378.9 391.9,365.7 391.9,274.4C391.9,183.1 404.7,169.9 415.5,169.9C426.3,169.9 439.1,183.1 439.1,274.4C439.1,309.3 437.2,333 434.4,348.6Z" style="fill:rgb(26,26,26);fill-rule:nonzero;"/>
            </g>
            <g transform="matrix(1,0,0,1,153,46)">
                <path d="M285.9,296.1L285.9,309.8L343.2,309.8L343.2,296.1L285.9,296.1Z" style="fill:rgb(26,26,26);fill-rule:nonzero;"/>
            </g>
        </g>
    </g>
</svg>
