<?xml version="1.0" encoding="UTF-8" standalone="no"?>
<!DOCTYPE svg PUBLIC "-//W3C//DTD SVG 1.1//EN" "http://www.w3.org/Graphics/SVG/1.1/DTD/svg11.dtd">
<svg width="100%" height="100%" viewBox="0 0 769 118" version="1.1" xmlns="http://www.w3.org/2000/svg" xmlns:xlink="http://www.w3.org/1999/xlink" xml:space="preserve" xmlns:serif="http://www.serif.com/" style="fill-rule:evenodd;clip-rule:evenodd;stroke-linejoin:round;stroke-miterlimit:2;">
    <g transform="matrix(1,0,0,1,-19.9562,-345.192)">
        <g transform="matrix(4.16667,0,0,4.16667,0,0)">
            <g transform="matrix(1,0,0,1,-0.970497,-23.199)">
                <path d="M45.654,134.114L41.832,134.114C41.593,134.114 41.474,134.114 41.474,133.995C41.474,133.875 41.593,133.756 41.832,133.756L42.31,133.756C42.549,133.636 42.549,133.517 42.668,133.159L42.668,124.798C42.668,124.32 42.549,124.2 42.19,124.081L41.832,124.081C41.593,124.081 41.474,124.081 41.474,123.842C41.474,123.723 41.593,123.723 41.832,123.723L45.296,123.723C45.535,123.723 45.654,123.723 45.654,123.842C45.654,124.081 45.535,124.081 45.296,124.081L44.937,124.081C44.579,124.2 44.579,124.32 44.46,124.798L44.46,130.173C44.46,131.487 44.46,132.562 44.579,133.159C44.579,133.517 44.698,133.636 45.057,133.756L45.654,133.756C45.893,133.756 46.012,133.875 46.012,133.995C46.012,134.114 45.893,134.114 45.654,134.114Z" style="fill:rgb(26,26,26);"/>
                <path d="M59.032,124.081L58.554,124.081C58.315,124.2 58.196,124.439 58.196,125.156L57.957,133.875C57.957,134.234 57.837,134.353 57.718,134.353C57.598,134.353 57.36,134.114 57.24,133.995C56.404,133.159 54.613,131.367 53.179,130.053C51.865,128.62 50.431,127.067 49.954,126.589L50.193,132.203C50.193,133.278 50.312,133.636 50.551,133.756L51.268,133.756C51.507,133.756 51.626,133.875 51.626,133.995C51.626,134.114 51.387,134.114 51.148,134.114L48.043,134.114C47.804,134.114 47.685,134.114 47.685,133.995C47.685,133.875 47.685,133.756 47.924,133.756L48.521,133.756C48.879,133.636 48.879,133.278 48.879,132.084L48.999,123.961C48.999,123.603 49.118,123.484 49.237,123.484C49.357,123.484 49.476,123.484 49.596,123.603C49.596,123.603 49.715,123.723 49.834,123.842C49.954,124.081 52.104,126.35 54.135,128.261C54.971,129.217 56.643,131.009 57.001,131.367L56.882,125.275C56.882,124.439 56.762,124.2 56.523,124.2C56.284,124.081 56.046,124.081 55.807,124.081C55.568,124.081 55.448,123.961 55.448,123.842C55.448,123.723 55.687,123.723 55.926,123.723L58.912,123.723C59.151,123.723 59.271,123.723 59.271,123.842C59.271,123.961 59.271,124.081 59.032,124.081Z" style="fill:rgb(26,26,26);"/>
                <path d="M70.976,124.081C70.737,124.081 70.498,124.081 70.379,124.2C70.14,124.32 69.901,124.559 69.543,125.395C69.065,126.709 68.707,127.425 67.99,129.098C67.034,131.128 66.437,132.681 66.079,133.278C65.959,133.756 65.84,133.995 65.721,134.114C65.601,134.234 65.601,134.353 65.482,134.353C65.243,134.353 65.123,134.114 65.004,133.875C65.004,133.756 64.884,133.636 64.884,133.517L61.421,125.156C61.062,124.32 60.824,124.2 60.346,124.081L59.868,124.081C59.748,124.081 59.629,123.961 59.629,123.842C59.629,123.723 59.868,123.723 60.107,123.723L63.69,123.723C63.929,123.723 64.168,123.723 64.168,123.842C64.168,123.961 64.048,124.081 63.81,124.081C63.571,124.081 63.212,124.081 63.212,124.32C63.212,124.559 63.332,124.917 63.571,125.395L65.84,131.487C66.557,129.934 68.229,125.634 68.587,124.798C68.587,124.678 68.707,124.439 68.707,124.32C68.707,124.2 68.587,124.2 68.587,124.081L67.99,124.081C67.871,124.081 67.751,123.961 67.751,123.842C67.751,123.723 67.871,123.723 68.109,123.723L70.857,123.723C71.095,123.723 71.215,123.723 71.215,123.842C71.215,123.961 71.095,124.081 70.976,124.081Z" style="fill:rgb(26,26,26);"/>
                <path d="M78.381,133.756C78.381,134.114 78.262,134.234 77.904,134.234L77.665,134.234C75.515,134.234 74.679,134.114 73.843,134.114L72.17,134.114C71.931,134.114 71.812,134.114 71.812,133.995C71.812,133.875 71.931,133.756 72.051,133.756L72.529,133.756C72.768,133.636 72.887,133.397 72.887,133.039C73.007,132.442 73.007,131.367 73.007,130.173L73.007,127.664C73.007,125.634 73.007,125.275 72.887,124.798C72.887,124.32 72.768,124.2 72.409,124.081L71.931,124.081C71.693,124.081 71.573,123.961 71.573,123.842C71.573,123.723 71.693,123.723 71.931,123.723L77.306,123.723C77.545,123.723 77.784,123.723 78.023,123.603L78.143,123.603C78.262,123.603 78.262,123.603 78.262,123.723C78.262,123.842 78.262,124.081 78.143,124.678L78.143,125.514C78.143,125.634 78.023,125.753 77.904,125.753C77.784,125.753 77.665,125.634 77.665,125.514L77.665,125.036C77.545,124.798 77.426,124.678 76.829,124.559L74.798,124.559L74.798,128.142L77.067,128.142C77.306,128.142 77.545,128.023 77.665,127.903C77.784,127.784 77.784,127.784 77.904,127.784C78.023,127.784 78.023,127.784 78.023,127.903C78.023,128.023 78.023,128.261 77.904,128.978L77.904,129.814C77.904,130.053 77.904,130.173 77.665,130.173C77.545,130.173 77.545,130.053 77.545,129.934C77.545,129.814 77.545,129.695 77.426,129.456C77.426,129.217 77.187,129.098 76.709,128.978L74.798,128.978L74.798,132.203C74.798,133.159 75.037,133.278 76.351,133.278C76.709,133.278 77.306,133.278 77.665,133.159C78.023,133.039 78.143,132.8 78.262,132.203C78.262,132.084 78.262,131.964 78.381,131.964C78.62,131.964 78.62,132.084 78.62,132.323C78.62,132.562 78.501,133.517 78.381,133.756Z" style="fill:rgb(26,26,26);"/>
                <path d="M85.548,133.756C84.832,134.234 83.995,134.353 83.279,134.353C82.562,134.353 81.965,134.234 81.368,133.995C81.129,133.875 81.009,133.756 81.009,133.517C81.009,132.681 81.129,131.845 81.129,131.725C81.129,131.367 81.129,131.248 81.368,131.248C81.487,131.248 81.487,131.367 81.487,131.606C81.487,131.725 81.607,131.964 81.607,132.203C81.965,133.159 82.681,133.517 83.518,133.517C84.712,133.517 85.309,132.8 85.309,132.084C85.309,131.487 85.07,130.77 83.995,129.934C82.681,128.978 81.368,127.903 81.368,126.112C81.368,124.559 82.562,123.484 84.473,123.484C85.429,123.484 85.906,123.603 86.265,123.723C86.384,123.723 86.504,123.842 86.504,123.961L86.504,125.634C86.504,125.992 86.384,126.112 86.265,126.112C86.145,126.112 86.026,125.873 86.026,125.753C86.026,125.634 86.026,125.275 85.787,124.917C85.548,124.678 85.19,124.2 84.354,124.2C83.398,124.2 82.801,124.798 82.801,125.634C82.801,126.231 83.04,126.709 84.234,127.545C85.548,128.5 86.862,129.456 86.862,131.367C86.862,132.203 86.504,133.159 85.548,133.756Z" style="fill:rgb(26,26,26);"/>
                <path d="M97.612,125.514C97.612,125.753 97.612,125.873 97.493,125.873C97.373,125.873 97.254,125.753 97.254,125.514L97.254,125.275C97.254,125.036 96.895,124.678 95.701,124.678L94.029,124.559L94.029,130.173C94.029,131.367 94.029,132.442 94.148,133.039C94.148,133.397 94.268,133.636 94.626,133.756L95.223,133.756C95.343,133.756 95.581,133.875 95.581,133.995C95.581,134.114 95.462,134.114 95.223,134.114L91.401,134.114C91.162,134.114 91.043,134.114 91.043,133.995C91.043,133.875 91.162,133.756 91.282,133.756L91.759,133.756C91.998,133.636 92.117,133.397 92.117,133.039C92.237,132.442 92.237,131.367 92.237,130.173L92.237,124.559L90.206,124.678C89.37,124.678 89.131,124.678 88.892,125.036C88.773,125.156 88.773,125.395 88.773,125.514C88.654,125.634 88.654,125.634 88.534,125.634C88.296,125.634 88.296,125.514 88.296,125.395C88.296,125.156 88.534,123.961 88.654,123.842C88.654,123.603 88.773,123.484 88.773,123.484C88.892,123.484 89.012,123.484 89.012,123.603L89.37,123.603C89.848,123.723 90.326,123.723 90.804,123.723L96.179,123.723C96.656,123.723 97.015,123.723 97.373,123.603L97.493,123.603C97.612,123.603 97.731,123.723 97.731,123.961C97.731,124.2 97.612,125.156 97.612,125.514Z" style="fill:rgb(26,26,26);"/>
                <path d="M112.184,134.114L109.318,134.114C108.959,134.114 108.84,133.995 108.84,133.875C108.84,133.756 108.959,133.756 109.079,133.636C109.198,133.636 109.198,133.517 109.079,133.159L108.243,127.306L105.376,133.397C105.017,133.995 105.017,134.114 104.778,134.114C104.778,134.114 104.659,134.114 104.539,133.875C104.42,133.756 104.42,133.636 104.301,133.397C103.942,132.8 102.868,130.65 102.629,130.292C102.509,130.053 101.793,128.5 101.315,127.425L100.598,132.681L100.598,133.397C100.598,133.517 100.718,133.636 100.956,133.756L101.434,133.756C101.673,133.756 101.793,133.875 101.793,133.995C101.793,134.114 101.673,134.114 101.315,134.114L98.567,134.114C98.328,134.114 98.209,134.114 98.209,133.995C98.209,133.875 98.328,133.756 98.567,133.756L98.926,133.756C99.284,133.636 99.403,133.159 99.403,132.681L100.837,123.842C100.837,123.603 100.956,123.364 101.076,123.364C101.195,123.364 101.315,123.484 101.554,123.842L105.256,131.487L108.84,123.723C109.079,123.484 109.079,123.364 109.198,123.364C109.437,123.364 109.556,123.603 109.556,123.842L110.87,132.323C110.99,133.159 111.109,133.517 111.467,133.636C111.826,133.756 112.065,133.756 112.304,133.756C112.423,133.756 112.542,133.875 112.542,133.995C112.542,134.114 112.423,134.114 112.184,134.114Z" style="fill:rgb(26,26,26);"/>
                <path d="M120.426,133.756C120.426,134.114 120.306,134.234 120.067,134.234L119.709,134.234C117.678,134.234 116.723,134.114 115.887,134.114L114.215,134.114C113.976,134.114 113.856,134.114 113.856,133.995C113.856,133.875 113.976,133.756 114.095,133.756L114.573,133.756C114.812,133.636 114.931,133.397 114.931,133.039C115.051,132.442 115.051,131.367 115.051,130.173L115.051,124.798C114.931,124.32 114.931,124.2 114.454,124.081L113.976,124.081C113.737,124.081 113.617,123.961 113.617,123.842C113.617,123.723 113.737,123.723 113.976,123.723L119.351,123.723C119.59,123.723 119.828,123.723 120.067,123.603L120.187,123.603C120.306,123.603 120.306,123.603 120.306,123.723C120.306,123.842 120.306,124.081 120.187,124.678L120.187,125.514C120.187,125.634 120.067,125.753 119.948,125.753C119.828,125.753 119.709,125.634 119.709,125.514L119.709,125.036C119.59,124.798 119.47,124.678 118.873,124.559L116.842,124.559L116.842,128.142L119.112,128.142C119.47,128.142 119.59,128.023 119.709,127.903C119.828,127.784 119.828,127.784 119.948,127.784C120.067,127.784 120.067,127.784 120.067,127.903L120.067,128.978C119.948,129.217 119.948,129.695 119.948,129.814C119.948,130.053 119.948,130.173 119.709,130.173C119.59,130.173 119.59,130.053 119.59,129.934C119.59,129.814 119.59,129.695 119.47,129.456C119.47,129.217 119.351,129.098 118.873,128.978L116.842,128.978L116.842,132.203C116.842,133.159 117.081,133.278 118.395,133.278C118.753,133.278 119.351,133.278 119.709,133.159C120.067,133.039 120.187,132.8 120.306,132.203C120.306,132.084 120.306,131.964 120.426,131.964C120.665,131.964 120.665,132.084 120.665,132.323C120.665,132.562 120.545,133.517 120.426,133.756Z" style="fill:rgb(26,26,26);"/>
                <path d="M133.803,124.081L133.445,124.081C133.087,124.2 132.967,124.439 132.967,125.156L132.848,133.875C132.848,134.234 132.728,134.353 132.609,134.353C132.37,134.353 132.25,134.114 132.011,133.995C131.175,133.159 129.503,131.367 128.07,130.053C126.637,128.62 125.203,127.067 124.845,126.589L124.964,132.203C124.964,133.278 125.203,133.636 125.442,133.756L126.159,133.756C126.278,133.756 126.398,133.875 126.398,133.995C126.398,134.114 126.278,134.114 126.039,134.114L122.814,134.114C122.576,134.114 122.457,134.114 122.457,133.995C122.457,133.875 122.576,133.756 122.814,133.756L123.412,133.756C123.651,133.636 123.77,133.278 123.77,132.084L123.89,123.961C123.89,123.603 123.89,123.484 124.128,123.484C124.248,123.484 124.248,123.484 124.367,123.603C124.487,123.603 124.487,123.723 124.726,123.842C124.845,124.081 126.876,126.35 128.906,128.261C129.742,129.217 131.534,131.009 131.892,131.367L131.773,125.275C131.773,124.439 131.653,124.2 131.295,124.2C131.175,124.081 130.817,124.081 130.578,124.081C130.459,124.081 130.34,123.961 130.34,123.842C130.34,123.723 130.459,123.723 130.817,123.723L133.803,123.723C134.042,123.723 134.162,123.723 134.162,123.842C134.162,123.961 134.042,124.081 133.803,124.081Z" style="fill:rgb(26,26,26);"/>
                <path d="M144.792,125.514C144.792,125.753 144.673,125.873 144.554,125.873C144.434,125.873 144.434,125.753 144.314,125.514L144.314,125.275C144.314,125.036 143.956,124.678 142.762,124.678L141.09,124.559L141.09,130.173C141.09,131.367 141.09,132.442 141.209,133.039C141.209,133.397 141.328,133.636 141.687,133.756L142.404,133.756C142.523,133.756 142.642,133.875 142.642,133.995C142.642,134.114 142.523,134.114 142.284,134.114L138.462,134.114C138.223,134.114 138.103,134.114 138.103,133.995C138.103,133.875 138.223,133.756 138.462,133.756L138.939,133.756C139.059,133.636 139.178,133.397 139.178,133.039C139.298,132.442 139.298,131.367 139.298,130.173L139.298,124.559L137.386,124.678C136.551,124.678 136.192,124.678 136.073,125.036C135.953,125.156 135.834,125.395 135.834,125.514C135.834,125.634 135.715,125.634 135.595,125.634C135.476,125.634 135.476,125.514 135.476,125.395C135.476,125.156 135.715,123.961 135.715,123.842C135.834,123.603 135.834,123.484 135.953,123.484C136.073,123.484 136.073,123.484 136.192,123.603L136.551,123.603C136.909,123.723 137.506,123.723 137.864,123.723L143.359,123.723C143.717,123.723 144.075,123.723 144.434,123.603L144.673,123.603C144.792,123.603 144.792,123.723 144.792,123.961L144.792,125.514Z" style="fill:rgb(26,26,26);"/>
                <path d="M150.645,133.756C150.048,134.234 149.211,134.353 148.495,134.353C147.659,134.353 147.061,134.234 146.464,133.995C146.225,133.875 146.225,133.756 146.225,133.517L146.225,131.725C146.225,131.367 146.345,131.248 146.464,131.248C146.703,131.248 146.703,131.367 146.703,131.606C146.703,131.725 146.703,131.964 146.823,132.203C147.061,133.159 147.898,133.517 148.734,133.517C149.928,133.517 150.406,132.8 150.406,132.084C150.406,131.487 150.286,130.77 149.092,129.934C147.898,128.978 146.464,127.903 146.464,126.112C146.464,124.559 147.778,123.484 149.689,123.484C150.525,123.484 151.123,123.603 151.481,123.723C151.6,123.723 151.72,123.842 151.72,123.961L151.72,125.634C151.72,125.992 151.6,126.112 151.481,126.112C151.242,126.112 151.242,125.873 151.242,125.753C151.242,125.634 151.242,125.275 150.884,124.917C150.764,124.678 150.406,124.2 149.45,124.2C148.495,124.2 147.898,124.798 147.898,125.634C147.898,126.231 148.256,126.709 149.331,127.545C150.645,128.5 151.959,129.456 151.959,131.367C151.959,132.203 151.72,133.159 150.645,133.756Z" style="fill:rgb(26,26,26);"/>
                <path d="M86.265,115.242C86.265,114.287 86.982,113.689 87.818,113.689C88.654,113.689 89.37,114.287 89.37,115.242C89.37,116.078 88.654,116.795 87.818,116.795C86.982,116.795 86.265,116.078 86.265,115.242ZM87.818,117.153C88.892,117.153 89.729,116.317 89.729,115.242C89.729,114.167 88.892,113.331 87.818,113.331C86.743,113.331 85.906,114.167 85.906,115.242C85.906,116.317 86.743,117.153 87.818,117.153ZM87.459,115.362L87.818,115.362L88.415,116.317L88.773,116.317L88.176,115.362C88.415,115.362 88.654,115.123 88.654,114.764C88.654,114.287 88.415,114.167 87.937,114.167L87.101,114.167L87.101,116.317L87.459,116.317L87.459,115.362ZM87.459,115.123L87.459,114.406L87.937,114.406C88.057,114.406 88.296,114.406 88.296,114.764C88.296,115.003 88.057,115.123 87.818,115.123L87.459,115.123Z" style="fill:rgb(26,26,26);"/>
                <path d="M186.717,115.242C186.717,114.287 187.314,113.689 188.27,113.689C189.106,113.689 189.703,114.287 189.703,115.242C189.703,116.078 189.106,116.795 188.27,116.795C187.314,116.795 186.717,116.078 186.717,115.242ZM188.27,117.153C189.225,117.153 190.181,116.317 190.181,115.242C190.181,114.167 189.225,113.331 188.27,113.331C187.194,113.331 186.239,114.167 186.239,115.242C186.239,116.317 187.194,117.153 188.27,117.153ZM187.792,115.362L188.15,115.362L188.747,116.317L189.106,116.317L188.508,115.362C188.867,115.362 189.106,115.123 189.106,114.764C189.106,114.287 188.867,114.167 188.27,114.167L187.433,114.167L187.433,116.317L187.792,116.317L187.792,115.362ZM187.792,115.123L187.792,114.406L188.27,114.406C188.508,114.406 188.747,114.406 188.747,114.764C188.747,115.003 188.508,115.123 188.27,115.123L187.792,115.123Z" style="fill:rgb(26,26,26);"/>
                <path d="M12.568,106.523C12.568,106.761 12.449,106.881 12.449,107.12L12.449,108.195C12.449,108.314 12.329,108.434 12.21,108.434C12.09,108.434 11.971,108.314 11.971,108.195L11.971,107.717C11.852,107.478 11.613,107.359 11.135,107.239L8.985,107.239L8.985,110.823L11.374,110.823C11.613,110.823 11.732,110.703 11.852,110.584C11.971,110.465 11.971,110.465 12.09,110.465C12.21,110.465 12.21,110.584 12.21,110.584L12.21,110.942C12.21,111.062 12.09,111.301 12.09,111.54L12.09,112.495C12.09,112.614 12.09,112.853 11.852,112.853C11.732,112.853 11.732,112.734 11.732,112.495C11.732,112.495 11.613,112.256 11.613,112.136C11.613,112.017 11.374,111.778 11.015,111.659L8.985,111.659L8.985,115.72C9.104,116.078 9.104,116.317 9.463,116.437L10.179,116.437C10.299,116.437 10.418,116.556 10.418,116.676C10.418,116.795 10.299,116.915 10.06,116.915C9.224,116.915 8.388,116.795 8.029,116.795C7.671,116.795 6.835,116.915 6.238,116.915C5.999,116.915 5.999,116.795 5.999,116.676C5.999,116.556 5.999,116.437 6.238,116.437L6.716,116.437C6.954,116.317 6.954,116.078 7.074,115.72L7.074,107.478C7.074,107.12 6.954,106.881 6.477,106.761L5.999,106.761C5.879,106.761 5.76,106.642 5.76,106.523C5.76,106.403 5.879,106.403 6.118,106.403L11.613,106.403C11.852,106.403 12.09,106.403 12.21,106.284L12.449,106.284C12.568,106.284 12.568,106.403 12.568,106.403L12.568,106.523Z" style="fill:rgb(26,26,26);"/>
                <path d="M20.332,109.628C20.332,110.703 19.854,111.301 19.496,111.54C19.257,111.778 19.138,111.778 18.54,111.778C18.182,111.778 17.824,111.778 17.585,111.659C17.465,111.659 17.465,111.659 17.465,111.54L17.465,107.359C17.465,107.239 17.465,107.239 17.585,107.239C17.704,107.12 17.943,107.12 18.301,107.12C19.018,107.12 20.332,107.717 20.332,109.628ZM25.229,116.676C25.229,116.556 25.11,116.437 24.99,116.437L24.632,116.437C24.035,116.317 23.557,115.959 23.199,115.481C22.721,115.123 22.362,114.526 21.885,113.928C21.407,113.331 20.81,112.734 20.213,112.017C21.646,110.823 22.004,109.987 22.004,108.912C22.004,107.956 21.407,107.239 21.049,107C20.332,106.403 19.377,106.403 18.54,106.403L14.718,106.403C14.479,106.403 14.36,106.403 14.36,106.523C14.36,106.642 14.479,106.761 14.599,106.761L15.196,106.761C15.554,106.881 15.674,107.12 15.674,107.478L15.674,115.72C15.554,116.078 15.554,116.317 15.316,116.437L14.838,116.437C14.718,116.437 14.599,116.556 14.599,116.676C14.599,116.795 14.599,116.915 14.838,116.915C15.435,116.915 16.271,116.795 16.51,116.795C16.749,116.795 17.824,116.915 18.54,116.915C18.779,116.915 18.899,116.795 18.899,116.676C18.899,116.556 18.779,116.437 18.66,116.437L18.063,116.437C17.704,116.317 17.585,116.078 17.585,115.72C17.465,115.123 17.465,114.048 17.465,112.853L17.465,112.614L18.899,112.614C19.018,112.734 19.138,113.092 19.496,113.45C19.735,113.809 19.974,114.167 20.213,114.526C21.049,115.601 21.527,116.317 22.124,116.556C22.482,116.795 22.84,116.915 23.676,116.915L24.99,116.795C25.11,116.795 25.229,116.795 25.229,116.676Z" style="fill:rgb(26,26,26);"/>
                <path d="M30.246,112.495L27.618,112.495L27.738,112.495L28.932,109.031L30.246,112.495ZM35.024,116.676C35.024,116.556 35.024,116.437 34.785,116.437L34.307,116.437C34.068,116.317 33.59,116.198 33.113,115.003C32.276,112.853 30.007,107.359 29.768,106.523C29.529,106.164 29.41,106.045 29.29,106.045C29.171,106.045 29.051,106.164 28.812,106.642L25.468,115.242C25.11,115.959 24.871,116.317 24.274,116.437L23.915,116.437C23.796,116.437 23.676,116.556 23.676,116.676C23.676,116.795 23.796,116.915 24.035,116.915C24.751,116.915 25.468,116.795 25.588,116.795C26.065,116.795 26.663,116.915 27.021,116.915C27.26,116.915 27.379,116.795 27.379,116.676C27.379,116.437 27.26,116.437 27.14,116.437L26.902,116.437C26.543,116.437 26.424,116.317 26.424,116.078C26.424,115.959 26.424,115.601 26.663,115.362L27.379,113.331L30.485,113.331L31.679,116.198C31.679,116.317 31.56,116.437 31.56,116.437C31.44,116.437 31.321,116.556 31.321,116.676C31.321,116.795 31.44,116.795 31.799,116.795C32.874,116.915 33.829,116.915 34.426,116.915C34.904,116.915 35.024,116.795 35.024,116.676Z" style="fill:rgb(26,26,26);"/>
                <path d="M46.729,106.761L46.251,106.761C46.012,106.881 45.893,107.12 45.893,107.837L45.654,116.556C45.654,116.915 45.654,117.034 45.415,117.034C45.296,117.034 45.057,116.915 44.937,116.676C44.101,115.839 42.31,114.048 40.876,112.734C39.562,111.301 38.129,109.748 37.651,109.27L37.89,114.884C37.89,115.959 38.129,116.317 38.248,116.437L38.965,116.437C39.204,116.437 39.324,116.556 39.324,116.676C39.324,116.795 39.085,116.915 38.846,116.915C38.009,116.915 37.412,116.795 37.174,116.795C37.054,116.795 36.457,116.915 35.74,116.915C35.501,116.915 35.382,116.795 35.382,116.676C35.382,116.556 35.501,116.437 35.621,116.437L36.218,116.437C36.576,116.317 36.576,115.959 36.576,114.764L36.696,106.642C36.696,106.284 36.815,106.164 36.935,106.164C37.054,106.164 37.174,106.164 37.293,106.284C37.293,106.284 37.412,106.403 37.532,106.523C37.651,106.761 39.801,109.031 41.832,110.942C42.668,111.898 44.34,113.689 44.698,114.048L44.579,107.956C44.579,107.12 44.46,106.881 44.221,106.881C43.982,106.761 43.743,106.761 43.504,106.761C43.385,106.761 43.146,106.761 43.146,106.523C43.146,106.403 43.385,106.403 43.623,106.403L46.61,106.403C46.849,106.403 46.968,106.403 46.968,106.523C46.968,106.642 46.968,106.761 46.729,106.761Z" style="fill:rgb(26,26,26);"/>
                <path d="M59.271,116.915L58.076,116.915C57.718,116.915 57.479,116.915 57.24,116.795C56.404,116.795 56.046,116.437 55.448,115.959C54.851,115.362 52.223,112.375 51.746,111.659L51.746,115.72C51.865,116.078 51.985,116.317 52.223,116.437L52.94,116.437C52.94,116.437 53.179,116.556 53.179,116.676C53.179,116.795 53.06,116.915 52.821,116.915C51.985,116.915 51.148,116.795 50.79,116.795C50.551,116.795 49.596,116.915 49.118,116.915C48.879,116.915 48.76,116.795 48.76,116.676C48.76,116.556 48.879,116.437 48.999,116.437L49.476,116.437C49.715,116.317 49.834,116.078 49.834,115.72C49.954,115.123 49.954,114.048 49.954,112.853L49.954,107.478C49.834,107.12 49.834,106.881 49.357,106.761L48.879,106.761C48.64,106.761 48.521,106.642 48.521,106.523C48.521,106.403 48.64,106.403 48.879,106.403L52.462,106.403C52.701,106.403 52.821,106.403 52.821,106.523C52.821,106.761 52.701,106.761 52.582,106.761L52.223,106.761C51.865,106.881 51.746,107 51.746,107.478L51.746,110.942C52.223,110.465 54.135,108.434 54.613,107.956C54.732,107.837 55.21,107.239 55.21,107C55.21,106.881 55.21,106.761 55.09,106.761C54.971,106.761 54.851,106.761 54.851,106.523C54.851,106.403 54.971,106.403 55.09,106.403L58.196,106.403C58.315,106.403 58.435,106.403 58.435,106.523C58.435,106.761 58.315,106.761 58.196,106.761C57.957,106.761 57.718,106.761 57.479,106.881C57.001,107.12 56.523,107.359 55.926,107.956C55.568,108.314 53.537,110.226 53.06,110.823C53.657,111.54 56.165,114.287 56.762,114.764C57.24,115.362 57.957,115.959 58.673,116.317C59.032,116.437 59.271,116.437 59.509,116.437C59.629,116.437 59.748,116.556 59.748,116.676C59.748,116.795 59.629,116.915 59.271,116.915Z" style="fill:rgb(26,26,26);"/>
                <path d="M66.676,116.437C66.557,116.795 66.437,116.915 65.721,116.915C63.69,116.915 62.854,116.795 61.779,116.795C61.421,116.795 60.585,116.915 59.987,116.915C59.748,116.915 59.748,116.795 59.748,116.676C59.748,116.556 59.868,116.437 59.987,116.437L60.465,116.437C60.704,116.317 60.704,116.078 60.824,115.72L60.824,107.478C60.824,107.12 60.704,106.881 60.346,106.761L59.868,106.761C59.629,106.761 59.629,106.642 59.629,106.523C59.629,106.403 59.629,106.403 59.987,106.403L63.69,106.403C63.929,106.403 64.048,106.403 64.048,106.523C64.048,106.642 63.929,106.761 63.69,106.761L63.212,106.761C62.854,106.881 62.734,107 62.734,107.478L62.734,112.853C62.734,114.645 62.734,115.481 62.973,115.72C63.212,115.839 63.451,115.959 64.526,115.959C65.243,115.959 65.84,115.959 66.079,115.601C66.198,115.481 66.437,115.123 66.437,114.884C66.437,114.764 66.437,114.526 66.676,114.526C66.796,114.526 66.796,114.645 66.796,114.884C66.796,115.003 66.796,116.078 66.676,116.437Z" style="fill:rgb(26,26,26);"/>
                <path d="M72.529,116.915C71.573,116.915 70.737,116.795 70.379,116.795C70.14,116.795 69.184,116.915 68.707,116.915C68.468,116.915 68.348,116.795 68.348,116.676C68.348,116.556 68.468,116.437 68.587,116.437L69.065,116.437C69.304,116.317 69.423,116.198 69.423,115.839C69.543,115.242 69.543,114.167 69.543,112.853L69.543,107.478C69.423,107 69.304,106.881 69.065,106.761L68.587,106.761C68.468,106.761 68.348,106.761 68.348,106.523C68.348,106.403 68.468,106.403 68.707,106.403L72.17,106.403C72.29,106.403 72.529,106.403 72.529,106.523C72.529,106.761 72.29,106.761 72.17,106.761L71.812,106.761C71.454,106.881 71.334,107 71.334,107.478L71.334,115.839C71.454,116.198 71.454,116.317 71.812,116.437L72.529,116.437C72.648,116.437 72.768,116.556 72.768,116.676C72.768,116.795 72.648,116.915 72.529,116.915Z" style="fill:rgb(26,26,26);"/>
                <path d="M85.787,106.761L85.429,106.761C85.07,106.881 84.951,107.12 84.951,107.837L84.832,116.556C84.832,116.915 84.712,117.034 84.593,117.034C84.473,117.034 84.234,116.915 84.115,116.676C83.159,115.839 81.487,114.048 80.054,112.734C78.62,111.301 77.187,109.748 76.829,109.27L76.948,114.884C77.067,115.959 77.187,116.317 77.426,116.437L78.143,116.437C78.381,116.437 78.381,116.556 78.381,116.676C78.381,116.795 78.262,116.915 78.023,116.915C77.187,116.915 76.59,116.795 76.351,116.795C76.232,116.795 75.515,116.915 74.798,116.915C74.679,116.915 74.439,116.795 74.439,116.676C74.439,116.556 74.559,116.437 74.798,116.437L75.395,116.437C75.635,116.317 75.754,115.959 75.754,114.764L75.873,106.642C75.873,106.284 75.993,106.164 76.112,106.164C76.232,106.164 76.351,106.164 76.351,106.284C76.47,106.284 76.59,106.403 76.709,106.523C76.829,106.761 78.979,109.031 80.89,110.942C81.846,111.898 83.518,113.689 83.876,114.048L83.756,107.956C83.756,107.12 83.637,106.881 83.279,106.881C83.159,106.761 82.801,106.761 82.681,106.761C82.443,106.761 82.323,106.761 82.323,106.523C82.323,106.403 82.562,106.403 82.801,106.403L85.787,106.403C86.026,106.403 86.145,106.403 86.145,106.523C86.145,106.642 86.026,106.761 85.787,106.761Z" style="fill:rgb(26,26,26);"/>
                <path d="M100.718,108.195C100.718,108.434 100.598,108.553 100.479,108.553C100.359,108.553 100.359,108.434 100.359,108.195L100.359,108.076C100.24,107.717 100.001,107.359 98.806,107.359L97.134,107.239L97.134,115.72C97.254,116.078 97.254,116.317 97.612,116.437L98.328,116.437C98.448,116.437 98.567,116.556 98.567,116.676C98.567,116.795 98.448,116.915 98.328,116.915C97.373,116.915 96.537,116.795 96.179,116.795C95.82,116.795 94.984,116.915 94.387,116.915C94.148,116.915 94.029,116.795 94.029,116.676C94.029,116.556 94.148,116.437 94.387,116.437L94.865,116.437C95.104,116.317 95.104,116.078 95.223,115.72L95.223,107.239L93.312,107.359C92.476,107.359 92.237,107.478 91.998,107.717C91.879,107.837 91.879,108.076 91.759,108.195C91.759,108.314 91.759,108.314 91.64,108.314C91.401,108.314 91.401,108.195 91.401,108.076C91.401,107.837 91.64,106.642 91.64,106.523C91.759,106.284 91.759,106.164 91.879,106.164C91.998,106.164 92.117,106.164 92.117,106.284L92.476,106.284C92.954,106.403 93.432,106.403 93.909,106.403L99.284,106.403C100.12,106.403 100.479,106.284 100.598,106.284C100.718,106.284 100.718,106.403 100.718,106.642L100.718,108.195Z" style="fill:rgb(26,26,26);"/>
                <path d="M109.079,116.437C108.959,116.795 108.84,116.915 108.601,116.915L108.243,116.915C106.212,116.915 105.256,116.795 104.42,116.795C104.181,116.795 103.226,116.915 102.748,116.915C102.509,116.915 102.39,116.795 102.39,116.676C102.39,116.556 102.509,116.437 102.629,116.437L103.226,116.437C103.345,116.317 103.465,116.078 103.465,115.72C103.584,115.123 103.584,114.048 103.584,112.853L103.584,107.478C103.465,107.12 103.465,106.881 102.987,106.761L102.509,106.761C102.27,106.761 102.151,106.642 102.151,106.523C102.151,106.403 102.27,106.403 102.509,106.403L107.884,106.403C108.123,106.403 108.362,106.403 108.601,106.284L108.72,106.284C108.84,106.284 108.84,106.284 108.84,106.403C108.84,106.523 108.84,106.761 108.72,107.359L108.72,108.314C108.72,108.314 108.601,108.434 108.481,108.434C108.362,108.434 108.362,108.314 108.362,108.195C108.362,108.076 108.243,107.837 108.243,107.717C108.123,107.478 108.004,107.359 107.406,107.239L105.495,107.239C105.376,107.239 105.376,107.239 105.376,107.359L105.376,110.823L107.645,110.823C108.004,110.823 108.123,110.703 108.243,110.584C108.362,110.465 108.362,110.465 108.481,110.465C108.601,110.465 108.72,110.465 108.72,110.584C108.72,110.703 108.601,110.942 108.601,111.659C108.481,111.898 108.481,112.375 108.481,112.495C108.481,112.734 108.481,112.853 108.362,112.853C108.123,112.853 108.123,112.734 108.123,112.614L108.123,112.256C108.004,111.898 107.884,111.778 107.406,111.659L105.376,111.659L105.376,115.003C105.495,115.839 105.615,116.078 106.929,116.078C107.287,116.078 107.884,116.078 108.243,115.839C108.601,115.72 108.72,115.481 108.84,114.884C108.84,114.764 108.84,114.645 109.079,114.645C109.198,114.645 109.198,114.764 109.198,115.003C109.198,115.242 109.079,116.198 109.079,116.437Z" style="fill:rgb(26,26,26);"/>
                <path d="M124.487,116.915C124.128,116.915 122.217,116.795 121.74,116.795C121.262,116.795 121.262,116.676 121.262,116.556C121.262,116.437 121.262,116.437 121.381,116.317C121.501,116.317 121.501,116.198 121.381,115.839L120.665,109.987L117.678,116.078C117.44,116.676 117.32,116.795 117.081,116.795C117.081,116.795 116.962,116.795 116.842,116.676C116.842,116.437 116.723,116.317 116.603,116.078C116.245,115.481 115.17,113.331 115.051,112.973C114.931,112.734 114.095,111.181 113.617,110.106L112.901,115.362L112.901,116.078C112.901,116.198 113.02,116.317 113.259,116.437L113.856,116.437C113.976,116.437 114.095,116.556 114.095,116.676C114.095,116.795 113.976,116.915 113.737,116.915C113.14,116.915 112.542,116.795 112.304,116.795C111.945,116.795 111.348,116.915 110.87,116.915C110.751,116.915 110.631,116.795 110.631,116.676C110.631,116.556 110.631,116.437 110.87,116.437L111.228,116.437C111.587,116.317 111.706,115.839 111.826,115.362L113.14,106.523C113.14,106.284 113.259,106.045 113.379,106.045C113.617,106.045 113.737,106.164 113.856,106.523L117.559,114.167L121.262,106.403C121.381,106.164 121.501,106.045 121.62,106.045C121.74,106.045 121.859,106.284 121.859,106.523L123.173,115.003C123.292,115.839 123.412,116.198 123.77,116.317C124.128,116.437 124.487,116.437 124.606,116.437C124.845,116.437 124.845,116.556 124.845,116.676C124.845,116.795 124.726,116.915 124.487,116.915Z" style="fill:rgb(26,26,26);"/>
                <path d="M130.22,112.256C129.981,112.256 129.623,112.256 129.623,112.017C129.623,111.898 129.742,111.778 130.101,111.778C130.817,111.778 131.892,110.942 131.892,109.628C131.892,109.151 131.773,108.314 131.056,107.598C130.578,107.12 130.101,107.12 129.742,107.12L129.265,107.12C129.265,107.12 129.145,107.239 129.145,107.359L129.145,112.853C129.145,114.048 129.145,115.123 129.265,115.72C129.265,116.078 129.384,116.317 129.742,116.437L130.34,116.437C130.578,116.437 130.698,116.556 130.698,116.676C130.698,116.795 130.578,116.915 130.34,116.915C129.503,116.915 128.548,116.795 128.189,116.795C127.951,116.795 127.114,116.915 126.517,116.915C126.278,116.915 126.159,116.795 126.159,116.676C126.159,116.556 126.278,116.437 126.517,116.437L126.995,116.437C127.114,116.317 127.234,116.078 127.234,115.72C127.353,115.123 127.353,114.048 127.353,112.853L127.353,107.478C127.353,107.12 127.234,106.881 126.756,106.761L126.278,106.761C126.039,106.761 126.039,106.642 126.039,106.523C126.039,106.403 126.039,106.403 126.398,106.403L130.34,106.403C132.011,106.403 132.609,107 132.848,107.12C133.206,107.478 133.564,108.076 133.564,108.912C133.564,110.823 132.131,112.256 130.22,112.256Z" style="fill:rgb(26,26,26);"/>
                <path d="M142.523,116.437C142.404,116.795 142.284,116.915 141.567,116.915C139.656,116.915 138.7,116.795 137.625,116.795C137.267,116.795 136.431,116.915 135.834,116.915C135.715,116.915 135.595,116.795 135.595,116.676C135.595,116.556 135.715,116.437 135.834,116.437L136.312,116.437C136.551,116.317 136.67,116.078 136.67,115.72C136.789,115.123 136.67,114.048 136.67,112.853L136.67,107.478C136.67,107.12 136.551,106.881 136.192,106.761L135.715,106.761C135.476,106.761 135.476,106.642 135.476,106.523C135.476,106.403 135.595,106.403 135.834,106.403L139.537,106.403C139.776,106.403 139.895,106.403 139.895,106.523C139.895,106.642 139.776,106.761 139.537,106.761L139.059,106.761C138.7,106.881 138.581,107 138.581,107.478L138.581,112.853C138.581,114.645 138.581,115.481 138.82,115.72C139.059,115.839 139.417,115.959 140.373,115.959C141.209,115.959 141.687,115.959 141.926,115.601C142.165,115.481 142.284,115.123 142.284,114.884C142.284,114.764 142.404,114.526 142.523,114.526C142.642,114.526 142.642,114.645 142.642,114.884C142.642,115.003 142.642,116.078 142.523,116.437Z" style="fill:rgb(26,26,26);"/>
                <path d="M150.884,116.437C150.764,116.795 150.645,116.915 150.406,116.915L150.048,116.915C148.017,116.915 147.061,116.795 146.225,116.795C145.987,116.795 145.15,116.915 144.554,116.915C144.314,116.915 144.195,116.795 144.195,116.676C144.195,116.556 144.314,116.437 144.554,116.437L145.031,116.437C145.15,116.317 145.27,116.078 145.27,115.72C145.389,115.123 145.389,114.048 145.389,112.853L145.389,107.478C145.389,107.12 145.27,106.881 144.792,106.761L144.314,106.761C144.075,106.761 144.075,106.642 144.075,106.523C144.075,106.403 144.075,106.403 144.434,106.403L149.689,106.403C149.928,106.403 150.167,106.403 150.406,106.284L150.525,106.284C150.645,106.284 150.645,106.284 150.645,106.403L150.645,107.359C150.525,107.478 150.525,108.076 150.525,108.314C150.525,108.314 150.525,108.434 150.286,108.434C150.167,108.434 150.167,108.314 150.167,108.195C150.167,108.076 150.167,107.837 150.048,107.717C149.928,107.478 149.809,107.359 149.211,107.239L147.3,107.239C147.181,107.239 147.181,107.239 147.181,107.359L147.181,110.823L149.45,110.823C149.809,110.823 149.928,110.703 150.048,110.584L150.167,110.584C150.167,110.465 150.286,110.465 150.286,110.465C150.406,110.465 150.525,110.465 150.525,110.584C150.525,110.703 150.406,110.942 150.406,111.659C150.406,111.898 150.286,112.375 150.286,112.495C150.286,112.734 150.286,112.853 150.167,112.853C149.928,112.853 149.928,112.734 149.928,112.614L149.928,112.256C149.809,111.898 149.689,111.778 149.211,111.659L147.3,111.659C147.181,111.659 147.181,111.659 147.181,111.778L147.181,115.003C147.3,115.839 147.42,116.078 148.853,116.078C149.211,116.078 149.689,116.078 150.048,115.839C150.406,115.72 150.525,115.481 150.645,114.884C150.645,114.764 150.645,114.645 150.884,114.645C151.003,114.645 151.003,114.764 151.003,115.003C151.003,115.242 150.884,116.198 150.884,116.437Z" style="fill:rgb(26,26,26);"/>
                <path d="M161.753,108.195C161.753,108.434 161.634,108.553 161.514,108.553C161.395,108.553 161.275,108.434 161.275,108.195L161.275,108.076C161.275,107.717 160.917,107.359 159.722,107.359L158.05,107.239L158.05,112.853C158.05,114.048 158.05,115.123 158.17,115.72C158.17,116.078 158.289,116.317 158.647,116.437L159.364,116.437C159.483,116.437 159.603,116.556 159.603,116.676C159.603,116.795 159.483,116.915 159.245,116.915C158.408,116.915 157.573,116.795 157.095,116.795C156.856,116.795 156.02,116.915 155.423,116.915C155.184,116.915 155.064,116.795 155.064,116.676C155.064,116.556 155.184,116.437 155.423,116.437L155.781,116.437C156.02,116.317 156.139,116.078 156.139,115.72C156.259,115.123 156.259,114.048 156.259,112.853L156.259,107.239L154.228,107.359C153.511,107.359 153.153,107.478 153.034,107.717C152.914,107.837 152.795,108.076 152.795,108.195C152.795,108.314 152.675,108.314 152.556,108.314C152.436,108.314 152.436,108.195 152.436,108.076C152.436,107.837 152.675,106.642 152.675,106.523C152.675,106.284 152.795,106.164 152.914,106.164C153.034,106.164 153.034,106.164 153.153,106.284L153.511,106.284C153.87,106.403 154.467,106.403 154.825,106.403L160.32,106.403C160.678,106.403 161.037,106.403 161.395,106.284L161.634,106.284C161.753,106.284 161.753,106.403 161.753,106.642L161.753,108.195Z" style="fill:rgb(26,26,26);"/>
                <path d="M171.786,111.898C171.786,115.839 169.517,116.198 168.681,116.198C166.053,116.198 164.5,114.048 164.5,111.181C164.5,107.837 166.292,107 167.845,107C169.995,107 171.786,108.792 171.786,111.898ZM173.817,111.42C173.817,108.195 171.667,106.164 168.203,106.164C164.022,106.164 162.47,109.27 162.47,111.659C162.47,114.048 164.022,117.034 168.084,117.034C171.547,117.034 173.817,114.526 173.817,111.42Z" style="fill:rgb(26,26,26);"/>
                <path d="M186.239,106.761L185.88,106.761C185.522,106.881 185.403,107.12 185.403,107.837L185.283,116.556C185.283,116.915 185.164,117.034 184.925,117.034C184.806,117.034 184.686,116.915 184.447,116.676C183.611,115.839 181.82,114.048 180.386,112.734C179.072,111.301 177.639,109.748 177.281,109.27L177.4,114.884C177.4,115.959 177.639,116.317 177.878,116.437L178.475,116.437C178.714,116.437 178.834,116.556 178.834,116.676C178.834,116.795 178.714,116.915 178.475,116.915C177.52,116.915 177.042,116.795 176.683,116.795C176.564,116.795 175.967,116.915 175.25,116.915C175.011,116.915 174.892,116.795 174.892,116.676C174.892,116.556 175.011,116.437 175.131,116.437L175.728,116.437C176.086,116.317 176.086,115.959 176.206,114.764L176.325,106.642C176.325,106.284 176.325,106.164 176.564,106.164C176.564,106.164 176.683,106.164 176.803,106.284C176.922,106.284 176.922,106.403 177.042,106.523C177.281,106.761 179.311,109.031 181.342,110.942C182.178,111.898 183.97,113.689 184.328,114.048L184.209,107.956C184.089,107.12 183.97,106.881 183.731,106.881C183.492,106.761 183.253,106.761 183.014,106.761C182.895,106.761 182.775,106.761 182.775,106.523C182.775,106.403 182.895,106.403 183.133,106.403L186.119,106.403C186.358,106.403 186.597,106.403 186.597,106.523C186.597,106.642 186.478,106.761 186.239,106.761Z" style="fill:rgb(26,26,26);"/>
            </g>
        </g>
    </g>
</svg>
