<?xml version="1.0" encoding="UTF-8" standalone="no"?>
<!DOCTYPE svg PUBLIC "-//W3C//DTD SVG 1.1//EN" "http://www.w3.org/Graphics/SVG/1.1/DTD/svg11.dtd">
<svg width="100%" height="100%" viewBox="0 0 127 46" version="1.1" xmlns="http://www.w3.org/2000/svg" xmlns:xlink="http://www.w3.org/1999/xlink" xml:space="preserve" xmlns:serif="http://www.serif.com/" style="fill-rule:evenodd;clip-rule:evenodd;stroke-linejoin:round;stroke-miterlimit:2;">
    <g>
        <path d="M74.255,27.643C74.255,37.153 69.059,38.294 63.862,38.294C54.926,38.294 53.025,33.729 53.025,27.198L53.025,8.779L49.73,8.779L49.73,7.004L62.214,7.004L62.214,8.779L58.665,8.779L58.665,26.659C58.665,32.968 60.312,36.106 64.844,36.106C69.47,36.106 71.72,33.824 71.72,27.261L71.72,8.779L68.393,8.779L68.393,7.004L77.265,7.004L77.265,8.779L74.255,8.779L74.255,27.643ZM82.747,36.17L82.747,8.779L79.515,8.779L79.515,7.004L93.362,7.004C99.257,7.004 102.172,10.333 102.172,14.233C102.172,18.385 98.401,20.732 95.042,21.429C101.569,22.031 103.344,26.216 103.344,29.291C103.344,35.567 97.99,37.945 92.729,37.945L79.293,37.945L79.293,36.17L82.747,36.17ZM96.53,14.581C96.53,11.696 95.041,8.779 91.777,8.779L88.26,8.779L88.26,20.668L91.398,20.668C94.851,20.668 96.53,17.751 96.53,14.581ZM97.64,29.291C97.64,25.17 95.866,22.411 91.714,22.411L88.26,22.411L88.26,36.17L91.049,36.17C95.453,36.17 97.64,33.57 97.64,29.291ZM117.158,8.367C113.894,8.367 111.804,10.301 111.804,13.662C111.804,16.705 115.099,18.163 118.299,19.241C120.2,19.907 122.609,20.794 124.256,22.38C126.063,24.092 127.045,26.374 126.982,29.259C126.855,34.649 123.085,38.294 116.43,38.325C113.927,38.325 110.03,37.755 107.684,36.391L107.431,28.276L109.396,28.276C109.554,33.728 112.121,36.582 116.62,36.582C120.232,36.582 122.229,34.173 122.229,30.495C122.229,27.325 119.599,25.962 115.606,24.631C114.307,24.187 111.741,23.235 109.934,21.46C108.318,19.844 107.558,17.814 107.558,15.659C107.558,9.35 112.057,6.624 117.634,6.624C119.852,6.624 123.179,7.416 125.112,8.526L125.302,15.563L123.337,15.563C122.926,10.555 120.739,8.367 117.158,8.367Z" style="fill:rgb(26,26,26);fill-rule:nonzero;"/>
        <path d="M34.134,13.266L33.308,13.954L34.18,16.8L31.565,15.377L30.693,16.065L33.583,17.626L30.509,20.105L29.683,19.003L30.784,18.13L29.958,17.166L28.857,18.038L28.031,16.982L29.132,16.11L28.306,15.054L22.663,19.737L28.031,24.051L28.994,22.858C29.682,22.904 30.187,23.409 30.462,24.051L29.5,25.246L30.096,25.705C31.427,24.512 33.17,23.731 34.959,23.731C38.721,23.731 41.658,26.806 41.658,30.57C41.658,31.809 41.337,33.141 40.648,34.243L41.658,35.023C41.612,35.757 40.924,36.538 40.236,36.721L39.273,35.941C37.942,37.226 36.199,37.915 34.364,37.915C30.602,37.915 27.666,34.932 27.666,31.122C27.666,29.883 28.033,28.597 28.583,27.541L28.032,27.036L27.069,28.321C26.381,28.229 25.784,27.77 25.601,27.036L26.565,25.889L22.023,22.125L22.023,28.092L23.537,28.138C23.721,28.367 23.858,28.689 23.858,29.056C23.858,29.377 23.72,29.745 23.583,30.02L22.023,30.02L22.023,30.755C25.327,31.305 28.079,34.106 28.079,37.502C28.079,41.036 25.372,43.836 22.023,44.387L22.023,45.581C21.702,45.764 21.289,45.902 20.922,45.902C20.509,45.902 20.05,45.763 19.683,45.581L19.683,44.387C16.334,43.836 13.719,41.036 13.719,37.502C13.719,34.106 16.334,31.305 19.683,30.8L19.683,30.02L18.123,30.02C17.94,29.746 17.848,29.377 17.848,29.056C17.848,28.689 17.94,28.368 18.123,28.092L19.683,28.092L19.683,22.125L15.095,25.889L16.104,27.036C15.875,27.77 15.278,28.229 14.59,28.321L13.626,27.036L13.03,27.541C13.672,28.597 13.993,29.883 13.993,31.122C13.993,34.932 11.057,37.915 7.295,37.915C5.505,37.915 3.716,37.227 2.432,35.941L1.423,36.721C0.78,36.538 0.092,35.758 0,35.023L0.963,34.243C0.367,33.142 0,31.81 0,30.57C0,26.806 2.937,23.731 6.698,23.731C8.533,23.731 10.277,24.511 11.607,25.705L12.158,25.292L11.195,24.053C11.424,23.41 12.021,22.951 12.709,22.86L13.672,24.053L19.04,19.739L13.397,15.056L12.571,16.112L13.672,16.984L12.846,18.04L11.745,17.168L10.919,18.132L11.974,19.005L11.148,20.107L8.12,17.628L10.965,16.067L10.139,15.379L7.524,16.8L8.396,13.954L7.57,13.266L6.606,16.387L3.532,13.908L4.358,12.898L5.413,13.77L6.285,12.76L5.183,11.796L6.009,10.832L7.11,11.658L7.89,10.694L5.505,8.813C5.734,8.033 6.239,7.39 6.973,6.931L19.681,17.304L19.681,10.373L18.396,10.373L18.396,11.704L17.111,11.704L17.111,10.373L15.78,10.373L15.78,11.704L14.45,11.704L14.45,7.804L17.478,9.089L17.478,7.987L14.682,6.84L17.48,5.738L17.48,4.683L14.452,5.876L14.452,1.929L15.782,1.929L15.782,3.352L17.113,3.352L17.113,1.929L18.398,1.929L18.398,3.352L19.683,3.352L19.683,0.229C20.049,0.092 20.462,0 20.875,0C21.242,0 21.655,0.092 22.022,0.229L22.022,17.304L34.73,6.932C35.418,7.391 35.923,8.034 36.198,8.814L33.766,10.696L34.592,11.66L35.694,10.834L36.52,11.798L35.419,12.762L36.245,13.772L37.346,12.9L38.172,13.91L35.098,16.389L34.134,13.266ZM8.167,32.039C8.167,33.142 8.993,33.83 9.957,33.922L8.35,35.161C7.249,34.748 6.24,33.417 6.24,32.268C6.24,31.902 6.332,31.672 6.423,31.397C6.286,31.397 6.194,31.443 6.102,31.443C4.634,31.443 3.395,30.065 3.12,28.642L4.772,27.357C4.726,27.541 4.726,27.678 4.726,27.816C4.726,28.735 5.598,29.56 6.516,29.56C7.479,29.56 8.397,28.735 8.397,27.77C8.397,26.577 7.48,25.796 6.333,25.796C4.085,25.796 1.883,27.953 1.883,30.799C1.883,31.626 2.066,32.406 2.433,33.095L3.442,32.315C4.13,32.636 4.681,33.325 4.864,34.105L3.855,34.885C4.818,35.711 6.011,36.078 7.25,36.078C9.819,36.078 11.884,34.013 11.884,32.176C11.884,31.121 11.15,30.203 10.049,30.203C9.038,30.204 8.167,30.984 8.167,32.039ZM21.792,35.987C21.792,36.997 22.618,37.823 23.582,37.823C24.27,37.823 24.545,37.548 25.05,37.135L25.05,39.2C24.545,39.475 24.041,39.613 23.49,39.613C22.389,39.613 21.471,39.292 20.875,38.328C20.233,39.292 19.315,39.613 18.214,39.613C17.71,39.613 17.159,39.475 16.654,39.2L16.654,37.135C17.112,37.594 17.48,37.823 18.122,37.823C19.132,37.823 19.912,36.997 19.912,35.987C19.912,35.023 19.27,34.151 18.214,34.151C16.333,34.151 15.553,35.941 15.553,37.593C15.553,40.026 17.342,42.091 19.682,42.504L19.682,41.265C20.049,41.081 20.462,41.036 20.829,41.036C21.242,41.036 21.655,41.082 22.022,41.265L22.022,42.504C24.179,42.183 26.151,39.888 26.151,37.593C26.151,35.895 25.463,34.151 23.49,34.151C22.481,34.151 21.792,35.023 21.792,35.987ZM33.217,27.771C33.217,28.689 34.18,29.561 35.144,29.561C36.061,29.561 36.934,28.736 36.934,27.817C36.934,27.679 36.888,27.542 36.888,27.358L38.493,28.643C38.218,30.205 36.842,31.581 35.236,31.398C35.328,31.673 35.374,31.903 35.374,32.269C35.374,33.417 34.365,34.748 33.264,35.162L31.658,33.923C32.667,33.831 33.493,33.143 33.493,32.04C33.493,30.985 32.575,30.205 31.566,30.205C30.511,30.205 29.731,31.123 29.731,32.225C29.731,33.556 31.336,36.08 34.411,36.08C35.65,36.08 36.843,35.713 37.76,34.887L36.751,34.107C36.98,33.327 37.439,32.638 38.173,32.317L39.182,33.097C39.549,32.409 39.778,31.628 39.778,30.801C39.778,28.598 38.081,25.798 35.374,25.798C34.226,25.797 33.217,26.577 33.217,27.771Z" style="fill:rgb(26,26,26);fill-rule:nonzero;"/>
    </g>
</svg>
