<?xml version="1.0" encoding="UTF-8" standalone="no"?>
<!DOCTYPE svg PUBLIC "-//W3C//DTD SVG 1.1//EN" "http://www.w3.org/Graphics/SVG/1.1/DTD/svg11.dtd">
<svg width="100%" height="100%" viewBox="0 0 127 27" version="1.1" xmlns="http://www.w3.org/2000/svg" xmlns:xlink="http://www.w3.org/1999/xlink" xml:space="preserve" xmlns:serif="http://www.serif.com/" style="fill-rule:evenodd;clip-rule:evenodd;stroke-linejoin:round;stroke-miterlimit:2;">
    <g transform="matrix(1,0,0,1,-0.018,-0.04)">
        <g>
            <path d="M47.76,19.665L47.76,19.831L41.606,19.831L41.606,17.435L41.65,17.428L41.604,17.428C41.606,17.426 41.604,11.136 41.604,11.136C41.591,10.769 41.726,9.13 39.862,9.148C39.863,9.153 37.948,9.18 37.992,11.486L37.992,11.488L37.986,17.714C38.041,19.63 39.185,19.67 39.189,19.67L39.189,19.83L32.967,19.83L32.967,19.829L29.423,19.829C29.286,19.845 24.96,19.986 24.786,15.957L24.786,13.779C24.786,13.779 23.072,14.16 22.536,14.571C22.536,14.571 21.164,15.441 22.069,16.934C22.069,16.934 22.742,18.114 24.917,17.678L23.856,19.835L21.76,19.835C21.76,19.835 16.868,19.935 16.295,16.341C16.295,16.316 15.855,13.521 19.195,12.389C19.195,12.389 20.338,11.987 22.511,11.603C22.535,11.603 24.368,11.341 24.539,10.347C24.582,10.146 24.56,9.936 24.478,9.748C24.508,9.826 23.645,7.56 18.368,9.851C18.39,9.876 19.454,6.539 19.454,6.539C19.454,6.539 24.424,5.078 27.892,7.207C27.869,7.23 29.704,8.205 29.679,11.264L29.734,15.494C29.727,15.554 29.73,17.661 31.804,17.779C31.804,17.799 32.54,17.793 32.962,17.791L32.962,8.557C32.962,8.505 33.075,6.583 31.792,6.497L31.792,6.32L37.994,6.079L37.992,7.649C38.329,7.316 39.698,6.097 41.722,6.059C41.722,6.059 46.549,5.89 46.541,10.619C46.543,10.619 46.549,17.425 46.549,17.425C46.511,19.633 47.761,19.665 47.761,19.665L47.76,19.665ZM0.018,0.275L0.018,0.072L6.748,0.072L11.578,14.175L15.15,2.86C15.15,2.86 15.88,0.956 13.926,0.202L13.926,0.04L19.317,0.04L12.505,19.982L9.67,18.889C9.67,18.889 7.374,18.211 6.152,14.767L1.72,2.53C1.72,2.53 1.162,0.553 0.018,0.275ZM119.97,17.428C119.938,19.793 121.196,19.668 121.198,19.668L121.198,19.835L114.866,19.831L114.866,19.829L114.864,19.831L114.864,11.324L114.862,11.148C114.862,11.228 114.862,8.975 112.887,8.951C112.863,8.975 110.569,8.731 110.569,13.018C110.546,13.041 110.546,18.032 114.424,17.391C114.424,17.411 113.064,19.822 113.064,19.822C113.064,19.822 109.92,20.906 107.313,18.121C107.313,18.121 105.33,16.397 105.33,13.018C105.353,13.041 105.264,9.836 107.313,7.804C107.292,7.87 110.476,4.273 114.862,7.048L114.862,2.55C114.862,2.501 114.973,0.577 113.69,0.491L113.69,0.317L119.965,0.074L119.969,17.428L119.97,17.428ZM101.126,7.863C102.501,5.275 105.14,6.077 105.14,6.077L105.14,9.461C100.955,8.767 101.13,11.918 101.126,11.899L101.124,11.899L101.122,17.422C101.095,19.764 102.296,19.672 102.355,19.669L102.355,19.831L96.095,19.831L96.095,19.829L92.473,19.829C92.342,19.845 88.013,19.986 87.843,15.957L87.843,13.779C87.843,13.779 86.123,14.16 85.588,14.571C85.588,14.571 84.22,15.441 85.125,16.934C85.125,16.934 85.795,18.114 87.971,17.678L86.91,19.837L84.81,19.837C84.81,19.837 79.922,19.935 79.349,16.34C79.349,16.315 78.909,13.519 82.249,12.391C82.249,12.391 83.391,11.987 85.563,11.603C85.588,11.603 87.42,11.341 87.591,10.348C87.636,10.147 87.615,9.936 87.531,9.748C87.557,9.828 86.698,7.56 81.419,9.851C81.449,9.876 82.509,6.539 82.509,6.539C82.509,6.539 87.481,5.078 90.949,7.207C90.923,7.233 92.756,8.207 92.734,11.261L92.788,15.494C92.779,15.557 92.781,17.661 94.858,17.777C94.858,17.797 95.688,17.793 96.092,17.791L96.092,16.701L96.094,8.557C96.094,8.505 96.204,6.58 94.923,6.495L94.923,6.323L101.126,6.08L101.126,7.863Z" style="fill:rgb(26,26,26);"/>
            <path d="M54.924,13.555C56.821,13.555 56.601,10.918 56.601,10.878C56.561,8.614 54.928,8.681 54.928,8.681C53.129,8.681 53.201,10.941 53.18,10.918C52.983,13.425 54.789,13.586 54.924,13.555ZM69.092,6.06L69.092,14.874C69.092,14.874 69.048,16.784 70.79,16.767C70.782,16.736 72.632,17.046 72.7,14.417C72.703,14.42 72.703,14.424 72.706,14.424L72.708,12.822L72.708,8.557C72.708,8.505 72.819,6.583 71.536,6.497L71.536,6.32L77.738,6.079L77.738,17.425C77.735,17.473 77.624,19.607 78.968,19.669L78.968,19.829L72.7,19.829L72.702,18.219C72.447,18.48 71.049,19.807 68.939,19.847C68.939,19.847 64.025,20.019 64.035,15.285C64.017,15.249 64.027,10.244 64.032,8.535L60.252,8.535C60.395,8.653 60.581,8.902 60.582,8.902C62.704,11.619 60.642,13.879 60.623,13.9C59.262,15.805 54.868,16.34 54.868,16.34L54.595,16.371C53.107,16.423 53.58,17.178 53.585,17.182C53.8,17.685 54.872,17.606 54.872,17.606L57.388,17.606C62.482,17.589 63.025,20.926 63.046,20.926C63.883,25.607 59.171,27.003 54.466,26.88C49.798,26.91 48.068,24.878 48.086,24.894C46.901,23.521 47.527,21.604 49.626,21.023C51.178,20.595 53.012,21.023 53.012,21.023C51.618,21.218 51.865,22.637 51.868,22.647C52.335,24.324 54.72,24.341 54.864,24.343C57.91,24.186 57.997,22.703 57.997,21.978C57.997,21.021 57.202,20.446 57.202,20.446C56.098,19.635 54.009,19.891 52.555,19.828C50.517,19.712 49.988,17.797 49.891,17.211C49.796,16.619 49.906,16.381 50.246,16.163C50.861,15.801 52.259,15.642 52.1,15.645L52.13,15.639C52.104,15.633 52.088,15.633 52.086,15.633C50.333,15.076 49.292,13.6 49.273,13.6C47.045,10.414 49.643,7.902 49.643,7.902C51.134,6.464 53.028,6.142 54.72,6.06L69.093,6.06L69.092,6.06ZM122.001,2.573C122.001,3.753 122.97,4.715 124.162,4.715C125.352,4.715 126.319,3.753 126.319,2.573C126.319,1.393 125.353,0.43 124.162,0.43C122.97,0.43 122.002,1.392 122.002,2.573L122.001,2.573ZM121.655,2.573C121.655,1.204 122.777,0.087 124.162,0.087C125.543,0.087 126.668,1.204 126.668,2.573C126.668,3.943 125.543,5.059 124.162,5.059C122.793,5.064 121.662,3.942 121.655,2.573Z" style="fill:rgb(26,26,26);"/>
            <path d="M123.619,2.73L123.619,4.052L123.206,4.052L123.206,1.124L124.262,1.124C124.759,1.124 125.268,1.279 125.268,1.858C125.279,2.195 125.045,2.494 124.716,2.564L124.716,2.573C125.069,2.656 125.116,2.845 125.162,3.172C125.207,3.464 125.241,3.776 125.348,4.052L124.908,4.052C124.872,3.879 124.824,3.688 124.803,3.512C124.771,3.25 124.771,3.011 124.636,2.862C124.518,2.73 124.353,2.742 124.19,2.73L123.619,2.73ZM123.608,2.382L124.285,2.382C124.739,2.361 124.841,2.157 124.841,1.927C124.841,1.695 124.739,1.491 124.285,1.472L123.608,1.472L123.608,2.382Z" style="fill:rgb(26,26,26);"/>
        </g>
    </g>
</svg>
