<?xml version="1.0" encoding="UTF-8" standalone="no"?>
<!DOCTYPE svg PUBLIC "-//W3C//DTD SVG 1.1//EN" "http://www.w3.org/Graphics/SVG/1.1/DTD/svg11.dtd">
<svg width="100%" height="100%" viewBox="0 0 104 43" version="1.1" xmlns="http://www.w3.org/2000/svg" xmlns:xlink="http://www.w3.org/1999/xlink" xml:space="preserve" xmlns:serif="http://www.serif.com/" style="fill-rule:evenodd;clip-rule:evenodd;stroke-linejoin:round;stroke-miterlimit:2;">
    <g transform="matrix(1,0,0,1,-14.0773,-12.9227)">
        <g transform="matrix(1,0,0,1,14.0773,12.9227)">
            <path id="path7" d="M92.4,0C93.3,0 94.2,0.4 94.8,1C95.5,1.7 95.8,2.5 95.8,3.5C95.8,4.5 95.5,5.3 94.8,6C94.1,6.7 93.3,7 92.3,7C91.3,7 90.5,6.7 89.8,6C89.1,5.3 88.8,4.5 88.8,3.5C88.8,2.5 89.1,1.7 89.8,1C90.7,0.4 91.5,0 92.4,0ZM104,14.1L104,11.9C104,9.9 102.3,8.2 100.3,8.2L84.6,8.2C82.6,8.2 80.9,9.9 80.9,11.9L80.9,20L98.4,20L98.4,21.2L80.9,21.2L80.9,23.4C80.9,25.4 82.6,27.1 84.6,27.1L100.3,27.1C102.3,27.1 104,25.4 104,23.4L104,15.3L86.5,15.3L86.5,14.1L104,14.1Z" style="fill:rgb(26,26,26);fill-rule:nonzero;"/>
            <path id="path9" d="M8.1,8.1C12,8.1 13.3,8.8 13.3,10.4L13.3,12.2L8.1,12.2C5.5,12.2 4.9,13.3 4.9,17.7C4.9,22 5.5,23.2 8.1,23.2L13.3,23.2L13.3,25C13.3,26.6 12,27.3 8.1,27.3C2.9,27.3 0,24.4 0,17.7C0,10.9 2.8,8.1 8.1,8.1ZM7.4,7.2C7,7.2 6.8,7.1 6.5,6.7L4.1,3.6C4,3.5 4,3.3 4,3.2L5.8,3.2C6.2,3.2 6.3,3.3 6.7,3.6L8,4.8L9.2,3.7C9.6,3.3 9.8,3.3 10.1,3.3L12,3.3C12,3.4 12,3.6 11.9,3.7L9.5,6.7C9.2,7.1 9,7.2 8.6,7.2L7.4,7.2ZM14.8,9.9C14.8,8.8 15.3,8.2 16.4,8.2L26.8,8.2L26.8,10.5C26.8,11.6 26.2,12.2 25.1,12.2L19.5,12.2L19.5,15.6L25.7,15.6L25.7,19.4L19.5,19.4L19.5,23.1L26.9,23.1L26.9,25.4C26.9,26.5 26.3,27.1 25.2,27.1L16.4,27.1C15.3,27.1 14.8,26.5 14.8,25.4L14.8,9.9ZM34.8,8.1C38.7,8.1 40.8,8.5 40.8,10.4L40.8,12.3L35.4,12.3C34,12.3 33.5,12.7 33.5,13.5C33.5,15.8 41.7,15.3 41.7,21.7C41.7,24.7 40,27.4 34.6,27.4C31.1,27.4 28.4,26.8 28.4,25.1L28.4,23.2L34.8,23.2C36.1,23.2 36.7,22.8 36.7,21.9C36.7,19.4 28.5,19.9 28.5,13.3C28.5,10.4 30.4,8.1 34.8,8.1ZM48.5,16.9L53.2,9.1C53.6,8.3 53.9,8.2 54.5,8.2L59,8.2C59,8.5 58.9,8.7 58.8,9L53.4,17.3L59.1,26.3C59.2,26.5 59.4,26.8 59.4,27.1L55,27.1C54.1,27.1 53.8,27 53.3,26.2L48.4,18.4L48.4,27L43.7,27L43.7,9.9C43.7,8.8 44.2,8.2 45.3,8.2L48.4,8.2L48.4,16.9L48.5,16.9ZM70,8.2C70.8,8.2 71.2,8.3 71.4,9L75.8,26.5C75.9,26.8 75.9,27 75.9,27.2L72,27.2C71.2,27.2 71,27.1 70.8,26.5L69.9,22.7L65.5,22.7L64.6,26.5C64.5,27.2 64.2,27.2 63.4,27.2L59.6,27.2C59.6,27 59.6,26.8 59.7,26.5L64.1,9C64.3,8.3 64.7,8.2 65.5,8.2L70,8.2ZM66.2,19.1L69.1,19.1L67.7,13L67.6,13L66.2,19.1ZM69.2,6.8C68.8,7.2 68.6,7.2 68.3,7.2L66.5,7.2C66.5,7.1 66.5,6.9 66.6,6.8L69,3.7C69.3,3.3 69.5,3.2 69.9,3.2L71.7,3.2C71.9,3.2 72,3.3 72,3.4C72,3.5 71.9,3.6 71.7,3.9L69.2,6.8ZM2.6,33.3C3.9,33.3 4.8,33.3 4.8,34L4.8,34.4L2.6,34.4C1.9,34.4 1.5,34.7 1.5,35.2C1.5,36.7 5.2,36.3 5.2,38.8C5.2,40 4.4,40.9 2.3,40.9C1.1,40.9 0,40.9 0,40.3L0,39.9L2.5,39.9C3.4,39.9 3.8,39.6 3.8,38.9C3.8,37.5 0.1,37.8 0.1,35.3C0.1,34 1,33.3 2.6,33.3ZM7.7,43L6.3,43L6.3,33.4L7,33.4C7.5,33.4 7.7,33.7 7.7,34L7.7,34.2C8.1,33.7 8.8,33.3 9.6,33.3C11.3,33.3 12.2,34.7 12.2,37.1C12.2,39.4 11.4,40.9 9.6,40.9C8.8,40.9 8.1,40.5 7.7,40L7.7,43ZM9.1,34.4C8.5,34.4 8,34.7 7.6,35L7.6,39.1C8,39.5 8.5,39.7 9.1,39.7C10.3,39.7 10.7,38.8 10.7,37C10.7,35.4 10.2,34.4 9.1,34.4ZM13,37.1C13,35 13.7,33.3 16,33.3C18.3,33.3 19,35 19,37.1C19,39.2 18.3,40.9 16,40.9C13.7,40.9 13,39.2 13,37.1ZM17.6,37.1C17.6,35.3 17.2,34.3 16,34.3C14.7,34.3 14.4,35.3 14.4,37.1C14.4,38.9 14.8,39.9 16,39.9C17.3,39.9 17.6,38.9 17.6,37.1ZM21.7,32.7C21.5,32.7 21.4,32.7 21.3,32.4L20.1,31C20,31 20,30.9 20,30.9L20.6,30.9C20.8,30.9 20.9,30.9 21.1,31.1L21.9,31.8L22.7,31.1C22.9,30.9 23,30.9 23.2,30.9L23.8,30.9C23.8,31 23.8,31 23.7,31.1L22.5,32.5C22.3,32.7 22.2,32.8 22.1,32.8L21.7,32.8L21.7,32.7ZM20.3,40.8L20.3,33.4L21,33.4C21.4,33.4 21.6,33.8 21.7,34.3C22.3,33.5 23,33.3 23.6,33.3C23.9,33.3 24.1,33.4 24.1,33.7L24.1,34.6L23.7,34.6C22.6,34.6 22.1,34.9 21.6,35.2L21.6,40.7L20.3,40.7L20.3,40.8ZM26,32.6L24.7,32.6L24.7,31.8C24.7,31.4 24.9,31.1 25.3,31.1L26,31.1L26,32.6ZM24.7,33.4L25.4,33.4C25.9,33.4 26,33.7 26,34.1L26,40.8L24.7,40.8L24.7,33.4ZM29.2,33.4L30.9,33.4L30.9,34.4L29.3,34.4L29.3,38.9C29.3,39.5 29.4,39.8 29.8,39.8L30.9,39.8L30.9,40.1C30.9,40.7 30.4,40.8 29.6,40.8C28.1,40.8 27.9,40 27.9,38.9L27.9,34.4L27,34.4L27,33.7L27.9,33.4L28.4,32.2C28.5,31.9 28.7,31.8 28.9,31.8L29.2,31.8L29.2,33.4ZM36.7,39.8L36.7,40.1C36.7,40.7 35.9,40.8 34.3,40.8C32,40.8 31.3,39.1 31.3,37C31.3,34.9 32.1,33.2 34.3,33.2C36.1,33.2 37.1,34.3 37.1,36C37.1,36.3 37.1,36.7 37,37.4L32.7,37.4C32.7,39.1 33.3,39.8 34.5,39.8L36.7,39.8ZM35.7,36.5L35.7,35.9C35.7,35.2 35.4,34.3 34.3,34.3C33.3,34.3 32.7,35 32.7,36.5L35.7,36.5ZM39.6,40.8L38.3,40.8L38.3,31.7C38.3,31.3 38.5,31 38.9,31L39.6,31L39.6,40.8ZM41.2,41L41.2,33.4L41.9,33.4C42.4,33.4 42.6,33.7 42.6,34L42.6,34.3C43.2,33.6 44,33.4 44.7,33.4C46.1,33.4 46.8,34.3 46.8,35.7L46.8,40.9L45.5,40.9L45.5,35.8C45.5,34.9 45,34.6 44.2,34.6C43.6,34.6 43.1,34.9 42.6,35.2L42.6,41L41.2,41ZM52.9,40.8C52.4,40.8 52.2,40.5 52.2,40.2L52.2,40C51.6,40.7 50.8,40.9 50.1,40.9C48.8,40.9 47.9,40.1 47.9,38.8C47.9,36.9 49.9,36.5 52.1,36.4L52.1,35.7C52.1,34.7 51.4,34.4 50.5,34.4L48.4,34.4L48.4,34C48.4,33.3 49.2,33.3 50.7,33.3C52.4,33.3 53.4,34 53.4,35.6L53.4,40.8L52.9,40.8ZM52.3,37.2C50.3,37.2 49.5,37.7 49.5,38.6C49.5,39.4 50.1,39.7 50.8,39.7C51.4,39.7 51.9,39.4 52.3,39.1L52.3,37.2Z" style="fill:rgb(26,26,26);fill-rule:nonzero;"/>
        </g>
    </g>
</svg>
