<?xml version="1.0" standalone="no"?>
<!DOCTYPE svg PUBLIC "-//W3C//DTD SVG 20010904//EN"
 "http://www.w3.org/TR/2001/REC-SVG-20010904/DTD/svg10.dtd">
<svg version="1.0" xmlns="http://www.w3.org/2000/svg"
 width="880.000000pt" height="427.000000pt" viewBox="0 0 880.000000 427.000000"
 preserveAspectRatio="xMidYMid meet">

<g transform="translate(0.000000,427.000000) scale(0.100000,-0.100000)"
fill="#000000" stroke="none">
<path d="M2505 4229 c-186 -94 -406 -287 -626 -550 l-39 -47 58 -43 c140 -105
268 -265 347 -432 305 -646 -99 -1398 -847 -1577 -172 -41 -404 -47 -565 -14
-30 6 -33 4 -33 -17 0 -13 -11 -80 -25 -149 -13 -69 -25 -131 -25 -137 0 -10
207 -13 1004 -13 l1004 0 -5 383 c-11 743 49 1124 237 1512 164 340 407 608
883 979 97 76 177 140 177 142 0 2 -330 4 -732 4 l-733 0 -80 -41z"/>
<path d="M3937 3938 c21 -29 109 -149 195 -265 l158 -213 158 1 157 0 170 226
c93 124 182 243 198 264 l29 39 -187 -2 -188 -3 -85 -148 c-73 -126 -88 -146
-98 -133 -6 9 -47 77 -90 151 l-78 135 -189 0 -189 0 39 -52z"/>
<path d="M875 3655 c-115 -21 -209 -53 -323 -110 -260 -130 -454 -362 -524
-625 -30 -114 -32 -310 -4 -420 88 -346 362 -618 727 -724 282 -81 595 -54
850 74 114 57 195 114 285 204 183 182 274 395 274 642 0 62 -7 144 -15 183
-82 391 -424 700 -859 776 -106 18 -312 18 -411 0z"/>
<path d="M4265 3334 c-303 -31 -517 -123 -686 -295 -178 -180 -251 -397 -251
-739 -1 -257 30 -415 113 -587 115 -236 316 -374 631 -433 29 -6 113 -15 187
-20 243 -17 513 14 701 82 l65 23 3 194 2 193 -62 -44 c-197 -140 -357 -194
-499 -168 -204 37 -346 201 -399 460 -29 139 -32 401 -6 534 68 353 253 522
528 484 101 -13 204 -59 331 -145 l107 -73 0 218 0 219 -77 26 c-155 54 -243
68 -453 71 -107 2 -213 2 -235 0z"/>
<path d="M5305 2281 l0 -1021 361 0 362 0 -14 38 c-10 28 -13 118 -14 370 l0
332 133 0 c311 0 492 58 639 203 106 106 158 258 158 462 0 128 -21 238 -62
325 -41 87 -149 194 -238 237 -140 68 -126 67 -755 71 l-570 3 0 -1020z m807
729 c79 -22 115 -107 125 -290 7 -138 -9 -277 -38 -337 -26 -53 -62 -74 -137
-76 l-57 -2 -3 345 c-1 190 0 351 3 357 5 16 56 17 107 3z"/>
<path d="M7147 3273 c10 -36 10 -1949 0 -1985 l-7 -28 364 0 364 0 -14 48
c-11 38 -14 116 -12 367 l3 320 180 6 c261 10 377 42 521 144 155 111 225 273
225 520 -1 222 -48 353 -172 469 -71 68 -154 114 -254 143 -53 15 -127 18
-633 21 l-573 3 8 -28z m802 -263 c49 -14 89 -57 107 -115 21 -67 30 -308 15
-403 -21 -137 -62 -182 -169 -185 l-57 -2 -3 345 c-1 190 0 351 3 357 5 15 57
17 104 3z"/>
<path d="M40 865 l0 -65 4380 0 4380 0 0 65 0 65 -4380 0 -4380 0 0 -65z"/>
<path d="M3475 465 c-76 -27 -111 -100 -83 -173 17 -46 55 -68 143 -82 38 -6
78 -18 87 -27 20 -18 23 -54 8 -83 -23 -42 -134 -46 -194 -7 -22 15 -25 14
-45 -7 -11 -12 -21 -25 -21 -29 0 -15 88 -50 139 -54 78 -7 133 10 170 52 26
30 31 44 31 85 0 82 -44 119 -164 135 -50 7 -96 40 -96 69 0 8 11 27 24 42 20
24 31 28 73 28 32 0 61 -7 78 -18 27 -18 28 -17 49 4 l21 21 -23 19 c-48 39
-128 49 -197 25z"/>
<path d="M5763 469 c-18 -5 -48 -25 -67 -44 -42 -41 -49 -80 -44 -221 3 -85 6
-104 27 -133 47 -65 147 -88 227 -52 54 24 58 34 31 59 l-23 22 -42 -21 c-36
-18 -46 -19 -77 -9 -20 6 -42 22 -50 33 -37 57 -30 243 10 283 29 29 98 33
134 8 22 -16 24 -15 48 8 l25 25 -35 22 c-41 25 -118 35 -164 20z"/>
<path d="M6748 470 c-88 -27 -118 -85 -118 -233 0 -87 3 -110 23 -147 42 -83
148 -113 237 -68 67 35 84 65 89 159 l3 79 -86 0 -86 0 0 -30 c0 -29 1 -30 51
-30 l52 0 -6 -41 c-10 -74 -74 -113 -140 -85 -42 17 -52 34 -62 104 -11 85 3
180 30 208 31 31 94 32 140 4 l32 -20 22 23 c20 23 21 24 3 40 -44 40 -122 56
-184 37z"/>
<path d="M7637 466 c-89 -32 -107 -70 -107 -229 0 -112 2 -127 23 -158 68
-103 240 -101 302 4 20 34 31 159 21 241 -9 67 -40 110 -101 137 -47 22 -86
23 -138 5z m137 -87 c24 -29 26 -37 26 -135 0 -120 -12 -156 -60 -173 -41 -14
-83 -4 -112 26 -21 23 -23 33 -23 145 0 119 0 120 28 144 20 17 40 24 72 24
36 0 47 -5 69 -31z"/>
<path d="M46 448 c4 -13 39 -117 79 -233 72 -208 73 -210 101 -210 29 0 30 2
106 220 42 121 77 226 77 233 1 9 -10 12 -36 10 l-36 -3 -55 -165 -55 -165
-56 168 -56 167 -38 0 c-35 0 -38 -2 -31 -22z"/>
<path d="M490 235 l0 -235 35 0 35 0 0 235 0 235 -35 0 -35 0 0 -235z"/>
<path d="M692 238 l3 -233 153 -3 152 -3 0 36 0 35 -115 0 -115 0 0 70 0 70
100 0 100 0 0 30 0 30 -100 0 -100 0 0 70 0 70 115 0 115 0 0 30 0 30 -155 0
-155 0 2 -232z"/>
<path d="M1110 235 l0 -235 35 0 35 0 2 166 3 166 113 -167 c110 -161 115
-166 145 -163 l32 3 3 233 2 232 -40 0 -39 0 -3 -157 -3 -158 -108 158 c-104
152 -109 157 -142 157 l-35 0 0 -235z"/>
<path d="M1610 235 l0 -235 35 0 35 0 2 166 3 165 111 -163 c107 -157 112
-163 145 -163 l34 0 3 233 2 232 -40 0 -40 0 -2 -159 -3 -159 -108 159 c-104
154 -109 159 -143 159 l-34 0 0 -235z"/>
<path d="M2141 247 c-47 -122 -86 -228 -89 -234 -3 -9 8 -13 32 -13 35 0 38 3
58 50 l21 51 96 -3 95 -3 17 -45 c15 -41 20 -45 53 -48 20 -2 36 1 36 7 0 8
-107 295 -165 444 -5 11 -18 17 -39 17 l-31 0 -84 -223z m158 10 c17 -48 31
-90 31 -93 0 -2 -33 -4 -74 -4 l-73 0 36 100 c20 54 39 96 42 92 3 -4 20 -47
38 -95z"/>
<path d="M2710 234 l0 -235 33 3 32 3 3 233 2 232 -35 0 -35 0 0 -236z"/>
<path d="M2910 236 l0 -236 35 0 35 0 2 167 3 166 114 -167 c110 -160 116
-167 145 -164 l31 3 3 233 2 232 -40 0 -39 0 -3 -156 -3 -157 -106 154 c-101
148 -106 154 -142 157 l-37 3 0 -235z"/>
<path d="M3812 286 c3 -168 5 -187 24 -213 27 -38 99 -73 149 -73 50 0 122 35
149 73 19 26 21 45 24 213 l3 184 -35 0 -36 0 0 -155 c0 -182 -9 -217 -64
-240 -44 -19 -88 -10 -118 22 -22 23 -23 32 -26 199 l-3 174 -35 0 -35 0 3
-184z"/>
<path d="M4282 238 l3 -233 35 0 35 0 3 98 3 97 44 0 44 0 53 -98 c52 -94 55
-97 91 -100 24 -2 37 1 37 9 0 6 -23 53 -50 105 l-51 93 30 16 c40 20 61 62
61 120 0 38 -6 52 -34 83 l-34 37 -136 3 -136 4 2 -234z m242 151 c31 -25 34
-66 7 -100 -16 -20 -30 -24 -95 -27 l-76 -4 0 76 0 76 69 0 c54 0 74 -4 95
-21z"/>
<path d="M4770 248 c-47 -122 -87 -228 -88 -235 -3 -11 6 -14 34 -11 36 3 40
7 55 48 l17 45 98 0 98 0 17 -45 c15 -41 20 -45 53 -48 21 -2 36 1 36 8 0 5
-30 88 -66 183 -36 94 -75 196 -86 225 -18 48 -22 52 -51 52 l-32 0 -85 -222z
m159 8 c17 -49 30 -91 27 -93 -2 -2 -35 -3 -73 -1 l-70 3 36 97 c20 53 39 94
42 90 3 -4 20 -47 38 -96z"/>
<path d="M5170 235 l0 -235 35 0 35 0 2 166 3 165 113 -166 c110 -161 114
-166 145 -163 l32 3 3 233 2 232 -40 0 -40 0 0 -162 0 -162 -111 162 c-106
157 -111 162 -145 162 l-34 0 0 -235z"/>
<path d="M6062 238 l3 -233 155 0 155 0 0 30 0 30 -117 3 -118 3 0 69 0 70
100 0 100 0 0 30 0 30 -100 0 -100 0 0 70 0 70 120 0 120 0 0 30 0 30 -160 0
-160 0 2 -232z"/>
<path d="M7092 238 l3 -233 35 0 35 0 3 98 3 97 44 0 44 0 52 -100 52 -100 39
0 c21 0 38 4 38 9 0 6 -22 51 -50 102 -27 51 -50 95 -50 98 0 3 12 12 28 18
36 17 62 62 62 110 0 50 -18 82 -59 110 -31 21 -45 23 -158 23 l-123 0 2 -232z
m243 147 c39 -38 32 -86 -16 -110 -29 -15 -145 -21 -151 -7 -2 4 -2 37 0 75
l4 67 69 0 c61 0 73 -3 94 -25z"/>
<path d="M7980 302 c0 -154 2 -171 23 -212 31 -64 90 -93 171 -87 65 6 98 25
134 77 21 31 22 43 22 211 l0 179 -35 0 -35 0 0 -169 c0 -166 -1 -170 -25
-199 -13 -16 -38 -32 -55 -36 -38 -7 -94 15 -109 42 -7 13 -11 88 -11 191 l0
171 -40 0 -40 0 0 -168z"/>
<path d="M8460 236 l0 -236 35 0 35 0 0 95 0 95 75 0 c116 0 176 36 191 116 9
48 -2 79 -41 122 l-33 37 -131 3 -131 4 0 -236z m223 163 c30 -16 37 -28 37
-70 0 -55 -27 -73 -116 -77 l-74 -4 0 81 0 81 66 0 c36 0 75 -5 87 -11z"/>
</g>
</svg>
