<?xml version="1.0" encoding="UTF-8"?>
<svg enable-background="new -131.1 224.6 158.6 94.6" version="1.1" viewBox="-131.1 224.6 624 94.6" xml:space="preserve" xmlns="http://www.w3.org/2000/svg">
<style type="text/css">
	.st0{filter:url(#b);}
	.st1{fill:#FFFFFF;}
	.st2{mask:url(#a);fill:#000000;}
	.st3{fill:#000000;}
</style>
<defs>
	<filter id="b" x="-131.1" y="224.6" width="158.6" height="94.6" filterUnits="userSpaceOnUse">
		<feColorMatrix values="1 0 0 0 0  0 1 0 0 0  0 0 1 0 0  0 0 0 1 0"/>
	</filter>
</defs>
<mask id="a" x="-131.1" y="224.6" width="158.6" height="94.6" maskUnits="userSpaceOnUse">
	<g class="st0">
		<polygon class="st1" points="-131.1 224.6 27.5 224.6 27.5 319.3 -131.1 319.3"/>
	</g>
</mask>
<path class="st2" d="m-11.4 305.2c0.3-0.8 1-1.4 1.8-1.5l8.8-2-0.8-7.9v-0.2c-0.2-1-0.9-4.2-4.9-4.5-15.7-1.3-19.3-3.6-23.1-6.1l-0.2-0.2c-4.1-2.7-8.1-2.7-8.5-2.7-4.4 0-10.1 1.8-10.5 1.9-1.4 0.4-2.6 0.8-3.8 1.2-4.9 1.6-9.1 3-16.3 2.8h-1.3l-0.3 1.3c-0.3 1-2.2 8.9-0.3 14-1.7 1.4-1.7 3-1.7 3.2 0.1 1.7-0.3 2.2-0.5 2.3-0.8 0.9-3.6 1-5.9 1h-1.1l-0.5 0.7c-1.4 2-4.5 2.4-6.4 1.9-0.9-2.7-0.9-4.7-0.1-5.9 1-1.4 3.1-1.6 3.9-1.6h0.5c2.1 0 3.8-1.7 3.8-3.8v-14.2c0.6-1 1.1-2.1 1.6-3.4 3.4-0.6 6.1-3.5 6.1-7.1 0-1.4-0.4-2.7-1.1-3.8 3.2-1.5 5.9-4.7 5.9-8.8s-2.1-6-4-7.3c0.5-1.6 1.5-4.4 2.1-7.2l2.8-10c1.2-3.9 4.4-6.4 8.2-6.4h48.5c-2.1 2.9-5 4.3-9 4.3h-29.3l-1.5 3.3h26.3c-2.1 3.3-5.1 4.9-9.4 4.9h-19.1l-1.5 3.3h17c-2.1 3.2-5 4.7-9.3 4.7h-10.4l-1.5 3.3h10.9c0.1 0.1 0.4 0.6 0.4 2 0 2.1-1.8 3.9-4 3.9-0.7 0-1.4-0.2-2.5-0.6-0.5-0.2-1-0.4-1.4-0.6l-2.5 2.3c0.5 0.2 0.9 0.4 1.4 0.6 2.2 1 3.4 1.5 5.1 1.5 2 0 3.8-0.8 5.1-2.2 1.9 0.1 4.9 0.4 7.8 0.6 3.5 0.3 6.8 0.6 8.5 0.7 0.8 0 1.6 0.1 2.4 0.1 1.4 0.1 2.8 0.1 4.1 0.2 6.6 10.9 10 12.3 22.8 13.8 0.9 1.7 1.8 3.4 2.5 5.2v21.1 0.1c0.1 1 0.1 1.3-0.1 1.5-0.4 0.6-2.4 1.4-3.1 1.7l-10.8 4.1c-1.6-2-2.2-4-1.6-5.5zm-2.3 5.7h-21.3l9.1-9.8c1.8-1.9 2.4-4.2 1.7-6.5-0.4-1.3-1.7-3.8-2.9-6.4 3.6 1.7 9.1 3.2 20.3 4.2 1.3 0.1 1.7 0.6 2 1.8l0.5 4.9-5.9 1.3c-2 0.4-3.5 1.7-4.2 3.6-0.9 2.1-0.6 4.5 0.7 6.9zm-38.5 0c-0.6-2.3-0.4-4.2 0.7-5.4 1-1.2 2.6-1.5 3.7-1.4l6.2 1.2h0.2 0.9l4.4-4.8c0.8-0.9 3-3.6 0.7-7l-5.9-9.8c1-0.1 2-0.2 2.9-0.2 0 0 3 0 6.1 1.8 0.4 0.9 1 2.2 1.7 3.5 1.2 2.5 2.8 5.7 3.2 7 0.1 0.4 0.6 1.6-0.9 3.2l-11.3 12.1h-12.6zm-1.8-7.6c-1.2 1.4-2.3 3.8-1.6 7.6h-20.1c2.2-0.2 3.7-0.7 4.8-1.9 1.3-1.4 1.4-3.3 1.4-4.6 0-0.1 0.3-0.6 1.2-1l1.7-0.8-1-1.6c-1.7-2.7-1-8.5-0.3-11.7h0.2c6.8 0 11.2-1.4 15.9-2.9 1.2-0.4 2.5-0.8 3.8-1.2 0 0 1.4-0.4 3.2-0.9l6.6 10.9 0.1 0.1c0.7 0.9 0.7 1.6-0.5 3l-3.3 3.6-5.4-1c-2.5-0.4-5.1 0.5-6.7 2.4zm-35.7-0.7c-1.4 2-1.6 4.8-0.5 8.3h-3.4v-26.8c1.2-0.2 2.5-0.5 3.7-1.1-0.1 1.2-0.2 2.1-0.4 3.3-0.1 0.3-0.1 0.6-0.2 0.9l-0.3 1.9h1.9c2.9 0 5.1-0.5 6.7-1.3v11.2c0 0.3-0.2 0.5-0.5 0.5h-0.3c-2.9 0.1-5.3 1.2-6.7 3.1zm-7.2 5.4-15.5-4.1-15.5 4.1v-28l15.5-4.1 15.5 4.1v28zm-28.9 2.9 13.5-3.5 13.5 3.5h-27zm5.4-41.1c0.6-1 2.1-1.9 4-1.5l1.4 0.2 0.4-1.4c0.1-0.4 0.3-0.6 0.5-0.8 0.4-0.4 1-0.6 1.7-0.5 2 0.1 4.5 1.5 6.5 3.6 0.7 0.8 1.4 1.7 2 2.6 0.1 0.2 0.2 0.4 0.4 0.6 0.2 0.3 0.3 0.5 0.3 0.5 0.1 0.1 1.1 1.6 1 1.7 0.7-1 1.4-1.9 2-2.9 0 0 0-0.1-0.1-0.2-0.2-0.3-0.5-0.9-0.7-1.2-0.1-0.1-0.1-0.2-0.2-0.2l-0.2-0.4c-0.2-0.4-0.6-0.9-0.7-1.2l4.3-6.9c1.1 0.2 2 0.3 2.4 0.3h0.1c6 0 12.3-3.5 12.3-9.4v-0.1c-0.1-1.6-0.4-3.1-0.6-4.4-0.2-0.8-0.3-1.6-0.3-2 0-0.6 0.9-1.4 2.2-1.4h2l-0.9-5.1c2.7-2 4.4-5.4 4.4-8.6 3 2.3 5 6.3 5.4 10.5 0.1 1.2-0.1 3-0.5 4.8l-0.2 0.8c-0.7 3-1.7 6-2.3 7.4l-0.5 1.3 1.2 0.7c2.2 1.3 3.6 2.2 3.6 5.1 0 3.4-3 5.9-5.9 6.5l-4 0.7 3.3 2.3c1.1 0.7 1.7 1.9 1.7 3.2 0 2.1-1.8 3.8-4 3.8h-1.3l-0.4 1.2c-1.2 4-2.6 6-6.9 6.4 0.2-1.2 0.3-2.4 0.3-4.1v-1.8l-0.2-3.8-2.6 2.7c-0.9 0.9-2.5 1.6-4.2 2v-3.3l-18.8-4.9-6.7 1.8c-1.3-1.6-1.6-4.1-1.2-4.6zm20.2-12.2c0.1-0.2 0.2-0.4 0.4-0.4l2.8 0.1c3.4-0.1 7-1.6 7.3-5.2 0-2.5-1.7-4.8-4.2-4.8-1.3 0-2.8 0.9-4.4 2-1.1 0.7-1.9 1.3-2.6 1.3-0.4 0-0.8-0.3-0.8-0.5v-0.1l1.8-2.4-1.6-1.1c-0.3-0.2-0.8-0.6-0.9-0.9 0-0.1 0.2-0.4 0.2-0.5 0.6-0.8 1.4-1.7 2.1-2.8 0.5-0.7 0.7-1 1.5-1s1.4 0.6 1.4 1.4c0 0.5 0.5 0.9 1.2 0.9s1-0.5 1.4-0.9c0 0 1.6-1.5 0.8-2.2-1-0.8-4.9 0.8-3.8-2.8l0.3-0.5c0.4-0.6 2.3-2 6.1-2 0.7 0 1.5 0.1 2.3 0.2l0.6 0.1 8.2-5.1c0.1 0.2 0.1 0.3 0.1 0.3 0.4 2.5-1.1 5.5-3.6 6.9l-1 0.6 0.6 3.7c-2.1 0.6-3.6 2.4-3.6 4.4 0 0.7 0.2 1.5 0.4 2.6 0.2 1.2 0.5 2.5 0.5 3.8 0 3.9-5.3 6.4-9.8 6.3h-0.1c-0.2 0-3-0.2-3.7-0.8 0.2-0.2 0.1-0.5 0.1-0.6zm6.8-25.9c0.5-0.7 1.4-1.4 2.4-2.1 0.8-0.5 1.8-1 2.8-1.3 1.6-0.5 3.4-0.5 5.3-0.1l-5.8 3.6c-0.7-0.1-1.4-0.1-2.1-0.1-1 0-1.9 0.1-2.7 0.2 0-0.1 0.1-0.1 0.1-0.2zm88.4-0.9h21.9c-2.1 2.9-5 4.3-9 4.3h-16.2c1.3-1.1 2.4-2.5 3.3-4.3zm-1.1 12.5h-16.1c1.4-1.3 2.6-2.9 3.6-4.9h22c-2.2 3.4-5.2 4.9-9.5 4.9zm-12.9 8.1h-16.1c1.4-1.2 2.5-2.8 3.5-4.7h21.9c-2.1 3.1-5.1 4.7-9.3 4.7zm3.7 12.4c5.1 0.9 9.3 3.2 12.4 6.9 0.7 0.8 1.3 1.7 2 2.6-8.6-1.1-11.6-2.4-16.4-9.8 0.7 0.1 1.3 0.2 2 0.3zm34.4 35.8c0.3 0.5 0.6 1 0.8 1.5 0.3 0.6 0.6 1.1 1 1.7-2.5-0.2-4.4-1.6-6.1-4.2 1.6-0.6 3.5-0.2 4.3 1zm-20.5 11.3 3.4-1.3c4.8-2 5.4-3.2 5.2-6.4v-12.9c3.6 9.3 7 15.8 14.1 15.8 1 0 2-0.1 3.1-0.4l2.7-0.6-1.9-2.1c-1.2-1.3-1.8-2.4-2.5-3.6-0.3-0.5-0.6-1-0.9-1.6-1.6-2.7-5.6-3.6-8.7-2.2-1.4-2.9-2.9-6.6-4.6-11.3l-0.4-0.9c-0.3-0.7-0.6-1.4-0.9-2.1v-0.1c-1.1-2.5-2.2-4.9-3.6-7.2-1.2-2.1-2.5-3.9-3.9-5.5-3.7-4.4-8.5-7.1-14.4-8-4.1-0.7-7-0.8-10.6-1-0.8 0-1.5-0.1-2.4-0.1-1.7-0.1-5.1-0.4-8.4-0.7-2.2-0.2-4.5-0.4-6.3-0.5 0.1-0.5 0.2-1 0.2-1.6 0-0.7-0.1-1.4-0.2-2h23.4c6.1 0 10.4-2.7 13-8 6-0.1 10.4-2.8 12.9-8.2h0.8c6.3 0 10.7-2.9 13.3-8.6l1.1-2.3h-79.5c-5.2 0-9.7 3.4-11.3 8.8l-0.1 0.2c-1.4-3.8-3.8-7-7-9-4.4-2.7-9.4-3.5-13.4-2.4-1.3 0.4-2.6 1-3.7 1.7-0.9 0.6-2.2 1.6-3.1 2.8-1 1.3-2 2.9-2.7 4.4-0.5 0.4-0.8 0.8-1.1 1.1l-0.9 1.8-0.1 0.1c-1.1 2.6-2.5 4.4-3.6 5.7s-1.1 2.5-1 3.2c0.2 0.9 0.6 1.6 1.1 2.1-0.3 0.6-0.5 1.2-0.5 1.8 0 2.1 1.8 3.7 4.1 3.7 1.6 0 3-0.8 4.4-1.7 0.6-0.4 2.1-1.4 2.6-1.5 0.6 0 1.2 0.6 1.2 1.2 0 1.7-2.2 2.7-3.8 2.8l-3.2 0.3c-2.3 0.2-3.4 1.5-3.4 2.6s0.5 1.7 0.9 2.1l0.2 0.2 0.8 0.7-3.4 5.6c-2.4-2.3-5.3-3.7-7.8-3.8-1.6-0.1-3.1 0.4-4.1 1.4-0.3 0.3-0.6 0.6-0.8 1h-0.1c-2.7 0-4.9 1.5-5.9 3.1-1.2 1.8-0.7 4.9 0.7 7.3l-8.6 2.3v41.8h158.5v-8.3h-28.9z"/>
<path class="st3" d="m-100.3 284.4-10.3-2.7v3.4l10.3 2.7v-3.4zm-24.1 3.4 10.3-2.7v-3.4l-10.3 2.7v3.4zm0 6.9 10.3-2.7v-3.4l-10.3 2.7v3.4zm24.1-3.5-10.3-2.7v3.4l10.3 2.7v-3.4zm0 6.9-10.3-2.7v3.4l10.3 2.7v-3.4zm-24.1 3.5 10.3-2.7v-3.4l-10.3 2.7v3.4z"/>
<path class="st3" d="m61.5 272.5c-2.2 0.7-4.5 1.3-6.7 2.1-0.8 0.3-1.6 0.3-2.4 0-2.3-0.7-4.5-1.4-6.8-2.1-0.4-0.1-0.9-0.3-1 0.4 0.9 0.7 1.8 1.3 2.6 1.9 2 1.4 3.9 2.9 5.9 4.2 0.2 0.2 0.7 0.2 0.9 0 2.9-2 5.7-4.1 8.6-6.2-0.1-0.7-0.6-0.4-1.1-0.3m22.4-9.1h-3.4v-16.5h2c3.3 0.1 5.2 2 5.9 7.8h1.2v-17.1h-1.2c0 0.1-0.2 7.4-6 7.2h-1.8v-15.5c9.6 0 13.1-0.5 14.8 11.4h1v-13.2h-26.1v1.8h4.5v34h-5v1.8h26.9v-13.9h-1.3c-1.5 10.6-4.1 12.2-11.5 12.2m-30.6 2.1c3.7 0 6.3-1.9 7.7-4.1l4.7 3.7v-18h4v-1.7h-14.7v1.7h5v12.2c-0.9 3.1-5.4 4.4-6.7 4.4-9.4 0-8.7-13.9-8.7-17.6 0-3.4-0.3-17.7 8.7-17.7 6.4 0 9.8 6.4 11.1 12.2h1v-13.7c0-0.1-4.4 3.2-4.4 3.1 0.1 0-2-3-7.7-3-11.1 0-15.2 11.2-15.1 19 0 7.3 3.3 19.5 15.1 19.5m124.3-20.4h-6v-15.8h7.7c4.5 0.7 4.7 6 4.7 7.7 0 4.1-1.7 8.1-6.4 8.1zm26.3-9.8 5.7 16.3h-11.1l5.4-16.3zm-4.4 28c-0.5 0-3.8 0.1-4-2.2-0.1-1.7 2.2-7.8 2.2-7.8h12.3s3.8 10 3.9 10h-4.3v1.8h33.7v-13.9h-1.4c-1.3 10.5-4 12.1-11.4 12.1h-0.4v-34h4.7v-1.8h-15.5v1.8h4.7v34h-3.7l-13.8-36.9h-2s-11.4 33.5-11.4 33.6c0-0.1-0.9 2.9-2.8 3.2-1.7 0.1-1.6-0.8-1.6-1.2v-6.5c0-1.7-0.1-5.5-1.9-7.3-1.9-2-5.3-2.1-5.2-2.2 0 0 8.5-1.8 8.5-9.9 0-5.7-3.9-8.5-10.5-8.8h-18.6v1.8h4.8v34h-4.8v1.8h15.2v-1.8h-4.8v-16.1h6.3c11 0.9-1.9 18.2 12.5 18.2h9.1v-1.9zm-94.5-31.1v27.8c0 2.7-4 3.7-5.7 3.7v1.3h13.1v-1.3c-1.7 0-5.7-1-5.7-3.7v-24.5c7.1 10.2 20.4 29.6 20.5 29.6h0.7v-32.9c0.2-2.8 3.4-2.9 4.7-2.9h4.4v34.1h-5v1.8h26.9v-13.9h-1.3c-1.3 10.5-4 12.1-11.4 12.1h-3.4v-16.5h2c3.3 0.1 5.2 2 5.9 7.8h1.2v-17.1h-1.2c0 0.1-0.2 7.4-6 7.2h-1.8v-15.5c9.6 0 13.1-0.5 14.8 11.4h1v-13.2h-38.1v1.8h1c1.3 0 4.5 0.1 4.7 2.9v21.8l-17.8-26.5h-9.7v1.8h1.6c1.8 0 4.5 0.1 4.6 2.9m155.2 31.1h-4.8v-34h4.8v-1.8h-15.2v1.8h4.8v34h-4.8v1.8h15.2v-1.8zm44.6 15.7c0.2 0.2 0.7 0.2 0.9 0l8.4-6c-0.2-0.8-0.7-0.5-1.1-0.4-2.2 0.7-4.4 1.3-6.6 2-0.8 0.3-1.6 0.3-2.4 0-2.2-0.7-4.4-1.4-6.7-2.1-0.4-0.1-0.9-0.3-1 0.4 0.9 0.7 1.7 1.2 2.6 1.9 2 1.4 3.9 2.8 5.9 4.2m26.7 0c0.2 0.2 0.7 0.2 0.9 0l8.4-6c-0.2-0.8-0.7-0.5-1.1-0.4-2.2 0.7-4.4 1.3-6.6 2-0.8 0.3-1.6 0.3-2.4 0-2.2-0.7-4.4-1.4-6.7-2.1-0.4-0.1-0.9-0.3-1 0.4 0.9 0.7 1.7 1.2 2.6 1.9 2.1 1.4 4 2.8 5.9 4.2m-268.5 31.7c-0.4 1-0.9 1.9-1.4 2.7s-1.1 1.4-1.7 2c-0.6 0.5-1.2 1-1.8 1.3-1.4 0.8-3 1.2-4.6 1.3h-0.2c-0.2 0-0.5 0-1-0.1s-1.1-0.3-1.8-0.7-1.3-0.9-2-1.6-1.4-1.7-1.9-3c-0.6-1.3-1.1-2.9-1.4-4.9-0.4-2-0.6-4.4-0.6-7.2 0-2.9 0.2-5.3 0.6-7.3s0.9-3.6 1.5-5c0.6-1.3 1.3-2.4 2-3.1s1.4-1.3 2.1-1.6c0.7-0.4 1.2-0.6 1.7-0.6 0.5-0.1 0.8-0.1 1-0.1h0.1c1.3 0 2.5 0.2 3.5 0.5s1.9 0.8 2.6 1.3c0.7 0.6 1.4 1.2 1.9 1.9s0.9 1.5 1.3 2.2c0.8 1.8 1.3 3.7 1.4 6h1.1v-13.5l-4.2 3.2c-0.4-0.7-1-1.2-1.7-1.6s-1.4-0.7-2.2-0.9c-0.7-0.2-1.4-0.3-2-0.4s-1.1-0.1-1.4-0.1h-0.4c-0.1 0-0.6 0-1.4 0.1s-1.8 0.3-2.9 0.7-2.3 1-3.6 1.7c-1.3 0.8-2.5 1.9-3.5 3.3-1.1 1.4-2 3.2-2.7 5.4s-1.1 4.8-1.1 7.9c0.1 3.5 0.8 6.7 1.9 9.5 0.5 1.2 1.1 2.3 1.8 3.5 0.7 1.1 1.6 2.2 2.7 3.1s2.3 1.6 3.7 2.2 3.1 0.8 5 0.8c1.4 0 2.6-0.2 3.7-0.5 1.1-0.4 2-0.8 2.8-1.4s1.5-1.3 2.1-2 1.1-1.5 1.5-2.3c1-1.8 1.6-3.9 1.9-6.2h-1.5c-0.2 1.3-0.5 2.5-0.9 3.5m28.6 1.8c-0.6 1.6-1.3 2.7-2 3.4-0.9 0.9-1.9 1.3-3 1.5h-9.4v-16.4h3c1.2 0.2 2.1 0.7 2.7 1.5s1.1 1.7 1.4 2.6c0.4 1 0.6 2.2 0.7 3.5h0.8v-16.6h-0.8c-0.1 1.2-0.4 2.3-0.8 3.4-0.4 0.9-0.9 1.7-1.5 2.5-0.7 0.8-1.6 1.2-2.7 1.4h-2.8v-15.8h8.7c1.1 0.1 2.1 0.6 3 1.5 0.7 0.7 1.4 1.9 2 3.4 0.6 1.6 0.9 3.8 0.9 6.6h0.7v-13.3h-25.7v1.8h4.6v34h-4.6v1.8h26.8v-13.3h-1.1c0 2.7-0.3 5-0.9 6.5m28.4-6c0-0.4-0.1-1-0.2-1.9s-0.5-1.9-1-3c-0.6-1.1-1.4-2.1-2.6-3.1s-2.8-1.8-4.8-2.3l-7.1-1.8c-0.9-0.3-1.7-0.7-2.4-1.2-0.6-0.4-1.2-1-1.7-1.6-0.5-0.7-0.8-1.5-0.8-2.5 0.1-1.2 0.5-2.3 1.1-3.3 0.5-0.8 1.3-1.6 2.3-2.3 1.1-0.7 2.6-1 4.5-1 1.7 0.1 3.2 0.5 4.5 1.2 0.6 0.3 1.1 0.7 1.6 1.2s1 1 1.4 1.7 0.8 1.5 1 2.4 0.4 2 0.4 3.2h1v-11.1l-3.1 2.4c-0.6-0.6-1.3-1.1-2.1-1.4s-1.5-0.5-2.2-0.7c-0.8-0.2-1.6-0.3-2.5-0.3-1.2 0-2.4 0.2-3.7 0.7s-2.4 1.2-3.5 2.2c-1 0.9-1.9 2.1-2.6 3.5s-1 3.1-1 4.9c0 1.9 0.4 3.4 1.1 4.5 0.7 1.2 1.6 2.1 2.4 2.8 1 0.8 2.2 1.4 3.5 1.7l7.8 1.8c1.3 0.4 2.4 0.9 3.1 1.6s1.3 1.4 1.6 2.2 0.6 1.4 0.7 2 0.1 1 0.1 1.2v0.1c0 1.2-0.2 2.3-0.6 3.1-0.4 0.9-0.9 1.6-1.5 2.2s-1.3 1-2 1.3-1.4 0.6-2.1 0.7c-0.7 0.2-1.3 0.3-1.8 0.3s-0.9 0.1-1.1 0.1h-0.2c-1.4 0-2.6-0.2-3.6-0.5s-2-0.8-2.7-1.3c-0.8-0.5-1.4-1.2-1.9-1.9s-1-1.4-1.3-2.1c-0.8-1.7-1.3-3.7-1.4-5.8h-1v12.6l3.7-2.7c0.9 0.8 1.8 1.4 2.8 1.9 1 0.4 1.9 0.8 2.7 0.9 1 0.2 1.9 0.3 2.9 0.4h0.2c0.3 0 0.8 0 1.5-0.1s1.5-0.2 2.4-0.5 1.8-0.7 2.8-1.2 1.9-1.3 2.7-2.2 1.5-2.1 2-3.5 0.8-3.1 0.8-5.2v-0.3zm98.9-15v1.2c0 0.5-0.1 1.1-0.2 1.7s-0.2 1.3-0.4 2-0.4 1.3-0.7 1.9-0.7 1-1.2 1.4-1.1 0.5-1.8 0.5h-7.4v-16.7h7.4c0.8 0.1 1.5 0.4 2.2 1 0.6 0.5 1.1 1.3 1.5 2.3s0.7 2.5 0.7 4.5v0.2zm1.9-8.5c-1.1-0.6-2.2-1-3.3-1.2-1.1-0.1-1.9-0.2-2.4-0.2h-18.6v1.9h4.9v33.9h-4.9v1.8h15.3v-1.8h-4.6v-15.4h7.5c0.1 0 0.5 0 1.1-0.1s1.2-0.2 2-0.4 1.6-0.5 2.4-1c0.9-0.4 1.6-1.1 2.4-1.9 0.7-0.8 1.3-1.8 1.8-3s0.7-2.7 0.7-4.4c0-2.3-0.4-4.1-1.3-5.4-0.9-1.2-1.9-2.2-3-2.8zm30.2 24.4c-0.4 2-0.9 3.6-1.4 4.9s-1.2 2.3-1.9 3.1c-0.7 0.7-1.4 1.3-2 1.6-0.7 0.4-1.2 0.6-1.7 0.7s-0.9 0.1-1.1 0.1h-0.3c-0.2 0-0.5 0-1-0.1s-1.1-0.3-1.8-0.7-1.3-0.9-2-1.6-1.4-1.8-1.9-3.1c-0.6-1.3-1.1-2.9-1.4-4.9-0.4-2-0.6-4.4-0.6-7.2s0.2-5.2 0.6-7.2 0.9-3.6 1.4-4.9c0.6-1.3 1.2-2.3 1.9-3.1 0.7-0.7 1.4-1.3 2-1.6 0.6-0.4 1.2-0.6 1.7-0.7s0.9-0.1 1.1-0.1h0.3c0.2 0 0.6 0 1.1 0.1s1.1 0.3 1.7 0.7 1.3 0.9 2 1.6 1.3 1.8 1.9 3.1 1.1 2.9 1.4 4.9c0.4 2 0.6 4.4 0.6 7.2-0.1 2.9-0.3 5.3-0.6 7.2m5 2.6c1.1-2.9 1.8-6.1 1.9-9.7 0-3.1-0.4-5.7-1.1-7.8s-1.6-3.9-2.7-5.3-2.2-2.5-3.5-3.2c-1.3-0.8-2.4-1.3-3.6-1.7-1.1-0.4-2.1-0.6-2.9-0.7s-1.3-0.1-1.4-0.1h-0.1c-0.1 0-0.6 0-1.5 0.1-0.8 0.1-1.8 0.3-3 0.7-1.1 0.4-2.3 0.9-3.6 1.7s-2.5 1.8-3.6 3.2-2 3.2-2.7 5.3-1.1 4.7-1.1 7.8c0.1 3.6 0.8 6.9 1.9 9.7 0.5 1.2 1.1 2.4 1.8 3.6s1.6 2.2 2.7 3.1 2.3 1.6 3.8 2.2 3.1 0.8 5.1 0.8c1.9 0 3.6-0.3 5.1-0.8 1.5-0.6 2.7-1.3 3.8-2.2s2-2 2.7-3.1c0.9-1.2 1.5-2.4 2-3.6m19.4-26.6h4.9v34h-4.9v1.8h15.3v-1.8h-4.7v-34h4.7v-1.8h-15.3v1.8zm-2.1-1.8h-16.3v1.8h5.2v35.6c0 1-0.2 1.9-0.4 2.7-0.2 0.7-0.6 1.4-1 1.9-0.5 0.6-1.2 0.8-2 0.8-0.2 0-0.5-0.1-0.7-0.2s-0.3-0.2-0.5-0.3c-0.1-0.2-0.2-0.4-0.2-0.6v-0.5c0.2-0.1 0.4-0.3 0.6-0.6 0.2-0.2 0.3-0.5 0.3-0.7 0.1-0.3 0.2-0.6 0.2-0.9 0-0.8-0.1-1.4-0.4-1.8-0.2-0.4-0.5-0.8-0.9-1s-0.8-0.4-1.2-0.5c-0.8 0-1.4 0.2-1.9 0.5-0.4 0.3-0.7 0.7-1 1.1-0.2 0.5-0.4 1-0.4 1.7 0 1.3 0.3 2.2 0.9 2.9s1.3 1.2 2 1.5c0.9 0.4 1.8 0.6 2.8 0.6 1.6 0 2.9-0.3 4-0.8s2-1.2 2.7-2.1c0.7-0.8 1.3-1.8 1.7-2.8s0.7-2 0.9-2.9 0.3-1.8 0.4-2.6 0.1-1.3 0.1-1.6v-29.4h5.2v-1.8zm42.9 20c-0.6-1.1-1.4-2.1-2.6-3.1s-2.8-1.8-4.8-2.3l-7.1-1.8c-0.9-0.3-1.7-0.7-2.4-1.2-0.6-0.4-1.2-1-1.7-1.6-0.5-0.7-0.8-1.5-0.8-2.5 0.1-1.2 0.5-2.3 1.1-3.3 0.5-0.8 1.3-1.6 2.3-2.3 1.1-0.7 2.6-1 4.5-1 1.7 0.1 3.2 0.5 4.5 1.2 0.6 0.3 1.1 0.7 1.6 1.2s1 1 1.4 1.7 0.8 1.5 1 2.4 0.4 2 0.4 3.2h1v-11.1l-3.1 2.4c-0.6-0.6-1.3-1.1-2.1-1.4s-1.5-0.5-2.2-0.7c-0.8-0.2-1.6-0.3-2.5-0.3-1.2 0-2.4 0.2-3.7 0.7s-2.4 1.2-3.5 2.2c-1 0.9-1.9 2.1-2.6 3.5s-1 3.1-1 4.9c0 1.9 0.4 3.4 1.1 4.5 0.7 1.2 1.6 2.1 2.4 2.8 1 0.8 2.2 1.4 3.5 1.7l7.8 1.8c1.3 0.4 2.4 0.9 3.1 1.6s1.3 1.4 1.6 2.2c0.4 0.8 0.6 1.4 0.7 2s0.1 1 0.1 1.2v0.1c0 1.2-0.2 2.3-0.6 3.1-0.4 0.9-0.9 1.6-1.5 2.2s-1.3 1-2 1.3-1.4 0.6-2.1 0.7c-0.7 0.2-1.3 0.3-1.8 0.3s-0.9 0.1-1.1 0.1h-0.2c-1.4 0-2.6-0.2-3.6-0.5s-2-0.8-2.7-1.3c-0.8-0.5-1.4-1.2-1.9-1.9s-1-1.4-1.3-2.1c-0.8-1.7-1.3-3.7-1.4-5.8h-1v12.6l3.7-2.7c0.9 0.8 1.8 1.4 2.8 1.9 1 0.4 1.9 0.8 2.7 0.9 1 0.2 1.9 0.3 2.9 0.4h0.2c0.3 0 0.8 0 1.5-0.1s1.5-0.2 2.4-0.5 1.8-0.7 2.8-1.2 1.9-1.3 2.7-2.2 1.5-2.1 2-3.5 0.8-3.1 0.8-5.2v-0.3c0-0.4-0.1-1-0.2-1.9-0.2-1-0.5-2-1.1-3m1.5-6.8h0.8c0-2.9 0.3-5.1 1-6.7 0.6-1.6 1.3-2.7 2.1-3.4 0.9-0.9 1.9-1.3 3-1.5h4.9v34.2h-4.7v1.8h15.3v-1.8h-4.6v-34.2h4.1c1.1 0.1 2 0.6 2.9 1.5 0.7 0.7 1.4 1.9 2 3.4 0.6 1.6 0.9 3.8 0.9 6.7h1.1v-13.2h-28.7v13.2zm53.9 12.6c-0.4 2-0.9 3.6-1.4 4.9-0.6 1.3-1.2 2.3-1.9 3.1-0.7 0.7-1.4 1.3-2 1.6-0.7 0.4-1.2 0.6-1.7 0.7s-0.9 0.1-1.1 0.1h-0.3c-0.2 0-0.5 0-1-0.1s-1.1-0.3-1.8-0.7-1.3-0.9-2-1.6-1.4-1.8-1.9-3.1c-0.6-1.3-1.1-2.9-1.4-4.9-0.4-2-0.6-4.4-0.6-7.2s0.2-5.2 0.6-7.2 0.9-3.6 1.4-4.9c0.6-1.3 1.2-2.3 1.9-3.1 0.7-0.7 1.4-1.3 2-1.6 0.6-0.4 1.2-0.6 1.7-0.7s0.9-0.1 1.1-0.1h0.3c0.2 0 0.6 0 1.1 0.1s1.1 0.3 1.7 0.7 1.3 0.9 2 1.6 1.3 1.8 1.9 3.1 1.1 2.9 1.4 4.9c0.4 2 0.6 4.4 0.6 7.2-0.1 2.9-0.2 5.3-0.6 7.2m3.2-20.3c-1.1-1.4-2.2-2.5-3.5-3.2-1.3-0.8-2.4-1.3-3.6-1.7-1.1-0.4-2.1-0.6-2.9-0.7s-1.3-0.1-1.4-0.1h-0.1c-0.1 0-0.6 0-1.5 0.1-0.8 0.1-1.8 0.3-3 0.7-1.1 0.4-2.3 0.9-3.6 1.7s-2.5 1.8-3.6 3.2-2 3.2-2.7 5.3-1.1 4.7-1.1 7.8c0.1 3.6 0.8 6.9 1.9 9.7 0.5 1.2 1.1 2.4 1.8 3.6s1.6 2.2 2.7 3.1 2.3 1.6 3.8 2.2 3.1 0.8 5.1 0.8c1.9 0 3.6-0.3 5.1-0.8 1.5-0.6 2.7-1.3 3.8-2.2s2-2 2.7-3.1c0.7-1.2 1.3-2.4 1.8-3.6 1.1-2.9 1.8-6.1 1.9-9.7 0-3.1-0.4-5.7-1.1-7.8-0.5-2.1-1.4-3.9-2.5-5.3m60.9-3.7c0.3 0 0.6-0.1 0.8-0.1h0.2v-1.8h-10.1v1.8h0.3c0.2 0 0.5 0 0.9 0.1 0.4 0 0.8 0.1 1.3 0.3 0.4 0.1 0.9 0.4 1.2 0.6 0.4 0.3 0.6 0.7 0.7 1.2v22.7l-17.9-26.7h-9-7.7v1.6h4.7l-7.6 26.6-8.4-26.6h4.9v-1.6h-15.3v1.6h4.7l11.2 36h1.3l10.4-36h1.8s5.6 0 5.6 3.7v28.4c-0.4 0.9-0.9 1.5-1.6 1.8s-1.3 0.4-1.8 0.4h-0.2-0.2-0.2v1.8h9.8v-1.8h-0.2-0.2-0.3c-0.2 0-0.6 0-0.9-0.1-0.4-0.1-0.7-0.2-1-0.3s-0.6-0.4-0.9-0.6c-0.3-0.3-0.5-0.7-0.6-1.1v-25.8l19.4 29.7h1.8v-33.7c0.2-0.5 0.5-0.9 0.9-1.2s0.8-0.5 1.2-0.6c0.3-0.2 0.7-0.3 1-0.3m8.1 22.7 5.2-15.7 5.7 15.7h-10.9zm21.5 11.3-13.2-35.8h-2.1l-11.3 33.7c-0.2 0.5-0.5 0.8-0.8 1.1s-0.7 0.5-1 0.6c-0.4 0.1-0.7 0.2-1 0.3-0.3 0-0.6 0.1-0.7 0.1h-0.3v1.8h10.3v-1.8h-0.5c-0.2 0-0.6 0-1-0.1s-0.8-0.2-1.1-0.3-0.7-0.4-0.9-0.8-0.4-0.8-0.4-1.4c0-0.5 0.1-0.9 0.2-1.3l2.1-5.5h11.9l3.6 9.4h-4.1v1.8h13.9v-1.8h-3.6zm-335.5-34.1h4.6v-1.8h-15.3v1.8h4.9v34h-4.9v1.8h15.3v-1.8h-4.6v-34zm35.2-4.3c2-0.9 4.1-1.8 6.2-2.7l6-2.7c0.3-0.1 0.4-0.5 0.7-0.8-0.3-0.1-0.6-0.4-0.9-0.4-1-0.1-1.9 0-2.9 0-1.7-0.1-3.2 0.2-4.5 1.5-1.7 1.6-3.6 3.1-5.5 4.6 0.1 0.6 0.3 0.7 0.9 0.5m-8 27.1 5.2-15.7 5.7 15.7h-10.9zm8.3-24.5h-2.1l-11.3 33.7s-0.4 1.5-2.5 1.9l-14.6-19.7 13.9-14.1h4v-1.8h-10.4v1.8h4.5l-16.2 16.5 13.2 17.5h-4.9v1.8h19.5v-1.8h-0.5c-0.2 0-0.6 0-1-0.1s-0.8-0.2-1.1-0.3c-0.4-0.2-0.7-0.4-0.9-0.8s-0.4-0.8-0.4-1.4c0-0.5 0.1-0.9 0.2-1.3l2.1-5.5h11.9l3.6 9.4h-4.1v1.8h13.9v-1.8h-3.6l-13.2-35.8z"/>
</svg>