<?xml version="1.0" encoding="UTF-8" standalone="no"?>
<!DOCTYPE svg PUBLIC "-//W3C//DTD SVG 1.1//EN" "http://www.w3.org/Graphics/SVG/1.1/DTD/svg11.dtd">
<svg width="100%" height="100%" viewBox="0 0 600 119" version="1.1" xmlns="http://www.w3.org/2000/svg" xmlns:xlink="http://www.w3.org/1999/xlink" xml:space="preserve" xmlns:serif="http://www.serif.com/" style="fill-rule:evenodd;clip-rule:evenodd;stroke-linejoin:round;stroke-miterlimit:2;">
    <g transform="matrix(1,0,0,1,-26.2,-267.1)">
        <g>
            <g transform="matrix(1,0,0,1,153,46)">
                <path d="M53.2,284L50.6,324.7L43.2,324.7L44.4,306.9L26.1,306.9L24.9,324.7L17.4,324.7L20.1,284L27.6,284L26.3,301.1L44.7,301.1L45.8,284L53.2,284Z" style="fill:rgb(26,26,26);fill-rule:nonzero;"/>
            </g>
            <g transform="matrix(1,0,0,1,153,46)">
                <path d="M85.9,295.8L84.3,324.5C83.6,336 78.9,339.6 68.9,339.6C66.3,339.6 65.1,339.5 62.2,338.7L62.5,333.4C65.4,334.1 66.7,334.2 69.1,334.2C73.7,334.2 77.2,332.2 77.6,325L77.9,321.1C75.9,323.5 72.8,325.3 69.2,325.3C64.1,325.3 60.7,322.3 60.7,315.8C60.7,314 62.2,302.8 61.2,295.7L67.8,295.7C68.5,301.4 67.1,312.2 67.1,314.3C67.1,317.4 68.1,319.2 71.1,319.2C75.2,319.2 78.2,316.1 78.6,308.9L79.3,295.6L85.9,295.6L85.9,295.8Z" style="fill:rgb(26,26,26);fill-rule:nonzero;"/>
            </g>
            <g transform="matrix(1,0,0,1,153,46)">
                <path d="M101.4,316.8C102.6,318.3 104.4,319.2 106.6,319.2C111.3,319.2 114.8,314.5 114.8,308.4C114.8,303.8 113,301 109.5,301C105.1,301 102.1,305.1 101.7,311.4L101.4,316.8ZM111.3,295C117.7,295 121.9,299.7 121.9,306.9C121.9,318.1 116.2,325 108.1,325C105,325 103.1,324.3 101.4,322.7L100.4,339.5L93.6,339.5L95.7,303.2C95.8,300.6 95.4,297.3 95,295.7L101.6,295.7C101.9,296.7 102.1,297.3 102.1,299.2C104.9,296.3 107.6,295 111.3,295" style="fill:rgb(26,26,26);fill-rule:nonzero;"/>
            </g>
            <g transform="matrix(1,0,0,1,153,46)">
                <path d="M141.6,300.8C136.9,300.8 134,304.7 134,311.4C134,316.5 136.4,319.5 140.6,319.5C145.2,319.5 148.3,315.4 148.3,309.1C148.3,304 145.9,300.8 141.6,300.8M140.2,325.6C132.1,325.6 126.9,320.1 126.9,311.4C126.9,301.2 132.8,295.1 141.9,295.1C150.2,295.1 155.1,300.4 155.1,309.1C155.2,319.3 149.7,325.6 140.2,325.6" style="fill:rgb(26,26,26);fill-rule:nonzero;"/>
            </g>
            <g transform="matrix(1,0,0,1,153,46)">
                <path d="M179.2,295.8L178.8,300.8L170.3,300.8L169.5,315.6C169.3,318.9 170.6,320.2 173,320.2C174.4,320.2 176.2,319.5 178.4,318.2L178.1,323.6C176.2,324.9 173.9,325.5 171.3,325.5C165.5,325.5 162.4,322.6 162.7,317.1L163.7,300.8L159.6,300.8L159.9,295.8L164,295.8L164.4,288.5L170.9,288.5L170.6,295.8L179.2,295.8Z" style="fill:rgb(26,26,26);fill-rule:nonzero;"/>
            </g>
            <g transform="matrix(1,0,0,1,153,46)">
                <path d="M197.9,300.4C194.7,300.4 191.4,304.2 190.7,308.3C191.7,308.4 192.1,308.4 192.8,308.4C198.1,308.4 201.5,306.5 201.5,303.7C201.5,301.9 200,300.4 197.9,300.4M205.3,322.8C202,324.7 199.3,325.5 195.8,325.5C188.1,325.5 183.3,320.5 183.3,312.3C183.3,302.4 189.8,295.1 198.5,295.1C204.4,295.1 208.2,298.2 208.2,303.2C208.2,309.3 202,313.4 192.4,313.4C191.7,313.4 191.2,313.3 190.2,313.3C190.4,317.6 192.8,320.1 196.6,320.1C199.3,320.1 202.2,319.1 205.4,317.1L205.3,322.8Z" style="fill:rgb(26,26,26);fill-rule:nonzero;"/>
            </g>
            <g transform="matrix(1,0,0,1,153,46)">
                <path d="M260,295C265.2,295 269.3,298.7 268.9,305L267.9,324.7L261.1,324.7L262.1,306C262.3,302.9 260,300.9 257.6,300.9C253.9,300.9 250.4,304.5 250,310.4L249.1,324.7L242.5,324.7C242.5,324.7 243.6,305.9 243.6,304.3C243.6,300 243.4,297.8 242.8,295.8L249.4,295.8C249.9,297.2 249.9,297.6 250.2,299.7C252.7,296.7 256.5,295 260,295" style="fill:rgb(26,26,26);fill-rule:nonzero;"/>
            </g>
            <g transform="matrix(1,0,0,1,153,46)">
                <path d="M330.1,301.1C327.3,301.1 323.8,303.4 322.9,308.2C322.4,309.6 322.1,313.5 321.8,318.2C323.6,319.3 324.3,319.5 326.3,319.5C331.8,319.5 335.2,315 335.2,308.1C335.2,303.9 333.9,301.1 330.1,301.1M322.7,299.1C325.1,296.3 327.9,295.1 331.6,295.1C338.2,295.1 342.1,299.6 342.1,306.9C342.1,317.9 335.8,325.3 326.3,325.3C322.4,325.3 318.3,324.3 314.9,322.6L317.5,279.4L324.1,279.4L322.7,299.1Z" style="fill:rgb(26,26,26);fill-rule:nonzero;"/>
            </g>
            <g transform="matrix(1,0,0,1,153,46)">
                <path d="M367.9,301.8C366.2,301.3 365,301.1 363.6,301.1C358,301.1 354.1,305.8 354.1,312.9C354.1,316.8 355.9,319 359,319C363.1,319 366.9,314.7 367.3,308.8L367.9,301.8ZM357.6,325.3C351.3,325.3 347.3,321 347.3,313.1C347.3,302 353.9,295.1 365.3,295.1C368.9,295.1 371,295.4 374.7,296.5L373.4,316.9C373.3,319.8 373.6,322.5 374,324.6L367.8,324.6C367.8,324.6 367.3,322.5 367.3,320.4C365,323.7 361.2,325.3 357.6,325.3" style="fill:rgb(26,26,26);fill-rule:nonzero;"/>
            </g>
            <g transform="matrix(1,0,0,1,153,46)">
                <path d="M399.8,295C405,295 409.1,298.7 408.7,305L407.6,324.7L400.8,324.7L401.9,306C402.1,302.9 399.8,300.9 397.4,300.9C393.7,300.9 390.2,304.5 389.8,310.4L388.9,324.7L382.3,324.7C382.3,324.7 383.4,305.9 383.4,304.3C383.4,300 383.2,297.8 382.6,295.8L389.2,295.8C389.7,297.2 389.7,297.6 390,299.7C392.5,296.7 396.3,295 399.8,295" style="fill:rgb(26,26,26);fill-rule:nonzero;"/>
            </g>
            <g transform="matrix(1,0,0,1,153,46)">
                <path d="M445.4,295.8L430.4,307.9L437,317.3C438.6,319.7 440.9,322.7 442.6,324.7L433.9,324.7C432.7,323 431.1,320.8 429.4,318.3L423.7,310L422.8,324.6L416.2,324.6L418.9,279.6L425.5,279.6L423.9,305.7L435.5,295.7L445.4,295.7L445.4,295.8Z" style="fill:rgb(26,26,26);fill-rule:nonzero;"/>
            </g>
            <g transform="matrix(1,0,0,1,153,46)">
                <path d="M466.4,301.8C464.7,301.3 463.5,301.1 462.1,301.1C456.5,301.1 452.7,305.8 452.7,312.9C452.7,316.8 454.5,319 457.6,319C461.7,319 465.5,314.7 465.9,308.8L466.4,301.8ZM456.1,325.3C449.8,325.3 445.8,321 445.8,313.1C445.8,302 452.4,295.1 463.8,295.1C467.3,295.1 469.5,295.4 473.2,296.5L472,316.9C471.9,319.8 472.2,322.5 472.6,324.6L466.4,324.6C466.4,324.6 465.9,322.5 465.9,320.4C463.5,323.7 459.8,325.3 456.1,325.3" style="fill:rgb(26,26,26);fill-rule:nonzero;"/>
            </g>
            <g transform="matrix(1,0,0,1,153,46)">
                <path d="M233,291.6L240.6,283.3L235.1,283.3L229.3,287.6L224.3,283.3L218.8,283.3L225.2,291.6L233,291.6ZM213,311.9C213,320.7 218.3,325.4 225.9,325.4C229.1,325.4 231.9,324.7 234.8,323.2L234.8,317C231.8,318.8 229.6,319.6 227.2,319.6C222.7,319.6 220.2,316.6 220.2,311.7C220.2,305.5 223.6,301.2 228.7,301.2C231.1,301.2 232.6,301.8 234.9,302.9L236.1,296.9C234,295.9 232,295.1 228.5,295.1C218.4,295.1 213,302.4 213,311.9" style="fill:rgb(26,26,26);fill-rule:nonzero;"/>
            </g>
            <g transform="matrix(1,0,0,1,153,46)">
                <path d="M293,283.3L283.9,283.3L278.9,291.6L284,291.6L293,283.3ZM277,324.7L283.7,324.7L285.2,295.8L278.6,295.8L277,324.7Z" style="fill:rgb(26,26,26);fill-rule:nonzero;"/>
            </g>
            <g transform="matrix(1,0,0,1,153,46)">
                <path d="M2.6,324.7L-62.1,324.7C-65,324.7 -67.4,327.1 -67.4,330C-67.4,332.9 -65,335.3 -62.1,335.3L2.6,335.3C5.5,335.3 7.9,332.9 7.9,330C7.9,327.1 5.6,324.7 2.6,324.7" style="fill:rgb(26,26,26);fill-rule:nonzero;"/>
            </g>
            <g transform="matrix(1,0,0,1,153,46)">
                <path d="M12.8,265.9C12.8,265.9 -45.3,221.7 -46.1,221.1C-46.5,221.4 -124.4,271.5 -124.4,271.5C-125.6,272.3 -126.4,273.4 -126.7,274.8C-126.8,275.2 -126.8,275.6 -126.8,275.9C-126.8,276.9 -126.5,277.9 -126,278.8C-125.2,280 -124.1,280.8 -122.7,281.1C-121.3,281.4 -119.9,281.1 -118.7,280.4L-47.4,234.5C-47.4,234.5 -47,234.3 -46.6,234.3C-46.3,234.3 -46,234.5 -46,234.5L6.4,274.4C8.7,276.2 12.1,275.7 13.8,273.4C14.5,272.4 14.9,271.3 14.9,270.2C14.9,268.5 14.1,266.9 12.8,265.9" style="fill:rgb(26,26,26);fill-rule:nonzero;"/>
            </g>
            <g transform="matrix(1,0,0,1,153,46)">
                <path d="M-42.5,270.1C-37.5,270.1 -33.4,266 -33.4,261C-33.4,256 -37.5,251.9 -42.5,251.9C-47.5,251.9 -51.6,256 -51.6,261C-51.6,266 -47.5,270.1 -42.5,270.1" style="fill:rgb(26,26,26);fill-rule:nonzero;"/>
            </g>
            <g transform="matrix(1,0,0,1,153,46)">
                <path d="M-28.8,286.8C-28.9,286.7 -29,286.4 -29,286.1C-29,285.5 -28.4,285.3 -27.7,285.1C-26.5,284.7 -23.1,282.9 -20.4,280.9C-19,279.9 -17.7,278.4 -17.7,276.1C-17.7,272.8 -20.5,270.5 -23.5,270.5C-25.2,270.5 -26.6,271.6 -28.6,272.8C-31.6,274.7 -36,277 -42.6,277C-50.2,277 -57,274 -61.1,271.2C-64.5,268.9 -66.5,266.7 -69.1,266.7C-72.9,266.7 -74.8,269.9 -74.8,272.3C-74.8,274.2 -73.9,275.7 -72.7,276.7C-70,278.9 -66.9,280.7 -64.2,282.3C-63.8,282.5 -63.7,282.8 -63.7,283C-63.7,283.4 -64,283.7 -64.3,283.8C-75.2,290.1 -83.3,297.5 -94.9,316.8C-95.4,317.7 -95.7,318.7 -95.7,319.7C-95.7,322.3 -93.8,325.4 -90.2,325.4C-88.3,325.4 -86.5,324.4 -85.5,322.7C-71.4,297.8 -56.4,290.1 -47.5,290.1C-40,290.1 -32.7,296.7 -27,309C-26,311.1 -23.9,312.3 -21.8,312.3C-18.4,312.3 -16.2,309.2 -16.2,306.7C-16.2,303 -23.6,291.3 -28.8,286.8" style="fill:rgb(26,26,26);fill-rule:nonzero;"/>
            </g>
        </g>
    </g>
</svg>
