<?xml version="1.0" encoding="UTF-8" standalone="no"?>
<!DOCTYPE svg PUBLIC "-//W3C//DTD SVG 1.1//EN" "http://www.w3.org/Graphics/SVG/1.1/DTD/svg11.dtd">
<svg width="100%" height="100%" viewBox="0 0 1002 358" version="1.1" xmlns="http://www.w3.org/2000/svg" xmlns:xlink="http://www.w3.org/1999/xlink" xml:space="preserve" xmlns:serif="http://www.serif.com/" style="fill-rule:evenodd;clip-rule:evenodd;stroke-linejoin:round;stroke-miterlimit:2;">
    <g transform="matrix(1,0,0,1,-11.246,-10.7264)">
        <g>
            <path id="path4628" d="M560.91,177.93L671.394,114.601C681.184,108.89 675.615,103.001 668.923,103.001L668.923,100.506L747.777,100.506L747.777,103.001C734.984,104.479 721.232,111.739 710.851,117.71L611.446,173.78L727.204,262.555C735.953,268.963 743.556,275.538 753.429,276.602L753.429,279.12L674.255,279.108L560.91,188.832L560.91,258.369C560.91,270.004 567.496,276.602 579.143,276.602L579.143,279.12L493.714,279.108L493.714,276.602C505.361,276.602 511.947,270.004 511.947,258.369L511.947,121.234C511.947,109.599 505.361,103.001 493.714,103.001L493.714,100.506L579.143,100.506L579.143,103.001C567.496,103.001 560.91,109.599 560.91,121.234L560.91,177.93" style="fill:rgb(26,26,26);fill-rule:nonzero;"/>
            <path id="path4630" d="M1012.75,228.171C1012.75,259.008 983.761,278.718 914.118,279.12L779.619,279.097L779.619,276.602C791.254,276.602 797.84,270.004 797.84,258.369L797.84,121.234C797.84,109.599 791.254,103.001 779.619,103.001L779.619,100.506L922.158,100.506C981.078,100.506 1001.85,119.579 1001.85,141.725C1001.85,171.64 969.998,181.808 940.426,184.563C971.571,184.563 1012.75,194.756 1012.75,228.171ZM948.892,147.436C948.892,122.901 920.054,119.697 890.493,119.921C877.511,120.028 862.802,120.383 846.792,122.263L846.792,174.951C846.792,174.951 864.28,175.731 875.962,175.731C934.763,175.282 948.892,167.809 948.892,147.436ZM902.696,258.795C927.893,258.795 959.026,254.857 959.026,227.65C959.026,190.215 894.916,194.165 846.792,197.014L846.792,244.712C846.792,251.239 854.986,257.884 864.54,258.275C875.808,258.736 902.696,258.795 902.696,258.795" style="fill:rgb(26,26,26);fill-rule:nonzero;"/>
            <rect id="path4632" x="11.246" y="10.726" width="357.535" height="181.653" style="fill:rgb(77,77,77);fill-rule:nonzero;"/>
            <rect id="path4634" x="11.246" y="189.482" width="357.559" height="178.791" style="fill:rgb(26,26,26);fill-rule:nonzero;"/>
            <rect id="path4636" x="87.263" y="189.482" width="204.272" height="17.098" style="fill:white;fill-rule:nonzero;"/>
        </g>
    </g>
</svg>
