<?xml version="1.0" encoding="UTF-8" standalone="no"?>
<!DOCTYPE svg PUBLIC "-//W3C//DTD SVG 1.1//EN" "http://www.w3.org/Graphics/SVG/1.1/DTD/svg11.dtd">
<svg width="100%" height="100%" viewBox="0 0 473 109" version="1.1" xmlns="http://www.w3.org/2000/svg" xmlns:xlink="http://www.w3.org/1999/xlink" xml:space="preserve" xmlns:serif="http://www.serif.com/" style="fill-rule:evenodd;clip-rule:evenodd;stroke-linejoin:round;stroke-miterlimit:2;">
    <g transform="matrix(1,0,0,1,-85,-267.8)">
        <g transform="matrix(1,0,0,1,153,46)">
            <path d="M97,271.2L106.9,271.2C113.5,271.2 117.2,270.2 119.6,267.9C121.8,265.9 122.7,262.9 122.7,258.1C122.7,255.3 122.1,251.5 119.3,249C116.9,246.8 113.1,245.9 106.2,245.9L97,245.9L97,271.2ZM97.1,312.7L109.1,312.7C122.6,312.7 127.6,308.9 127.6,298.7C127.6,293.9 126.4,290.6 124,288.5C120.9,285.9 116.8,284.9 109.2,284.9L97.1,284.9L97.1,312.7ZM74.6,329L74.6,245.8L65.1,245.8L65.1,229.6L110,229.6C124.1,229.6 132.1,231.7 137.8,236.7C142.8,241.2 145.4,247.4 145.4,254.8C145.4,263.8 141.2,271.2 133.9,275.1L133.4,275.4L133.9,275.6C145.3,279 151.3,287.3 151.3,299.8C151.3,311.8 146.7,319.9 137.2,324.6C131.3,327.6 123.2,329 111,329L74.6,329ZM293.7,329L293.7,282.5C293.7,277.8 293.3,274.5 291.3,271.7C289.3,269.1 286,267.7 281.9,267.7C277.6,267.7 274.1,269.3 271.7,272.3C269.2,275.6 268.7,279.8 268.7,285.2L268.7,329L247.1,329L247.1,268.2L238.1,268.2L238.1,252.7L260.2,252.7L263.8,261.9L264,261.6C269.4,255 277.8,251.3 287.7,251.3C296.7,251.3 304,253.9 308.7,258.7C313.3,263.6 315.3,269.9 315.3,279.2L315.3,329L293.7,329ZM391.2,329.9C383,329.9 377.9,326.7 373.1,318.6L359.2,295.4L352.6,295.4L352.6,329L331,329L331,237.3L322,237.3L322,221.8L352.6,221.8L352.6,279.3L360.1,279.3L375.5,252.7L397.1,252.7L377.3,286.7L392.1,311.2C394,314.3 395.4,315.3 397.9,315.3C399.8,315.3 402.1,314.6 403.7,313.4L404.5,312.8L403.8,326.3L403.6,326.4C400.7,328.5 396,329.9 391.2,329.9M48.9,329.9C42.5,329.9 37.9,328.1 35.3,324.4C33.4,321.7 32.4,317.6 32.4,312L32.4,282.4C32.4,277.6 32.2,274.5 30.2,271.6C28.2,269.1 24.9,267.6 21.1,267.6C17.1,267.6 13.6,269.2 11.4,272.1C9.3,275 8.4,278.7 8.4,284.9L8.4,328.9L-13.2,328.9L-13.2,282.4C-13.2,277.6 -13.4,274.5 -15.4,271.6C-17.3,269.1 -20.7,267.6 -24.5,267.6C-28.5,267.6 -32,269.2 -34.2,272.1C-36.3,275 -37.2,278.7 -37.2,284.9L-37.2,328.9L-59,328.9L-59,268.1L-68,268.1L-68,252.6L-46,252.6L-42.5,261.7L-42.2,261.4C-37.2,254.9 -28.7,251.2 -18.8,251.2C-8.4,251.2 -0.8,254.5 3.8,260.9L4,261.1L4.2,260.9C7.3,257.3 14.3,251.2 27,251.2C37.2,251.2 45.3,254.6 49.6,260.9C52.7,265.3 54,270.8 54,279.3L54,311C54,314.7 55.7,315.2 57.3,315.2C59,315.2 61.7,314.2 62.9,313.3L63.7,312.7L63,325.7L62.8,325.8C60,327.9 54.9,329.9 48.9,329.9M194.4,291.7C186.3,291.7 181.6,296.2 181.6,304C181.6,311.7 185.7,316.1 193,316.1C196.5,316.1 199.7,314.8 201.7,312.7C203.7,310.6 204.7,307.4 204.7,303.5L204.7,293.4L204.6,293.3C202.2,292.5 198.1,291.7 194.4,291.7M187.1,330.4C170.3,330.4 159.9,320.6 159.9,304.9C159.9,288.6 171.1,278.9 189.9,278.9C194.6,278.9 200.2,279.7 204.4,281.1L204.7,281.2L204.7,279.8C204.7,274.5 204,271.8 201.9,269.4C199.6,266.8 195.5,265.5 189.7,265.5C182.3,265.5 174.4,267.5 167.4,271L166.7,271.3L166.7,256.3L167,256.2C174.1,253 183.3,251.2 193,251.2C205.2,251.2 213.8,253.8 219.6,259.2C224.3,263.5 226.4,269.8 226.4,278.8L226.4,311C226.4,314 227.3,315.2 229.5,315.2C231.2,315.2 234.1,314.1 235.3,313.3L236.1,312.7L235.2,325.7L235,325.8C231.5,328.2 226.1,329.8 220.9,329.8C214.4,329.8 209.5,327.2 207.5,322.7L207.4,322.4L207.2,322.7C202.8,327.5 195.3,330.4 187.1,330.4" style="fill:rgb(26,26,26);fill-rule:nonzero;"/>
        </g>
    </g>
</svg>
