<?xml version="1.0" encoding="UTF-8" standalone="no"?>
<!DOCTYPE svg PUBLIC "-//W3C//DTD SVG 1.1//EN" "http://www.w3.org/Graphics/SVG/1.1/DTD/svg11.dtd">
<svg width="100%" height="100%" viewBox="0 0 381 57" version="1.1" xmlns="http://www.w3.org/2000/svg" xmlns:xlink="http://www.w3.org/1999/xlink" xml:space="preserve" xmlns:serif="http://www.serif.com/" style="fill-rule:evenodd;clip-rule:evenodd;stroke-linejoin:round;stroke-miterlimit:2;">
    <g transform="matrix(1,0,0,1,-9.999,-11.59)">
        <g>
            <path d="M328.72,23.76L321.753,33.887L314.717,23.76L314.717,36.842L316.828,36.842L316.828,29.946L321.753,37.261L326.678,29.946L326.678,36.84L328.72,36.84L328.72,23.76ZM339.062,23.971C335.402,23.971 332.449,26.924 332.449,30.511C332.449,34.099 335.402,37.053 339.062,37.053C342.72,37.053 345.675,34.098 345.675,30.511C345.675,26.924 342.72,23.971 339.062,23.971M339.062,35.013C336.599,35.013 334.629,32.974 334.629,30.511C334.629,27.979 336.599,26.011 339.062,26.011C341.523,26.011 343.493,28.048 343.493,30.511C343.566,33.043 341.525,35.013 339.062,35.013M349.405,23.759L349.405,36.841L351.445,36.841L351.445,28.191L361.647,37.264L361.647,24.249L359.605,24.249L359.605,32.9L349.405,23.759ZM375.296,24.251L366.009,24.251L366.009,36.841L375.296,36.841L375.296,34.942L368.049,34.942L368.049,31.424L374.944,31.424L374.944,29.597L368.049,29.597L368.049,26.151L375.296,26.151L375.296,24.251ZM390,24.251L387.749,24.251L383.808,30.018L379.869,24.251L377.618,24.251L382.824,31.918L382.824,36.839L384.863,36.839L384.863,31.918L390,24.251ZM321.332,42.96L314.788,42.96L314.788,55.55L321.472,55.55C323.795,55.55 325.483,53.86 325.483,51.821C325.483,50.344 324.708,49.289 323.443,48.797C324.356,48.374 324.99,47.391 324.99,46.196C324.99,44.366 323.512,42.96 321.332,42.96L321.332,42.96ZM316.828,48.164L316.828,44.788L320.909,44.788C322.176,44.788 322.88,45.561 322.88,46.476C322.88,47.391 322.105,48.164 320.909,48.164L316.828,48.164ZM316.828,53.72L316.828,49.923L321.121,49.923C322.457,49.923 323.301,50.767 323.301,51.822C323.301,52.876 322.457,53.72 321.121,53.72L316.828,53.72ZM334.487,42.468L327.17,55.55L329.492,55.55L331.111,52.666L338.007,52.666L339.623,55.55L341.946,55.55L334.487,42.468ZM332.026,50.907L334.487,46.405L336.951,50.907L332.026,50.907ZM344.9,42.468L344.9,55.479L346.942,55.479L346.942,46.899L357.144,55.971L357.144,42.96L355.102,42.96L355.102,51.611L344.9,42.468ZM372.761,42.96L369.878,42.96L363.545,48.727L363.545,42.96L361.434,42.96L361.434,55.479L363.545,55.479L363.545,51.328L365.727,49.36L370.51,55.479L373.044,55.479L367.203,47.953L372.761,42.96ZM116.661,23.056L98.933,46.617L81.203,23.056L81.203,55.41L87.536,55.41L87.536,41.204L98.934,56.675L110.332,41.202L110.332,55.408L116.664,55.408L116.661,23.056ZM138.261,23.619C129.116,23.619 121.728,30.933 121.728,39.865C121.728,48.867 129.116,56.111 138.261,56.111C147.408,56.111 154.796,48.796 154.796,39.865C154.796,30.862 147.408,23.619 138.263,23.619M138.263,49.852C132.775,49.852 128.342,45.352 128.342,39.865C128.342,34.309 132.775,29.878 138.261,29.878C143.75,29.878 148.181,34.379 148.181,39.865C148.181,45.421 143.75,49.852 138.261,49.852M158.946,23.056L158.946,55.41L165.279,55.41L165.279,36.209L189.834,56.675L189.834,24.321L183.503,24.321L183.503,43.522L158.946,23.056ZM220.086,24.323L196.095,24.323L196.095,55.408L220.086,55.408L220.086,49.712L202.638,49.712L202.638,42.608L219.313,42.608L219.313,37.053L202.638,37.053L202.638,30.09L220.088,30.09L220.086,24.323ZM254.774,24.323L223.675,24.323L223.675,30.09L233.033,30.09L233.033,55.408L239.506,55.408L239.506,30.09L251.396,30.09L254.774,24.323ZM262.233,23.056L243.728,55.479L250.904,55.479L254.282,49.5L270.322,49.5L273.7,55.479L280.876,55.479L262.233,23.056ZM257.097,44.366L262.162,35.294L267.299,44.368L257.097,44.368L257.097,44.366ZM295.724,11.803L297.646,11.803L297.646,67.927L295.724,67.927L295.724,11.803Z" style="fill:rgb(26,26,26);fill-rule:nonzero;"/>
            <path d="M15.907,26.36L29.912,39.863L15.911,53.366L15.911,26.36L15.907,26.36ZM59.18,11.59L34.481,35.432L9.999,11.8L9.999,67.926L34.342,44.361L39.056,39.863L53.057,26.36L53.057,53.366L43.629,44.292L39.054,48.725L59.391,68.418L59.391,11.59L59.18,11.59Z" style="fill:rgb(26,26,26);fill-rule:nonzero;"/>
        </g>
    </g>
</svg>
