<?xml version="1.0" encoding="UTF-8" standalone="no"?>
<!DOCTYPE svg PUBLIC "-//W3C//DTD SVG 1.1//EN" "http://www.w3.org/Graphics/SVG/1.1/DTD/svg11.dtd">
<svg width="100%" height="100%" viewBox="0 0 176 47" version="1.1" xmlns="http://www.w3.org/2000/svg" xmlns:xlink="http://www.w3.org/1999/xlink" xml:space="preserve" xmlns:serif="http://www.serif.com/" style="fill-rule:evenodd;clip-rule:evenodd;stroke-linejoin:round;stroke-miterlimit:2;">
    <g transform="matrix(1,0,0,1,0,4.58751e-06)">
        <g>
            <rect id="polygon2229" x="0" y="0.803" width="46.191" height="46.191" style="fill:rgb(26,26,26);"/>
            <rect id="polygon2231" x="1.336" y="2.138" width="43.519" height="43.52" style="fill:white;"/>
            <path id="path2233" d="M3.645,36.865L9.322,42.652L22.623,29.157L36.369,42.93L42.129,37.226L28.521,23.62L31.137,21.088L31.137,15.69L32.779,14.299L32.779,18.528L34.894,20.253L41.21,13.937L43.241,15.495C44.438,11.071 37.509,1.026 31.777,6.591L25.098,13.213L26.462,14.855L23.067,18.166L19.784,14.938L21.509,13.379L14.191,6.312C8.682,1.776 3.033,8.678 2.838,15.411L4.841,13.742L10.99,20.365L13.188,18.529L13.188,14.466L14.551,15.495L14.551,20.81L17.222,23.481L3.645,36.865Z" style="fill:rgb(26,26,26);"/>
            <path id="path2235" d="M57.989,6.34L57.989,10.347L59.714,10.347C62.079,9.902 61.439,6.507 59.714,6.34L57.989,6.34ZM53.092,2.361L53.092,20.504L57.989,20.504L57.989,14.605L62.163,20.504L67.951,20.504L62.804,13.242C68.759,10.348 66.533,2.445 60.272,2.362L53.092,2.362L53.092,2.361ZM75.742,11.432C77.356,11.432 78.663,12.656 78.663,14.159C78.663,15.661 77.355,16.886 75.742,16.886C74.156,16.886 72.848,15.661 72.848,14.159C72.848,12.656 74.156,11.432 75.742,11.432ZM74.712,7.425C76.048,7.425 77.3,7.87 78.329,8.593L78.329,7.898L83.115,7.898L83.143,20.503L78.301,20.503L78.329,19.724C77.3,20.447 76.048,20.865 74.712,20.865C71.15,20.865 68.229,17.86 68.229,14.159C68.229,10.458 71.151,7.425 74.712,7.425ZM85.676,7.898L90.768,7.898L90.768,20.503L85.676,20.503L85.676,7.898ZM88.235,0.691C89.711,0.691 90.907,1.915 90.907,3.39C90.907,4.865 89.711,6.089 88.235,6.089C86.733,6.089 85.536,4.864 85.536,3.39C85.537,1.916 86.733,0.691 88.235,0.691ZM126.886,7.898L131.978,7.898L131.978,20.503L126.886,20.503L126.886,7.898ZM129.418,0.691C130.921,0.691 132.117,1.915 132.117,3.39C132.117,4.865 130.921,6.089 129.418,6.089C127.943,6.089 126.747,4.864 126.747,3.39C126.747,1.916 127.943,0.691 129.418,0.691ZM91.714,7.898L91.714,11.905L93.467,11.905L93.467,20.503L98.393,20.503L98.393,11.905L103.012,11.905L103.012,20.503L108.104,20.503L108.104,11.85L111.276,11.85L111.276,7.954L107.964,7.954L107.964,5.144C107.881,4.115 110.302,3.697 111.137,4.532L111.137,0.413C106.462,-1.062 102.678,1.582 102.705,5.672L102.705,7.898L98.364,7.898L98.364,5.144C98.308,4.115 100.424,3.697 101.647,4.532L101.647,0.413C97.584,-0.783 93.244,1.192 93.272,5.644L93.272,7.87L91.714,7.898ZM118.538,20.865C122.907,20.837 124.52,19.029 125.467,16.385L121.043,16.385C119.039,18.945 116.117,17.081 116.257,14.994L125.607,14.994C125.607,9.874 122.879,7.453 118.539,7.453C114.199,7.453 111.472,10.514 111.472,14.243C111.472,17.972 114.643,20.893 118.538,20.865ZM116.896,12.017C116.952,10.486 120.291,10.486 120.513,12.017L116.896,12.017ZM153.209,20.865C157.605,20.837 159.22,19.029 160.165,16.385L155.713,16.385C153.71,18.945 150.788,17.081 150.928,14.994L160.278,14.994C160.278,9.874 157.579,7.453 153.21,7.453C148.869,7.453 146.143,10.514 146.143,14.243C146.143,17.972 149.313,20.893 153.209,20.865ZM151.567,12.017C151.623,10.486 154.962,10.486 155.184,12.017L151.567,12.017ZM144.806,8.149L143.303,11.21C141.411,10.625 139.574,10.737 139.63,11.265C139.686,11.599 139.38,12.183 142.329,12.601C146.725,13.296 146.364,21.477 138.99,20.865C136.959,20.726 135.317,20.197 133.954,19.39L135.596,16.106C137.906,17.247 140.131,17.915 140.298,16.774C140.493,15.355 137.877,15.856 136.291,14.659C133.453,12.906 135.066,7.48 139.714,7.424C141.355,7.314 143.053,7.592 144.806,8.149ZM162.225,7.898L162.225,20.503L166.984,20.503L166.984,12.795C167.123,10.875 170.907,10.541 170.935,12.795L170.935,20.503L175.748,20.503L175.748,12.601C175.637,8.177 170.99,6.034 166.788,8.844L166.788,7.898L162.225,7.898ZM55.902,28.211L52.73,46.91L61.718,46.91C67.812,46.91 70.316,39.342 65.975,36.754C69.676,33.331 67.784,28.184 63.805,28.128L55.902,28.211ZM59.547,39.369L58.907,42.458L60.994,42.458C63.359,42.569 63.081,39.369 61.718,39.369L59.547,39.369ZM60.604,32.663L60.076,35.168L60.716,35.195C62.636,35.306 63.749,32.663 61.439,32.663L60.604,32.663ZM68.006,46.938L73.46,46.938L75.102,43.654L81.279,43.654L82.197,46.994L87.233,46.994L82.865,28.322L77.717,28.322L68.006,46.938ZM76.883,39.731L80.278,39.731L79.193,34.805L76.883,39.731ZM88.959,46.994L93.996,46.994L95.275,35.279L102.482,46.938L107.88,46.938L110.134,28.21L105.098,28.21L103.679,39.925L96.471,28.154L91.268,28.154L88.959,46.994ZM113.752,28.155L110.218,46.938L115.533,46.938L116.952,39.925L121.71,46.938L128.694,46.938L121.877,37.087L130.587,28.127L123.825,28.127L117.87,34.749L118.816,28.127L113.752,28.155Z" style="fill:rgb(26,26,26);"/>
        </g>
    </g>
</svg>
