<?xml version="1.0" encoding="UTF-8" standalone="no"?>
<!DOCTYPE svg PUBLIC "-//W3C//DTD SVG 1.1//EN" "http://www.w3.org/Graphics/SVG/1.1/DTD/svg11.dtd">
<svg width="100%" height="100%" viewBox="0 0 686 100" version="1.1" xmlns="http://www.w3.org/2000/svg" xmlns:xlink="http://www.w3.org/1999/xlink" xml:space="preserve" xmlns:serif="http://www.serif.com/" style="fill-rule:evenodd;clip-rule:evenodd;stroke-linejoin:round;stroke-miterlimit:2;">
    <g transform="matrix(1,0,0,1,-85.39,-248.193)">
        <g>
            <g transform="matrix(1,0,0,1,0,4.083)">
                <rect x="86.59" y="249.64" width="92.159" height="91.917" style="fill:white;"/>
            </g>
            <g transform="matrix(1,0,0,1,0,4.131)">
                <path d="M177.592,340.233L87.747,340.233L87.747,250.867L177.592,250.867L177.592,340.233ZM179.906,248.316L85.39,248.316L85.39,342.833L179.906,342.833L179.906,248.316Z" style="fill:rgb(29,29,27);fill-rule:nonzero;"/>
            </g>
            <g transform="matrix(1,0,0,1,215.005,267.794)">
                <path d="M0,6.748C5.309,5.806 8.188,1.34 8.188,-3.82C8.188,-11.81 2.58,-15.333 -4.814,-15.333L-19.353,-15.333L-19.353,22.081L-9.627,22.081L-9.627,7.691L-9.528,7.691L-0.348,22.081L11.761,22.081L0,6.748ZM-9.627,-7.889L-8.684,-7.889C-5.508,-7.889 -1.935,-7.295 -1.935,-3.226C-1.935,0.844 -5.508,1.439 -8.684,1.439L-9.627,1.439L-9.627,-7.889Z" style="fill:rgb(29,29,27);fill-rule:nonzero;"/>
            </g>
            <g transform="matrix(1,0,0,1,257.035,289.875)">
                <path d="M0,-25.455L-9.032,-25.455L-9.032,-22.974C-10.917,-25.207 -13.994,-26.299 -16.921,-26.299C-24.463,-26.299 -29.674,-20.047 -29.674,-12.752C-29.674,-5.458 -24.365,0.844 -16.822,0.844C-13.845,0.844 -10.719,-0.297 -9.131,-2.828L-9.032,-2.828L-9.032,0.001L0,0.001L0,-25.455ZM-14.539,-18.459C-10.868,-18.459 -8.733,-15.829 -8.733,-12.702C-8.733,-9.477 -10.868,-6.996 -14.539,-6.996C-18.211,-6.996 -20.345,-9.477 -20.345,-12.702C-20.345,-15.829 -18.211,-18.459 -14.539,-18.459" style="fill:rgb(29,29,27);fill-rule:nonzero;"/>
            </g>
            <g transform="matrix(1,0,0,1,272.615,284.813)">
                <path d="M0,-30.169C0,-27.39 -2.283,-25.107 -5.062,-25.107C-7.84,-25.107 -10.123,-27.39 -10.123,-30.169C-10.123,-32.949 -7.84,-35.231 -5.062,-35.231C-2.283,-35.231 0,-32.949 0,-30.169M-0.546,5.062L-9.577,5.062L-9.577,-20.394L-0.546,-20.394L-0.546,5.062Z" style="fill:rgb(29,29,27);fill-rule:nonzero;"/>
            </g>
            <g transform="matrix(1,0,0,1,287.948,248.193)">
                <path d="M0,41.682L-9.031,41.682L-9.031,23.67L-12.207,23.67L-12.207,16.226L-9.031,16.226L-9.031,13C-9.031,9.477 -8.932,6.897 -6.451,4.069C-4.218,1.439 -0.993,0 2.431,0C3.82,0 5.062,0.248 6.302,0.893L6.302,8.684C5.259,8.237 4.317,7.841 3.125,7.841C0.793,7.841 0,9.23 0,12.107L0,16.226L6.302,16.226L6.302,23.67L0,23.67L0,41.682Z" style="fill:rgb(29,29,27);fill-rule:nonzero;"/>
            </g>
            <g transform="matrix(1,0,0,1,307.2,248.193)">
                <path d="M0,41.682L-9.031,41.682L-9.031,23.67L-12.206,23.67L-12.206,16.226L-9.031,16.226L-9.031,13C-9.031,9.477 -8.932,6.897 -6.451,4.069C-4.218,1.439 -0.992,0 2.431,0C3.82,0 5.062,0.248 6.302,0.893L6.302,8.684C5.26,8.237 4.318,7.841 3.126,7.841C0.794,7.841 0,9.23 0,12.107L0,16.226L6.302,16.226L6.302,23.67L0,23.67L0,41.682Z" style="fill:rgb(29,29,27);fill-rule:nonzero;"/>
            </g>
            <g transform="matrix(1,0,0,1,342.679,276.577)">
                <path d="M0,1.141C0,-7.542 -5.111,-13.001 -13.944,-13.001C-22.231,-13.001 -28.037,-7.889 -28.037,0.597C-28.037,9.379 -21.735,14.142 -13.299,14.142C-7.494,14.142 -1.786,11.413 -0.347,5.409L-9.031,5.409C-10.023,7.097 -11.413,7.742 -13.348,7.742C-17.07,7.742 -19.005,5.756 -19.005,2.084L0,2.084L0,1.141ZM-18.856,-3.126C-18.31,-5.755 -16.127,-7.145 -13.498,-7.145C-11.065,-7.145 -8.833,-5.558 -8.386,-3.126L-18.856,-3.126Z" style="fill:rgb(29,29,27);fill-rule:nonzero;"/>
            </g>
            <g transform="matrix(1,0,0,1,356.373,284.813)">
                <path d="M0,-30.169C0,-27.39 -2.283,-25.107 -5.061,-25.107C-7.84,-25.107 -10.123,-27.39 -10.123,-30.169C-10.123,-32.949 -7.84,-35.231 -5.061,-35.231C-2.283,-35.231 0,-32.949 0,-30.169M-0.546,5.062L-9.578,5.062L-9.578,-20.394L-0.546,-20.394L-0.546,5.062Z" style="fill:rgb(29,29,27);fill-rule:nonzero;"/>
            </g>
            <g transform="matrix(1,0,0,1,378.603,283.325)">
                <path d="M0,-12.355C-1.389,-13.099 -3.324,-13.595 -4.862,-13.595C-5.905,-13.595 -7.691,-13.149 -7.691,-11.859C-7.691,-10.122 -4.862,-9.874 -3.623,-9.626C0.595,-8.783 3.771,-6.797 3.771,-2.084C3.771,4.616 -2.333,7.394 -8.237,7.394C-11.86,7.394 -15.432,6.352 -18.509,4.466L-15.233,-1.835C-13.397,-0.544 -10.321,0.745 -8.088,0.745C-6.947,0.745 -5.26,0.199 -5.26,-1.19C-5.26,-3.174 -8.088,-3.274 -10.917,-4.019C-13.745,-4.762 -16.574,-6.151 -16.574,-10.718C-16.574,-16.97 -10.917,-19.749 -5.359,-19.749C-2.481,-19.749 0.397,-19.302 3.028,-18.11L0,-12.355Z" style="fill:rgb(29,29,27);fill-rule:nonzero;"/>
            </g>
            <g transform="matrix(1,0,0,1,413.387,276.577)">
                <path d="M0,1.141C0,-7.542 -5.111,-13.001 -13.943,-13.001C-22.23,-13.001 -28.036,-7.889 -28.036,0.597C-28.036,9.379 -21.734,14.142 -13.298,14.142C-7.493,14.142 -1.787,11.413 -0.347,5.409L-9.03,5.409C-10.023,7.097 -11.413,7.742 -13.348,7.742C-17.07,7.742 -19.005,5.756 -19.005,2.084L0,2.084L0,1.141ZM-18.855,-3.126C-18.31,-5.755 -16.126,-7.145 -13.497,-7.145C-11.065,-7.145 -8.832,-5.558 -8.386,-3.126L-18.855,-3.126Z" style="fill:rgb(29,29,27);fill-rule:nonzero;"/>
            </g>
            <g transform="matrix(1,0,0,1,426.537,285.757)">
                <path d="M0,-18.063L0.098,-18.063C2.182,-21.139 4.713,-22.181 8.236,-22.181C15.084,-22.181 17.812,-17.864 17.812,-11.611L17.812,4.118L8.782,4.118L8.782,-8.287C8.782,-10.718 9.18,-14.986 4.713,-14.986C1.041,-14.986 0,-12.257 0,-9.082L0,4.118L-9.032,4.118L-9.032,-21.337L0,-21.337L0,-18.063Z" style="fill:rgb(29,29,27);fill-rule:nonzero;"/>
            </g>
            <g transform="matrix(1,0,0,1,220.443,337.304)">
                <path d="M0,-18.161C-1.55,-19.65 -3.675,-20.641 -6.057,-20.641C-7.844,-20.641 -10.391,-19.599 -10.721,-17.516C-11.066,-15.332 -8.57,-14.488 -6.97,-13.943L-4.606,-13.198C0.36,-11.66 3.963,-9.03 3.004,-2.977C2.415,0.745 0.917,4.567 -2.461,7.096C-5.782,9.578 -9.867,10.619 -13.639,10.619C-18.353,10.619 -22.716,9.032 -26.112,6.353L-20.702,-1.488C-18.609,0.647 -16.006,2.382 -12.682,2.382C-10.399,2.382 -7.787,1.24 -7.37,-1.389C-6.938,-4.118 -10.609,-5.06 -12.599,-5.656C-18.428,-7.392 -22.195,-8.98 -21.048,-16.225C-19.846,-23.817 -13.65,-28.78 -6.157,-28.78C-2.386,-28.78 2.04,-27.59 5.066,-25.703L0,-18.161Z" style="fill:rgb(29,29,27);fill-rule:nonzero;"/>
            </g>
            <g transform="matrix(1,0,0,1,240.952,309.518)">
                <path d="M0,37.413L-9.726,37.413L-5.104,8.236L-13.143,8.236L-11.838,0L13.965,0L12.661,8.236L4.622,8.236L0,37.413Z" style="fill:rgb(29,29,27);fill-rule:nonzero;"/>
            </g>
            <g transform="matrix(1,0,0,1,272.797,316.018)">
                <path d="M0,24.413L1.401,30.913L11.772,30.913L3.606,-6.5L-7.013,-6.5L-27.329,30.913L-17.008,30.913L-13.398,24.413L0,24.413ZM-1.451,16.97L-9.54,16.97L-3.634,5.06L-3.535,5.06L-1.451,16.97Z" style="fill:rgb(29,29,27);fill-rule:nonzero;"/>
            </g>
            <g transform="matrix(1,0,0,1,298.662,324.206)">
                <path d="M0,8.038L12.679,-14.688L23.249,-14.688L1.345,22.726L-6.198,22.726L-16.001,-14.688L-5.433,-14.688L0,8.038Z" style="fill:rgb(29,29,27);fill-rule:nonzero;"/>
            </g>
            <g transform="matrix(1,0,0,1,332.763,338.696)">
                <path d="M0,-20.941L-0.99,-14.69L9.977,-14.69L8.672,-6.452L-2.295,-6.452L-3.316,-0.001L8.246,-0.001L6.941,8.236L-14.347,8.236L-8.421,-29.177L12.867,-29.177L11.562,-20.941L0,-20.941Z" style="fill:rgb(29,29,27);fill-rule:nonzero;"/>
            </g>
            <g transform="matrix(1,0,0,1,360.18,339.491)">
                <path d="M0,-22.531L0.695,-22.531C3.325,-22.531 6.32,-22.332 5.779,-18.908C5.275,-15.732 2.525,-15.286 -0.055,-15.286L-1.147,-15.286L0,-22.531ZM0.514,7.441C7.361,7.441 14.469,4.861 15.71,-2.98C16.536,-8.189 14.827,-11.812 9.578,-12.507L9.594,-12.606C12.864,-14.143 14.388,-16.874 14.922,-20.248C16.054,-27.393 11.997,-29.972 5.348,-29.972L-8.546,-29.972L-14.472,7.441L0.514,7.441ZM-2.294,-8.041L-1.302,-8.041C1.874,-8.041 6.758,-8.488 6.042,-3.971C5.39,0.147 0.55,-0.002 -2.327,-0.002L-3.568,-0.002L-2.294,-8.041Z" style="fill:rgb(29,29,27);fill-rule:nonzero;"/>
            </g>
            <g transform="matrix(1,0,0,1,385.227,346.931)">
                <path d="M0,-37.413L9.726,-37.413L23.916,-14.539L24.016,-14.539L27.639,-37.413L37.365,-37.413L31.439,0L21.713,0L7.53,-22.926L7.43,-22.926L3.8,0L-5.926,0L0,-37.413Z" style="fill:rgb(29,29,27);fill-rule:nonzero;"/>
            </g>
            <g transform="matrix(1,0,0,1,432.062,336.66)">
                <path d="M0,-28.98L-2.782,-32.403L6.291,-39.251L10.271,-34.934L0,-28.98ZM0.68,10.271L-9.047,10.271L-3.12,-27.142L6.606,-27.142L0.68,10.271Z" style="fill:rgb(29,29,27);fill-rule:nonzero;"/>
            </g>
            <g transform="matrix(1,0,0,1,481.057,337.304)">
                <path d="M0,-18.161C-1.549,-19.65 -3.674,-20.641 -6.057,-20.641C-7.844,-20.641 -10.389,-19.599 -10.721,-17.516C-11.064,-15.332 -8.57,-14.488 -6.969,-13.943L-4.605,-13.198C0.361,-11.66 3.963,-9.03 3.006,-2.977C2.414,0.745 0.918,4.567 -2.461,7.096C-5.781,9.578 -9.867,10.619 -13.637,10.619C-18.352,10.619 -22.715,9.032 -26.113,6.353L-20.701,-1.488C-18.607,0.647 -16.006,2.382 -12.682,2.382C-10.398,2.382 -7.785,1.24 -7.369,-1.389C-6.937,-4.118 -10.609,-5.06 -12.598,-5.656C-18.428,-7.392 -22.195,-8.98 -21.047,-16.225C-19.844,-23.817 -13.65,-28.78 -6.158,-28.78C-2.385,-28.78 2.041,-27.59 5.066,-25.703L0,-18.161Z" style="fill:rgb(29,29,27);fill-rule:nonzero;"/>
            </g>
            <g transform="matrix(1,0,0,1,486.68,309.518)">
                <path d="M0,37.413L9.727,37.413L11.691,25.008L17.197,25.008C25.684,25.008 31.061,21.138 32.461,12.305C33.82,3.72 28.852,0 20.812,0L5.926,0L0,37.413ZM14.41,7.839L16.047,7.839C19.818,7.839 23.037,7.89 22.289,12.603C21.566,17.168 18.094,17.168 14.57,17.168L12.934,17.168L14.41,7.839Z" style="fill:rgb(29,29,27);fill-rule:nonzero;"/>
            </g>
            <g transform="matrix(1,0,0,1,544.408,348.173)">
                <path d="M0,-39.896C-10.768,-39.896 -21.949,-31.958 -23.74,-20.643C-25.658,-8.536 -18.328,0 -6.318,0C5.691,0 15.727,-8.536 17.643,-20.643C19.436,-31.958 10.77,-39.896 0,-39.896M-1.492,-30.468C4.312,-30.468 8.33,-25.754 7.514,-20.594C6.49,-14.143 0.98,-9.429 -4.826,-9.429C-10.631,-9.429 -14.648,-14.143 -13.627,-20.594C-12.809,-25.754 -7.299,-30.468 -1.492,-30.468" style="fill:rgb(29,29,27);fill-rule:nonzero;"/>
            </g>
            <g transform="matrix(1,0,0,1,572.234,342.761)">
                <path d="M0,-40.984L9.234,-35.378L20.244,-40.984L18.225,-45.154L10.186,-41.382L3.34,-45.154L0,-40.984ZM13.041,-11.163C18.5,-12.105 22.084,-16.571 22.902,-21.732C24.166,-29.72 19.117,-33.243 11.725,-33.243L-2.814,-33.243L-8.74,4.17L0.984,4.17L3.264,-10.219L3.363,-10.219L10.264,4.17L22.371,4.17L13.041,-11.163ZM5.732,-25.801L6.676,-25.801C9.85,-25.801 13.33,-25.205 12.686,-21.135C12.041,-17.067 8.373,-16.472 5.197,-16.472L4.254,-16.472L5.732,-25.801Z" style="fill:rgb(29,29,27);fill-rule:nonzero;"/>
            </g>
            <g transform="matrix(-1,0,0,1,603.16,309.518)">
                <path d="M-3.803,37.413L5.924,37.413L-0.002,0L-9.727,0L-3.803,37.413Z" style="fill:rgb(29,29,27);fill-rule:nonzero;"/>
            </g>
            <g transform="matrix(1,0,0,1,628.199,309.518)">
                <path d="M0,37.413L-9.727,37.413L-5.105,8.236L-13.143,8.236L-11.84,0L13.965,0L12.66,8.236L4.621,8.236L0,37.413Z" style="fill:rgb(29,29,27);fill-rule:nonzero;"/>
            </g>
            <g transform="matrix(1,0,0,1,654.107,338.696)">
                <path d="M0,-20.941L-0.99,-14.69L9.977,-14.69L8.672,-6.452L-2.295,-6.452L-3.316,-0.001L8.246,-0.001L6.941,8.236L-14.348,8.236L-8.422,-29.177L12.867,-29.177L11.563,-20.941L0,-20.941Z" style="fill:rgb(29,29,27);fill-rule:nonzero;"/>
            </g>
            <g transform="matrix(1,0,0,1,678.082,317.754)">
                <path d="M0,20.941L11.66,20.941L10.357,29.177L-11.029,29.177L-5.104,-8.236L4.621,-8.236L0,20.941Z" style="fill:rgb(29,29,27);fill-rule:nonzero;"/>
            </g>
            <g transform="matrix(1,0,0,1,697.539,346.931)">
                <path d="M0,-37.413L9.729,-37.413L23.918,-14.539L24.018,-14.539L27.641,-37.413L37.365,-37.413L31.439,0L21.715,0L7.531,-22.926L7.432,-22.926L3.801,0L-5.926,0L0,-37.413Z" style="fill:rgb(29,29,27);fill-rule:nonzero;"/>
            </g>
            <g transform="matrix(1,0,0,1,759.285,316.018)">
                <path d="M0,24.413L1.402,30.913L11.773,30.913L3.605,-6.5L-7.014,-6.5L-27.33,30.913L-17.008,30.913L-13.398,24.413L0,24.413ZM-1.451,16.97L-9.541,16.97L-3.635,5.06L-3.535,5.06L-1.451,16.97Z" style="fill:rgb(29,29,27);fill-rule:nonzero;"/>
            </g>
            <g transform="matrix(1,0,0,1,132.591,286.529)">
                <path d="M0,24.982L28.617,53.528L39.819,42.33L11.172,13.709L16.757,8.17L16.76,-2.965L20.739,-6.946L20.747,2.292L24.636,6.122L38.61,-7.865L42.386,-4.131C42.386,-6.534 41.678,-14.812 35.032,-21.291C27.587,-28.546 20.14,-24.305 17.572,-21.738L4.081,-8.247L7.437,-4.893L0,2.518L-7.425,-4.893L-4.071,-8.247L-17.561,-21.738C-20.128,-24.305 -27.578,-28.546 -35.021,-21.289C-41.666,-14.812 -42.222,-6.529 -42.222,-4.128L-38.601,-7.865L-24.628,6.122L-20.732,2.247L-20.731,-6.946L-16.75,-2.965L-16.757,8.145L-11.162,13.711L-39.523,42.042L-28.333,53.211L0,24.982Z" style="fill:rgb(29,29,27);fill-rule:nonzero;"/>
            </g>
        </g>
    </g>
</svg>
