<?xml version="1.0" encoding="UTF-8" standalone="no"?>
<!DOCTYPE svg PUBLIC "-//W3C//DTD SVG 1.1//EN" "http://www.w3.org/Graphics/SVG/1.1/DTD/svg11.dtd">
<svg width="100%" height="100%" viewBox="0 0 148 30" version="1.1" xmlns="http://www.w3.org/2000/svg" xmlns:xlink="http://www.w3.org/1999/xlink" xml:space="preserve" xmlns:serif="http://www.serif.com/" style="fill-rule:evenodd;clip-rule:evenodd;stroke-linejoin:round;stroke-miterlimit:2;">
    <g transform="matrix(1,0,0,1,-41,-3.50174)">
        <g transform="matrix(1,0,0,1,5.66339,0.837816)">
            <g id="path4577" transform="matrix(1,0,0,1,37.5833,2.66393)">
                <path d="M26.8,14.503C26.807,19.682 24.041,24.471 19.544,27.063C15.048,29.654 9.505,29.654 5.009,27.063C0.512,24.471 -2.254,19.682 -2.247,14.503C-2.254,9.324 0.512,4.535 5.009,1.944C9.505,-0.648 15.048,-0.648 19.544,1.944C24.041,4.535 26.807,9.324 26.8,14.503Z" style="fill:rgb(26,26,26);fill-rule:nonzero;"/>
            </g>
            <g id="g2814" transform="matrix(1.57346,0,0,-1.57346,-12.4217,6.10628)">
                <path id="path2816" d="M61.262,0.061L61.262,-11.42C61.262,-13.951 59.044,-15.875 56.117,-15.875C53.189,-15.875 50.972,-13.951 50.972,-11.42L50.972,-2.637C50.972,-1.152 52.164,0.061 53.649,0.061L53.837,0.061L53.837,-11.4C53.837,-12.76 55.051,-13.595 56.222,-13.595C57.351,-13.595 58.564,-12.821 58.564,-11.4L58.564,-2.491C58.564,-1.089 59.714,0.061 61.115,0.061" style="fill:rgb(26,26,26);fill-rule:nonzero;"/>
            </g>
            <g id="g2818" transform="matrix(1.57346,0,0,-1.57346,-3.53995,12.4897)">
                <path id="path2820" d="M61.262,0.061C65.172,0.061 65.799,-2.135 65.799,-3.453L65.799,-11.651L65.674,-11.651C64.231,-11.651 62.998,-10.437 62.998,-8.995L62.998,-3.495C62.998,-2.721 62.684,-1.8 61.157,-1.8C60.446,-1.8 60.028,-1.884 59.567,-2.051L59.567,-11.651L56.765,-11.651L56.765,-0.797C57.958,-0.274 59.882,0.061 61.262,0.061" style="fill:rgb(26,26,26);fill-rule:nonzero;"/>
            </g>
            <g id="g2822" transform="matrix(1.57346,0,0,-1.57346,9.90164,12.4897)">
                <path id="path2824" d="M61.262,0.061L61.262,-9.015C61.262,-10.458 60.09,-11.651 58.627,-11.651L58.501,-11.651L58.501,0.061L61.262,0.061ZM59.881,4.118C60.718,4.118 61.387,3.49 61.387,2.717C61.387,1.964 60.718,1.357 59.881,1.357C59.045,1.357 58.355,1.964 58.355,2.717C58.355,3.49 59.045,4.118 59.881,4.118" style="fill:rgb(26,26,26);fill-rule:nonzero;"/>
            </g>
            <g id="g2826" transform="matrix(1.57346,0,0,-1.57346,22.4297,5.74539)">
                <path id="path2828" d="M61.262,0.061C62.58,0.061 63.813,-0.232 64.838,-0.859L64.838,-3.619C64.211,-2.804 63.311,-2.239 61.869,-2.239C59.024,-2.239 57.268,-5.041 57.268,-7.948C57.268,-10.688 59.108,-13.679 61.869,-13.679C63.081,-13.679 64.19,-13.323 64.838,-12.445L64.838,-15.163C64.022,-15.77 62.747,-16.104 61.241,-16.104C56.724,-16.104 54.34,-11.964 54.34,-7.969C54.34,-4.038 56.724,0.061 61.262,0.061" style="fill:rgb(26,26,26);fill-rule:nonzero;"/>
            </g>
            <g id="g2830" transform="matrix(1.57346,0,0,-1.57346,35.8477,12.4897)">
                <path id="path2832" d="M61.262,0.061C61.721,0.061 62.308,0.019 62.83,-0.065L62.83,-2.302C61.868,-1.612 60.593,-1.843 60.028,-2.135L60.028,-9.015C60.028,-10.458 58.836,-11.651 57.392,-11.651L57.247,-11.651L57.247,-0.839C58.334,-0.316 59.443,0.061 61.262,0.061" style="fill:rgb(26,26,26);fill-rule:nonzero;"/>
            </g>
            <g id="g2834" transform="matrix(1.57346,0,0,-1.57346,49.7662,19.4006)">
                <path id="path2836" d="M61.262,0.061C61.178,2.383 59.735,2.633 58.961,2.633L58.856,2.633C57.288,2.592 56.556,1.483 56.556,-0.587L61.262,0.061ZM63.688,-1.528L56.723,-2.49C56.954,-4.393 57.916,-5.397 59.672,-5.397C61.617,-5.397 62.599,-4.77 63.311,-4.268L63.311,-6.589C62.599,-6.966 61.283,-7.426 59.401,-7.426C55.992,-7.426 53.963,-5.126 53.963,-1.445C53.963,2.131 55.845,4.453 58.94,4.453C61.993,4.453 63.688,2.424 63.688,-1.089" style="fill:rgb(26,26,26);fill-rule:nonzero;"/>
            </g>
            <g id="g2838" transform="matrix(1.57346,0,0,-1.57346,65.0732,16.0436)">
                <path id="path2840" d="M61.262,0.061C60.969,0.144 60.655,0.186 60.3,0.186C57.999,0.186 57.518,-2.031 57.518,-3.871C57.518,-6.444 58.376,-7.719 60.111,-7.719C60.403,-7.719 61.052,-7.656 61.262,-7.615L61.262,0.061ZM64.001,6.377L64.001,-9.246C63.332,-9.392 61.136,-9.559 60.216,-9.559L60.028,-9.559C56.619,-9.518 54.758,-7.552 54.758,-4.017C54.758,-0.442 56.703,1.859 59.714,1.859C60.3,1.859 60.801,1.796 61.241,1.692L61.241,3.72C61.241,5.184 62.412,6.377 63.875,6.377" style="fill:rgb(26,26,26);fill-rule:nonzero;"/>
            </g>
            <g id="g2842" transform="matrix(1.57346,0,0,-1.57346,75.782,12.4897)">
                <path id="path2844" d="M61.262,0.061L61.262,-9.015C61.262,-10.458 60.09,-11.651 58.626,-11.651L58.501,-11.651L58.501,0.061L61.262,0.061ZM59.881,4.118C60.718,4.118 61.387,3.49 61.387,2.717C61.387,1.964 60.718,1.357 59.881,1.357C59.045,1.357 58.355,1.964 58.355,2.717C58.355,3.49 59.045,4.118 59.881,4.118" style="fill:rgb(26,26,26);fill-rule:nonzero;"/>
            </g>
            <g id="g2846" transform="matrix(1.57346,0,0,-1.57346,83.4756,6.10628)">
                <path id="path2848" d="M61.262,0.061L61.262,-3.996L63.06,-3.996L63.06,-6.234L61.262,-6.234L61.262,-12.446C61.262,-13.198 61.513,-13.428 62.328,-13.428C62.537,-13.428 62.85,-13.365 63.06,-13.282L63.06,-15.603C62.935,-15.645 62.391,-15.875 61.659,-15.875C59.609,-15.875 58.48,-14.871 58.48,-13.052L58.48,-6.234L57.267,-6.234L57.267,-3.996L58.48,-3.996L58.48,-2.574C58.48,-1.131 59.651,0.061 61.094,0.061" style="fill:rgb(26,26,26);fill-rule:nonzero;"/>
            </g>
            <g id="g2762" transform="matrix(1.56558,0,0,-1.56558,-45.6008,12.4138)">
                <path id="path2764" d="M61.262,0.061C61.262,0.061 62.323,1.434 62.424,1.602C62.525,1.771 62.566,1.906 62.278,2.086C61.991,2.266 61.029,2.829 60.838,2.975C60.647,3.121 60.68,3.661 61.243,3.774C61.805,3.886 66.689,4.291 68.59,4.089C70.492,3.886 70.234,3.346 70.245,2.908C70.256,2.469 69.48,1.838 68.444,0.905C68.444,0.905 66.734,-0.682 65.485,-1.773C64.236,-2.865 60.242,-6.229 59.465,-6.837C58.688,-7.445 55.678,-9.684 55.483,-9.831C55.287,-9.978 54.741,-10.417 54.443,-10.111C54.146,-9.805 54.443,-9.463 54.595,-9.253C54.745,-9.045 60.812,-0.48 61.262,0.061" style="fill:rgb(204,204,204);fill-rule:nonzero;"/>
            </g>
        </g>
    </g>
</svg>
