<?xml version="1.0" encoding="utf-8"?>
<!-- Generator: Adobe Illustrator 19.0.0, SVG Export Plug-In . SVG Version: 6.00 Build 0)  -->
<svg version="1.1" id="layer" xmlns="http://www.w3.org/2000/svg" xmlns:xlink="http://www.w3.org/1999/xlink" x="0px" y="0px"
	 viewBox="-153 -46 652 652" style="enable-background:new -153 -46 652 652;" xml:space="preserve">
<style type="text/css">
	.st0{fill:#133578;}
	.st1{fill:#74AF27;}
</style>
<polygon class="st0" points="53.2,284 50.6,324.7 43.2,324.7 44.4,306.9 26.1,306.9 24.9,324.7 17.4,324.7 20.1,284 27.6,284 
	26.3,301.1 44.7,301.1 45.8,284 "/>
<g>
	<path class="st0" d="M85.9,295.8l-1.6,28.7c-0.7,11.5-5.4,15.1-15.4,15.1c-2.6,0-3.8-0.1-6.7-0.9l0.3-5.3c2.9,0.7,4.2,0.8,6.6,0.8
		c4.6,0,8.1-2,8.5-9.2l0.3-3.9c-2,2.4-5.1,4.2-8.7,4.2c-5.1,0-8.5-3-8.5-9.5c0-1.8,1.5-13,0.5-20.1h6.6c0.7,5.7-0.7,16.5-0.7,18.6
		c0,3.1,1,4.9,4,4.9c4.1,0,7.1-3.1,7.5-10.3l0.7-13.3H85.9z"/>
	<path class="st0" d="M101.4,316.8c1.2,1.5,3,2.4,5.2,2.4c4.7,0,8.2-4.7,8.2-10.8c0-4.6-1.8-7.4-5.3-7.4c-4.4,0-7.4,4.1-7.8,10.4
		L101.4,316.8z M111.3,295c6.4,0,10.6,4.7,10.6,11.9c0,11.2-5.7,18.1-13.8,18.1c-3.1,0-5-0.7-6.7-2.3l-1,16.8h-6.8l2.1-36.3
		c0.1-2.6-0.3-5.9-0.7-7.5h6.6c0.3,1,0.5,1.6,0.5,3.5C104.9,296.3,107.6,295,111.3,295"/>
	<path class="st0" d="M141.6,300.8c-4.7,0-7.6,3.9-7.6,10.6c0,5.1,2.4,8.1,6.6,8.1c4.6,0,7.7-4.1,7.7-10.4
		C148.3,304,145.9,300.8,141.6,300.8 M140.2,325.6c-8.1,0-13.3-5.5-13.3-14.2c0-10.2,5.9-16.3,15-16.3c8.3,0,13.2,5.3,13.2,14
		C155.2,319.3,149.7,325.6,140.2,325.6"/>
	<path class="st0" d="M179.2,295.8l-0.4,5h-8.5l-0.8,14.8c-0.2,3.3,1.1,4.6,3.5,4.6c1.4,0,3.2-0.7,5.4-2l-0.3,5.4
		c-1.9,1.3-4.2,1.9-6.8,1.9c-5.8,0-8.9-2.9-8.6-8.4l1-16.3h-4.1l0.3-5h4.1l0.4-7.3h6.5l-0.3,7.3H179.2z"/>
	<path class="st0" d="M197.9,300.4c-3.2,0-6.5,3.8-7.2,7.9c1,0.1,1.4,0.1,2.1,0.1c5.3,0,8.7-1.9,8.7-4.7
		C201.5,301.9,200,300.4,197.9,300.4 M205.3,322.8c-3.3,1.9-6,2.7-9.5,2.7c-7.7,0-12.5-5-12.5-13.2c0-9.9,6.5-17.2,15.2-17.2
		c5.9,0,9.7,3.1,9.7,8.1c0,6.1-6.2,10.2-15.8,10.2c-0.7,0-1.2-0.1-2.2-0.1c0.2,4.3,2.6,6.8,6.4,6.8c2.7,0,5.6-1,8.8-3L205.3,322.8z"
		/>
	<path class="st0" d="M260,295c5.2,0,9.3,3.7,8.9,10l-1,19.7h-6.8l1-18.7c0.2-3.1-2.1-5.1-4.5-5.1c-3.7,0-7.2,3.6-7.6,9.5l-0.9,14.3
		h-6.6c0,0,1.1-18.8,1.1-20.4c0-4.3-0.2-6.5-0.8-8.5h6.6c0.5,1.4,0.5,1.8,0.8,3.9C252.7,296.7,256.5,295,260,295"/>
	<path class="st0" d="M330.1,301.1c-2.8,0-6.3,2.3-7.2,7.1c-0.5,1.4-0.8,5.3-1.1,10c1.8,1.1,2.5,1.3,4.5,1.3c5.5,0,8.9-4.5,8.9-11.4
		C335.2,303.9,333.9,301.1,330.1,301.1 M322.7,299.1c2.4-2.8,5.2-4,8.9-4c6.6,0,10.5,4.5,10.5,11.8c0,11-6.3,18.4-15.8,18.4
		c-3.9,0-8-1-11.4-2.7l2.6-43.2h6.6L322.7,299.1z"/>
	<path class="st0" d="M367.9,301.8c-1.7-0.5-2.9-0.7-4.3-0.7c-5.6,0-9.5,4.7-9.5,11.8c0,3.9,1.8,6.1,4.9,6.1c4.1,0,7.9-4.3,8.3-10.2
		L367.9,301.8z M357.6,325.3c-6.3,0-10.3-4.3-10.3-12.2c0-11.1,6.6-18,18-18c3.6,0,5.7,0.3,9.4,1.4l-1.3,20.4
		c-0.1,2.9,0.2,5.6,0.6,7.7h-6.2c0,0-0.5-2.1-0.5-4.2C365,323.7,361.2,325.3,357.6,325.3"/>
	<path class="st0" d="M399.8,295c5.2,0,9.3,3.7,8.9,10l-1.1,19.7h-6.8l1.1-18.7c0.2-3.1-2.1-5.1-4.5-5.1c-3.7,0-7.2,3.6-7.6,9.5
		l-0.9,14.3h-6.6c0,0,1.1-18.8,1.1-20.4c0-4.3-0.2-6.5-0.8-8.5h6.6c0.5,1.4,0.5,1.8,0.8,3.9C392.5,296.7,396.3,295,399.8,295"/>
	<path class="st0" d="M445.4,295.8l-15,12.1l6.6,9.4c1.6,2.4,3.9,5.4,5.6,7.4h-8.7c-1.2-1.7-2.8-3.9-4.5-6.4l-5.7-8.3l-0.9,14.6
		h-6.6l2.7-45h6.6l-1.6,26.1l11.6-10H445.4z"/>
	<path class="st0" d="M466.4,301.8c-1.7-0.5-2.9-0.7-4.3-0.7c-5.6,0-9.4,4.7-9.4,11.8c0,3.9,1.8,6.1,4.9,6.1c4.1,0,7.9-4.3,8.3-10.2
		L466.4,301.8z M456.1,325.3c-6.3,0-10.3-4.3-10.3-12.2c0-11.1,6.6-18,18-18c3.5,0,5.7,0.3,9.4,1.4l-1.2,20.4
		c-0.1,2.9,0.2,5.6,0.6,7.7h-6.2c0,0-0.5-2.1-0.5-4.2C463.5,323.7,459.8,325.3,456.1,325.3"/>
	<path class="st0" d="M233,291.6l7.6-8.3h-5.5l-5.8,4.3l-5-4.3h-5.5l6.4,8.3H233z M213,311.9c0,8.8,5.3,13.5,12.9,13.5
		c3.2,0,6-0.7,8.9-2.2v-6.2c-3,1.8-5.2,2.6-7.6,2.6c-4.5,0-7-3-7-7.9c0-6.2,3.4-10.5,8.5-10.5c2.4,0,3.9,0.6,6.2,1.7l1.2-6
		c-2.1-1-4.1-1.8-7.6-1.8C218.4,295.1,213,302.4,213,311.9"/>
	<path class="st0" d="M293,283.3h-9.1l-5,8.3h5.1L293,283.3z M277,324.7h6.7l1.5-28.9h-6.6L277,324.7z"/>
	<path class="st1" d="M2.6,324.7h-64.7c-2.9,0-5.3,2.4-5.3,5.3c0,2.9,2.4,5.3,5.3,5.3H2.6c2.9,0,5.3-2.4,5.3-5.3
		C7.9,327.1,5.6,324.7,2.6,324.7"/>
	<path class="st1" d="M12.8,265.9c0,0-58.1-44.2-58.9-44.8c-0.4,0.3-78.3,50.4-78.3,50.4c-1.2,0.8-2,1.9-2.3,3.3
		c-0.1,0.4-0.1,0.8-0.1,1.1c0,1,0.3,2,0.8,2.9c0.8,1.2,1.9,2,3.3,2.3c1.4,0.3,2.8,0,4-0.7l71.3-45.9c0,0,0.4-0.2,0.8-0.2
		c0.3,0,0.6,0.2,0.6,0.2l52.4,39.9c2.3,1.8,5.7,1.3,7.4-1c0.7-1,1.1-2.1,1.1-3.2C14.9,268.5,14.1,266.9,12.8,265.9"/>
	<path class="st0" d="M-42.5,270.1c5,0,9.1-4.1,9.1-9.1c0-5-4.1-9.1-9.1-9.1c-5,0-9.1,4.1-9.1,9.1C-51.6,266-47.5,270.1-42.5,270.1"
		/>
	<path class="st0" d="M-28.8,286.8c-0.1-0.1-0.2-0.4-0.2-0.7c0-0.6,0.6-0.8,1.3-1c1.2-0.4,4.6-2.2,7.3-4.2c1.4-1,2.7-2.5,2.7-4.8
		c0-3.3-2.8-5.6-5.8-5.6c-1.7,0-3.1,1.1-5.1,2.3c-3,1.9-7.4,4.2-14,4.2c-7.6,0-14.4-3-18.5-5.8c-3.4-2.3-5.4-4.5-8-4.5
		c-3.8,0-5.7,3.2-5.7,5.6c0,1.9,0.9,3.4,2.1,4.4c2.7,2.2,5.8,4,8.5,5.6c0.4,0.2,0.5,0.5,0.5,0.7c0,0.4-0.3,0.7-0.6,0.8
		c-10.9,6.3-19,13.7-30.6,33c-0.5,0.9-0.8,1.9-0.8,2.9c0,2.6,1.9,5.7,5.5,5.7c1.9,0,3.7-1,4.7-2.7c14.1-24.9,29.1-32.6,38-32.6
		c7.5,0,14.8,6.6,20.5,18.9h0c1,2.1,3.1,3.3,5.2,3.3c3.4,0,5.6-3.1,5.6-5.6C-16.2,303-23.6,291.3-28.8,286.8"/>
</g>
</svg>
