<?xml version="1.0" encoding="utf-8"?>
<!-- Generator: Adobe Illustrator 19.0.0, SVG Export Plug-In . SVG Version: 6.00 Build 0)  -->
<svg version="1.1" id="layer" xmlns="http://www.w3.org/2000/svg" xmlns:xlink="http://www.w3.org/1999/xlink" x="0px" y="0px"
	 viewBox="-153 -46 652 652" style="enable-background:new -153 -46 652 652;" xml:space="preserve">
<style type="text/css">
	.st0{fill:#00A124;}
	.st1{fill:#EE0303;}
	.st2{fill:#FF9200;}
	.st3{fill:#FF1802;}
	.st4{fill:#1C150F;}
	.st5{fill:#0078C1;}
	.st6{fill:#FFFFFF;}
</style>
<rect x="321.5" y="160.7" class="st0" width="146.7" height="230.8"/>
<rect x="206" y="160.7" class="st1" width="98.8" height="230.8"/>
<rect x="62.2" y="160.7" class="st2" width="143.8" height="230.8"/>
<rect x="-131.8" y="160.7" class="st3" width="169.4" height="230.8"/>
<rect x="37.6" y="160.7" class="st4" width="24.6" height="230.8"/>
<rect x="304.7" y="160.7" class="st5" width="16.8" height="230.8"/>
<path class="st6" d="M97.1,271.2h9.8c6.6,0,10.3-1,12.7-3.3c2.2-2,3.1-5,3.1-9.8c0-2.8-0.6-6.6-3.4-9.1c-2.4-2.2-6.2-3.1-13.1-3.1
	h-9.2V271.2z M97.1,312.7h12c13.5,0,18.5-3.8,18.5-14c0-4.8-1.2-8.1-3.6-10.2c-3.1-2.6-7.2-3.6-14.8-3.6H97.1V312.7z M74.6,329
	v-83.2h-9.5v-16.2H110c14.1,0,22.1,2.1,27.8,7.1c5,4.5,7.6,10.7,7.6,18.1c0,9-4.2,16.4-11.5,20.3l-0.5,0.3l0.5,0.2
	c11.4,3.4,17.4,11.7,17.4,24.2c0,12-4.6,20.1-14.1,24.8c-5.9,3-14,4.4-26.2,4.4H74.6z M293.7,329v-46.5c0-4.7-0.4-8-2.4-10.8
	c-2-2.6-5.3-4-9.4-4c-4.3,0-7.8,1.6-10.2,4.6c-2.5,3.3-3,7.5-3,12.9V329h-21.6v-60.8h-9v-15.5h22.1l3.6,9.2l0.2-0.3
	c5.4-6.6,13.8-10.3,23.7-10.3c9,0,16.3,2.6,21,7.4c4.6,4.9,6.6,11.2,6.6,20.5V329H293.7z M391.2,329.9c-8.2,0-13.3-3.2-18.1-11.3
	l-13.9-23.2h-6.6V329H331v-91.7h-9v-15.5h30.6v57.5h7.5l15.4-26.6h21.6l-19.8,34l14.8,24.5c1.9,3.1,3.3,4.1,5.8,4.1
	c1.9,0,4.2-0.7,5.8-1.9l0.8-0.6l-0.7,13.5l-0.2,0.1C400.7,328.5,396,329.9,391.2,329.9 M48.9,329.9c-6.4,0-11-1.8-13.6-5.5
	c-1.9-2.7-2.9-6.8-2.9-12.4v-29.6c0-4.8-0.2-7.9-2.2-10.8c-2-2.5-5.3-4-9.1-4c-4,0-7.5,1.6-9.7,4.5c-2.1,2.9-3,6.6-3,12.8v44h-21.6
	v-46.5c0-4.8-0.2-7.9-2.2-10.8c-1.9-2.5-5.3-4-9.1-4c-4,0-7.5,1.6-9.7,4.5c-2.1,2.9-3,6.6-3,12.8v44H-59v-60.8h-9v-15.5H-46l3.5,9.1
	l0.3-0.3c5-6.5,13.5-10.2,23.4-10.2c10.4,0,18,3.3,22.6,9.7l0.2,0.2l0.2-0.2c3.1-3.6,10.1-9.7,22.8-9.7c10.2,0,18.3,3.4,22.6,9.7
	c3.1,4.4,4.4,9.9,4.4,18.4v31.7c0,3.7,1.7,4.2,3.3,4.2c1.7,0,4.4-1,5.6-1.9l0.8-0.6l-0.7,13l-0.2,0.1
	C60,327.9,54.9,329.9,48.9,329.9 M194.4,291.7c-8.1,0-12.8,4.5-12.8,12.3c0,7.7,4.1,12.1,11.4,12.1c3.5,0,6.7-1.3,8.7-3.4
	c2-2.1,3-5.3,3-9.2v-10.1l-0.1-0.1C202.2,292.5,198.1,291.7,194.4,291.7 M187.1,330.4c-16.8,0-27.2-9.8-27.2-25.5
	c0-16.3,11.2-26,30-26c4.7,0,10.3,0.8,14.5,2.2l0.3,0.1v-1.4c0-5.3-0.7-8-2.8-10.4c-2.3-2.6-6.4-3.9-12.2-3.9
	c-7.4,0-15.3,2-22.3,5.5l-0.7,0.3v-15l0.3-0.1c7.1-3.2,16.3-5,26-5c12.2,0,20.8,2.6,26.6,8c4.7,4.3,6.8,10.6,6.8,19.6v32.2
	c0,3,0.9,4.2,3.1,4.2c1.7,0,4.6-1.1,5.8-1.9l0.8-0.6l-0.9,13l-0.2,0.1c-3.5,2.4-8.9,4-14.1,4c-6.5,0-11.4-2.6-13.4-7.1l-0.1-0.3
	l-0.2,0.3C202.8,327.5,195.3,330.4,187.1,330.4"/>
</svg>
