<?xml version="1.0" encoding="UTF-8"?>
<!-- Generator: Adobe Illustrator 16.0.3, SVG Export Plug-In . SVG Version: 6.00 Build 0)  -->
<!DOCTYPE svg PUBLIC "-//W3C//DTD SVG 1.1//EN" "http://www.w3.org/Graphics/SVG/1.1/DTD/svg11.dtd">
<svg version="1.1" id="Vrstva_1" xmlns="http://www.w3.org/2000/svg" xmlns:xlink="http://www.w3.org/1999/xlink" x="0px" y="0px" width="225px" height="79px" viewBox="0 0 225 79" enable-background="new 0 0 225 79" xml:space="preserve">
<g>
	<defs>
		<rect id="SVGID_1_" x="0" width="225" height="79"/>
	</defs>
	<clipPath id="SVGID_2_">
		<use xlink:href="#SVGID_1_" overflow="visible"/>
	</clipPath>
	<g id="Äsob_ps" clip-path="url(#SVGID_2_)">
		<path fill="#003366" d="M96.548,43.355v4.474c0,0.091-0.014,0.151-0.042,0.179c-0.03,0.028-0.088,0.043-0.18,0.043h-1.594    c-0.092,0-0.152-0.015-0.18-0.043c-0.028-0.028-0.043-0.088-0.043-0.179V36.807c0-0.092,0.015-0.151,0.043-0.18    c0.028-0.028,0.088-0.043,0.18-0.043h2.777c0.354,0,0.754,0.018,1.199,0.051c0.446,0.035,0.866,0.149,1.26,0.343    c0.394,0.195,0.726,0.5,0.994,0.917c0.269,0.417,0.402,1.008,0.402,1.774c0,0.686-0.113,1.264-0.342,1.731    c-0.228,0.468-0.522,0.848-0.882,1.14c-0.36,0.292-0.765,0.5-1.217,0.625c-0.45,0.125-0.895,0.188-1.328,0.188H96.548z     M96.548,38.11v3.719h0.668c0.264,0,0.521-0.021,0.771-0.06c0.251-0.041,0.477-0.129,0.677-0.267s0.36-0.344,0.479-0.617    c0.121-0.274,0.181-0.641,0.181-1.098c0-0.411-0.06-0.728-0.181-0.951c-0.12-0.223-0.271-0.388-0.453-0.497    c-0.184-0.109-0.389-0.174-0.618-0.197c-0.228-0.024-0.458-0.034-0.685-0.034H96.548z M104.022,48.034    c-0.446-0.205-0.823-0.497-1.131-0.874c-0.31-0.377-0.545-0.837-0.711-1.38c-0.166-0.542-0.249-1.152-0.249-1.825    c0-0.675,0.083-1.283,0.249-1.826c0.166-0.542,0.402-1.003,0.711-1.38c0.308-0.377,0.685-0.667,1.131-0.874    c0.445-0.206,0.943-0.308,1.491-0.308c0.549,0,1.043,0.103,1.482,0.308c0.441,0.207,0.817,0.497,1.132,0.874    c0.314,0.377,0.555,0.838,0.72,1.38c0.166,0.543,0.249,1.151,0.249,1.826c0,0.673-0.083,1.283-0.249,1.825    c-0.165,0.542-0.403,1.002-0.711,1.38c-0.308,0.377-0.686,0.669-1.132,0.874c-0.445,0.206-0.942,0.309-1.491,0.309    C104.965,48.343,104.467,48.24,104.022,48.034 M104.708,41.246c-0.207,0.16-0.363,0.377-0.472,0.652    c-0.108,0.275-0.181,0.589-0.214,0.942c-0.034,0.355-0.051,0.726-0.051,1.115c0,0.388,0.017,0.76,0.051,1.112    c0.033,0.355,0.106,0.669,0.214,0.944c0.109,0.274,0.264,0.491,0.464,0.65c0.2,0.161,0.471,0.241,0.813,0.241    c0.343,0,0.615-0.08,0.814-0.241c0.2-0.16,0.354-0.376,0.462-0.65c0.109-0.275,0.18-0.589,0.214-0.944    c0.035-0.352,0.052-0.725,0.052-1.112c0-0.39-0.018-0.76-0.052-1.115c-0.034-0.354-0.105-0.667-0.214-0.942    c-0.108-0.274-0.265-0.492-0.471-0.652c-0.207-0.159-0.475-0.24-0.806-0.24C105.182,41.006,104.915,41.087,104.708,41.246     M111.504,48.086c-0.531-0.172-0.963-0.371-1.295-0.601c-0.034-0.034-0.057-0.063-0.068-0.085c-0.011-0.023-0.011-0.049,0-0.078    c0.012-0.028,0.023-0.06,0.035-0.095c0.023-0.068,0.034-0.096,0.034-0.085l0.343-0.873c0.023-0.046,0.045-0.069,0.069-0.069    c0.034,0.011,0.057,0.017,0.068,0.017c0.126,0.058,0.24,0.105,0.343,0.146c0.103,0.04,0.223,0.088,0.36,0.145    c0.229,0.092,0.488,0.181,0.78,0.267c0.292,0.085,0.579,0.128,0.865,0.128c0.297,0,0.569-0.075,0.814-0.223    c0.246-0.149,0.369-0.405,0.369-0.772c0-0.297-0.109-0.525-0.326-0.686c-0.217-0.16-0.463-0.297-0.736-0.412    c-0.309-0.125-0.621-0.237-0.935-0.334c-0.314-0.097-0.608-0.242-0.883-0.437c-0.24-0.161-0.458-0.383-0.652-0.669    c-0.194-0.285-0.291-0.667-0.291-1.148c0-0.366,0.069-0.711,0.206-1.038c0.137-0.325,0.328-0.608,0.574-0.848    c0.246-0.241,0.549-0.428,0.909-0.566c0.36-0.137,0.763-0.206,1.208-0.206c0.49,0,0.971,0.065,1.439,0.197    c0.469,0.132,0.817,0.265,1.046,0.403c0.046,0.023,0.058,0.075,0.035,0.154c-0.012,0.023-0.021,0.046-0.027,0.069    c-0.005,0.023-0.014,0.045-0.026,0.068c-0.091,0.229-0.168,0.409-0.23,0.541c-0.063,0.13-0.117,0.26-0.163,0.386    c-0.012,0.022-0.029,0.035-0.052,0.035h-0.017c-0.023-0.012-0.034-0.012-0.034,0l-0.034-0.018    c-0.298-0.126-0.604-0.223-0.917-0.292c-0.314-0.068-0.631-0.103-0.952-0.103c-0.332,0-0.626,0.072-0.883,0.214    c-0.257,0.145-0.386,0.392-0.386,0.746c0,0.285,0.104,0.503,0.309,0.651c0.206,0.148,0.44,0.269,0.702,0.36    c0.138,0.056,0.281,0.109,0.429,0.154c0.149,0.046,0.303,0.098,0.463,0.154c0.16,0.057,0.317,0.123,0.472,0.197    c0.154,0.075,0.306,0.163,0.454,0.266c0.32,0.207,0.58,0.466,0.78,0.78c0.2,0.315,0.3,0.711,0.3,1.191    c0,0.377-0.063,0.726-0.188,1.046c-0.127,0.319-0.31,0.598-0.549,0.832c-0.24,0.235-0.534,0.417-0.883,0.548    c-0.349,0.131-0.74,0.197-1.174,0.197C112.604,48.343,112.035,48.256,111.504,48.086 M115.275,37.047    c-0.017,0.011-0.038,0.029-0.061,0.051l-1.937,1.525c-0.024,0.013-0.049,0.032-0.077,0.061c-0.029,0.029-0.055,0.044-0.077,0.044    c-0.024,0-0.052-0.015-0.086-0.044c-0.035-0.029-0.057-0.048-0.068-0.061l-1.938-1.525c-0.022-0.022-0.042-0.04-0.059-0.051    s-0.048-0.04-0.095-0.085c0-0.023,0.011-0.052,0.034-0.085c0.023-0.035,0.04-0.063,0.052-0.085l0.325-0.55    c0.057-0.102,0.097-0.154,0.121-0.154c0.022,0,0.051,0.012,0.086,0.035c0.034,0.022,0.062,0.04,0.085,0.052l1.543,0.874    l1.543-0.874c0.022-0.012,0.05-0.029,0.085-0.052c0.034-0.022,0.063-0.035,0.085-0.035c0.023,0,0.063,0.052,0.12,0.154l0.326,0.55    c0.011,0.023,0.028,0.051,0.051,0.085c0.023,0.034,0.035,0.063,0.035,0.085l-0.035,0.034    C115.312,37.019,115.292,37.036,115.275,37.047 M119.406,48.078c0.28,0.176,0.677,0.265,1.191,0.265    c0.549,0,1.026-0.049,1.431-0.146c0.406-0.097,0.672-0.214,0.797-0.351c0.034-0.034,0.041-0.074,0.017-0.12l-0.325-1.286    c-0.012-0.022-0.029-0.045-0.052-0.068c-0.023-0.023-0.075-0.023-0.154,0c-0.046,0.022-0.088,0.04-0.128,0.051    c-0.041,0.012-0.089,0.028-0.146,0.051c-0.114,0.047-0.246,0.086-0.394,0.121c-0.148,0.034-0.314,0.052-0.497,0.052    c-0.332,0-0.534-0.118-0.608-0.352c-0.075-0.234-0.111-0.512-0.111-0.831v-4.286h1.834c0.057,0,0.095-0.009,0.111-0.026    c0.017-0.018,0.038-0.06,0.061-0.129l0.222-1.011c0.012-0.034,0.017-0.063,0.017-0.086c0-0.045-0.017-0.068-0.051-0.068h-0.103    h-2.091v-2.521c0-0.08-0.011-0.131-0.034-0.154c-0.023-0.023-0.058-0.028-0.103-0.017c-0.046,0.011-0.081,0.017-0.103,0.017    l-1.509,0.207c-0.068,0.01-0.111,0.028-0.127,0.051c-0.018,0.022-0.026,0.063-0.026,0.12v2.297h-1.354    c-0.068,0-0.102,0.034-0.102,0.102v1.115c0,0.069,0.034,0.103,0.102,0.103h1.354v3.995c0,0.399,0.011,0.791,0.034,1.173    c0.023,0.383,0.1,0.723,0.231,1.02C118.92,47.663,119.126,47.9,119.406,48.078 M125.743,48.034    c-0.445-0.205-0.823-0.497-1.131-0.874c-0.309-0.377-0.545-0.837-0.711-1.38c-0.166-0.542-0.249-1.152-0.249-1.825    c0-0.675,0.083-1.283,0.249-1.826c0.166-0.542,0.403-1.003,0.711-1.38c0.308-0.377,0.686-0.667,1.131-0.874    c0.446-0.206,0.943-0.308,1.492-0.308c0.548,0,1.042,0.103,1.482,0.308c0.44,0.207,0.817,0.497,1.132,0.874    c0.313,0.377,0.554,0.838,0.72,1.38c0.165,0.543,0.248,1.151,0.248,1.826c0,0.673-0.083,1.283-0.248,1.825    c-0.166,0.542-0.403,1.002-0.711,1.38c-0.309,0.377-0.687,0.669-1.132,0.874c-0.446,0.206-0.943,0.309-1.491,0.309    C126.686,48.343,126.188,48.24,125.743,48.034 M126.429,41.246c-0.207,0.16-0.363,0.377-0.472,0.652    c-0.109,0.275-0.18,0.589-0.214,0.942c-0.035,0.355-0.051,0.726-0.051,1.115c0,0.388,0.017,0.76,0.051,1.112    c0.034,0.355,0.105,0.669,0.214,0.944c0.109,0.274,0.263,0.491,0.463,0.65c0.2,0.161,0.472,0.241,0.814,0.241    c0.342,0,0.614-0.08,0.814-0.241c0.2-0.16,0.354-0.376,0.462-0.65c0.109-0.275,0.181-0.589,0.214-0.944    c0.034-0.352,0.052-0.725,0.052-1.112c0-0.39-0.018-0.76-0.052-1.115c-0.034-0.354-0.105-0.667-0.214-0.942    c-0.109-0.274-0.266-0.492-0.471-0.652c-0.206-0.159-0.474-0.24-0.805-0.24C126.903,41.006,126.634,41.087,126.429,41.246     M138.804,40.167c0-0.022,0.006-0.049,0.018-0.078c0.01-0.028,0.023-0.07,0.034-0.128c0-0.034-0.02-0.054-0.06-0.06    c-0.041-0.005-0.101-0.014-0.18-0.026l-1.166-0.155c-0.023,0-0.051-0.002-0.085-0.008c-0.034-0.006-0.063-0.008-0.085-0.008    h-0.035c-0.035,0-0.063,0.016-0.085,0.05c-0.023,0.035-0.047,0.099-0.069,0.189l-1.167,3.856    c-0.044,0.171-0.099,0.369-0.162,0.592c-0.063,0.222-0.126,0.452-0.188,0.686c-0.064,0.234-0.123,0.466-0.18,0.694    c-0.058,0.229-0.109,0.436-0.155,0.617h-0.102c-0.035-0.182-0.081-0.388-0.138-0.617c-0.058-0.228-0.115-0.46-0.172-0.694    c-0.056-0.234-0.117-0.463-0.179-0.686c-0.063-0.223-0.118-0.42-0.164-0.592l-1.044-3.856c-0.011-0.057-0.029-0.111-0.052-0.164    c-0.023-0.051-0.057-0.076-0.103-0.076c-0.023,0-0.057,0.002-0.103,0.008c-0.046,0.005-0.085,0.008-0.12,0.008l-1.406,0.155    c-0.137,0.012-0.211,0.041-0.223,0.085c-0.011,0.035-0.009,0.072,0.009,0.112c0.017,0.04,0.025,0.071,0.025,0.094l2.744,7.901    c0.022,0.059,0.042,0.096,0.06,0.113c0.017,0.016,0.06,0.025,0.128,0.025h1.406c0.068,0,0.111-0.009,0.128-0.025    c0.017-0.017,0.037-0.054,0.06-0.113L138.804,40.167z M146.896,48.052c0.068,0,0.103-0.035,0.103-0.104v-6.017    c0-0.491-0.066-0.891-0.198-1.199c-0.131-0.308-0.301-0.549-0.505-0.72c-0.207-0.171-0.432-0.289-0.678-0.352    c-0.247-0.063-0.482-0.094-0.712-0.094c-0.411,0-0.788,0.065-1.131,0.197c-0.343,0.132-0.668,0.323-0.978,0.575    c-0.08,0.068-0.162,0.142-0.248,0.223c-0.087,0.081-0.203,0.183-0.351,0.308c-0.092-0.434-0.169-0.736-0.232-0.908    c-0.064-0.171-0.123-0.291-0.18-0.36c-0.023-0.034-0.061-0.046-0.112-0.034c-0.051,0.011-0.106,0.028-0.163,0.05l-1.304,0.43    c-0.045,0.023-0.067,0.051-0.067,0.085c-0.012,0.046-0.006,0.098,0.018,0.154c0.022,0.046,0.042,0.094,0.059,0.146    c0.018,0.051,0.037,0.124,0.061,0.214c0.045,0.16,0.085,0.4,0.119,0.72c0.035,0.32,0.053,0.788,0.053,1.405v5.177    c0,0.069,0.034,0.104,0.102,0.104h1.698c0.068,0,0.103-0.035,0.103-0.104v-6.084c0.069-0.057,0.157-0.131,0.266-0.223    c0.108-0.091,0.231-0.177,0.368-0.257c0.139-0.08,0.292-0.149,0.464-0.206c0.17-0.057,0.354-0.086,0.548-0.086    c0.262,0,0.465,0.055,0.608,0.163c0.143,0.109,0.25,0.239,0.326,0.394c0.074,0.154,0.12,0.323,0.137,0.505    c0.017,0.184,0.024,0.355,0.024,0.516v5.278c0,0.069,0.035,0.104,0.104,0.104H146.896z M150.137,48.052    c-0.07,0-0.104-0.035-0.104-0.104v-6.77h-1.456c-0.068,0-0.103-0.034-0.103-0.103V39.96c0-0.067,0.035-0.102,0.103-0.102h3.257    c0.069,0,0.104,0.035,0.104,0.102v7.988c0,0.069-0.034,0.104-0.104,0.104H150.137z M153.136,37.432    c-0.035,0.006-0.063,0.021-0.085,0.043l-3.019,1.2c-0.022,0.011-0.05,0.023-0.085,0.035c-0.034,0.011-0.068,0.018-0.103,0.018    c-0.034,0-0.054-0.018-0.061-0.052c-0.004-0.034-0.019-0.074-0.042-0.121l-0.274-0.547c-0.012-0.023-0.027-0.052-0.043-0.086    c-0.017-0.035-0.025-0.063-0.025-0.086c0-0.034,0.013-0.058,0.041-0.069c0.029-0.011,0.067-0.028,0.113-0.052l2.794-1.644    c0.022-0.011,0.05-0.028,0.086-0.052c0.033-0.023,0.063-0.034,0.085-0.034s0.04,0.011,0.051,0.034    c0.012,0.024,0.018,0.041,0.018,0.052c0.01,0.011,0.028,0.041,0.051,0.085l0.531,1.046c0.012,0.023,0.025,0.051,0.043,0.084    c0.016,0.036,0.025,0.064,0.025,0.087c0,0.012-0.006,0.018-0.018,0.018C153.199,37.413,153.17,37.426,153.136,37.432     M95.152,65.496c0.531,0.17,1.1,0.256,1.705,0.256c0.435,0,0.826-0.066,1.174-0.197c0.348-0.131,0.642-0.314,0.883-0.549    c0.24-0.233,0.422-0.511,0.549-0.83c0.125-0.32,0.188-0.669,0.188-1.045c0-0.481-0.1-0.878-0.3-1.192    c-0.201-0.314-0.46-0.574-0.78-0.779c-0.149-0.103-0.3-0.192-0.455-0.266c-0.154-0.075-0.312-0.14-0.471-0.197    c-0.161-0.057-0.315-0.109-0.463-0.154c-0.149-0.046-0.292-0.098-0.429-0.154c-0.264-0.091-0.497-0.212-0.703-0.36    c-0.205-0.147-0.308-0.365-0.308-0.651c0-0.354,0.129-0.603,0.385-0.745c0.257-0.144,0.551-0.215,0.883-0.215    c0.319,0,0.636,0.035,0.951,0.102c0.315,0.068,0.62,0.167,0.918,0.292l0.034,0.018c0-0.012,0.012-0.012,0.034,0h0.018    c0.022,0,0.04-0.012,0.051-0.035c0.046-0.125,0.1-0.254,0.163-0.385c0.063-0.131,0.141-0.311,0.232-0.54    c0.011-0.023,0.019-0.045,0.025-0.069c0.006-0.022,0.015-0.045,0.026-0.068c0.022-0.08,0.011-0.131-0.034-0.154    c-0.229-0.137-0.578-0.272-1.046-0.403c-0.468-0.131-0.948-0.197-1.44-0.197c-0.445,0-0.847,0.069-1.208,0.206    c-0.36,0.137-0.664,0.326-0.909,0.565c-0.246,0.241-0.437,0.523-0.574,0.85c-0.137,0.325-0.206,0.67-0.206,1.037    c0,0.479,0.097,0.863,0.292,1.148c0.194,0.286,0.412,0.51,0.651,0.669c0.274,0.195,0.569,0.34,0.883,0.437    c0.313,0.097,0.625,0.208,0.935,0.334c0.273,0.115,0.518,0.252,0.736,0.412c0.216,0.161,0.326,0.388,0.326,0.686    c0,0.365-0.122,0.623-0.368,0.771c-0.246,0.149-0.518,0.223-0.814,0.223c-0.286,0-0.574-0.042-0.866-0.128    c-0.291-0.086-0.551-0.174-0.78-0.265c-0.137-0.058-0.257-0.107-0.36-0.147c-0.103-0.04-0.216-0.088-0.342-0.146    c-0.012,0-0.035-0.005-0.069-0.016c-0.023,0-0.046,0.022-0.068,0.067l-0.343,0.874c0-0.012-0.012,0.018-0.035,0.087    c-0.011,0.034-0.022,0.065-0.034,0.094c-0.012,0.029-0.012,0.054,0,0.076c0.011,0.024,0.034,0.052,0.069,0.087    C94.188,65.124,94.621,65.324,95.152,65.496 M104.614,65.709c-0.178-0.029-0.329-0.06-0.455-0.094    c-0.137-0.046-0.257-0.097-0.36-0.155c-0.058-0.022-0.115-0.048-0.171-0.076c-0.057-0.029-0.161-0.083-0.309-0.164v3.36    c0,0.057-0.012,0.094-0.035,0.11c-0.023,0.018-0.085,0.037-0.188,0.061l-1.423,0.291c-0.034,0.012-0.075,0.023-0.12,0.035    c-0.046,0.01-0.081,0.005-0.104-0.019c-0.022-0.022-0.034-0.04-0.034-0.051v-0.137v-8.69c0-0.617-0.017-1.085-0.052-1.406    c-0.033-0.32-0.074-0.56-0.12-0.72c-0.022-0.091-0.042-0.163-0.06-0.214c-0.018-0.052-0.037-0.101-0.06-0.146    c0.011,0.011,0.006-0.009-0.018-0.06c-0.023-0.052-0.029-0.088-0.018-0.112c0.011-0.022,0.042-0.045,0.086-0.069l1.303-0.429    c0.057-0.022,0.111-0.037,0.163-0.042c0.051-0.005,0.087,0.003,0.111,0.026c0.057,0.057,0.117,0.157,0.18,0.3    c0.063,0.142,0.14,0.363,0.232,0.661c0.262-0.241,0.567-0.466,0.917-0.678c0.348-0.212,0.798-0.317,1.346-0.317    c0.891,0,1.586,0.346,2.083,1.037c0.497,0.691,0.746,1.757,0.746,3.197c0,1.497-0.237,2.628-0.71,3.395    c-0.476,0.766-1.244,1.148-2.306,1.148C105,65.752,104.791,65.738,104.614,65.709 M104.151,58.536    c-0.201,0.08-0.393,0.2-0.576,0.359l-0.256,0.258v4.782c0.091,0.057,0.186,0.109,0.283,0.154c0.096,0.046,0.197,0.086,0.3,0.12    c0.206,0.068,0.474,0.103,0.806,0.103c0.342,0,0.62-0.063,0.831-0.189c0.211-0.125,0.377-0.314,0.497-0.565    c0.12-0.251,0.203-0.565,0.249-0.943c0.045-0.376,0.068-0.816,0.068-1.319c0-0.434-0.023-0.829-0.068-1.184    c-0.045-0.354-0.126-0.657-0.24-0.908s-0.269-0.445-0.462-0.583c-0.194-0.137-0.445-0.206-0.755-0.206    C104.577,58.416,104.351,58.456,104.151,58.536 M111.719,65.443c-0.446-0.205-0.824-0.497-1.132-0.874    c-0.309-0.378-0.545-0.837-0.711-1.38s-0.249-1.15-0.249-1.826c0-0.674,0.083-1.283,0.249-1.825    c0.166-0.543,0.402-1.003,0.711-1.38c0.308-0.377,0.686-0.669,1.132-0.874c0.445-0.207,0.941-0.31,1.491-0.31    c0.548,0,1.042,0.103,1.482,0.31c0.441,0.205,0.817,0.496,1.131,0.874c0.314,0.377,0.555,0.837,0.721,1.38    c0.165,0.542,0.248,1.151,0.248,1.825c0,0.675-0.083,1.283-0.248,1.826c-0.166,0.543-0.404,1.002-0.712,1.38    c-0.308,0.376-0.686,0.668-1.131,0.874c-0.446,0.206-0.943,0.309-1.491,0.309C112.661,65.752,112.164,65.649,111.719,65.443     M112.405,58.656c-0.207,0.16-0.363,0.377-0.473,0.651c-0.108,0.273-0.18,0.588-0.213,0.942c-0.035,0.354-0.052,0.727-0.052,1.114    c0,0.388,0.017,0.76,0.052,1.114c0.033,0.355,0.104,0.668,0.213,0.943c0.109,0.274,0.264,0.491,0.464,0.652    c0.2,0.16,0.471,0.24,0.814,0.24s0.614-0.08,0.814-0.24c0.2-0.161,0.354-0.378,0.463-0.652c0.108-0.274,0.18-0.588,0.214-0.943    c0.034-0.354,0.052-0.726,0.052-1.114c0-0.388-0.018-0.76-0.052-1.114c-0.034-0.354-0.106-0.669-0.214-0.942    c-0.109-0.274-0.266-0.491-0.471-0.651c-0.207-0.16-0.475-0.24-0.806-0.24C112.878,58.416,112.61,58.496,112.405,58.656     M122.871,58.792c0,0.023-0.007,0.035-0.018,0.035c-0.012,0-0.017,0.005-0.017,0.017h-0.034c-0.024-0.012-0.049-0.022-0.078-0.034    c-0.028-0.012-0.065-0.022-0.111-0.035c-0.069-0.022-0.149-0.044-0.241-0.068c-0.091-0.022-0.193-0.035-0.308-0.035    c-0.137,0-0.278,0.035-0.42,0.103c-0.143,0.069-0.281,0.149-0.412,0.24c-0.13,0.092-0.248,0.191-0.351,0.3    c-0.103,0.108-0.188,0.198-0.256,0.264v5.778c0,0.069-0.035,0.103-0.104,0.103h-1.696c-0.069,0-0.103-0.034-0.103-0.103v-5.177    c0-0.48-0.024-0.865-0.069-1.157c-0.046-0.292-0.097-0.535-0.154-0.729c-0.023-0.091-0.049-0.174-0.078-0.25    c-0.029-0.073-0.055-0.138-0.078-0.196c-0.045-0.092-0.069-0.167-0.069-0.223c0-0.023,0.023-0.046,0.069-0.069l1.286-0.514    c0.022-0.011,0.043-0.021,0.06-0.027c0.017-0.004,0.038-0.013,0.06-0.025c0.023-0.01,0.063,0,0.12,0.034    c0.057,0.058,0.14,0.218,0.249,0.481c0.109,0.262,0.191,0.6,0.249,1.01c0.137-0.17,0.239-0.296,0.308-0.377    c0.068-0.079,0.131-0.159,0.189-0.239c0.228-0.263,0.48-0.482,0.754-0.661c0.274-0.176,0.594-0.265,0.959-0.265    c0.206,0,0.378,0.026,0.515,0.077c0.137,0.052,0.233,0.106,0.291,0.164c0.045,0.056,0.045,0.125,0,0.205L122.871,58.792z     M123.136,54.456c-0.017,0.012-0.038,0.029-0.06,0.052l-1.937,1.526c-0.022,0.011-0.048,0.031-0.076,0.06    c-0.03,0.028-0.055,0.042-0.078,0.042c-0.024,0-0.052-0.014-0.086-0.042c-0.034-0.029-0.057-0.049-0.068-0.06l-1.937-1.526    c-0.023-0.023-0.043-0.04-0.06-0.052c-0.017-0.011-0.049-0.04-0.094-0.085c0-0.023,0.011-0.051,0.034-0.085    c0.023-0.035,0.04-0.063,0.052-0.086l0.325-0.548c0.058-0.104,0.098-0.153,0.12-0.153s0.051,0.011,0.085,0.034    c0.035,0.023,0.063,0.04,0.086,0.051l1.543,0.874l1.542-0.874c0.022-0.011,0.051-0.028,0.086-0.051    c0.034-0.023,0.063-0.034,0.086-0.034c0.022,0,0.063,0.05,0.119,0.153l0.326,0.548c0.011,0.024,0.028,0.052,0.052,0.086    c0.022,0.034,0.035,0.063,0.035,0.085l-0.035,0.035C123.173,54.427,123.153,54.444,123.136,54.456 M125.939,65.461    c-0.069,0-0.104-0.034-0.104-0.103v-6.772h-1.457c-0.068,0-0.103-0.034-0.103-0.102V57.37c0-0.068,0.035-0.102,0.103-0.102h3.257    c0.069,0,0.103,0.034,0.103,0.102v7.989c0,0.069-0.034,0.103-0.103,0.103H125.939z M125.861,55.511    c-0.245-0.246-0.368-0.552-0.368-0.917c0-0.355,0.123-0.654,0.368-0.9c0.246-0.246,0.552-0.369,0.918-0.369    c0.354,0,0.653,0.121,0.898,0.36c0.246,0.24,0.369,0.543,0.369,0.909c0,0.366-0.123,0.671-0.369,0.917    c-0.246,0.246-0.545,0.368-0.898,0.368C126.413,55.878,126.107,55.756,125.861,55.511 M131.672,65.487    c0.28,0.176,0.677,0.265,1.191,0.265c0.549,0,1.025-0.049,1.432-0.145c0.405-0.098,0.671-0.214,0.797-0.352    c0.034-0.034,0.04-0.075,0.017-0.12l-0.326-1.286c-0.012-0.022-0.028-0.046-0.052-0.069c-0.022-0.022-0.075-0.022-0.154,0    c-0.046,0.023-0.088,0.04-0.128,0.052c-0.04,0.011-0.088,0.028-0.146,0.052c-0.114,0.044-0.245,0.085-0.394,0.119    c-0.149,0.034-0.314,0.051-0.497,0.051c-0.331,0-0.534-0.116-0.609-0.351c-0.075-0.235-0.112-0.511-0.112-0.832v-4.286h1.834    c0.057,0,0.096-0.008,0.112-0.025c0.018-0.017,0.037-0.061,0.061-0.129l0.223-1.011c0.011-0.034,0.016-0.063,0.016-0.086    c0-0.045-0.016-0.067-0.05-0.067h-0.103h-2.092v-2.52c0-0.08-0.011-0.131-0.034-0.154c-0.023-0.022-0.057-0.028-0.102-0.018    c-0.046,0.012-0.081,0.018-0.104,0.018l-1.508,0.205c-0.069,0.013-0.112,0.029-0.129,0.053c-0.018,0.023-0.026,0.063-0.026,0.12    v2.297h-1.354c-0.068,0-0.102,0.034-0.102,0.102v1.115c0,0.068,0.034,0.102,0.102,0.102h1.354v3.995    c0,0.4,0.011,0.791,0.033,1.173c0.024,0.384,0.101,0.723,0.232,1.02C131.187,65.072,131.392,65.309,131.672,65.487 M137.842,61.81    c0,0.274,0.021,0.558,0.068,0.848c0.045,0.292,0.142,0.551,0.292,0.78c0.147,0.229,0.353,0.418,0.617,0.566    c0.262,0.148,0.611,0.223,1.046,0.223c0.318,0,0.606-0.032,0.857-0.094c0.251-0.063,0.469-0.128,0.651-0.197    c0.194-0.068,0.35-0.137,0.463-0.205c0.046-0.023,0.083-0.041,0.111-0.052c0.029-0.011,0.054-0.017,0.078-0.017    c0.034,0,0.063,0.023,0.086,0.069l0.462,1.044c0.035,0.059,0.029,0.109-0.017,0.155c-0.081,0.08-0.215,0.168-0.403,0.266    c-0.188,0.098-0.417,0.189-0.687,0.274c-0.267,0.086-0.559,0.154-0.874,0.206c-0.313,0.051-0.632,0.077-0.951,0.077    c-0.549,0-1.049-0.08-1.5-0.24s-0.84-0.412-1.165-0.754c-0.326-0.343-0.581-0.789-0.763-1.337    c-0.184-0.549-0.275-1.206-0.275-1.971c0-0.675,0.085-1.285,0.257-1.834c0.171-0.548,0.414-1.017,0.729-1.406    c0.313-0.388,0.695-0.691,1.14-0.908c0.445-0.217,0.944-0.326,1.492-0.326c0.697,0,1.26,0.137,1.687,0.411    c0.429,0.275,0.764,0.632,1.004,1.071c0.24,0.44,0.4,0.93,0.48,1.466c0.079,0.537,0.12,1.069,0.12,1.595    c0,0.137-0.012,0.22-0.035,0.249c-0.022,0.028-0.097,0.042-0.222,0.042H137.842z M138.57,58.553    c-0.211,0.172-0.369,0.372-0.472,0.601c-0.091,0.217-0.154,0.437-0.189,0.66c-0.034,0.223-0.063,0.449-0.085,0.676h2.982    c0-0.228-0.011-0.469-0.034-0.72c-0.023-0.252-0.08-0.489-0.171-0.712s-0.229-0.405-0.412-0.548    c-0.183-0.144-0.434-0.214-0.755-0.214C139.069,58.296,138.781,58.381,138.57,58.553 M145.457,65.487    c0.262,0.176,0.639,0.265,1.131,0.265c0.377,0,0.708-0.037,0.995-0.111c0.285-0.075,0.463-0.151,0.532-0.231    c0.01-0.022,0.019-0.04,0.025-0.051c0.006-0.012,0.002-0.046-0.008-0.104l-0.308-1.268c-0.012-0.035-0.035-0.052-0.07-0.052    c-0.011,0-0.063,0.012-0.154,0.035c-0.057,0.022-0.125,0.043-0.205,0.059c-0.082,0.019-0.166,0.026-0.257,0.026    c-0.287,0-0.46-0.114-0.523-0.342c-0.063-0.229-0.094-0.503-0.094-0.823v-9.343c0-0.091-0.002-0.142-0.009-0.154    c-0.006-0.011-0.025-0.028-0.06-0.05h-0.068c-0.023,0-0.038,0.002-0.043,0.008c-0.006,0.005-0.02,0.008-0.043,0.008l-1.457,0.309    c-0.023,0-0.058,0.006-0.103,0.017c-0.046,0.011-0.074,0.029-0.086,0.051c-0.022,0.013-0.034,0.053-0.034,0.121v8.725    c0,0.4,0.012,0.791,0.034,1.173c0.023,0.384,0.097,0.723,0.223,1.02C145,65.072,145.194,65.309,145.457,65.487 M156.016,65.461    c0.069,0,0.103-0.034,0.103-0.103v-6.018c0-0.491-0.065-0.89-0.198-1.2c-0.131-0.308-0.3-0.548-0.505-0.72    c-0.206-0.171-0.432-0.287-0.677-0.35s-0.482-0.095-0.711-0.095c-0.411,0-0.788,0.066-1.132,0.197    c-0.343,0.131-0.668,0.323-0.977,0.574c-0.08,0.069-0.163,0.144-0.248,0.225c-0.086,0.079-0.204,0.182-0.353,0.307    c-0.091-0.435-0.167-0.736-0.23-0.909c-0.063-0.17-0.123-0.291-0.18-0.359c-0.024-0.035-0.062-0.046-0.112-0.035    c-0.052,0.012-0.106,0.029-0.164,0.051l-1.302,0.429c-0.046,0.024-0.069,0.053-0.069,0.087c-0.012,0.045-0.006,0.097,0.018,0.154    c0.023,0.045,0.042,0.094,0.06,0.146c0.017,0.051,0.037,0.123,0.06,0.214c0.045,0.16,0.085,0.4,0.119,0.72    c0.035,0.32,0.051,0.789,0.051,1.406v5.177c0,0.069,0.035,0.103,0.104,0.103h1.696c0.069,0,0.103-0.034,0.103-0.103v-6.086    c0.069-0.057,0.157-0.131,0.266-0.223c0.108-0.091,0.232-0.177,0.368-0.257c0.138-0.08,0.292-0.148,0.462-0.206    c0.172-0.056,0.355-0.085,0.55-0.085c0.261,0,0.465,0.054,0.607,0.163c0.144,0.108,0.251,0.24,0.326,0.394    c0.075,0.154,0.12,0.324,0.138,0.506c0.018,0.184,0.025,0.355,0.025,0.514v5.28c0,0.069,0.034,0.103,0.103,0.103H156.016z     M163.162,65.684c-0.046,0.023-0.085,0.039-0.12,0.051c-0.023,0-0.04,0.005-0.053,0.017c-0.067,0-0.144-0.117-0.23-0.351    c-0.086-0.234-0.158-0.505-0.214-0.815c-0.138,0.126-0.238,0.223-0.301,0.292c-0.063,0.068-0.128,0.131-0.197,0.189    c-0.057,0.057-0.12,0.111-0.188,0.162c-0.068,0.051-0.149,0.105-0.241,0.164c-0.159,0.091-0.354,0.173-0.581,0.248    c-0.23,0.074-0.498,0.111-0.806,0.111c-0.755,0-1.349-0.223-1.783-0.668c-0.435-0.445-0.651-1.058-0.651-1.834    c0-0.457,0.073-0.843,0.223-1.158c0.148-0.314,0.346-0.574,0.591-0.78c0.245-0.206,0.525-0.362,0.84-0.472    c0.313-0.108,0.637-0.188,0.969-0.24c0.331-0.051,0.66-0.083,0.986-0.094c0.325-0.012,0.613-0.018,0.864-0.018v-0.668    c0-0.206-0.013-0.395-0.042-0.565c-0.029-0.172-0.092-0.321-0.188-0.446c-0.098-0.125-0.235-0.224-0.412-0.292    c-0.177-0.067-0.414-0.102-0.711-0.102c-0.251,0-0.497,0.028-0.737,0.085c-0.24,0.057-0.457,0.115-0.65,0.171    c-0.092,0.035-0.18,0.069-0.266,0.103c-0.086,0.035-0.163,0.063-0.232,0.085c-0.102,0.035-0.171,0.053-0.206,0.053    c-0.045,0-0.068-0.018-0.068-0.053l-0.342-1.045c-0.012-0.022-0.025-0.051-0.035-0.085c-0.012-0.034-0.018-0.063-0.018-0.085    c0-0.058,0.092-0.126,0.274-0.206c0.183-0.081,0.414-0.154,0.694-0.223s0.592-0.125,0.935-0.172    c0.343-0.046,0.669-0.069,0.976-0.069c1.041,0,1.77,0.224,2.186,0.669c0.417,0.445,0.625,1.097,0.625,1.954v3.308    c0,0.423,0.023,0.766,0.069,1.028c0.046,0.264,0.098,0.475,0.154,0.635c0.035,0.079,0.063,0.145,0.087,0.197    c0.023,0.051,0.045,0.105,0.068,0.162c0.045,0.092,0.068,0.149,0.068,0.171c0,0.024-0.023,0.047-0.068,0.069L163.162,65.684z     M161.568,61.622c-0.127,0.012-0.26,0.023-0.403,0.034c-0.142,0.012-0.289,0.041-0.437,0.086c-0.297,0.08-0.563,0.226-0.796,0.436    c-0.235,0.213-0.353,0.529-0.353,0.953c0,0.366,0.121,0.673,0.36,0.924c0.24,0.252,0.543,0.378,0.909,0.378    c0.342,0,0.634-0.089,0.874-0.266c0.24-0.177,0.422-0.334,0.548-0.471v-2.074H161.568z"/>
		<g>
			<path fill="#003366" d="M59.443,45.512h-0.255v19.973h11.21c4.162,0,8.013-0.685,8.013-5.668c0-1.792-1.353-3.815-3.645-4.493     c2.238-0.824,3.292-2.356,3.292-4.759c0-3.261-2.395-5.053-6.743-5.053H59.443z M68.208,57.478c1.714,0,2.446,0.519,2.446,1.727     c0,1.627-1.915,1.752-2.505,1.752h-1.63v-3.479H68.208z M68.234,49.707c1.479,0,2.23,0.549,2.23,1.637     c0,1.33-1.301,1.61-2.398,1.61h-1.547v-3.247H68.234z M36.396,55.494c0,6.663,3.804,10.319,10.723,10.319     c6.961,0,10.8-3.657,10.8-10.319c0-6.556-3.939-10.314-10.8-10.314C40.301,45.18,36.396,48.938,36.396,55.494 M44.476,55.494     c0-3.396,0.888-5.119,2.643-5.119c2.364,0,2.681,2.928,2.711,5.125c-0.031,2.471-0.267,5.119-2.711,5.119     C45.338,60.619,44.476,58.943,44.476,55.494 M18.123,51.732c0-4.347,3.351-6.552,9.961-6.552c2.009,0,4.247,0.237,6.298,0.677     l0.205,0.035v5.574l-0.344-0.13c-1.74-0.623-3.647-0.96-5.512-0.96c-1.405,0-2.852,0.122-2.852,1.026     c0,0.721,1.25,0.969,2.834,1.279c2.991,0.597,7.088,1.412,7.088,6.359c0,6.117-6.608,6.774-9.449,6.774     c-2.76,0-5.106-0.272-7.839-0.922l-0.207-0.05v-5.638l0.363,0.153c1.868,0.798,4.191,1.261,6.386,1.261     c1.446,0,2.986-0.289,2.986-1.08c0-0.758-1.268-1.033-2.871-1.364C22.192,57.552,18.123,56.692,18.123,51.732 M6.564,41.81     l0.133,0.16c0.021,0.02,1.878,2.197,5.068,2.23c2.995,0.026,4.616-1.706,4.636-1.725l0.12-0.13L17.391,43l-0.149,0.155     c-0.513,0.555-1.55,1.502-3.12,2.202c0.869,0.095,1.687,0.246,2.662,0.426l0.549,0.105v5.558l-0.257-0.083     c-1.135-0.373-2.353-0.713-3.568-0.713c-3.212,0-5.212,1.792-5.212,4.68c0,3.039,1.861,4.851,4.974,4.851     c1.214,0,2.438-0.238,3.852-0.742l0.259-0.095v5.584l-0.139,0.042c-0.643,0.187-2.908,0.789-5.243,0.789     c-7.09,0-11.5-4.038-11.5-10.54c0-4.589,2.675-8.04,7.208-9.378c-2.063-0.564-3.325-1.619-3.388-1.674l-0.165-0.142l2.261-2.068"/>
			<path fill="#0099CC" d="M39.772,31.242c-7.242,0-13.12-5.876-13.12-13.12C26.653,10.879,32.53,5,39.772,5     c7.25,0,13.123,5.879,13.123,13.123C52.896,25.366,47.022,31.242,39.772,31.242 M49.453,28.742     c-2.498,2.708-6.91,5.418-12.563,5.418c-4.388,0-8.17-1.708-10.569-3.602c-14.329,1.504-24.979,3.635-24.979,3.635v5.797     l75.917-0.009l0.003-11.961C77.263,28.021,64.312,27.944,49.453,28.742"/>
		</g>
	</g>
</g>
</svg>