<?xml version="1.0" encoding="utf-8"?>
<!-- Generator: Adobe Illustrator 19.0.0, SVG Export Plug-In . SVG Version: 6.00 Build 0)  -->
<svg version="1.1" id="layer" xmlns="http://www.w3.org/2000/svg" xmlns:xlink="http://www.w3.org/1999/xlink" x="0px" y="0px"
	 viewBox="-153 -46 652 652" style="enable-background:new -153 -46 652 652;" xml:space="preserve">
<style type="text/css">
	.st0{filter:url(#Adobe_OpacityMaskFilter);}
	.st1{fill:#FFFFFF;}
	.st2{mask:url(#mask-2_1_);fill:#C21B17;}
	.st3{fill:#C21B17;}
</style>
<defs>
	<filter id="Adobe_OpacityMaskFilter" filterUnits="userSpaceOnUse" x="-131.1" y="224.6" width="158.6" height="94.6">
		<feColorMatrix  type="matrix" values="1 0 0 0 0  0 1 0 0 0  0 0 1 0 0  0 0 0 1 0"/>
	</filter>
</defs>
<mask maskUnits="userSpaceOnUse" x="-131.1" y="224.6" width="158.6" height="94.6" id="mask-2_1_">
	<g class="st0">
		<polygon id="path-1_1_" class="st1" points="-131.1,224.6 27.5,224.6 27.5,319.3 -131.1,319.3 		"/>
	</g>
</mask>
<path id="Fill-1" class="st2" d="M-11.4,305.2c0.3-0.8,1-1.4,1.8-1.5l8.8-2l-0.8-7.9l0-0.2c-0.2-1-0.9-4.2-4.9-4.5
	c-15.7-1.3-19.3-3.6-23.1-6.1c0,0,0,0,0,0l0,0l-0.2-0.2c-4.1-2.7-8.1-2.7-8.5-2.7c-4.4,0-10.1,1.8-10.5,1.9
	c-1.4,0.4-2.6,0.8-3.8,1.2c-4.9,1.6-9.1,3-16.3,2.8l-1.3,0l-0.3,1.3c-0.3,1-2.2,8.9-0.3,14c-1.7,1.4-1.7,3-1.7,3.2
	c0.1,1.7-0.3,2.2-0.5,2.3c-0.8,0.9-3.6,1-5.9,1h0H-80l-0.5,0.7c-1.4,2-4.5,2.4-6.4,1.9c-0.9-2.7-0.9-4.7-0.1-5.9
	c1-1.4,3.1-1.6,3.9-1.6h0.5c2.1,0,3.8-1.7,3.8-3.8v-14.2c0.6-1,1.1-2.1,1.6-3.4c3.4-0.6,6.1-3.5,6.1-7.1c0-1.4-0.4-2.7-1.1-3.8
	c3.2-1.5,5.9-4.7,5.9-8.8c0-4.1-2.1-6-4-7.3c0.5-1.6,1.5-4.4,2.1-7.2l2.8-10c1.2-3.9,4.4-6.4,8.2-6.4h48.5c-2.1,2.9-5,4.3-9,4.3
	h-29.3l-1.5,3.3h26.3c-2.1,3.3-5.1,4.9-9.4,4.9h-19.1l-1.5,3.3h17c-2.1,3.2-5,4.7-9.3,4.7h-10.4l-1.5,3.3h10.9
	c0.1,0.1,0.4,0.6,0.4,2c0,2.1-1.8,3.9-4,3.9c-0.7,0-1.4-0.2-2.5-0.6c-0.5-0.2-1-0.4-1.4-0.6l-2.5,2.3c0.5,0.2,0.9,0.4,1.4,0.6
	c2.2,1,3.4,1.5,5.1,1.5c2,0,3.8-0.8,5.1-2.2c1.9,0.1,4.9,0.4,7.8,0.6c3.5,0.3,6.8,0.6,8.5,0.7c0.8,0,1.6,0.1,2.4,0.1
	c1.4,0.1,2.8,0.1,4.1,0.2c6.6,10.9,10,12.3,22.8,13.8c0.9,1.7,1.8,3.4,2.5,5.2v21.1l0,0.1c0.1,1,0.1,1.3-0.1,1.5
	c-0.4,0.6-2.4,1.4-3.1,1.7l-10.8,4.1C-11.4,308.7-12,306.7-11.4,305.2L-11.4,305.2z M-13.7,310.9h-21.3l9.1-9.8
	c1.8-1.9,2.4-4.2,1.7-6.5c-0.4-1.3-1.7-3.8-2.9-6.4c3.6,1.7,9.1,3.2,20.3,4.2c1.3,0.1,1.7,0.6,2,1.8l0.5,4.9l-5.9,1.3
	c-2,0.4-3.5,1.7-4.2,3.6C-15.3,306.1-15,308.5-13.7,310.9L-13.7,310.9z M-52.2,310.9c-0.6-2.3-0.4-4.2,0.7-5.4
	c1-1.2,2.6-1.5,3.7-1.4l6.2,1.2l0.2,0h0.9l4.4-4.8l0,0c0.8-0.9,3-3.6,0.7-7l-5.9-9.8c1-0.1,2-0.2,2.9-0.2l0,0c0,0,3,0,6.1,1.8
	c0.4,0.9,1,2.2,1.7,3.5c1.2,2.5,2.8,5.7,3.2,7c0.1,0.4,0.6,1.6-0.9,3.2l-11.3,12.1H-52.2z M-54,303.3c-1.2,1.4-2.3,3.8-1.6,7.6
	h-20.1c2.2-0.2,3.7-0.7,4.8-1.9c1.3-1.4,1.4-3.3,1.4-4.6c0-0.1,0.3-0.6,1.2-1l1.7-0.8l-1-1.6c-1.7-2.7-1-8.5-0.3-11.7h0.2
	c6.8,0,11.2-1.4,15.9-2.9c1.2-0.4,2.5-0.8,3.8-1.2l0,0c0,0,1.4-0.4,3.2-0.9l6.6,10.9l0.1,0.1c0.7,0.9,0.7,1.6-0.5,3l-3.3,3.6l-5.4-1
	l0,0C-49.8,300.5-52.4,301.4-54,303.3L-54,303.3z M-89.7,302.6c-1.4,2-1.6,4.8-0.5,8.3h-3.4v-26.8c1.2-0.2,2.5-0.5,3.7-1.1
	c-0.1,1.2-0.2,2.1-0.4,3.3c-0.1,0.3-0.1,0.6-0.2,0.9l-0.3,1.9h1.9c2.9,0,5.1-0.5,6.7-1.3v11.2c0,0.3-0.2,0.5-0.5,0.5H-83
	C-85.9,299.6-88.3,300.7-89.7,302.6L-89.7,302.6z M-96.9,308l-15.5-4.1l-15.5,4.1v-28l15.5-4.1l15.5,4.1V308z M-125.8,310.9
	l13.5-3.5l13.5,3.5H-125.8z M-120.4,269.8c0.6-1,2.1-1.9,4-1.5l1.4,0.2l0.4-1.4c0.1-0.4,0.3-0.6,0.5-0.8c0.4-0.4,1-0.6,1.7-0.5
	c2,0.1,4.5,1.5,6.5,3.6c0.7,0.8,1.4,1.7,2,2.6c0.1,0.2,0.2,0.4,0.4,0.6c0.2,0.3,0.3,0.5,0.3,0.5c0.1,0.1,1.1,1.6,1,1.7
	c0.7-1,1.4-1.9,2-2.9c0,0,0-0.1-0.1-0.2c-0.2-0.3-0.5-0.9-0.7-1.2c-0.1-0.1-0.1-0.2-0.2-0.2c0,0,0,0,0,0c0,0-0.1-0.2-0.2-0.4
	c-0.2-0.4-0.6-0.9-0.7-1.2l4.3-6.9c1.1,0.2,2,0.3,2.4,0.3h0.1c6,0,12.3-3.5,12.3-9.4v-0.1c-0.1-1.6-0.4-3.1-0.6-4.4
	c-0.2-0.8-0.3-1.6-0.3-2c0-0.6,0.9-1.4,2.2-1.4h2l-0.9-5.1c2.7-2,4.4-5.4,4.4-8.6c3,2.3,5,6.3,5.4,10.5c0.1,1.2-0.1,3-0.5,4.8
	l-0.2,0.8l0,0c-0.7,3-1.7,6-2.3,7.4l-0.5,1.3l1.2,0.7c2.2,1.3,3.6,2.2,3.6,5.1c0,3.4-3,5.9-5.9,6.5l-4,0.7l3.3,2.3
	c1.1,0.7,1.7,1.9,1.7,3.2c0,2.1-1.8,3.8-4,3.8h-1.3l-0.4,1.2c-1.2,4-2.6,6-6.9,6.4c0.2-1.2,0.3-2.4,0.3-4.1c0-0.4,0-1.5,0-1.8
	l-0.2-3.8l-2.6,2.7c-0.9,0.9-2.5,1.6-4.2,2v-3.3l-18.8-4.9l-6.7,1.8C-120.5,272.8-120.8,270.3-120.4,269.8L-120.4,269.8z
	 M-100.2,257.6c0.1-0.2,0.2-0.4,0.4-0.4l2.8,0.1c3.4-0.1,7-1.6,7.3-5.2c0-2.5-1.7-4.8-4.2-4.8c-1.3,0-2.8,0.9-4.4,2
	c-1.1,0.7-1.9,1.3-2.6,1.3c-0.4,0-0.8-0.3-0.8-0.5c0,0,0-0.1,0-0.1l1.8-2.4l-1.6-1.1c-0.3-0.2-0.8-0.6-0.9-0.9
	c0-0.1,0.2-0.4,0.2-0.5c0.6-0.8,1.4-1.7,2.1-2.8c0.5-0.7,0.7-1,1.5-1c0.8,0,1.4,0.6,1.4,1.4c0,0.5,0.5,0.9,1.2,0.9
	c0.7,0,1-0.5,1.4-0.9c0,0,1.6-1.5,0.8-2.2c-1-0.8-4.9,0.8-3.8-2.8l0.3-0.5c0.4-0.6,2.3-2,6.1-2c0.7,0,1.5,0.1,2.3,0.2l0.6,0.1
	l8.2-5.1c0.1,0.2,0.1,0.3,0.1,0.3l0,0c0.4,2.5-1.1,5.5-3.6,6.9l-1,0.6l0.6,3.7c-2.1,0.6-3.6,2.4-3.6,4.4c0,0.7,0.2,1.5,0.4,2.6
	c0.2,1.2,0.5,2.5,0.5,3.8c0,3.9-5.3,6.4-9.8,6.3l-0.1,0c-0.2,0-3-0.2-3.7-0.8C-100.1,258-100.2,257.7-100.2,257.6L-100.2,257.6z
	 M-93.4,231.7c0.5-0.7,1.4-1.4,2.4-2.1c0.8-0.5,1.8-1,2.8-1.3c1.6-0.5,3.4-0.5,5.3-0.1l-5.8,3.6c-0.7-0.1-1.4-0.1-2.1-0.1
	c-1,0-1.9,0.1-2.7,0.2C-93.5,231.8-93.4,231.8-93.4,231.7L-93.4,231.7z M-5,230.8h21.9c-2.1,2.9-5,4.3-9,4.3H-8.3
	C-7,234-5.9,232.6-5,230.8L-5,230.8z M-6.1,243.3h-16.1c1.4-1.3,2.6-2.9,3.6-4.9h22C1.2,241.8-1.8,243.3-6.1,243.3L-6.1,243.3z
	 M-19,251.4h-16.1c1.4-1.2,2.5-2.8,3.5-4.7h21.9C-11.8,249.8-14.8,251.4-19,251.4L-19,251.4z M-15.3,263.8c5.1,0.9,9.3,3.2,12.4,6.9
	c0.7,0.8,1.3,1.7,2,2.6c-8.6-1.1-11.6-2.4-16.4-9.8C-16.6,263.6-16,263.7-15.3,263.8L-15.3,263.8z M19.1,299.6
	c0.3,0.5,0.6,1,0.8,1.5c0.3,0.6,0.6,1.1,1,1.7c-2.5-0.2-4.4-1.6-6.1-4.2C16.4,298,18.3,298.4,19.1,299.6L19.1,299.6z M-1.4,310.9
	l3.4-1.3l0,0c4.8-2,5.4-3.2,5.2-6.4v-12.9c3.6,9.3,7,15.8,14.1,15.8c1,0,2-0.1,3.1-0.4l2.7-0.6l-1.9-2.1c-1.2-1.3-1.8-2.4-2.5-3.6
	c-0.3-0.5-0.6-1-0.9-1.6c-1.6-2.7-5.6-3.6-8.7-2.2c-1.4-2.9-2.9-6.6-4.6-11.3l-0.4-0.9c-0.3-0.7-0.6-1.4-0.9-2.1v-0.1h0
	c-1.1-2.5-2.2-4.9-3.6-7.2c-1.2-2.1-2.5-3.9-3.9-5.5c-3.7-4.4-8.5-7.1-14.4-8c-4.1-0.7-7-0.8-10.6-1c-0.8,0-1.5-0.1-2.4-0.1
	c-1.7-0.1-5.1-0.4-8.4-0.7c-2.2-0.2-4.5-0.4-6.3-0.5c0.1-0.5,0.2-1,0.2-1.6c0-0.7-0.1-1.4-0.2-2H-19c6.1,0,10.4-2.7,13-8
	c6-0.1,10.4-2.8,12.9-8.2h0.8c6.3,0,10.7-2.9,13.3-8.6l1.1-2.3h-79.5c-5.2,0-9.7,3.4-11.3,8.8l-0.1,0.2c-1.4-3.8-3.8-7-7-9
	c-4.4-2.7-9.4-3.5-13.4-2.4c-1.3,0.4-2.6,1-3.7,1.7c-0.9,0.6-2.2,1.6-3.1,2.8c-1,1.3-2,2.9-2.7,4.4c-0.5,0.4-0.8,0.8-1.1,1.1
	l-0.9,1.8l-0.1,0.1c-1.1,2.6-2.5,4.4-3.6,5.7c-1.1,1.3-1.1,2.5-1,3.2c0.2,0.9,0.6,1.6,1.1,2.1l0,0c-0.3,0.6-0.5,1.2-0.5,1.8
	c0,2.1,1.8,3.7,4.1,3.7c1.6,0,3-0.8,4.4-1.7c0.6-0.4,2.1-1.4,2.6-1.5c0.6,0,1.2,0.6,1.2,1.2c0,1.7-2.2,2.7-3.8,2.8l-3.2,0.3
	c-2.3,0.2-3.4,1.5-3.4,2.6c0,1.1,0.5,1.7,0.9,2.1l0.2,0.2l0.8,0.7l-3.4,5.6c-2.4-2.3-5.3-3.7-7.8-3.8c-1.6-0.1-3.1,0.4-4.1,1.4
	c-0.3,0.3-0.6,0.6-0.8,1h-0.1c-2.7,0-4.9,1.5-5.9,3.1c-1.2,1.8-0.7,4.9,0.7,7.3l-8.6,2.3v41.8H27.5v-8.3H-1.4z"/>
<path class="st3" d="M-100.3,284.4l-10.3-2.7v3.4l10.3,2.7V284.4z M-124.4,287.8l10.3-2.7v-3.4l-10.3,2.7V287.8z M-124.4,294.7
	l10.3-2.7v-3.4l-10.3,2.7V294.7z M-100.3,291.2l-10.3-2.7v3.4l10.3,2.7V291.2z M-100.3,298.1l-10.3-2.7v3.4l10.3,2.7V298.1z
	 M-124.4,301.6l10.3-2.7v-3.4l-10.3,2.7V301.6z"/>
<path class="st3" d="M61.5,272.5c-2.2,0.7-4.5,1.3-6.7,2.1c-0.8,0.3-1.6,0.3-2.4,0c-2.3-0.7-4.5-1.4-6.8-2.1c-0.4-0.1-0.9-0.3-1,0.4
	c0.9,0.7,1.8,1.3,2.6,1.9c2,1.4,3.9,2.9,5.9,4.2c0.2,0.2,0.7,0.2,0.9,0c2.9-2,5.7-4.1,8.6-6.2C62.5,272.1,62,272.4,61.5,272.5
	 M83.9,263.4h-3.4v-16.5h2c3.3,0.1,5.2,2,5.9,7.8h1.2l0-17.1c0,0-1.2,0-1.2,0c0,0.1-0.2,7.4-6,7.2h-1.8l0-15.5
	c9.6,0,13.1-0.5,14.8,11.4h1v-13.2l-26.1,0v1.8h4.5v34h-5v1.8h26.9v-13.9h-1.3C93.9,261.8,91.3,263.4,83.9,263.4 M53.3,265.5
	c3.7,0,6.3-1.9,7.7-4.1c0,0,4.7,3.7,4.7,3.7v-18h4v-1.7H55v1.7h5v12.2c-0.9,3.1-5.4,4.4-6.7,4.4c-9.4,0-8.7-13.9-8.7-17.6
	c0-3.4-0.3-17.7,8.7-17.7c6.4,0,9.8,6.4,11.1,12.2h1c0-2.4,0-13.7,0-13.7c0-0.1-4.4,3.2-4.4,3.1c0.1,0-2-3-7.7-3
	c-11.1,0-15.2,11.2-15.1,19C38.2,253.3,41.5,265.5,53.3,265.5 M177.6,245.1h-6v-15.8h7.7c4.5,0.7,4.7,6,4.7,7.7
	C184,241.1,182.3,245.1,177.6,245.1L177.6,245.1z M203.9,235.3l5.7,16.3h-11.1L203.9,235.3z M199.5,263.3c-0.5,0-3.8,0.1-4-2.2
	c-0.1-1.7,2.2-7.8,2.2-7.8H210c0,0,3.8,10,3.9,10h-4.3v1.8h33.7v-13.9h-1.4c-1.3,10.5-4,12.1-11.4,12.1h-0.4v-34h4.7v-1.8h-15.5v1.8
	h4.7v34h-3.7l-13.8-36.9h-2c0,0-11.4,33.5-11.4,33.6c0-0.1-0.9,2.9-2.8,3.2c-1.7,0.1-1.6-0.8-1.6-1.2v-6.5c0-1.7-0.1-5.5-1.9-7.3
	c-1.9-2-5.3-2.1-5.2-2.2c0,0,8.5-1.8,8.5-9.9c0-5.7-3.9-8.5-10.5-8.8h-18.6v1.8h4.8v34h-4.8v1.8h15.2v-1.8h-4.8V247h6.3
	c11,0.9-1.9,18.2,12.5,18.2h9.1V263.3z M105,232.2v27.8c0,2.7-4,3.7-5.7,3.7h0v1.3h13.1v-1.3c-1.7,0-5.7-1-5.7-3.7l0-24.5
	c7.1,10.2,20.4,29.6,20.5,29.6h0.7v-32.9c0.2-2.8,3.4-2.9,4.7-2.9h4.4v34.1h-5v1.8h26.9v-13.9h-1.3c-1.3,10.5-4,12.1-11.4,12.1h-3.4
	v-16.5h2c3.3,0.1,5.2,2,5.9,7.8h1.2l0-17.1c0,0-1.2,0-1.2,0c0,0.1-0.2,7.4-6,7.2h-1.8v-15.5c9.6,0,13.1-0.5,14.8,11.4h1v-13.2h-38.1
	v1.8h1c1.3,0,4.5,0.1,4.7,2.9h0V254l-17.8-26.5h-9.7v1.8h1.6C102.2,229.3,104.9,229.4,105,232.2 M260.2,263.3h-4.8v-34h4.8v-1.8H245
	v1.8h4.8l0,34H245v1.8h15.2V263.3z M304.8,279c0.2,0.2,0.7,0.2,0.9,0c2.8-2,5.6-4,8.4-6c-0.2-0.8-0.7-0.5-1.1-0.4
	c-2.2,0.7-4.4,1.3-6.6,2c-0.8,0.3-1.6,0.3-2.4,0c-2.2-0.7-4.4-1.4-6.7-2.1c-0.4-0.1-0.9-0.3-1,0.4c0.9,0.7,1.7,1.2,2.6,1.9
	C300.9,276.2,302.8,277.6,304.8,279 M331.5,279c0.2,0.2,0.7,0.2,0.9,0c2.8-2,5.6-4,8.4-6c-0.2-0.8-0.7-0.5-1.1-0.4
	c-2.2,0.7-4.4,1.3-6.6,2c-0.8,0.3-1.6,0.3-2.4,0c-2.2-0.7-4.4-1.4-6.7-2.1c-0.4-0.1-0.9-0.3-1,0.4c0.9,0.7,1.7,1.2,2.6,1.9
	C327.7,276.2,329.6,277.6,331.5,279 M63,310.7c-0.4,1-0.9,1.9-1.4,2.7c-0.5,0.8-1.1,1.4-1.7,2c-0.6,0.5-1.2,1-1.8,1.3
	c-1.4,0.8-3,1.2-4.6,1.3h-0.2c-0.2,0-0.5,0-1-0.1c-0.5-0.1-1.1-0.3-1.8-0.7c-0.7-0.4-1.3-0.9-2-1.6c-0.7-0.7-1.4-1.7-1.9-3
	c-0.6-1.3-1.1-2.9-1.4-4.9c-0.4-2-0.6-4.4-0.6-7.2c0-2.9,0.2-5.3,0.6-7.3c0.4-2,0.9-3.6,1.5-5c0.6-1.3,1.3-2.4,2-3.1
	c0.7-0.7,1.4-1.3,2.1-1.6c0.7-0.4,1.2-0.6,1.7-0.6c0.5-0.1,0.8-0.1,1-0.1h0.1c1.3,0,2.5,0.2,3.5,0.5c1,0.3,1.9,0.8,2.6,1.3
	c0.7,0.6,1.4,1.2,1.9,1.9c0.5,0.7,0.9,1.5,1.3,2.2c0.8,1.8,1.3,3.7,1.4,6h1.1v-13.5l-4.2,3.2c-0.4-0.7-1-1.2-1.7-1.6
	c-0.7-0.4-1.4-0.7-2.2-0.9c-0.7-0.2-1.4-0.3-2-0.4c-0.6-0.1-1.1-0.1-1.4-0.1h-0.4c-0.1,0-0.6,0-1.4,0.1c-0.8,0.1-1.8,0.3-2.9,0.7
	c-1.1,0.4-2.3,1-3.6,1.7c-1.3,0.8-2.5,1.9-3.5,3.3c-1.1,1.4-2,3.2-2.7,5.4c-0.7,2.2-1.1,4.8-1.1,7.9c0.1,3.5,0.8,6.7,1.9,9.5
	c0.5,1.2,1.1,2.3,1.8,3.5c0.7,1.1,1.6,2.2,2.7,3.1c1.1,0.9,2.3,1.6,3.7,2.2c1.4,0.6,3.1,0.8,5,0.8c1.4,0,2.6-0.2,3.7-0.5
	c1.1-0.4,2-0.8,2.8-1.4c0.8-0.6,1.5-1.3,2.1-2c0.6-0.7,1.1-1.5,1.5-2.3c1-1.8,1.6-3.9,1.9-6.2h-1.5C63.7,308.5,63.4,309.7,63,310.7
	 M91.6,312.5c-0.6,1.6-1.3,2.7-2,3.4c-0.9,0.9-1.9,1.3-3,1.5h-9.4V301h3c1.2,0.2,2.1,0.7,2.7,1.5c0.6,0.8,1.1,1.7,1.4,2.6
	c0.4,1,0.6,2.2,0.7,3.5h0.8v-16.6H85c-0.1,1.2-0.4,2.3-0.8,3.4c-0.4,0.9-0.9,1.7-1.5,2.5c-0.7,0.8-1.6,1.2-2.7,1.4h-2.8v-15.8h8.7
	c1.1,0.1,2.1,0.6,3,1.5c0.7,0.7,1.4,1.9,2,3.4c0.6,1.6,0.9,3.8,0.9,6.6h0.7v-13.3H66.8v1.8h4.6v34h-4.6v1.8h26.8v-13.3h-1.1
	C92.5,308.7,92.2,311,91.6,312.5 M120,306.5c0-0.4-0.1-1-0.2-1.9c-0.1-0.9-0.5-1.9-1-3c-0.6-1.1-1.4-2.1-2.6-3.1
	c-1.2-1-2.8-1.8-4.8-2.3l-7.1-1.8c-0.9-0.3-1.7-0.7-2.4-1.2c-0.6-0.4-1.2-1-1.7-1.6c-0.5-0.7-0.8-1.5-0.8-2.5
	c0.1-1.2,0.5-2.3,1.1-3.3c0.5-0.8,1.3-1.6,2.3-2.3c1.1-0.7,2.6-1,4.5-1c1.7,0.1,3.2,0.5,4.5,1.2c0.6,0.3,1.1,0.7,1.6,1.2
	c0.5,0.5,1,1,1.4,1.7c0.4,0.7,0.8,1.5,1,2.4c0.2,0.9,0.4,2,0.4,3.2h1v-11.1l-3.1,2.4c-0.6-0.6-1.3-1.1-2.1-1.4
	c-0.8-0.3-1.5-0.5-2.2-0.7c-0.8-0.2-1.6-0.3-2.5-0.3c-1.2,0-2.4,0.2-3.7,0.7c-1.3,0.5-2.4,1.2-3.5,2.2c-1,0.9-1.9,2.1-2.6,3.5
	c-0.7,1.4-1,3.1-1,4.9c0,1.9,0.4,3.4,1.1,4.5c0.7,1.2,1.6,2.1,2.4,2.8c1,0.8,2.2,1.4,3.5,1.7l7.8,1.8c1.3,0.4,2.4,0.9,3.1,1.6
	c0.7,0.7,1.3,1.4,1.6,2.2s0.6,1.4,0.7,2c0.1,0.6,0.1,1,0.1,1.2v0.1c0,1.2-0.2,2.3-0.6,3.1c-0.4,0.9-0.9,1.6-1.5,2.2
	c-0.6,0.6-1.3,1-2,1.3c-0.7,0.3-1.4,0.6-2.1,0.7c-0.7,0.2-1.3,0.3-1.8,0.3c-0.5,0-0.9,0.1-1.1,0.1h-0.2c-1.4,0-2.6-0.2-3.6-0.5
	c-1-0.3-2-0.8-2.7-1.3c-0.8-0.5-1.4-1.2-1.9-1.9c-0.5-0.7-1-1.4-1.3-2.1c-0.8-1.7-1.3-3.7-1.4-5.8h-1V319l3.7-2.7
	c0.9,0.8,1.8,1.4,2.8,1.9c1,0.4,1.9,0.8,2.7,0.9c1,0.2,1.9,0.3,2.9,0.4h0.2c0.3,0,0.8,0,1.5-0.1c0.7-0.1,1.5-0.2,2.4-0.5
	c0.9-0.3,1.8-0.7,2.8-1.2c1-0.5,1.9-1.3,2.7-2.2c0.8-0.9,1.5-2.1,2-3.5c0.5-1.4,0.8-3.1,0.8-5.2V306.5z M218.9,291.5
	c0,0.3,0,0.6,0,1.2c0,0.5-0.1,1.1-0.2,1.7s-0.2,1.3-0.4,2c-0.2,0.7-0.4,1.3-0.7,1.9c-0.3,0.6-0.7,1-1.2,1.4
	c-0.5,0.4-1.1,0.5-1.8,0.5h-7.4v-16.7h7.4c0.8,0.1,1.5,0.4,2.2,1c0.6,0.5,1.1,1.3,1.5,2.3c0.4,1,0.7,2.5,0.7,4.5V291.5z M220.8,283
	c-1.1-0.6-2.2-1-3.3-1.2c-1.1-0.1-1.9-0.2-2.4-0.2h-18.6v1.9h4.9v33.9h-4.9v1.8h15.3v-1.8h-4.6V302h7.5c0.1,0,0.5,0,1.1-0.1
	c0.6-0.1,1.2-0.2,2-0.4c0.8-0.2,1.6-0.5,2.4-1c0.9-0.4,1.6-1.1,2.4-1.9c0.7-0.8,1.3-1.8,1.8-3c0.5-1.2,0.7-2.7,0.7-4.4
	c0-2.3-0.4-4.1-1.3-5.4C222.9,284.6,221.9,283.6,220.8,283L220.8,283z M251,307.4c-0.4,2-0.9,3.6-1.4,4.9s-1.2,2.3-1.9,3.1
	c-0.7,0.7-1.4,1.3-2,1.6c-0.7,0.4-1.2,0.6-1.7,0.7c-0.5,0.1-0.9,0.1-1.1,0.1h-0.3c-0.2,0-0.5,0-1-0.1c-0.5-0.1-1.1-0.3-1.8-0.7
	c-0.7-0.4-1.3-0.9-2-1.6c-0.7-0.7-1.4-1.8-1.9-3.1c-0.6-1.3-1.1-2.9-1.4-4.9c-0.4-2-0.6-4.4-0.6-7.2c0-2.8,0.2-5.2,0.6-7.2
	c0.4-2,0.9-3.6,1.4-4.9c0.6-1.3,1.2-2.3,1.9-3.1c0.7-0.7,1.4-1.3,2-1.6c0.6-0.4,1.2-0.6,1.7-0.7c0.5-0.1,0.9-0.1,1.1-0.1h0.3
	c0.2,0,0.6,0,1.1,0.1c0.5,0.1,1.1,0.3,1.7,0.7c0.6,0.4,1.3,0.9,2,1.6c0.7,0.7,1.3,1.8,1.9,3.1c0.6,1.3,1.1,2.9,1.4,4.9
	c0.4,2,0.6,4.4,0.6,7.2C251.5,303.1,251.3,305.5,251,307.4 M256,310c1.1-2.9,1.8-6.1,1.9-9.7c0-3.1-0.4-5.7-1.1-7.8
	c-0.7-2.1-1.6-3.9-2.7-5.3c-1.1-1.4-2.2-2.5-3.5-3.2c-1.3-0.8-2.4-1.3-3.6-1.7c-1.1-0.4-2.1-0.6-2.9-0.7c-0.8-0.1-1.3-0.1-1.4-0.1
	h-0.1c-0.1,0-0.6,0-1.5,0.1c-0.8,0.1-1.8,0.3-3,0.7c-1.1,0.4-2.3,0.9-3.6,1.7c-1.3,0.8-2.5,1.8-3.6,3.2c-1.1,1.4-2,3.2-2.7,5.3
	c-0.7,2.1-1.1,4.7-1.1,7.8c0.1,3.6,0.8,6.9,1.9,9.7c0.5,1.2,1.1,2.4,1.8,3.6c0.7,1.2,1.6,2.2,2.7,3.1c1.1,0.9,2.3,1.6,3.8,2.2
	c1.5,0.6,3.1,0.8,5.1,0.8c1.9,0,3.6-0.3,5.1-0.8c1.5-0.6,2.7-1.3,3.8-2.2c1.1-0.9,2-2,2.7-3.1C254.9,312.4,255.5,311.2,256,310
	 M275.4,283.4h4.9v34h-4.9v1.8h15.3v-1.8h-4.7v-34h4.7v-1.8h-15.3V283.4z M273.3,281.6H257v1.8h5.2V319c0,1-0.2,1.9-0.4,2.7
	c-0.2,0.7-0.6,1.4-1,1.9c-0.5,0.6-1.2,0.8-2,0.8c-0.2,0-0.5-0.1-0.7-0.2c-0.2-0.1-0.3-0.2-0.5-0.3c-0.1-0.2-0.2-0.4-0.2-0.6v-0.5
	c0.2-0.1,0.4-0.3,0.6-0.6c0.2-0.2,0.3-0.5,0.3-0.7c0.1-0.3,0.2-0.6,0.2-0.9c0-0.8-0.1-1.4-0.4-1.8c-0.2-0.4-0.5-0.8-0.9-1
	c-0.4-0.2-0.8-0.4-1.2-0.5c-0.8,0-1.4,0.2-1.9,0.5c-0.4,0.3-0.7,0.7-1,1.1c-0.2,0.5-0.4,1-0.4,1.7c0,1.3,0.3,2.2,0.9,2.9
	c0.6,0.7,1.3,1.2,2,1.5c0.9,0.4,1.8,0.6,2.8,0.6c1.6,0,2.9-0.3,4-0.8c1.1-0.5,2-1.2,2.7-2.1c0.7-0.8,1.3-1.8,1.7-2.8
	c0.4-1,0.7-2,0.9-2.9c0.2-0.9,0.3-1.8,0.4-2.6c0.1-0.8,0.1-1.3,0.1-1.6v-29.4h5.2V281.6z M316.2,301.6c-0.6-1.1-1.4-2.1-2.6-3.1
	c-1.2-1-2.8-1.8-4.8-2.3l-7.1-1.8c-0.9-0.3-1.7-0.7-2.4-1.2c-0.6-0.4-1.2-1-1.7-1.6c-0.5-0.7-0.8-1.5-0.8-2.5
	c0.1-1.2,0.5-2.3,1.1-3.3c0.5-0.8,1.3-1.6,2.3-2.3c1.1-0.7,2.6-1,4.5-1c1.7,0.1,3.2,0.5,4.5,1.2c0.6,0.3,1.1,0.7,1.6,1.2
	c0.5,0.5,1,1,1.4,1.7c0.4,0.7,0.8,1.5,1,2.4c0.2,0.9,0.4,2,0.4,3.2h1v-11.1l-3.1,2.4c-0.6-0.6-1.3-1.1-2.1-1.4
	c-0.8-0.3-1.5-0.5-2.2-0.7c-0.8-0.2-1.6-0.3-2.5-0.3c-1.2,0-2.4,0.2-3.7,0.7c-1.3,0.5-2.4,1.2-3.5,2.2c-1,0.9-1.9,2.1-2.6,3.5
	c-0.7,1.4-1,3.1-1,4.9c0,1.9,0.4,3.4,1.1,4.5c0.7,1.2,1.6,2.1,2.4,2.8c1,0.8,2.2,1.4,3.5,1.7l7.8,1.8c1.3,0.4,2.4,0.9,3.1,1.6
	c0.7,0.7,1.3,1.4,1.6,2.2c0.4,0.8,0.6,1.4,0.7,2c0.1,0.6,0.1,1,0.1,1.2v0.1c0,1.2-0.2,2.3-0.6,3.1c-0.4,0.9-0.9,1.6-1.5,2.2
	c-0.6,0.6-1.3,1-2,1.3c-0.7,0.3-1.4,0.6-2.1,0.7c-0.7,0.2-1.3,0.3-1.8,0.3c-0.5,0-0.9,0.1-1.1,0.1h-0.2c-1.4,0-2.6-0.2-3.6-0.5
	c-1-0.3-2-0.8-2.7-1.3c-0.8-0.5-1.4-1.2-1.9-1.9c-0.5-0.7-1-1.4-1.3-2.1c-0.8-1.7-1.3-3.7-1.4-5.8h-1V319l3.7-2.7
	c0.9,0.8,1.8,1.4,2.8,1.9c1,0.4,1.9,0.8,2.7,0.9c1,0.2,1.9,0.3,2.9,0.4h0.2c0.3,0,0.8,0,1.5-0.1c0.7-0.1,1.5-0.2,2.4-0.5
	c0.9-0.3,1.8-0.7,2.8-1.2c1-0.5,1.9-1.3,2.7-2.2c0.8-0.9,1.5-2.1,2-3.5c0.5-1.4,0.8-3.1,0.8-5.2v-0.3c0-0.4-0.1-1-0.2-1.9
	C317.1,303.6,316.8,302.6,316.2,301.6 M317.7,294.8h0.8c0-2.9,0.3-5.1,1-6.7c0.6-1.6,1.3-2.7,2.1-3.4c0.9-0.9,1.9-1.3,3-1.5h4.9
	v34.2h-4.7v1.8h15.3v-1.8h-4.6v-34.2h4.1c1.1,0.1,2,0.6,2.9,1.5c0.7,0.7,1.4,1.9,2,3.4c0.6,1.6,0.9,3.8,0.9,6.7h1.1v-13.2h-28.7
	V294.8z M371.6,307.4c-0.4,2-0.9,3.6-1.4,4.9c-0.6,1.3-1.2,2.3-1.9,3.1c-0.7,0.7-1.4,1.3-2,1.6c-0.7,0.4-1.2,0.6-1.7,0.7
	c-0.5,0.1-0.9,0.1-1.1,0.1h-0.3c-0.2,0-0.5,0-1-0.1c-0.5-0.1-1.1-0.3-1.8-0.7c-0.7-0.4-1.3-0.9-2-1.6c-0.7-0.7-1.4-1.8-1.9-3.1
	c-0.6-1.3-1.1-2.9-1.4-4.9c-0.4-2-0.6-4.4-0.6-7.2c0-2.8,0.2-5.2,0.6-7.2c0.4-2,0.9-3.6,1.4-4.9c0.6-1.3,1.2-2.3,1.9-3.1
	c0.7-0.7,1.4-1.3,2-1.6c0.6-0.4,1.2-0.6,1.7-0.7c0.5-0.1,0.9-0.1,1.1-0.1h0.3c0.2,0,0.6,0,1.1,0.1c0.5,0.1,1.1,0.3,1.7,0.7
	c0.6,0.4,1.3,0.9,2,1.6c0.7,0.7,1.3,1.8,1.9,3.1c0.6,1.3,1.1,2.9,1.4,4.9c0.4,2,0.6,4.4,0.6,7.2C372.1,303.1,372,305.5,371.6,307.4
	 M374.8,287.1c-1.1-1.4-2.2-2.5-3.5-3.2c-1.3-0.8-2.4-1.3-3.6-1.7c-1.1-0.4-2.1-0.6-2.9-0.7c-0.8-0.1-1.3-0.1-1.4-0.1h-0.1
	c-0.1,0-0.6,0-1.5,0.1c-0.8,0.1-1.8,0.3-3,0.7c-1.1,0.4-2.3,0.9-3.6,1.7c-1.3,0.8-2.5,1.8-3.6,3.2c-1.1,1.4-2,3.2-2.7,5.3
	c-0.7,2.1-1.1,4.7-1.1,7.8c0.1,3.6,0.8,6.9,1.9,9.7c0.5,1.2,1.1,2.4,1.8,3.6c0.7,1.2,1.6,2.2,2.7,3.1c1.1,0.9,2.3,1.6,3.8,2.2
	c1.5,0.6,3.1,0.8,5.1,0.8c1.9,0,3.6-0.3,5.1-0.8c1.5-0.6,2.7-1.3,3.8-2.2c1.1-0.9,2-2,2.7-3.1c0.7-1.2,1.3-2.4,1.8-3.6
	c1.1-2.9,1.8-6.1,1.9-9.7c0-3.1-0.4-5.7-1.1-7.8C376.8,290.3,375.9,288.5,374.8,287.1 M435.7,283.4c0.3,0,0.6-0.1,0.8-0.1h0.2v-1.8
	h-10.1v1.8h0.3c0.2,0,0.5,0,0.9,0.1c0.4,0,0.8,0.1,1.3,0.3c0.4,0.1,0.9,0.4,1.2,0.6c0.4,0.3,0.6,0.7,0.7,1.2v22.7l-17.9-26.7l-9,0v0
	h-7.7v1.6h4.7l-7.6,26.6l-8.4-26.6h4.9v-1.6h-15.3v1.6h4.7l11.2,36h1.3l10.4-36h1.8c0,0,5.6,0,5.6,3.7v28.4
	c-0.4,0.9-0.9,1.5-1.6,1.8c-0.7,0.3-1.3,0.4-1.8,0.4c-0.1,0-0.2,0-0.2,0c-0.1,0-0.2,0-0.2,0h-0.2v1.8h9.8v-1.8h-0.2
	c-0.1,0-0.2,0-0.2,0c-0.1,0-0.2,0-0.3,0c-0.2,0-0.6,0-0.9-0.1c-0.4-0.1-0.7-0.2-1-0.3s-0.6-0.4-0.9-0.6c-0.3-0.3-0.5-0.7-0.6-1.1
	v-25.8l19.4,29.7h1.8v-33.7c0.2-0.5,0.5-0.9,0.9-1.2c0.4-0.3,0.8-0.5,1.2-0.6C435,283.5,435.4,283.4,435.7,283.4 M443.8,306.1
	l5.2-15.7l5.7,15.7H443.8z M465.3,317.4l-13.2-35.8H450l-11.3,33.7c-0.2,0.5-0.5,0.8-0.8,1.1c-0.3,0.3-0.7,0.5-1,0.6
	c-0.4,0.1-0.7,0.2-1,0.3c-0.3,0-0.6,0.1-0.7,0.1h-0.3v1.8h10.3v-1.8h-0.5c-0.2,0-0.6,0-1-0.1c-0.4-0.1-0.8-0.2-1.1-0.3
	s-0.7-0.4-0.9-0.8c-0.2-0.4-0.4-0.8-0.4-1.4c0-0.5,0.1-0.9,0.2-1.3l2.1-5.5h11.9l3.6,9.4H455v1.8h13.9v-1.8H465.3z M129.8,283.3h4.6
	v-1.8h-15.3v1.8h4.9v34h-4.9v1.8h15.3v-1.8h-4.6V283.3z M165,279c2-0.9,4.1-1.8,6.2-2.7c2-0.9,4-1.8,6-2.7c0.3-0.1,0.4-0.5,0.7-0.8
	c-0.3-0.1-0.6-0.4-0.9-0.4c-1-0.1-1.9,0-2.9,0c-1.7-0.1-3.2,0.2-4.5,1.5c-1.7,1.6-3.6,3.1-5.5,4.6C164.2,279.1,164.4,279.2,165,279
	 M157,306.1l5.2-15.7l5.7,15.7H157z M165.3,281.6h-2.1l-11.3,33.7c0,0-0.4,1.5-2.5,1.9l-14.6-19.7l13.9-14.1h4v-1.8h-10.4v1.8h4.5
	l-16.2,16.5l13.2,17.5h-4.9v1.8h9.1h6.2h4.2v-1.8h-0.5c-0.2,0-0.6,0-1-0.1c-0.4-0.1-0.8-0.2-1.1-0.3c-0.4-0.2-0.7-0.4-0.9-0.8
	c-0.2-0.4-0.4-0.8-0.4-1.4c0-0.5,0.1-0.9,0.2-1.3l2.1-5.5h11.9l3.6,9.4h-4.1v1.8h13.9v-1.8h-3.6L165.3,281.6z"/>
</svg>
