<svg xmlns="http://www.w3.org/2000/svg" xmlns:xlink="http://www.w3.org/1999/xlink" viewBox="0 0 195.95 94.99"><defs><style>.cls-1{fill:none;}.cls-2{clip-path:url(#clip-path);}.cls-3{fill:#e52528;}.cls-4{fill:#025597;}</style><clipPath id="clip-path" transform="translate(0 0)"><rect class="cls-1" width="195.95" height="94.99"/></clipPath></defs><g id="Vrstva_2" data-name="Vrstva 2"><g id="Vrstva_1-2" data-name="Vrstva 1"><g class="cls-2"><path class="cls-3" d="M102.45,18.06H95.54L86.72,6.17H95.2l4,6.84,4-6.84h8.34ZM112,32.77c-4.65-3.63-7.8-5.06-11.35-5.06-6.57,0-10.53,6.15-10.53,16.34,0,6.08,1,10,3.35,13.05a9.78,9.78,0,0,0,7.52,3.76c3.35,0,6.36-1.3,11-4.85v8.63A36.08,36.08,0,0,1,97.79,67.1C81.8,67.1,74,60,74,43.84c0-7.93,1.91-13.05,6.35-17.16,4.65-4.24,10.26-6,18.94-6A30.88,30.88,0,0,1,112,23Z" transform="translate(0 0)"/><path class="cls-4" d="M133.68,50.54h3.15c5.88,0,9.09-.82,12.37-3.15,3.49-2.46,5.2-6.22,5.2-11.75,0-5.33-1.71-9.09-5.13-11.49-2.8-2-5.67-2.67-10.87-2.67H117.83a3.73,3.73,0,0,1,.48,2.26V64.83a4.78,4.78,0,0,1-.48,2.25H134.3a5.09,5.09,0,0,1-.62-2.25Zm0-6.84V27.91H135c2.81,0,3.9,2.12,3.9,7.79,0,6.23-.89,8-4,8Z" transform="translate(0 0)"/><path class="cls-4" d="M174.7,50.54h3.15c5.87,0,9.09-.82,12.37-3.15,3.49-2.46,5.2-6.22,5.2-11.75,0-5.33-1.71-9.09-5.13-11.49-2.8-2-5.67-2.67-10.87-2.67H158.84a3.73,3.73,0,0,1,.48,2.26V64.83a4.66,4.66,0,0,1-.48,2.25h16.48a5.09,5.09,0,0,1-.62-2.25Zm0-6.84V27.91H176c2.8,0,3.9,2.12,3.9,7.79,0,6.23-.89,8-4,8Z" transform="translate(0 0)"/><path class="cls-4" d="M57.8,0C53.48,1.42,47.36,6.23,41,14.21A25.08,25.08,0,0,1,52.26,34.83c0,14.25-12.62,25.8-28.2,25.8A31.52,31.52,0,0,1,17.94,60l-1.29,7.14H61.57C60,34.34,63.34,20.51,86.29,3.25L90.44,0Z" transform="translate(0 0)"/><path class="cls-3" d="M24.1,13.26C10.81,13.26,0,23,0,34.91S10.81,56.56,24.1,56.56s24.11-9.72,24.11-21.65S37.39,13.26,24.1,13.26" transform="translate(0 0)"/></g><rect class="cls-3" x="0.77" y="74.27" width="195.18" height="2.97"/><polygon points="7.55 84.45 5.04 92.05 2.52 84.45 0.81 84.45 4.39 94.9 5.68 94.9 9.29 84.45 7.55 84.45"/><rect x="10.84" y="84.45" width="1.65" height="10.45"/><polygon points="15.39 84.45 15.39 94.9 22.36 94.9 22.36 93.48 17.05 93.48 17.05 90.33 21.58 90.33 21.58 88.92 17.05 88.92 17.05 85.87 22.36 85.87 22.36 84.45 15.39 84.45"/><polygon points="31.23 84.45 31.23 91.79 26.19 84.45 24.67 84.45 24.67 94.9 26.33 94.9 26.33 87.55 31.37 94.9 32.89 94.9 32.89 84.45 31.23 84.45"/><polygon points="42.34 84.45 42.34 91.79 37.3 84.45 35.78 84.45 35.78 94.9 37.44 94.9 37.44 87.55 42.48 94.9 44 94.9 44 84.45 42.34 84.45"/><path d="M50.29,86.81,52,91.45H48.59Zm-.7-2.36-4,10.45h1.76l.75-2.1h4.3l.76,2.1h1.76l-4-10.45Z" transform="translate(0 0)"/><rect x="60.23" y="84.45" width="1.65" height="10.45"/><polygon points="71.34 84.45 71.34 91.79 66.3 84.45 64.79 84.45 64.79 94.9 66.44 94.9 66.44 87.55 71.48 94.9 72.99 94.9 72.99 84.45 71.34 84.45"/><g class="cls-2"><path d="M78.79,95a5.07,5.07,0,0,1-3.86-1.38l1.1-1a3.71,3.71,0,0,0,2.79,1c1.42,0,2.25-.59,2.25-1.61a1.37,1.37,0,0,0-.43-1.08,1.87,1.87,0,0,0-1.19-.44l-1.29-.18a3.82,3.82,0,0,1-2.07-.84,2.51,2.51,0,0,1-.8-2c0-1.82,1.38-3.07,3.65-3.07a4.66,4.66,0,0,1,3.39,1.19l-1.06,1a3.26,3.26,0,0,0-2.37-.81c-1.29,0-2,.7-2,1.63a1.23,1.23,0,0,0,.42,1,2.48,2.48,0,0,0,1.22.48l1.24.18a3.6,3.6,0,0,1,2,.78,2.65,2.65,0,0,1,.89,2.14c0,1.93-1.64,3.07-3.92,3.07" transform="translate(0 0)"/><path d="M88.72,95a3.64,3.64,0,0,1-3.91-3.61V84.45h1.66V91.3a2.26,2.26,0,1,0,4.51,0V84.45h1.66v6.93A3.65,3.65,0,0,1,88.72,95" transform="translate(0 0)"/><path d="M101.38,94.9l-2.29-4.4H97v4.4H95.37V84.45h4.22c2.07,0,3.39,1.27,3.39,3a2.78,2.78,0,0,1-2.17,2.78l2.5,4.62Zm-1.91-9H97v3.27h2.46a1.65,1.65,0,1,0,0-3.27" transform="translate(0 0)"/></g><path d="M108.85,86.81l1.65,4.64h-3.36Zm-.71-2.36-4,10.45h1.77l.75-2.1H111l.75,2.1h1.76l-4-10.45Z" transform="translate(0 0)"/><polygon points="121.62 84.45 121.62 91.79 116.58 84.45 115.06 84.45 115.06 94.9 116.72 94.9 116.72 87.55 121.76 94.9 123.28 94.9 123.28 84.45 121.62 84.45"/><g class="cls-2"><path d="M129.7,95a4,4,0,0,1-2.87-1.12c-1.07-1-1-2.18-1-4.2s0-3.17,1-4.2a4.08,4.08,0,0,1,2.87-1.11,4.14,4.14,0,0,1,3.05,1.23l-1.11,1.07a2.51,2.51,0,0,0-1.94-.88,2.24,2.24,0,0,0-1.61.63c-.54.56-.64,1.16-.64,3.26s.1,2.71.64,3.27a2.24,2.24,0,0,0,1.61.63,2.51,2.51,0,0,0,1.94-.88l1.11,1.07A4.14,4.14,0,0,1,129.7,95" transform="translate(0 0)"/></g><polygon points="135.01 84.45 135.01 94.9 141.98 94.9 141.98 93.48 136.67 93.48 136.67 90.33 141.2 90.33 141.2 88.92 136.67 88.92 136.67 85.87 141.98 85.87 141.98 84.45 135.01 84.45"/><g class="cls-2"><path d="M154.52,93.79a4.09,4.09,0,0,1-3,1.2,4,4,0,0,1-2.86-1.12c-1.07-1-1.06-2.18-1.06-4.2s0-3.17,1.06-4.2a4,4,0,0,1,2.86-1.11,4.21,4.21,0,0,1,3.3,1.38l-1.12,1.07a2.82,2.82,0,0,0-2.18-1,2.25,2.25,0,0,0-1.62.65c-.53.56-.64,1.14-.64,3.24s.11,2.71.64,3.27a2.42,2.42,0,0,0,3.37-.11,2.33,2.33,0,0,0,.54-1.66V90.6h-2.29V89.25h3.94v1.57a3.86,3.86,0,0,1-1,3" transform="translate(0 0)"/><path d="M163.91,94.9l-2.3-4.4h-2.07v4.4h-1.65V84.45h4.23a3.05,3.05,0,0,1,3.38,3,2.78,2.78,0,0,1-2.17,2.78l2.51,4.62Zm-1.92-9h-2.45v3.27H162c1.11,0,1.86-.6,1.86-1.62A1.65,1.65,0,0,0,162,85.87" transform="translate(0 0)"/><path d="M174.37,93.87a4.24,4.24,0,0,1-5.74,0c-1.08-1-1.06-2.18-1.06-4.2s0-3.17,1.06-4.2a4.27,4.27,0,0,1,5.74,0c1.07,1,1,2.19,1,4.2s0,3.18-1,4.2m-1.25-7.44a2.3,2.3,0,0,0-1.63-.65,2.25,2.25,0,0,0-1.62.65c-.54.56-.65,1.14-.65,3.24s.11,2.69.65,3.25a2.25,2.25,0,0,0,1.62.65,2.3,2.3,0,0,0,1.63-.65c.53-.56.64-1.15.64-3.25s-.11-2.68-.64-3.24" transform="translate(0 0)"/><path d="M181.65,95a3.64,3.64,0,0,1-3.91-3.61V84.45h1.66V91.3a2.26,2.26,0,1,0,4.52,0V84.45h1.65v6.93A3.65,3.65,0,0,1,181.65,95" transform="translate(0 0)"/><path d="M192.43,90.79H190V94.9H188.3V84.45h4.13a3.19,3.19,0,1,1,0,6.34m-.09-4.92H190v3.49h2.39a1.75,1.75,0,1,0,0-3.49" transform="translate(0 0)"/></g></g></g></svg>