<svg version="1.1" id="Layer_1" xmlns="http://www.w3.org/2000/svg" x="0" y="0" viewBox="0 0 235.8 66" style="enable-background:new 0 0 235.8 66" xml:space="preserve"><style>.st0{fill:#c03}</style><path class="st0" d="M85.5 42.8h18.2v18.3h-2.6V45.4H85.5zM0 0h61.1v30.5H0z"/><path d="M0 30.5h61.1V61H0z"/><path style="fill:#fff" d="M13.1 30.5H48v2.9H13.1z"/><path d="m93.9 13.2 18.9-10.8c1.7-1 .7-2-.4-2V0h13.5v.4c-2.2.2-4.5 1.5-6.3 2.5l-17 9.6 19.8 15.2c1.5 1.1 2.8 2.2 4.5 2.4v.4h-13.5L93.9 15.1V27c0 2 1.1 3.1 3.1 3.1v.4H82.5v-.4c2 0 3.1-1.1 3.1-3.1V3.5c0-2-1.1-3.1-3.1-3.1V0H97v.4c-2 0-3.1 1.1-3.1 3.1v9.7zM171.1 21.8c0 5.3-4.9 8.6-16.9 8.7h-23v-.4c2 0 3.1-1.1 3.1-3.1V3.5c0-2-1.1-3.1-3.1-3.1V0h24.4c10.1 0 13.6 3.3 13.6 7 0 5.1-5.4 6.9-10.5 7.3 5.4.1 12.4 1.8 12.4 7.5M160.2 8c0-4.2-4.9-4.7-10-4.7-2.2 0-4.7.1-7.5.4v9s3 .1 5 .1c10.1 0 12.5-1.3 12.5-4.8m-7.9 19.1c4.3 0 9.6-.7 9.6-5.3 0-6.4-10.9-5.7-19.2-5.2v8.1c0 1.1 1.4 2.2 3 2.3 2 0 6.6.1 6.6.1M120.3 45.8c2.2.1 5-.7 5 2.6 0 3.2-2.8 2.5-5 2.6v-5.2zm0 15.3v-7h2.9c4.1-.1 6.3-2.3 6.3-5.6 0-4.6-3.4-5.6-7.5-5.6h-5.7v18.3h4zM133.7 54.7c0-2 .4-4.2 2.7-4.2s2.7 2.2 2.7 4.2-.4 4.2-2.7 4.2c-2.3 0-2.7-2.2-2.7-4.2m9.4 0c0-4-2.5-6.8-6.6-6.8-4.2 0-6.6 2.7-6.6 6.8s2.5 6.7 6.6 6.7c4.1.1 6.6-2.7 6.6-6.7M149.1 61.6c0 3-1 4.5-4.2 4.5-.4 0-.9 0-1.3-.1v-2.4c1 .1 1.6-.6 1.7-1.6V48.4h3.8v13.2zm.1-15.6h-4.1v-3.3h4.1V46zM156.1 61.1h-3.8V48.4h3.8v12.7zm.1-15.1h-4.1v-3.3h4.1V46zM166.3 51.8c-.1-.9-.9-1.2-1.7-1.2-1 0-1.5.3-1.5 1.1 0 2 7.3.9 7.3 5.6 0 2.8-3.4 4.2-5.8 4.2-3 0-5.6-1.2-5.6-4.1h3.5c.1 1 1 1.5 2.1 1.5 1 0 1.8-.4 1.8-1.4 0-1-1.8-1.5-2.6-1.6-2.4-.6-4.7-1.1-4.7-4.1 0-2.7 3.2-3.8 5.4-3.8 2.7 0 5 1 5.1 3.8h-3.3zM173.5 48.4v-2.5l3.8-1.4v3.9h2.9v2.5h-2.9v5.9c0 1.7.3 2.1 1.6 2.1.4 0 .8 0 1.2-.1V61c-.4.2-2.5.4-3 .4-3 0-3.6-1.5-3.6-4.3v-6.3h-2.6v-2.5h2.6v.1zM185.6 54.7c0-2 .4-4.2 2.7-4.2s2.7 2.2 2.7 4.2-.4 4.2-2.7 4.2-2.7-2.2-2.7-4.2m9.3 0c0-4-2.5-6.8-6.6-6.8-4.2 0-6.6 2.7-6.6 6.8s2.5 6.7 6.6 6.7c4.1.1 6.6-2.7 6.6-6.7M194.8 48.4h4.1l2.8 8.6h.1l2.9-8.6h3.6l-4.6 12.7h-4.2zM213.5 49.8c.8-1.1 2-1.8 3.9-1.8 1.3 0 3.7.9 4.2 2.8.2.8.2 1.6.2 2v8.3H218v-7.7c0-1.4-.4-2.9-2.3-2.9-1.2 0-2.2 1.1-2.3 2.9v7.7h-3.8V48.4h3.8l.1 1.4zM231.8 55.1c0 1.5-.1 3.8-2.2 3.8-1.1 0-1.9-.8-1.9-1.8.1-2.1 2.8-2 4.1-2m-3.4-3.1c-.1-.6.4-1.8 1.7-1.8 1.3 0 1.8 1 1.8 1.6V53c-1.5 0-3.4 0-5 .7-2.3 1-2.7 3.2-2.7 4 0 2.5 1.8 3.9 4.2 3.9 1.7 0 3-.6 3.9-2.1h.1c0 .5.1 1.1.1 1.7h3.4c-.1-.4-.1-.8-.2-1.4v-7c0-3.8-2.9-4.8-5.4-4.8-1.4 0-2.7.2-3.8.8-1 .6-1.7 1.6-1.7 3.2h3.6zM168.7 42.9h-2.2l-1.8 2.1-1.7-2.1h-2.3l2.6 3.7h2.6z"/><path d="M178.8 42.8h2.6l-1.2 4.6h-1.9z"/></svg>