<?xml version="1.0" encoding="utf-8"?>
<!-- Generator: Adobe Illustrator 19.0.0, SVG Export Plug-In . SVG Version: 6.00 Build 0)  -->
<svg version="1.1" id="layer" xmlns="http://www.w3.org/2000/svg" xmlns:xlink="http://www.w3.org/1999/xlink" x="0px" y="0px"
	 viewBox="-153 -46 652 652" style="enable-background:new -153 -46 652 652;" xml:space="preserve">
<style type="text/css">
	.st0{fill:#002F3A;}
	.st1{fill:#E28A40;}
</style>
<path class="st0" d="M293.5,296.1h18.4V171.7h40.2V158h-58.6V296.1z M293.5,391.1h58.6v-13.2h-40.2v-68.1h-18.4V391.1z
	 M-131.6,273.9c0,108.7,34.5,119.1,53,119.1c8.5,0,14.2-1.9,14.2-1.9v-12.8c-2.8,0.5-5.2,0.9-8,0.9c-16.1,0-40.2-14.2-40.2-105.4
	c0-89.4,23.2-103.5,39.2-103.5c3.3,0,6.6,0.9,9,1.9V159c0,0-5.7-1.9-14.2-1.9C-97,157.1-131.6,165.6-131.6,273.9z M0.8,157.1
	c-17,0-42.6,11.3-42.6,118.2c0,106.4,25.5,118.2,42.6,118.2s42.6-11.3,42.6-118.2S17.9,157.1,0.8,157.1z M0.8,379.3
	c-10.9,0-23.6-13.2-23.6-104.5S-10,170.3,0.8,170.3s23.6,13.2,23.6,104.5S11.7,379.3,0.8,379.3z M133.7,312.6L87.8,158.5h-9.5v233.1
	h18.4V238.9l45.9,152.7h9.5V158.5h-18.4V312.6z M204.6,195.4c0-17,9.9-25.1,20.3-25.1c6.1,0,10.9,1.4,15.1,3.8l6.1-12.3
	c0,0-9.5-5.2-20.8-5.2c-23.2,0-39.2,14.2-39.2,38.8c0,24.1,8.5,40.7,27.9,71.9c12.3,19.9,25.5,44.4,25.5,70
	c0,32.2-18,41.6-28.4,41.6c-7.1,0-14.2-1.4-19.4-4.7l-5.7,11.3c6.1,4.3,14.7,6.6,25.1,6.6c18,0,47.8-12.8,47.8-55.3
	c0-33.1-13.7-57.2-31.2-85.6C215.5,232.3,204.6,213.8,204.6,195.4z M448.1,362.3c6.1-17.5,9.9-44.9,9.9-87.5
	c0-106.4-25.5-118.2-42.6-118.2s-42.6,11.3-42.6,118.2c0,106.4,25.5,118.2,42.6,118.2c8,0,18.4-2.8,26.5-17l17,17l9.5-9.5
	L448.1,362.3z M434.4,348.6l-7.1-7.1l-9.5,9.5l12.8,12.8c-4.3,12.3-9.9,15.1-15.1,15.1c-10.9,0-23.6-13.2-23.6-104.5
	s12.8-104.5,23.6-104.5s23.6,13.2,23.6,104.5C439.1,309.3,437.2,333,434.4,348.6z"/>
<polygon class="st1" points="285.9,296.1 285.9,309.8 293.5,309.8 311.9,309.8 343.2,309.8 343.2,296.1 311.9,296.1 293.5,296.1 "/>
</svg>
