<?xml version="1.0" encoding="UTF-8" standalone="no"?>
<!DOCTYPE svg PUBLIC "-//W3C//DTD SVG 1.1//EN" "http://www.w3.org/Graphics/SVG/1.1/DTD/svg11.dtd">
<svg width="100%" height="100%" viewBox="0 0 400 100" version="1.1" xmlns="http://www.w3.org/2000/svg" xmlns:xlink="http://www.w3.org/1999/xlink" xml:space="preserve" xmlns:serif="http://www.serif.com/" style="fill-rule:evenodd;clip-rule:evenodd;stroke-linejoin:round;stroke-miterlimit:2;">
    <g transform="matrix(1,0,0,1,0,-0.00170287)">
        <path d="M36.431,52.483L22.781,52.483L30.051,28.762L36.431,52.483ZM15.7,78.624L20.361,63.003L38.751,63.003L43.111,78.584L60.112,78.584L43.221,19.182C42.221,15.672 40.121,14.052 36.431,14.052L12.32,14.052L12.32,19.662L14.32,19.662C16.84,19.662 18.2,20.662 18.2,22.572C18.2,23.842 17.92,24.902 16.92,27.792L0,78.624L15.7,78.624Z" style="fill:rgb(26,26,26);fill-rule:nonzero;"/>
        <path d="M79.782,78.624L79.782,19.002C79.782,15.892 77.962,14.052 74.952,14.052L60.002,14.052L60.002,19.662L61.002,19.662C63.512,19.662 64.582,20.732 64.582,23.272L64.582,78.624L79.782,78.624Z" style="fill:rgb(26,26,26);fill-rule:nonzero;"/>
        <path d="M105.623,78.624L105.623,19.002C105.623,15.892 103.773,14.052 100.783,14.052L85.882,14.052L85.882,19.662L86.882,19.662C89.402,19.662 90.472,20.732 90.472,23.272L90.472,78.624L105.623,78.624Z" style="fill:rgb(26,26,26);fill-rule:nonzero;"/>
        <path d="M132.133,19.942C132.133,15.612 128.923,12.942 123.423,12.942C117.923,12.942 114.693,15.562 114.693,19.942C114.693,24.322 118.003,26.942 123.423,26.942C128.843,26.942 132.133,24.342 132.133,19.942M131.843,78.624L131.843,35.163C131.843,32.063 130.003,30.232 126.993,30.232L112.283,30.232L112.283,35.733L113.153,35.733C115.663,35.733 116.733,36.893 116.733,39.413L116.733,78.624L131.843,78.624Z" style="fill:rgb(26,26,26);fill-rule:nonzero;"/>
        <path d="M165.124,55.383L165.124,64.793C162.594,67.403 159.514,69.003 156.904,69.003C154.294,69.003 153.224,67.663 153.224,64.003C153.224,60.343 153.984,58.793 156.704,57.743C159.412,56.641 162.237,55.849 165.124,55.383M144.684,44.083C149.329,41.778 154.412,40.49 159.594,40.303C163.674,40.303 165.124,41.753 165.124,45.983L165.124,47.063C158.934,48.063 156.994,48.443 153.504,49.213C151.549,49.644 149.635,50.242 147.784,51.003C141.674,53.453 138.783,58.173 138.783,65.423C138.783,74.624 142.784,79.064 150.974,79.064C153.76,79.075 156.522,78.556 159.114,77.534C161.465,76.464 163.65,75.063 165.604,73.374L165.604,74.054C165.604,77.054 167.144,78.584 170.154,78.584L184.005,78.584L184.005,73.414L183.325,73.414C180.715,73.414 179.755,72.244 179.755,69.153L179.755,46.103C179.755,33.813 175.484,29.532 163.174,29.532C159.271,29.552 155.383,30.011 151.584,30.902C147.994,31.703 144.536,33.009 141.314,34.783L144.684,44.083Z" style="fill:rgb(26,26,26);fill-rule:nonzero;"/>
        <path d="M206.055,78.624L206.055,45.903C208.585,43.093 211.185,41.823 214.185,41.823C217.395,41.823 218.186,43.093 218.186,47.963L218.186,78.624L233.286,78.624L233.286,45.723C233.286,38.063 232.736,35.643 230.286,33.043C228.286,30.792 225.156,29.652 221.166,29.652C215.255,29.652 211.095,31.482 205.505,36.713L205.505,34.783C205.505,31.783 203.935,30.232 200.845,30.232L186.495,30.232L186.495,35.733L187.365,35.733C189.875,35.733 190.955,36.893 190.955,39.413L190.955,78.624L206.055,78.624Z" style="fill:rgb(26,26,26);fill-rule:nonzero;"/>
        <path d="M278.077,68.463L257.006,68.463L277.157,40.213L277.157,30.212L245.556,30.212C241.976,30.212 240.326,31.853 240.326,35.443L240.326,44.243L245.936,44.243L245.936,43.383C245.936,41.153 247.096,40.093 249.506,40.093L260.367,40.093L240.006,68.663L240.006,78.664L278.007,78.664L278.077,68.463Z" style="fill:rgb(26,26,26);fill-rule:nonzero;"/>
        <path d="M357.349,77.394L357.349,22.682C357.349,18.322 355.799,16.852 351.569,16.852L338.759,16.852L338.759,23.002L339.529,23.002C342.449,23.002 343.019,23.662 343.019,27.182L343.019,77.394L357.349,77.394ZM363.669,77.394L377.89,77.394L377.89,34.783C377.89,30.502 376.239,28.962 372.069,28.962L363.669,28.962L363.669,77.394ZM336.738,77.394L336.738,29.002L328.308,29.002C324.138,29.002 322.508,30.542 322.508,34.823L322.508,77.394L336.738,77.394ZM391.35,49.583C391.35,73.694 374.009,91.224 350.199,91.224C326.388,91.224 309.008,73.694 309.008,49.583C309.008,25.472 326.378,7.942 350.199,7.942C374.019,7.942 391.35,25.572 391.35,49.583M399.77,49.583C399.77,21.232 378.56,0.002 350.199,0.002C321.838,0.002 300.608,21.232 300.608,49.583C300.608,77.934 321.818,99.154 350.199,99.154C378.58,99.154 399.77,78.004 399.77,49.583" style="fill:rgb(26,26,26);fill-rule:nonzero;"/>
    </g>
</svg>
