<?xml version="1.0" encoding="UTF-8" standalone="no"?>
<!DOCTYPE svg PUBLIC "-//W3C//DTD SVG 1.1//EN" "http://www.w3.org/Graphics/SVG/1.1/DTD/svg11.dtd">
<svg width="100%" height="100%" viewBox="0 0 196 96" version="1.1" xmlns="http://www.w3.org/2000/svg" xmlns:xlink="http://www.w3.org/1999/xlink" xml:space="preserve" xmlns:serif="http://www.serif.com/" style="fill-rule:evenodd;clip-rule:evenodd;stroke-linejoin:round;stroke-miterlimit:2;">
    <g id="Vrstva_1-2">
        <g>
            <path d="M102.45,18.06L95.54,18.06L86.72,6.17L95.2,6.17L99.2,13.01L103.2,6.17L111.54,6.17L102.45,18.06ZM112,32.77C107.35,29.14 104.2,27.71 100.65,27.71C94.08,27.71 90.12,33.86 90.12,44.05C90.12,50.13 91.12,54.05 93.47,57.1C95.281,59.42 98.047,60.803 100.99,60.86C104.34,60.86 107.35,59.56 111.99,56.01L111.99,64.64C107.47,66.407 102.64,67.243 97.79,67.1C81.8,67.1 74,60 74,43.84C74,35.91 75.91,30.79 80.35,26.68C85,22.44 90.61,20.68 99.29,20.68C103.643,20.548 107.974,21.339 112,23L112,32.77Z" style="fill:rgb(26,26,26);fill-rule:nonzero;"/>
            <path d="M133.68,50.54L136.83,50.54C142.71,50.54 145.92,49.72 149.2,47.39C152.69,44.93 154.4,41.17 154.4,35.64C154.4,30.31 152.69,26.55 149.27,24.15C146.47,22.15 143.6,21.48 138.4,21.48L117.83,21.48C118.225,22.163 118.393,22.955 118.31,23.74L118.31,64.83C118.336,65.608 118.171,66.38 117.83,67.08L134.3,67.08C133.922,66.388 133.71,65.618 133.68,64.83L133.68,50.54ZM133.68,43.7L133.68,27.91L135,27.91C137.81,27.91 138.9,30.03 138.9,35.7C138.9,41.93 138.01,43.7 134.9,43.7L133.68,43.7Z" style="fill:rgb(26,26,26);fill-rule:nonzero;"/>
            <path d="M174.7,50.54L177.85,50.54C183.72,50.54 186.94,49.72 190.22,47.39C193.71,44.93 195.42,41.17 195.42,35.64C195.42,30.31 193.71,26.55 190.29,24.15C187.49,22.15 184.62,21.48 179.42,21.48L158.84,21.48C159.235,22.163 159.403,22.955 159.32,23.74L159.32,64.83C159.351,65.608 159.186,66.382 158.84,67.08L175.32,67.08C174.942,66.388 174.73,65.618 174.7,64.83L174.7,50.54ZM174.7,43.7L174.7,27.91L176,27.91C178.8,27.91 179.9,30.03 179.9,35.7C179.9,41.93 179.01,43.7 175.9,43.7L174.7,43.7Z" style="fill:rgb(26,26,26);fill-rule:nonzero;"/>
            <path d="M57.8,0C53.48,1.42 47.36,6.23 41,14.21C47.933,18.787 52.157,26.523 52.26,34.83C52.26,49.08 39.64,60.63 24.06,60.63C22.004,60.62 19.955,60.409 17.94,60L16.65,67.14L61.57,67.14C60,34.34 63.34,20.51 86.29,3.25L90.44,0L57.8,0Z" style="fill:rgb(26,26,26);fill-rule:nonzero;"/>
            <path d="M24.1,13.26C10.81,13.26 0,23 0,34.91C0,46.82 10.81,56.56 24.1,56.56C37.39,56.56 48.21,46.84 48.21,34.91C48.21,22.98 37.39,13.26 24.1,13.26" style="fill:rgb(26,26,26);fill-rule:nonzero;"/>
        </g>
        <rect x="0.77" y="74.27" width="195.18" height="2.97" style="fill:rgb(26,26,26);"/>
        <path d="M7.55,84.45L5.04,92.05L2.52,84.45L0.81,84.45L4.39,94.9L5.68,94.9L9.29,84.45L7.55,84.45Z" style="fill:rgb(26,26,26);fill-rule:nonzero;"/>
        <rect x="10.84" y="84.45" width="1.65" height="10.45" style="fill:rgb(26,26,26);"/>
        <path d="M15.39,84.45L15.39,94.9L22.36,94.9L22.36,93.48L17.05,93.48L17.05,90.33L21.58,90.33L21.58,88.92L17.05,88.92L17.05,85.87L22.36,85.87L22.36,84.45L15.39,84.45Z" style="fill:rgb(26,26,26);fill-rule:nonzero;"/>
        <path d="M31.23,84.45L31.23,91.79L26.19,84.45L24.67,84.45L24.67,94.9L26.33,94.9L26.33,87.55L31.37,94.9L32.89,94.9L32.89,84.45L31.23,84.45Z" style="fill:rgb(26,26,26);fill-rule:nonzero;"/>
        <path d="M42.34,84.45L42.34,91.79L37.3,84.45L35.78,84.45L35.78,94.9L37.44,94.9L37.44,87.55L42.48,94.9L44,94.9L44,84.45L42.34,84.45Z" style="fill:rgb(26,26,26);fill-rule:nonzero;"/>
        <path d="M50.29,86.81L52,91.45L48.59,91.45L50.29,86.81ZM49.59,84.45L45.59,94.9L47.35,94.9L48.1,92.8L52.4,92.8L53.16,94.9L54.92,94.9L50.92,84.45L49.59,84.45Z" style="fill:rgb(26,26,26);fill-rule:nonzero;"/>
        <rect x="60.23" y="84.45" width="1.65" height="10.45" style="fill:rgb(26,26,26);"/>
        <path d="M71.34,84.45L71.34,91.79L66.3,84.45L64.79,84.45L64.79,94.9L66.44,94.9L66.44,87.55L71.48,94.9L72.99,94.9L72.99,84.45L71.34,84.45Z" style="fill:rgb(26,26,26);fill-rule:nonzero;"/>
        <g>
            <path d="M78.79,95C77.367,95.104 75.965,94.602 74.93,93.62L76.03,92.62C76.78,93.326 77.792,93.689 78.82,93.62C80.24,93.62 81.07,93.03 81.07,92.01C81.094,91.604 80.936,91.208 80.64,90.93C80.307,90.649 79.886,90.494 79.45,90.49L78.16,90.31C77.402,90.243 76.681,89.95 76.09,89.47C75.537,88.958 75.243,88.223 75.29,87.47C75.29,85.65 76.67,84.4 78.94,84.4C80.183,84.328 81.405,84.756 82.33,85.59L81.27,86.59C80.62,86.015 79.766,85.724 78.9,85.78C77.61,85.78 76.9,86.48 76.9,87.41C76.878,87.79 77.033,88.16 77.32,88.41C77.676,88.677 78.098,88.842 78.54,88.89L79.78,89.07C80.51,89.121 81.208,89.393 81.78,89.85C82.389,90.389 82.718,91.178 82.67,91.99C82.67,93.92 81.03,95.06 78.75,95.06" style="fill:rgb(26,26,26);fill-rule:nonzero;"/>
            <path d="M88.72,95C88.63,95.007 88.54,95.01 88.45,95.01C86.461,95.01 84.821,93.379 84.81,91.39L84.81,84.45L86.47,84.45L86.47,91.3C86.467,91.35 86.465,91.4 86.465,91.45C86.465,92.69 87.485,93.71 88.725,93.71C89.965,93.71 90.985,92.69 90.985,91.45C90.985,91.4 90.983,91.35 90.98,91.3L90.98,84.45L92.64,84.45L92.64,91.38C92.629,93.375 90.985,95.01 88.99,95.01C88.9,95.01 88.81,95.007 88.72,95" style="fill:rgb(26,26,26);fill-rule:nonzero;"/>
            <path d="M101.38,94.9L99.09,90.5L97,90.5L97,94.9L95.37,94.9L95.37,84.45L99.59,84.45C101.66,84.45 102.98,85.72 102.98,87.45C103.012,88.771 102.099,89.941 100.81,90.23L103.31,94.85L101.38,94.9ZM99.47,85.9L97,85.9L97,89.17L99.46,89.17C99.534,89.18 99.608,89.185 99.682,89.185C100.587,89.185 101.332,88.44 101.332,87.535C101.332,86.63 100.587,85.885 99.682,85.885C99.608,85.885 99.534,85.89 99.46,85.9" style="fill:rgb(26,26,26);fill-rule:nonzero;"/>
        </g>
        <path d="M108.85,86.81L110.5,91.45L107.14,91.45L108.85,86.81ZM108.14,84.45L104.14,94.9L105.91,94.9L106.66,92.8L111,92.8L111.75,94.9L113.51,94.9L109.51,84.45L108.14,84.45Z" style="fill:rgb(26,26,26);fill-rule:nonzero;"/>
        <path d="M121.62,84.45L121.62,91.79L116.58,84.45L115.06,84.45L115.06,94.9L116.72,94.9L116.72,87.55L121.76,94.9L123.28,94.9L123.28,84.45L121.62,84.45Z" style="fill:rgb(26,26,26);fill-rule:nonzero;"/>
        <g>
            <path d="M129.7,95C128.633,95.025 127.598,94.621 126.83,93.88C125.76,92.88 125.83,91.7 125.83,89.68C125.83,87.66 125.83,86.51 126.83,85.48C127.605,84.75 128.636,84.351 129.7,84.37C130.842,84.341 131.947,84.787 132.75,85.6L131.64,86.67C131.156,86.104 130.445,85.781 129.7,85.79C129.101,85.776 128.521,86.003 128.09,86.42C127.55,86.98 127.45,87.58 127.45,89.68C127.45,91.78 127.55,92.39 128.09,92.95C128.521,93.367 129.101,93.594 129.7,93.58C130.445,93.589 131.156,93.266 131.64,92.7L132.75,93.77C131.947,94.583 130.842,95.029 129.7,95" style="fill:rgb(26,26,26);fill-rule:nonzero;"/>
        </g>
        <path d="M135.01,84.45L135.01,94.9L141.98,94.9L141.98,93.48L136.67,93.48L136.67,90.33L141.2,90.33L141.2,88.92L136.67,88.92L136.67,85.87L141.98,85.87L141.98,84.45L135.01,84.45Z" style="fill:rgb(26,26,26);fill-rule:nonzero;"/>
        <g>
            <path d="M154.52,93.79C153.727,94.584 152.642,95.019 151.52,94.99C150.456,95.012 149.426,94.609 148.66,93.87C147.59,92.87 147.6,91.69 147.6,89.67C147.6,87.65 147.6,86.5 148.66,85.47C149.428,84.735 150.457,84.335 151.52,84.36C152.77,84.307 153.98,84.813 154.82,85.74L153.7,86.81C153.159,86.169 152.359,85.802 151.52,85.81C150.915,85.8 150.33,86.034 149.9,86.46C149.37,87.02 149.26,87.6 149.26,89.7C149.26,91.8 149.37,92.41 149.9,92.97C150.862,93.845 152.367,93.796 153.27,92.86C153.658,92.398 153.852,91.802 153.81,91.2L153.81,90.6L151.52,90.6L151.52,89.25L155.46,89.25L155.46,90.82C155.57,91.916 155.206,93.009 154.46,93.82" style="fill:rgb(26,26,26);fill-rule:nonzero;"/>
            <path d="M163.91,94.9L161.61,90.5L159.54,90.5L159.54,94.9L157.89,94.9L157.89,84.45L162.12,84.45C162.23,84.438 162.34,84.432 162.45,84.432C164.111,84.432 165.483,85.789 165.5,87.45C165.532,88.771 164.619,89.941 163.33,90.23L165.84,94.85L163.91,94.9ZM161.99,85.9L159.54,85.9L159.54,89.17L162,89.17C163.11,89.17 163.86,88.57 163.86,87.55C163.86,87.536 163.861,87.521 163.861,87.507C163.861,86.601 163.116,85.857 162.211,85.857C162.14,85.857 162.07,85.861 162,85.87" style="fill:rgb(26,26,26);fill-rule:nonzero;"/>
            <path d="M174.37,93.87C172.756,95.354 170.244,95.354 168.63,93.87C167.55,92.87 167.57,91.69 167.57,89.67C167.57,87.65 167.57,86.5 168.63,85.47C170.25,84 172.75,84 174.37,85.47C175.44,86.47 175.37,87.66 175.37,89.67C175.37,91.68 175.37,92.85 174.37,93.87M173.12,86.43C172.684,86.007 172.098,85.773 171.49,85.78C170.885,85.77 170.3,86.004 169.87,86.43C169.33,86.99 169.22,87.57 169.22,89.67C169.22,91.77 169.33,92.36 169.87,92.92C170.3,93.346 170.885,93.58 171.49,93.57C172.098,93.577 172.684,93.343 173.12,92.92C173.65,92.36 173.76,91.77 173.76,89.67C173.76,87.57 173.65,86.99 173.12,86.43" style="fill:rgb(26,26,26);fill-rule:nonzero;"/>
            <path d="M181.65,95C181.56,95.007 181.47,95.01 181.38,95.01C179.391,95.01 177.751,93.379 177.74,91.39L177.74,84.45L179.4,84.45L179.4,91.3C179.4,92.54 180.42,93.56 181.66,93.56C182.9,93.56 183.92,92.54 183.92,91.3L183.92,84.45L185.57,84.45L185.57,91.38C185.559,93.375 183.915,95.01 181.92,95.01C181.83,95.01 181.74,95.007 181.65,95" style="fill:rgb(26,26,26);fill-rule:nonzero;"/>
            <path d="M192.43,90.79L190,90.79L190,94.9L188.3,94.9L188.3,84.45L192.43,84.45C192.548,84.437 192.667,84.43 192.787,84.43C194.537,84.43 195.977,85.87 195.977,87.62C195.977,89.37 194.537,90.81 192.787,90.81C192.667,90.81 192.548,90.803 192.43,90.79M192.34,85.87L190,85.87L190,89.36L192.39,89.36C192.434,89.363 192.478,89.365 192.522,89.365C193.482,89.365 194.272,88.575 194.272,87.615C194.272,86.655 193.482,85.865 192.522,85.865C192.478,85.865 192.434,85.867 192.39,85.87" style="fill:rgb(26,26,26);fill-rule:nonzero;"/>
        </g>
    </g>
</svg>
