<?xml version="1.0" encoding="UTF-8" standalone="no"?>
<!DOCTYPE svg PUBLIC "-//W3C//DTD SVG 1.1//EN" "http://www.w3.org/Graphics/SVG/1.1/DTD/svg11.dtd">
<svg width="100%" height="100%" viewBox="0 0 78 61" version="1.1" xmlns="http://www.w3.org/2000/svg" xmlns:xlink="http://www.w3.org/1999/xlink" xml:space="preserve" xmlns:serif="http://www.serif.com/" style="fill-rule:evenodd;clip-rule:evenodd;stroke-linejoin:round;stroke-miterlimit:2;">
    <g transform="matrix(1,0,0,1,-0.499,-5)">
        <g id="Äsob_ps">
            <g>
                <path d="M71.315,45.512L59.188,45.512L59.188,65.485L70.398,65.485C74.56,65.485 78.411,64.8 78.411,59.817C78.411,58.025 77.058,56.002 74.766,55.324C77.004,54.5 78.058,52.968 78.058,50.565C78.058,47.304 75.663,45.512 71.315,45.512ZM68.208,57.478C69.922,57.478 70.654,57.997 70.654,59.205C70.654,60.832 68.739,60.957 68.149,60.957L66.519,60.957L66.519,57.478L68.208,57.478ZM68.234,49.707C69.713,49.707 70.464,50.256 70.464,51.344C70.464,52.674 69.163,52.954 68.066,52.954L66.519,52.954L66.519,49.707L68.234,49.707ZM36.396,55.494C36.396,62.157 40.2,65.813 47.119,65.813C54.08,65.813 57.919,62.156 57.919,55.494C57.919,48.938 53.98,45.18 47.119,45.18C40.301,45.18 36.396,48.938 36.396,55.494M44.476,55.494C44.476,52.098 45.364,50.375 47.119,50.375C49.483,50.375 49.8,53.303 49.83,55.5C49.799,57.971 49.563,60.619 47.119,60.619C45.338,60.619 44.476,58.943 44.476,55.494M18.123,51.732C18.123,47.385 21.474,45.18 28.084,45.18C30.093,45.18 32.331,45.417 34.382,45.857L34.587,45.892L34.587,51.466L34.243,51.336C32.503,50.713 30.596,50.376 28.731,50.376C27.326,50.376 25.879,50.498 25.879,51.402C25.879,52.123 27.129,52.371 28.713,52.681C31.704,53.278 35.801,54.093 35.801,59.04C35.801,65.157 29.193,65.814 26.352,65.814C23.592,65.814 21.246,65.542 18.513,64.892L18.306,64.842L18.306,59.204L18.669,59.357C20.537,60.155 22.86,60.618 25.055,60.618C26.501,60.618 28.041,60.329 28.041,59.538C28.041,58.78 26.773,58.505 25.17,58.174C22.192,57.552 18.123,56.692 18.123,51.732M6.564,41.81L6.697,41.97C6.718,41.99 8.575,44.167 11.765,44.2C14.76,44.226 16.381,42.494 16.401,42.475L16.521,42.345L17.391,43L17.242,43.155C16.729,43.71 15.692,44.657 14.122,45.357C14.991,45.452 15.809,45.603 16.784,45.783L17.333,45.888L17.333,51.446L17.076,51.363C15.941,50.99 14.723,50.65 13.508,50.65C10.296,50.65 8.296,52.442 8.296,55.33C8.296,58.369 10.157,60.181 13.27,60.181C14.484,60.181 15.708,59.943 17.122,59.439L17.381,59.344L17.381,64.928L17.242,64.97C16.599,65.157 14.334,65.759 11.999,65.759C4.909,65.759 0.499,61.721 0.499,55.219C0.499,50.63 3.174,47.179 7.707,45.841C5.644,45.277 4.382,44.222 4.319,44.167L4.154,44.025L6.415,41.957" style="fill:rgb(26,26,26);fill-rule:nonzero;"/>
                <path d="M39.772,31.242C32.53,31.242 26.652,25.366 26.652,18.122C26.653,10.879 32.53,5 39.772,5C47.022,5 52.895,10.879 52.895,18.123C52.896,25.366 47.022,31.242 39.772,31.242M49.453,28.742C46.955,31.45 42.543,34.16 36.89,34.16C32.502,34.16 28.72,32.452 26.321,30.558C11.992,32.062 1.342,34.193 1.342,34.193L1.342,39.99L77.259,39.981L77.262,28.02C77.263,28.021 64.312,27.944 49.453,28.742" style="fill:rgb(26,26,26);fill-rule:nonzero;"/>
            </g>
        </g>
    </g>
</svg>
