<?xml version="1.0" encoding="UTF-8" standalone="no"?>
<!DOCTYPE svg PUBLIC "-//W3C//DTD SVG 1.1//EN" "http://www.w3.org/Graphics/SVG/1.1/DTD/svg11.dtd">
<svg width="100%" height="100%" viewBox="0 0 600 101" version="1.1" xmlns="http://www.w3.org/2000/svg" xmlns:xlink="http://www.w3.org/1999/xlink" xml:space="preserve" xmlns:serif="http://www.serif.com/" style="fill-rule:evenodd;clip-rule:evenodd;stroke-linejoin:round;stroke-miterlimit:2;">
    <g transform="matrix(1,0,0,1,-22,-270.622)">
        <g>
            <g id="Fill-1" transform="matrix(1,0,0,1,153,46)">
                <path d="M-11.4,305.2C-11.1,304.4 -10.4,303.8 -9.6,303.7L-0.8,301.7L-1.6,293.8L-1.6,293.6C-1.8,292.6 -2.5,289.4 -6.5,289.1C-22.2,287.8 -25.8,285.5 -29.6,283L-29.8,282.8C-33.9,280.1 -37.9,280.1 -38.3,280.1C-42.7,280.1 -48.4,281.9 -48.8,282C-50.2,282.4 -51.4,282.8 -52.6,283.2C-57.5,284.8 -61.7,286.2 -68.9,286L-70.2,286L-70.5,287.3C-70.8,288.3 -72.7,296.2 -70.8,301.3C-72.5,302.7 -72.5,304.3 -72.5,304.5C-72.4,306.2 -72.8,306.7 -73,306.8C-73.8,307.7 -76.6,307.8 -78.9,307.8L-80,307.8L-80.5,308.5C-81.9,310.5 -85,310.9 -86.9,310.4C-87.8,307.7 -87.8,305.7 -87,304.5C-86,303.1 -83.9,302.9 -83.1,302.9L-82.6,302.9C-80.5,302.9 -78.8,301.2 -78.8,299.1L-78.8,284.9C-78.2,283.9 -77.7,282.8 -77.2,281.5C-73.8,280.9 -71.1,278 -71.1,274.4C-71.1,273 -71.5,271.7 -72.2,270.6C-69,269.1 -66.3,265.9 -66.3,261.8C-66.3,257.7 -68.4,255.8 -70.3,254.5C-69.8,252.9 -68.8,250.1 -68.2,247.3L-65.4,237.3C-64.2,233.4 -61,230.9 -57.2,230.9L-8.7,230.9C-10.8,233.8 -13.7,235.2 -17.7,235.2L-47,235.2L-48.5,238.5L-22.2,238.5C-24.3,241.8 -27.3,243.4 -31.6,243.4L-50.7,243.4L-52.2,246.7L-35.2,246.7C-37.3,249.9 -40.2,251.4 -44.5,251.4L-54.9,251.4L-56.4,254.7L-45.5,254.7C-45.4,254.8 -45.1,255.3 -45.1,256.7C-45.1,258.8 -46.9,260.6 -49.1,260.6C-49.8,260.6 -50.5,260.4 -51.6,260C-52.1,259.8 -52.6,259.6 -53,259.4L-55.5,261.7C-55,261.9 -54.6,262.1 -54.1,262.3C-51.9,263.3 -50.7,263.8 -49,263.8C-47,263.8 -45.2,263 -43.9,261.6C-42,261.7 -39,262 -36.1,262.2C-32.6,262.5 -29.3,262.8 -27.6,262.9C-26.8,262.9 -26,263 -25.2,263C-23.8,263.1 -22.4,263.1 -21.1,263.2C-14.5,274.1 -11.1,275.5 1.7,277C2.6,278.7 3.5,280.4 4.2,282.2L4.2,303.4C4.3,304.4 4.3,304.7 4.1,304.9C3.7,305.5 1.7,306.3 1,306.6L-9.8,310.7C-11.4,308.7 -12,306.7 -11.4,305.2ZM-13.7,310.9L-35,310.9L-25.9,301.1C-24.1,299.2 -23.5,296.9 -24.2,294.6C-24.6,293.3 -25.9,290.8 -27.1,288.2C-23.5,289.9 -18,291.4 -6.8,292.4C-5.5,292.5 -5.1,293 -4.8,294.2L-4.3,299.1L-10.2,300.4C-12.2,300.8 -13.7,302.1 -14.4,304C-15.3,306.1 -15,308.5 -13.7,310.9ZM-52.2,310.9C-52.8,308.6 -52.6,306.7 -51.5,305.5C-50.5,304.3 -48.9,304 -47.8,304.1L-41.6,305.3L-40.5,305.3L-36.1,300.5C-35.3,299.6 -33.1,296.9 -35.4,293.5L-41.3,283.7C-40.3,283.6 -39.3,283.5 -38.4,283.5C-38.4,283.5 -35.4,283.5 -32.3,285.3C-31.9,286.2 -31.3,287.5 -30.6,288.8C-29.4,291.3 -27.8,294.5 -27.4,295.8C-27.3,296.2 -26.8,297.4 -28.3,299L-39.6,311.1L-52.2,311.1L-52.2,310.9ZM-54,303.3C-55.2,304.7 -56.3,307.1 -55.6,310.9L-75.7,310.9C-73.5,310.7 -72,310.2 -70.9,309C-69.6,307.6 -69.5,305.7 -69.5,304.4C-69.5,304.3 -69.2,303.8 -68.3,303.4L-66.6,302.6L-67.6,301C-69.3,298.3 -68.6,292.5 -67.9,289.3L-67.7,289.3C-60.9,289.3 -56.5,287.9 -51.8,286.4C-50.6,286 -49.3,285.6 -48,285.2C-48,285.2 -46.6,284.8 -44.8,284.3L-38.2,295.2L-38.1,295.3C-37.4,296.2 -37.4,296.9 -38.6,298.3L-41.9,301.9L-47.3,300.9C-49.8,300.5 -52.4,301.4 -54,303.3ZM-89.7,302.6C-91.1,304.6 -91.3,307.4 -90.2,310.9L-93.6,310.9L-93.6,284.1C-92.4,283.9 -91.1,283.6 -89.9,283C-90,284.2 -90.1,285.1 -90.3,286.3C-90.4,286.6 -90.4,286.9 -90.5,287.2L-90.8,289.1L-88.9,289.1C-86,289.1 -83.8,288.6 -82.2,287.8L-82.2,299C-82.2,299.3 -82.4,299.5 -82.7,299.5L-83,299.5C-85.9,299.6 -88.3,300.7 -89.7,302.6ZM-96.9,308L-112.4,303.9L-127.9,308L-127.9,280L-112.4,275.9L-96.9,280L-96.9,308ZM-125.8,310.9L-112.3,307.4L-98.8,310.9L-125.8,310.9ZM-120.4,269.8C-119.8,268.8 -118.3,267.9 -116.4,268.3L-115,268.5L-114.6,267.1C-114.5,266.7 -114.3,266.5 -114.1,266.3C-113.7,265.9 -113.1,265.7 -112.4,265.8C-110.4,265.9 -107.9,267.3 -105.9,269.4C-105.2,270.2 -104.5,271.1 -103.9,272C-103.8,272.2 -103.7,272.4 -103.5,272.6C-103.3,272.9 -103.2,273.1 -103.2,273.1C-103.1,273.2 -102.1,274.7 -102.2,274.8C-101.5,273.8 -100.8,272.9 -100.2,271.9C-100.2,271.9 -100.2,271.8 -100.3,271.7C-100.5,271.4 -100.8,270.8 -101,270.5C-101.1,270.4 -101.1,270.3 -101.2,270.3C-101.2,270.3 -101.3,270.1 -101.4,269.9C-101.6,269.5 -102,269 -102.1,268.7L-97.8,261.8C-96.7,262 -95.8,262.1 -95.4,262.1L-95.3,262.1C-89.3,262.1 -83,258.6 -83,252.7L-83,252.6C-83.1,251 -83.4,249.5 -83.6,248.2C-83.8,247.4 -83.9,246.6 -83.9,246.2C-83.9,245.6 -83,244.8 -81.7,244.8L-79.7,244.8L-80.6,239.7C-77.9,237.7 -76.2,234.3 -76.2,231.1C-73.2,233.4 -71.2,237.4 -70.8,241.6C-70.7,242.8 -70.9,244.6 -71.3,246.4L-71.5,247.2C-72.2,250.2 -73.2,253.2 -73.8,254.6L-74.3,255.9L-73.1,256.6C-70.9,257.9 -69.5,258.8 -69.5,261.7C-69.5,265.1 -72.5,267.6 -75.4,268.2L-79.4,268.9L-76.1,271.2C-75,271.9 -74.4,273.1 -74.4,274.4C-74.4,276.5 -76.2,278.2 -78.4,278.2L-79.7,278.2L-80.1,279.4C-81.3,283.4 -82.7,285.4 -87,285.8C-86.8,284.6 -86.7,283.4 -86.7,281.7L-86.7,279.9L-86.9,276.1L-89.5,278.8C-90.4,279.7 -92,280.4 -93.7,280.8L-93.7,277.5L-112.5,272.6L-119.2,274.4C-120.5,272.8 -120.8,270.3 -120.4,269.8ZM-100.2,257.6C-100.1,257.4 -100,257.2 -99.8,257.2L-97,257.3C-93.6,257.2 -90,255.7 -89.7,252.1C-89.7,249.6 -91.4,247.3 -93.9,247.3C-95.2,247.3 -96.7,248.2 -98.3,249.3C-99.4,250 -100.2,250.6 -100.9,250.6C-101.3,250.6 -101.7,250.3 -101.7,250.1L-101.7,250L-99.9,247.6L-101.5,246.5C-101.8,246.3 -102.3,245.9 -102.4,245.6C-102.4,245.5 -102.2,245.2 -102.2,245.1C-101.6,244.3 -100.8,243.4 -100.1,242.3C-99.6,241.6 -99.4,241.3 -98.6,241.3C-97.8,241.3 -97.2,241.9 -97.2,242.7C-97.2,243.2 -96.7,243.6 -96,243.6C-95.3,243.6 -95,243.1 -94.6,242.7C-94.6,242.7 -93,241.2 -93.8,240.5C-94.8,239.7 -98.7,241.3 -97.6,237.7L-97.3,237.2C-96.9,236.6 -95,235.2 -91.2,235.2C-90.5,235.2 -89.7,235.3 -88.9,235.4L-88.3,235.5L-80.1,230.4C-80,230.6 -80,230.7 -80,230.7C-79.6,233.2 -81.1,236.2 -83.6,237.6L-84.6,238.2L-84,241.9C-86.1,242.5 -87.6,244.3 -87.6,246.3C-87.6,247 -87.4,247.8 -87.2,248.9C-87,250.1 -86.7,251.4 -86.7,252.7C-86.7,256.6 -92,259.1 -96.5,259L-96.6,259C-96.8,259 -99.6,258.8 -100.3,258.2C-100.1,258 -100.2,257.7 -100.2,257.6ZM-93.4,231.7C-92.9,231 -92,230.3 -91,229.6C-90.2,229.1 -89.2,228.6 -88.2,228.3C-86.6,227.8 -84.8,227.8 -82.9,228.2L-88.7,231.8C-89.4,231.7 -90.1,231.7 -90.8,231.7C-91.8,231.7 -92.7,231.8 -93.5,231.9C-93.5,231.8 -93.4,231.8 -93.4,231.7ZM-5,230.8L16.9,230.8C14.8,233.7 11.9,235.1 7.9,235.1L-8.3,235.1C-7,234 -5.9,232.6 -5,230.8ZM-6.1,243.3L-22.2,243.3C-20.8,242 -19.6,240.4 -18.6,238.4L3.4,238.4C1.2,241.8 -1.8,243.3 -6.1,243.3ZM-19,251.4L-35.1,251.4C-33.7,250.2 -32.6,248.6 -31.6,246.7L-9.7,246.7C-11.8,249.8 -14.8,251.4 -19,251.4ZM-15.3,263.8C-10.2,264.7 -6,267 -2.9,270.7C-2.2,271.5 -1.6,272.4 -0.9,273.3C-9.5,272.2 -12.5,270.9 -17.3,263.5C-16.6,263.6 -16,263.7 -15.3,263.8ZM19.1,299.6C19.4,300.1 19.7,300.6 19.9,301.1C20.2,301.7 20.5,302.2 20.9,302.8C18.4,302.6 16.5,301.2 14.8,298.6C16.4,298 18.3,298.4 19.1,299.6ZM-1.4,310.9L2,309.6C6.8,307.6 7.4,306.4 7.2,303.2L7.2,290.3C10.8,299.6 14.2,306.1 21.3,306.1C22.3,306.1 23.3,306 24.4,305.7L27.1,305.1L25.2,303C24,301.7 23.4,300.6 22.7,299.4C22.4,298.9 22.1,298.4 21.8,297.8C20.2,295.1 16.2,294.2 13.1,295.6C11.7,292.7 10.2,289 8.5,284.3L8.1,283.4C7.8,282.7 7.5,282 7.2,281.3L7.2,281.2C6.1,278.7 5,276.3 3.6,274C2.4,271.9 1.1,270.1 -0.3,268.5C-4,264.1 -8.8,261.4 -14.7,260.5C-18.8,259.8 -21.7,259.7 -25.3,259.5C-26.1,259.5 -26.8,259.4 -27.7,259.4C-29.4,259.3 -32.8,259 -36.1,258.7C-38.3,258.5 -40.6,258.3 -42.4,258.2C-42.3,257.7 -42.2,257.2 -42.2,256.6C-42.2,255.9 -42.3,255.2 -42.4,254.6L-19,254.6C-12.9,254.6 -8.6,251.9 -6,246.6C0,246.5 4.4,243.8 6.9,238.4L7.7,238.4C14,238.4 18.4,235.5 21,229.8L22.1,227.5L-57.4,227.5C-62.6,227.5 -67.1,230.9 -68.7,236.3L-68.8,236.5C-70.2,232.7 -72.6,229.5 -75.8,227.5C-80.2,224.8 -85.2,224 -89.2,225.1C-90.5,225.5 -91.8,226.1 -92.9,226.8C-93.8,227.4 -95.1,228.4 -96,229.6C-97,230.9 -98,232.5 -98.7,234C-99.2,234.4 -99.5,234.8 -99.8,235.1L-100.7,236.9L-100.8,237C-101.9,239.6 -103.3,241.4 -104.4,242.7C-105.5,244 -105.5,245.2 -105.4,245.9C-105.2,246.8 -104.8,247.5 -104.3,248C-104.6,248.6 -104.8,249.2 -104.8,249.8C-104.8,251.9 -103,253.5 -100.7,253.5C-99.1,253.5 -97.7,252.7 -96.3,251.8C-95.7,251.4 -94.2,250.4 -93.7,250.3C-93.1,250.3 -92.5,250.9 -92.5,251.5C-92.5,253.2 -94.7,254.2 -96.3,254.3L-99.5,254.6C-101.8,254.8 -102.9,256.1 -102.9,257.2C-102.9,258.3 -102.4,258.9 -102,259.3L-101.8,259.5L-101,260.2L-104.4,265.8C-106.8,263.5 -109.7,262.1 -112.2,262C-113.8,261.9 -115.3,262.4 -116.3,263.4C-116.6,263.7 -116.9,264 -117.1,264.4L-117.2,264.4C-119.9,264.4 -122.1,265.9 -123.1,267.5C-124.3,269.3 -123.8,272.4 -122.4,274.8L-131,277.1L-131,318.9L27.5,318.9L27.5,310.6L-1.4,310.6L-1.4,310.9Z" style="fill:rgb(26,26,26);fill-rule:nonzero;"/>
            </g>
            <g transform="matrix(1,0,0,1,153,46)">
                <path d="M-100.3,284.4L-110.6,281.7L-110.6,285.1L-100.3,287.8L-100.3,284.4ZM-124.4,287.8L-114.1,285.1L-114.1,281.7L-124.4,284.4L-124.4,287.8ZM-124.4,294.7L-114.1,292L-114.1,288.6L-124.4,291.3L-124.4,294.7ZM-100.3,291.2L-110.6,288.5L-110.6,291.9L-100.3,294.6L-100.3,291.2ZM-100.3,298.1L-110.6,295.4L-110.6,298.8L-100.3,301.5L-100.3,298.1ZM-124.4,301.6L-114.1,298.9L-114.1,295.5L-124.4,298.2L-124.4,301.6Z" style="fill:rgb(26,26,26);fill-rule:nonzero;"/>
            </g>
            <g transform="matrix(1,0,0,1,153,46)">
                <path d="M61.5,272.5C59.3,273.2 57,273.8 54.8,274.6C54,274.9 53.2,274.9 52.4,274.6C50.1,273.9 47.9,273.2 45.6,272.5C45.2,272.4 44.7,272.2 44.6,272.9C45.5,273.6 46.4,274.2 47.2,274.8C49.2,276.2 51.1,277.7 53.1,279C53.3,279.2 53.8,279.2 54,279C56.9,277 59.7,274.9 62.6,272.8C62.5,272.1 62,272.4 61.5,272.5M83.9,263.4L80.5,263.4L80.5,246.9L82.5,246.9C85.8,247 87.7,248.9 88.4,254.7L89.6,254.7L89.6,237.6L88.4,237.6C88.4,237.7 88.2,245 82.4,244.8L80.6,244.8L80.6,229.3C90.2,229.3 93.7,228.8 95.4,240.7L96.4,240.7L96.4,227.5L70.3,227.5L70.3,229.3L74.8,229.3L74.8,263.3L69.8,263.3L69.8,265.1L96.7,265.1L96.7,251.2L95.4,251.2C93.9,261.8 91.3,263.4 83.9,263.4M53.3,265.5C57,265.5 59.6,263.6 61,261.4L65.7,265.1L65.7,247.1L69.7,247.1L69.7,245.4L55,245.4L55,247.1L60,247.1L60,259.3C59.1,262.4 54.6,263.7 53.3,263.7C43.9,263.7 44.6,249.8 44.6,246.1C44.6,242.7 44.3,228.4 53.3,228.4C59.7,228.4 63.1,234.8 64.4,240.6L65.4,240.6L65.4,226.9C65.4,226.8 61,230.1 61,230C61.1,230 59,227 53.3,227C42.2,227 38.1,238.2 38.2,246C38.2,253.3 41.5,265.5 53.3,265.5M177.6,245.1L171.6,245.1L171.6,229.3L179.3,229.3C183.8,230 184,235.3 184,237C184,241.1 182.3,245.1 177.6,245.1ZM203.9,235.3L209.6,251.6L198.5,251.6L203.9,235.3ZM199.5,263.3C199,263.3 195.7,263.4 195.5,261.1C195.4,259.4 197.7,253.3 197.7,253.3L210,253.3C210,253.3 213.8,263.3 213.9,263.3L209.6,263.3L209.6,265.1L243.3,265.1L243.3,251.2L241.9,251.2C240.6,261.7 237.9,263.3 230.5,263.3L230.1,263.3L230.1,229.3L234.8,229.3L234.8,227.5L219.3,227.5L219.3,229.3L224,229.3L224,263.3L220.3,263.3L206.5,226.4L204.5,226.4C204.5,226.4 193.1,259.9 193.1,260C193.1,259.9 192.2,262.9 190.3,263.2C188.6,263.3 188.7,262.4 188.7,262L188.7,255.5C188.7,253.8 188.6,250 186.8,248.2C184.9,246.2 181.5,246.1 181.6,246C181.6,246 190.1,244.2 190.1,236.1C190.1,230.4 186.2,227.6 179.6,227.3L161,227.3L161,229.1L165.8,229.1L165.8,263.1L161,263.1L161,264.9L176.2,264.9L176.2,263.1L171.4,263.1L171.4,247L177.7,247C188.7,247.9 175.8,265.2 190.2,265.2L199.3,265.2L199.3,263.3L199.5,263.3ZM105,232.2L105,260C105,262.7 101,263.7 99.3,263.7L99.3,265L112.4,265L112.4,263.7C110.7,263.7 106.7,262.7 106.7,260L106.7,235.5C113.8,245.7 127.1,265.1 127.2,265.1L127.9,265.1L127.9,232.2C128.1,229.4 131.3,229.3 132.6,229.3L137,229.3L137,263.4L132,263.4L132,265.2L158.9,265.2L158.9,251.3L157.6,251.3C156.3,261.8 153.6,263.4 146.2,263.4L142.8,263.4L142.8,246.9L144.8,246.9C148.1,247 150,248.9 150.7,254.7L151.9,254.7L151.9,237.6L150.7,237.6C150.7,237.7 150.5,245 144.7,244.8L142.9,244.8L142.9,229.3C152.5,229.3 156,228.8 157.7,240.7L158.7,240.7L158.7,227.5L120.6,227.5L120.6,229.3L121.6,229.3C122.9,229.3 126.1,229.4 126.3,232.2L126.3,254L108.5,227.5L98.8,227.5L98.8,229.3L100.4,229.3C102.2,229.3 104.9,229.4 105,232.2M260.2,263.3L255.4,263.3L255.4,229.3L260.2,229.3L260.2,227.5L245,227.5L245,229.3L249.8,229.3L249.8,263.3L245,263.3L245,265.1L260.2,265.1L260.2,263.3ZM304.8,279C305,279.2 305.5,279.2 305.7,279C308.5,277 311.3,275 314.1,273C313.9,272.2 313.4,272.5 313,272.6C310.8,273.3 308.6,273.9 306.4,274.6C305.6,274.9 304.8,274.9 304,274.6C301.8,273.9 299.6,273.2 297.3,272.5C296.9,272.4 296.4,272.2 296.3,272.9C297.2,273.6 298,274.1 298.9,274.8C300.9,276.2 302.8,277.6 304.8,279M331.5,279C331.7,279.2 332.2,279.2 332.4,279C335.2,277 338,275 340.8,273C340.6,272.2 340.1,272.5 339.7,272.6C337.5,273.3 335.3,273.9 333.1,274.6C332.3,274.9 331.5,274.9 330.7,274.6C328.5,273.9 326.3,273.2 324,272.5C323.6,272.4 323.1,272.2 323,272.9C323.9,273.6 324.7,274.1 325.6,274.8C327.7,276.2 329.6,277.6 331.5,279M63,310.7C62.6,311.7 62.1,312.6 61.6,313.4C61.1,314.2 60.5,314.8 59.9,315.4C59.3,315.9 58.7,316.4 58.1,316.7C56.7,317.5 55.1,317.9 53.5,318L53.3,318C53.1,318 52.8,318 52.3,317.9C51.8,317.8 51.2,317.6 50.5,317.2C49.8,316.8 49.2,316.3 48.5,315.6C47.8,314.9 47.1,313.9 46.6,312.6C46,311.3 45.5,309.7 45.2,307.7C44.8,305.7 44.6,303.3 44.6,300.5C44.6,297.6 44.8,295.2 45.2,293.2C45.6,291.2 46.1,289.6 46.7,288.2C47.3,286.9 48,285.8 48.7,285.1C49.4,284.4 50.1,283.8 50.8,283.5C51.5,283.1 52,282.9 52.5,282.9C53,282.8 53.3,282.8 53.5,282.8L53.6,282.8C54.9,282.8 56.1,283 57.1,283.3C58.1,283.6 59,284.1 59.7,284.6C60.4,285.2 61.1,285.8 61.6,286.5C62.1,287.2 62.5,288 62.9,288.7C63.7,290.5 64.2,292.4 64.3,294.7L65.4,294.7L65.4,281.2L61.2,284.4C60.8,283.7 60.2,283.2 59.5,282.8C58.8,282.4 58.1,282.1 57.3,281.9C56.6,281.7 55.9,281.6 55.3,281.5C54.7,281.4 54.2,281.4 53.9,281.4L53.5,281.4C53.4,281.4 52.9,281.4 52.1,281.5C51.3,281.6 50.3,281.8 49.2,282.2C48.1,282.6 46.9,283.2 45.6,283.9C44.3,284.7 43.1,285.8 42.1,287.2C41,288.6 40.1,290.4 39.4,292.6C38.7,294.8 38.3,297.4 38.3,300.5C38.4,304 39.1,307.2 40.2,310C40.7,311.2 41.3,312.3 42,313.5C42.7,314.6 43.6,315.7 44.7,316.6C45.8,317.5 47,318.2 48.4,318.8C49.8,319.4 51.5,319.6 53.4,319.6C54.8,319.6 56,319.4 57.1,319.1C58.2,318.7 59.1,318.3 59.9,317.7C60.7,317.1 61.4,316.4 62,315.7C62.6,315 63.1,314.2 63.5,313.4C64.5,311.6 65.1,309.5 65.4,307.2L63.9,307.2C63.7,308.5 63.4,309.7 63,310.7M91.6,312.5C91,314.1 90.3,315.2 89.6,315.9C88.7,316.8 87.7,317.2 86.6,317.4L77.2,317.4L77.2,301L80.2,301C81.4,301.2 82.3,301.7 82.9,302.5C83.5,303.3 84,304.2 84.3,305.1C84.7,306.1 84.9,307.3 85,308.6L85.8,308.6L85.8,292L85,292C84.9,293.2 84.6,294.3 84.2,295.4C83.8,296.3 83.3,297.1 82.7,297.9C82,298.7 81.1,299.1 80,299.3L77.2,299.3L77.2,283.5L85.9,283.5C87,283.6 88,284.1 88.9,285C89.6,285.7 90.3,286.9 90.9,288.4C91.5,290 91.8,292.2 91.8,295L92.5,295L92.5,281.7L66.8,281.7L66.8,283.5L71.4,283.5L71.4,317.5L66.8,317.5L66.8,319.3L93.6,319.3L93.6,306L92.5,306C92.5,308.7 92.2,311 91.6,312.5M120,306.5C120,306.1 119.9,305.5 119.8,304.6C119.7,303.7 119.3,302.7 118.8,301.6C118.2,300.5 117.4,299.5 116.2,298.5C115,297.5 113.4,296.7 111.4,296.2L104.3,294.4C103.4,294.1 102.6,293.7 101.9,293.2C101.3,292.8 100.7,292.2 100.2,291.6C99.7,290.9 99.4,290.1 99.4,289.1C99.5,287.9 99.9,286.8 100.5,285.8C101,285 101.8,284.2 102.8,283.5C103.9,282.8 105.4,282.5 107.3,282.5C109,282.6 110.5,283 111.8,283.7C112.4,284 112.9,284.4 113.4,284.9C113.9,285.4 114.4,285.9 114.8,286.6C115.2,287.3 115.6,288.1 115.8,289C116,289.9 116.2,291 116.2,292.2L117.2,292.2L117.2,281.1L114.1,283.5C113.5,282.9 112.8,282.4 112,282.1C111.2,281.8 110.5,281.6 109.8,281.4C109,281.2 108.2,281.1 107.3,281.1C106.1,281.1 104.9,281.3 103.6,281.8C102.3,282.3 101.2,283 100.1,284C99.1,284.9 98.2,286.1 97.5,287.5C96.8,288.9 96.5,290.6 96.5,292.4C96.5,294.3 96.9,295.8 97.6,296.9C98.3,298.1 99.2,299 100,299.7C101,300.5 102.2,301.1 103.5,301.4L111.3,303.2C112.6,303.6 113.7,304.1 114.4,304.8C115.1,305.5 115.7,306.2 116,307C116.3,307.8 116.6,308.4 116.7,309C116.8,309.6 116.8,310 116.8,310.2L116.8,310.3C116.8,311.5 116.6,312.6 116.2,313.4C115.8,314.3 115.3,315 114.7,315.6C114.1,316.2 113.4,316.6 112.7,316.9C112,317.2 111.3,317.5 110.6,317.6C109.9,317.8 109.3,317.9 108.8,317.9C108.3,317.9 107.9,318 107.7,318L107.5,318C106.1,318 104.9,317.8 103.9,317.5C102.9,317.2 101.9,316.7 101.2,316.2C100.4,315.7 99.8,315 99.3,314.3C98.8,313.6 98.3,312.9 98,312.2C97.2,310.5 96.7,308.5 96.6,306.4L95.6,306.4L95.6,319L99.3,316.3C100.2,317.1 101.1,317.7 102.1,318.2C103.1,318.6 104,319 104.8,319.1C105.8,319.3 106.7,319.4 107.7,319.5L107.9,319.5C108.2,319.5 108.7,319.5 109.4,319.4C110.1,319.3 110.9,319.2 111.8,318.9C112.7,318.6 113.6,318.2 114.6,317.7C115.6,317.2 116.5,316.4 117.3,315.5C118.1,314.6 118.8,313.4 119.3,312C119.8,310.6 120.1,308.9 120.1,306.8L120.1,306.5L120,306.5ZM218.9,291.5L218.9,292.7C218.9,293.2 218.8,293.8 218.7,294.4C218.6,295 218.5,295.7 218.3,296.4C218.1,297.1 217.9,297.7 217.6,298.3C217.3,298.9 216.9,299.3 216.4,299.7C215.9,300.1 215.3,300.2 214.6,300.2L207.2,300.2L207.2,283.5L214.6,283.5C215.4,283.6 216.1,283.9 216.8,284.5C217.4,285 217.9,285.8 218.3,286.8C218.7,287.8 219,289.3 219,291.3L219,291.5L218.9,291.5ZM220.8,283C219.7,282.4 218.6,282 217.5,281.8C216.4,281.7 215.6,281.6 215.1,281.6L196.5,281.6L196.5,283.5L201.4,283.5L201.4,317.4L196.5,317.4L196.5,319.2L211.8,319.2L211.8,317.4L207.2,317.4L207.2,302L214.7,302C214.8,302 215.2,302 215.8,301.9C216.4,301.8 217,301.7 217.8,301.5C218.6,301.3 219.4,301 220.2,300.5C221.1,300.1 221.8,299.4 222.6,298.6C223.3,297.8 223.9,296.8 224.4,295.6C224.9,294.4 225.1,292.9 225.1,291.2C225.1,288.9 224.7,287.1 223.8,285.8C222.9,284.6 221.9,283.6 220.8,283ZM251,307.4C250.6,309.4 250.1,311 249.6,312.3C249.1,313.6 248.4,314.6 247.7,315.4C247,316.1 246.3,316.7 245.7,317C245,317.4 244.5,317.6 244,317.7C243.5,317.8 243.1,317.8 242.9,317.8L242.6,317.8C242.4,317.8 242.1,317.8 241.6,317.7C241.1,317.6 240.5,317.4 239.8,317C239.1,316.6 238.5,316.1 237.8,315.4C237.1,314.7 236.4,313.6 235.9,312.3C235.3,311 234.8,309.4 234.5,307.4C234.1,305.4 233.9,303 233.9,300.2C233.9,297.4 234.1,295 234.5,293C234.9,291 235.4,289.4 235.9,288.1C236.5,286.8 237.1,285.8 237.8,285C238.5,284.3 239.2,283.7 239.8,283.4C240.4,283 241,282.8 241.5,282.7C242,282.6 242.4,282.6 242.6,282.6L242.9,282.6C243.1,282.6 243.5,282.6 244,282.7C244.5,282.8 245.1,283 245.7,283.4C246.3,283.8 247,284.3 247.7,285C248.4,285.7 249,286.8 249.6,288.1C250.2,289.4 250.7,291 251,293C251.4,295 251.6,297.4 251.6,300.2C251.5,303.1 251.3,305.5 251,307.4M256,310C257.1,307.1 257.8,303.9 257.9,300.3C257.9,297.2 257.5,294.6 256.8,292.5C256.1,290.4 255.2,288.6 254.1,287.2C253,285.8 251.9,284.7 250.6,284C249.3,283.2 248.2,282.7 247,282.3C245.9,281.9 244.9,281.7 244.1,281.6C243.3,281.5 242.8,281.5 242.7,281.5L242.6,281.5C242.5,281.5 242,281.5 241.1,281.6C240.3,281.7 239.3,281.9 238.1,282.3C237,282.7 235.8,283.2 234.5,284C233.2,284.8 232,285.8 230.9,287.2C229.8,288.6 228.9,290.4 228.2,292.5C227.5,294.6 227.1,297.2 227.1,300.3C227.2,303.9 227.9,307.2 229,310C229.5,311.2 230.1,312.4 230.8,313.6C231.5,314.8 232.4,315.8 233.5,316.7C234.6,317.6 235.8,318.3 237.3,318.9C238.8,319.5 240.4,319.7 242.4,319.7C244.3,319.7 246,319.4 247.5,318.9C249,318.3 250.2,317.6 251.3,316.7C252.4,315.8 253.3,314.7 254,313.6C254.9,312.4 255.5,311.2 256,310M275.4,283.4L280.3,283.4L280.3,317.4L275.4,317.4L275.4,319.2L290.7,319.2L290.7,317.4L286,317.4L286,283.4L290.7,283.4L290.7,281.6L275.4,281.6L275.4,283.4ZM273.4,281.6L257,281.6L257,283.4L262.2,283.4L262.2,319C262.2,320 262,320.9 261.8,321.7C261.6,322.4 261.2,323.1 260.8,323.6C260.3,324.2 259.6,324.4 258.8,324.4C258.6,324.4 258.3,324.3 258.1,324.2C257.9,324.1 257.8,324 257.6,323.9C257.5,323.7 257.4,323.5 257.4,323.3L257.4,322.8C257.6,322.7 257.8,322.5 258,322.2C258.2,322 258.3,321.7 258.3,321.5C258.4,321.2 258.5,320.9 258.5,320.6C258.5,319.8 258.4,319.2 258.1,318.8C257.9,318.4 257.6,318 257.2,317.8C256.8,317.6 256.4,317.4 256,317.3C255.2,317.3 254.6,317.5 254.1,317.8C253.7,318.1 253.4,318.5 253.1,318.9C252.9,319.4 252.7,319.9 252.7,320.6C252.7,321.9 253,322.8 253.6,323.5C254.2,324.2 254.9,324.7 255.6,325C256.5,325.4 257.4,325.6 258.4,325.6C260,325.6 261.3,325.3 262.4,324.8C263.5,324.3 264.4,323.6 265.1,322.7C265.8,321.9 266.4,320.9 266.8,319.9C267.2,318.9 267.5,317.9 267.7,317C267.9,316.1 268,315.2 268.1,314.4C268.2,313.6 268.2,313.1 268.2,312.8L268.2,283.4L273.4,283.4L273.4,281.6ZM316.2,301.6C315.6,300.5 314.8,299.5 313.6,298.5C312.4,297.5 310.8,296.7 308.8,296.2L301.7,294.4C300.8,294.1 300,293.7 299.3,293.2C298.7,292.8 298.1,292.2 297.6,291.6C297.1,290.9 296.8,290.1 296.8,289.1C296.9,287.9 297.3,286.8 297.9,285.8C298.4,285 299.2,284.2 300.2,283.5C301.3,282.8 302.8,282.5 304.7,282.5C306.4,282.6 307.9,283 309.2,283.7C309.8,284 310.3,284.4 310.8,284.9C311.3,285.4 311.8,285.9 312.2,286.6C312.6,287.3 313,288.1 313.2,289C313.4,289.9 313.6,291 313.6,292.2L314.6,292.2L314.6,281.1L311.5,283.5C310.9,282.9 310.2,282.4 309.4,282.1C308.6,281.8 307.9,281.6 307.2,281.4C306.4,281.2 305.6,281.1 304.7,281.1C303.5,281.1 302.3,281.3 301,281.8C299.7,282.3 298.6,283 297.5,284C296.5,284.9 295.6,286.1 294.9,287.5C294.2,288.9 293.9,290.6 293.9,292.4C293.9,294.3 294.3,295.8 295,296.9C295.7,298.1 296.6,299 297.4,299.7C298.4,300.5 299.6,301.1 300.9,301.4L308.7,303.2C310,303.6 311.1,304.1 311.8,304.8C312.5,305.5 313.1,306.2 313.4,307C313.8,307.8 314,308.4 314.1,309C314.2,309.6 314.2,310 314.2,310.2L314.2,310.3C314.2,311.5 314,312.6 313.6,313.4C313.2,314.3 312.7,315 312.1,315.6C311.5,316.2 310.8,316.6 310.1,316.9C309.4,317.2 308.7,317.5 308,317.6C307.3,317.8 306.7,317.9 306.2,317.9C305.7,317.9 305.3,318 305.1,318L304.9,318C303.5,318 302.3,317.8 301.3,317.5C300.3,317.2 299.3,316.7 298.6,316.2C297.8,315.7 297.2,315 296.7,314.3C296.2,313.6 295.7,312.9 295.4,312.2C294.6,310.5 294.1,308.5 294,306.4L293,306.4L293,319L296.7,316.3C297.6,317.1 298.5,317.7 299.5,318.2C300.5,318.6 301.4,319 302.2,319.1C303.2,319.3 304.1,319.4 305.1,319.5L305.3,319.5C305.6,319.5 306.1,319.5 306.8,319.4C307.5,319.3 308.3,319.2 309.2,318.9C310.1,318.6 311,318.2 312,317.7C313,317.2 313.9,316.4 314.7,315.5C315.5,314.6 316.2,313.4 316.7,312C317.2,310.6 317.5,308.9 317.5,306.8L317.5,306.5C317.5,306.1 317.4,305.5 317.3,304.6C317.1,303.6 316.8,302.6 316.2,301.6M317.7,294.8L318.5,294.8C318.5,291.9 318.8,289.7 319.5,288.1C320.1,286.5 320.8,285.4 321.6,284.7C322.5,283.8 323.5,283.4 324.6,283.2L329.5,283.2L329.5,317.4L324.8,317.4L324.8,319.2L340.1,319.2L340.1,317.4L335.5,317.4L335.5,283.2L339.6,283.2C340.7,283.3 341.6,283.8 342.5,284.7C343.2,285.4 343.9,286.6 344.5,288.1C345.1,289.7 345.4,291.9 345.4,294.8L346.5,294.8L346.5,281.6L317.8,281.6L317.8,294.8L317.7,294.8ZM371.6,307.4C371.2,309.4 370.7,311 370.2,312.3C369.6,313.6 369,314.6 368.3,315.4C367.6,316.1 366.9,316.7 366.3,317C365.6,317.4 365.1,317.6 364.6,317.7C364.1,317.8 363.7,317.8 363.5,317.8L363.2,317.8C363,317.8 362.7,317.8 362.2,317.7C361.7,317.6 361.1,317.4 360.4,317C359.7,316.6 359.1,316.1 358.4,315.4C357.7,314.7 357,313.6 356.5,312.3C355.9,311 355.4,309.4 355.1,307.4C354.7,305.4 354.5,303 354.5,300.2C354.5,297.4 354.7,295 355.1,293C355.5,291 356,289.4 356.5,288.1C357.1,286.8 357.7,285.8 358.4,285C359.1,284.3 359.8,283.7 360.4,283.4C361,283 361.6,282.8 362.1,282.7C362.6,282.6 363,282.6 363.2,282.6L363.5,282.6C363.7,282.6 364.1,282.6 364.6,282.7C365.1,282.8 365.7,283 366.3,283.4C366.9,283.8 367.6,284.3 368.3,285C369,285.7 369.6,286.8 370.2,288.1C370.8,289.4 371.3,291 371.6,293C372,295 372.2,297.4 372.2,300.2C372.1,303.1 372,305.5 371.6,307.4M374.8,287.1C373.7,285.7 372.6,284.6 371.3,283.9C370,283.1 368.9,282.6 367.7,282.2C366.6,281.8 365.6,281.6 364.8,281.5C364,281.4 363.5,281.4 363.4,281.4L363.3,281.4C363.2,281.4 362.7,281.4 361.8,281.5C361,281.6 360,281.8 358.8,282.2C357.7,282.6 356.5,283.1 355.2,283.9C353.9,284.7 352.7,285.7 351.6,287.1C350.5,288.5 349.6,290.3 348.9,292.4C348.2,294.5 347.8,297.1 347.8,300.2C347.9,303.8 348.6,307.1 349.7,309.9C350.2,311.1 350.8,312.3 351.5,313.5C352.2,314.7 353.1,315.7 354.2,316.6C355.3,317.5 356.5,318.2 358,318.8C359.5,319.4 361.1,319.6 363.1,319.6C365,319.6 366.7,319.3 368.2,318.8C369.7,318.2 370.9,317.5 372,316.6C373.1,315.7 374,314.6 374.7,313.5C375.4,312.3 376,311.1 376.5,309.9C377.6,307 378.3,303.8 378.4,300.2C378.4,297.1 378,294.5 377.3,292.4C376.8,290.3 375.9,288.5 374.8,287.1M435.7,283.4C436,283.4 436.3,283.3 436.5,283.3L436.7,283.3L436.7,281.5L426.6,281.5L426.6,283.3L426.9,283.3C427.1,283.3 427.4,283.3 427.8,283.4C428.2,283.4 428.6,283.5 429.1,283.7C429.5,283.8 430,284.1 430.3,284.3C430.7,284.6 430.9,285 431,285.5L431,308.2L413.1,281.5L396.4,281.5L396.4,283.1L401.1,283.1L393.5,309.7L385.1,283.1L390,283.1L390,281.5L374.7,281.5L374.7,283.1L379.4,283.1L390.6,319.1L391.9,319.1L402.3,283.1L404.1,283.1C404.1,283.1 409.7,283.1 409.7,286.8L409.7,315.2C409.3,316.1 408.8,316.7 408.1,317C407.4,317.3 406.8,317.4 406.3,317.4L405.7,317.4L405.7,319.2L415.5,319.2L415.5,317.4L414.8,317.4C414.6,317.4 414.2,317.4 413.9,317.3C413.5,317.2 413.2,317.1 412.9,317C412.6,316.9 412.3,316.6 412,316.4C411.7,316.1 411.5,315.7 411.4,315.3L411.4,289.5L430.8,319.2L432.6,319.2L432.6,285.5C432.8,285 433.1,284.6 433.5,284.3C433.9,284 434.3,283.8 434.7,283.7C435,283.5 435.4,283.4 435.7,283.4M443.8,306.1L449,290.4L454.7,306.1L443.8,306.1ZM465.3,317.4L452.1,281.6L450,281.6L438.7,315.3C438.5,315.8 438.2,316.1 437.9,316.4C437.6,316.7 437.2,316.9 436.9,317C436.5,317.1 436.2,317.2 435.9,317.3C435.6,317.3 435.3,317.4 435.2,317.4L434.9,317.4L434.9,319.2L445.2,319.2L445.2,317.4L444.7,317.4C444.5,317.4 444.1,317.4 443.7,317.3C443.3,317.2 442.9,317.1 442.6,317C442.3,316.9 441.9,316.6 441.7,316.2C441.5,315.8 441.3,315.4 441.3,314.8C441.3,314.3 441.4,313.9 441.5,313.5L443.6,308L455.5,308L459.1,317.4L455,317.4L455,319.2L468.9,319.2L468.9,317.4L465.3,317.4ZM129.8,283.3L134.4,283.3L134.4,281.5L119.1,281.5L119.1,283.3L124,283.3L124,317.3L119.1,317.3L119.1,319.1L134.4,319.1L134.4,317.3L129.8,317.3L129.8,283.3ZM165,279C167,278.1 169.1,277.2 171.2,276.3C173.2,275.4 175.2,274.5 177.2,273.6C177.5,273.5 177.6,273.1 177.9,272.8C177.6,272.7 177.3,272.4 177,272.4C176,272.3 175.1,272.4 174.1,272.4C172.4,272.3 170.9,272.6 169.6,273.9C167.9,275.5 166,277 164.1,278.5C164.2,279.1 164.4,279.2 165,279M157,306.1L162.2,290.4L167.9,306.1L157,306.1ZM165.3,281.6L163.2,281.6L151.9,315.3C151.9,315.3 151.5,316.8 149.4,317.2L134.8,297.5L148.7,283.4L152.7,283.4L152.7,281.6L142.3,281.6L142.3,283.4L146.8,283.4L130.6,299.9L143.8,317.4L138.9,317.4L138.9,319.2L158.4,319.2L158.4,317.4L157.9,317.4C157.7,317.4 157.3,317.4 156.9,317.3C156.5,317.2 156.1,317.1 155.8,317C155.4,316.8 155.1,316.6 154.9,316.2C154.7,315.8 154.5,315.4 154.5,314.8C154.5,314.3 154.6,313.9 154.7,313.5L156.8,308L168.7,308L172.3,317.4L168.2,317.4L168.2,319.2L182.1,319.2L182.1,317.4L178.5,317.4L165.3,281.6Z" style="fill:rgb(26,26,26);fill-rule:nonzero;"/>
            </g>
        </g>
    </g>
</svg>
