<?xml version="1.0" encoding="UTF-8" standalone="no"?>
<!DOCTYPE svg PUBLIC "-//W3C//DTD SVG 1.1//EN" "http://www.w3.org/Graphics/SVG/1.1/DTD/svg11.dtd">
<svg width="100%" height="100%" viewBox="0 0 236 67" version="1.1" xmlns="http://www.w3.org/2000/svg" xmlns:xlink="http://www.w3.org/1999/xlink" xml:space="preserve" xmlns:serif="http://www.serif.com/" style="fill-rule:evenodd;clip-rule:evenodd;stroke-linejoin:round;stroke-miterlimit:2;">
    <g>
        <path d="M85.5,42.8L103.7,42.8L103.7,61.1L101.1,61.1L101.1,45.4L85.5,45.4L85.5,42.8ZM0,0L61.1,0L61.1,30.5L0,30.5L0,0Z" style="fill:rgb(77,77,77);fill-rule:nonzero;"/>
        <rect x="0" y="30.5" width="61.1" height="30.5" style="fill:rgb(26,26,26);fill-rule:nonzero;"/>
        <rect x="13.1" y="30.5" width="34.9" height="2.9" style="fill:white;fill-rule:nonzero;"/>
        <path d="M93.9,13.2L112.8,2.4C114.5,1.4 113.5,0.4 112.4,0.4L112.4,0L125.9,0L125.9,0.4C123.7,0.6 121.4,1.9 119.6,2.9L102.6,12.5L122.4,27.7C123.9,28.8 125.2,29.9 126.9,30.1L126.9,30.5L113.4,30.5L93.9,15.1L93.9,27C93.9,29 95,30.1 97,30.1L97,30.5L82.5,30.5L82.5,30.1C84.5,30.1 85.6,29 85.6,27L85.6,3.5C85.6,1.5 84.5,0.4 82.5,0.4L82.5,0L97,0L97,0.4C95,0.4 93.9,1.5 93.9,3.5L93.9,13.2ZM171.1,21.8C171.1,27.1 166.2,30.4 154.2,30.5L131.2,30.5L131.2,30.1C133.2,30.1 134.3,29 134.3,27L134.3,3.5C134.3,1.5 133.2,0.4 131.2,0.4L131.2,0L155.6,0C165.7,0 169.2,3.3 169.2,7C169.2,12.1 163.8,13.9 158.7,14.3C164.1,14.4 171.1,16.1 171.1,21.8M160.2,8C160.2,3.8 155.3,3.3 150.2,3.3C148,3.3 145.5,3.4 142.7,3.7L142.7,12.7C142.7,12.7 145.7,12.8 147.7,12.8C157.8,12.8 160.2,11.5 160.2,8M152.3,27.1C156.6,27.1 161.9,26.4 161.9,21.8C161.9,15.4 151,16.1 142.7,16.6L142.7,24.7C142.7,25.8 144.1,26.9 145.7,27C147.7,27 152.3,27.1 152.3,27.1M120.3,45.8C122.5,45.9 125.3,45.1 125.3,48.4C125.3,51.6 122.5,50.9 120.3,51L120.3,45.8ZM120.3,61.2L120.3,54.1L123.2,54.1C127.3,54 129.5,51.8 129.5,48.5C129.5,43.9 126.1,42.9 122,42.9L116.3,42.9L116.3,61.2L120.3,61.2ZM133.7,54.7C133.7,52.7 134.1,50.5 136.4,50.5C138.7,50.5 139.1,52.7 139.1,54.7C139.1,56.7 138.7,58.9 136.4,58.9C134.1,58.9 133.7,56.7 133.7,54.7M143.1,54.7C143.1,50.7 140.6,47.9 136.5,47.9C132.3,47.9 129.9,50.6 129.9,54.7C129.9,58.8 132.4,61.4 136.5,61.4C140.6,61.5 143.1,58.7 143.1,54.7M149.1,61.6C149.1,64.6 148.1,66.1 144.9,66.1C144.5,66.1 144,66.1 143.6,66L143.6,63.6C144.6,63.7 145.2,63 145.3,62L145.3,48.4L149.1,48.4L149.1,61.6ZM149.2,46L145.1,46L145.1,42.7L149.2,42.7L149.2,46ZM156.1,61.1L152.3,61.1L152.3,48.4L156.1,48.4L156.1,61.1ZM156.2,46L152.1,46L152.1,42.7L156.2,42.7L156.2,46ZM166.3,51.8C166.2,50.9 165.4,50.6 164.6,50.6C163.6,50.6 163.1,50.9 163.1,51.7C163.1,53.7 170.4,52.6 170.4,57.3C170.4,60.1 167,61.5 164.6,61.5C161.6,61.5 159,60.3 159,57.4L162.5,57.4C162.6,58.4 163.5,58.9 164.6,58.9C165.6,58.9 166.4,58.5 166.4,57.5C166.4,56.5 164.6,56 163.8,55.9C161.4,55.3 159.1,54.8 159.1,51.8C159.1,49.1 162.3,48 164.5,48C167.2,48 169.5,49 169.6,51.8L166.3,51.8ZM173.5,48.4L173.5,45.9L177.3,44.5L177.3,48.4L180.2,48.4L180.2,50.9L177.3,50.9L177.3,56.8C177.3,58.5 177.6,58.9 178.9,58.9C179.3,58.9 179.7,58.9 180.1,58.8L180.1,61C179.7,61.2 177.6,61.4 177.1,61.4C174.1,61.4 173.5,59.9 173.5,57.1L173.5,50.8L170.9,50.8L170.9,48.3L173.5,48.3L173.5,48.4ZM185.6,54.7C185.6,52.7 186,50.5 188.3,50.5C190.6,50.5 191,52.7 191,54.7C191,56.7 190.6,58.9 188.3,58.9C186,58.9 185.6,56.7 185.6,54.7M194.9,54.7C194.9,50.7 192.4,47.9 188.3,47.9C184.1,47.9 181.7,50.6 181.7,54.7C181.7,58.8 184.2,61.4 188.3,61.4C192.4,61.5 194.9,58.7 194.9,54.7M194.8,48.4L198.9,48.4L201.7,57L201.8,57L204.7,48.4L208.3,48.4L203.7,61.1L199.5,61.1L194.8,48.4ZM213.5,49.8C214.3,48.7 215.5,48 217.4,48C218.7,48 221.1,48.9 221.6,50.8C221.8,51.6 221.8,52.4 221.8,52.8L221.8,61.1L218,61.1L218,53.4C218,52 217.6,50.5 215.7,50.5C214.5,50.5 213.5,51.6 213.4,53.4L213.4,61.1L209.6,61.1L209.6,48.4L213.4,48.4L213.5,49.8ZM231.8,55.1C231.8,56.6 231.7,58.9 229.6,58.9C228.5,58.9 227.7,58.1 227.7,57.1C227.8,55 230.5,55.1 231.8,55.1M228.4,52C228.3,51.4 228.8,50.2 230.1,50.2C231.4,50.2 231.9,51.2 231.9,51.8L231.9,53C230.4,53 228.5,53 226.9,53.7C224.6,54.7 224.2,56.9 224.2,57.7C224.2,60.2 226,61.6 228.4,61.6C230.1,61.6 231.4,61 232.3,59.5L232.4,59.5C232.4,60 232.5,60.6 232.5,61.2L235.9,61.2C235.8,60.8 235.8,60.4 235.7,59.8L235.7,52.8C235.7,49 232.8,48 230.3,48C228.9,48 227.6,48.2 226.5,48.8C225.5,49.4 224.8,50.4 224.8,52L228.4,52ZM168.7,42.9L166.5,42.9L164.7,45L163,42.9L160.7,42.9L163.3,46.6L165.9,46.6L168.7,42.9Z" style="fill:rgb(26,26,26);fill-rule:nonzero;"/>
        <path d="M178.8,42.8L181.4,42.8L180.2,47.4L178.3,47.4L178.8,42.8Z" style="fill:rgb(26,26,26);fill-rule:nonzero;"/>
    </g>
</svg>
