<?xml version="1.0" encoding="UTF-8" standalone="no"?>
<!DOCTYPE svg PUBLIC "-//W3C//DTD SVG 1.1//EN" "http://www.w3.org/Graphics/SVG/1.1/DTD/svg11.dtd">
<svg width="100%" height="100%" viewBox="0 0 2427 1453" version="1.1" xmlns="http://www.w3.org/2000/svg" xmlns:xlink="http://www.w3.org/1999/xlink" xml:space="preserve" xmlns:serif="http://www.serif.com/" style="fill-rule:evenodd;clip-rule:evenodd;stroke-linejoin:round;stroke-miterlimit:2;">
    <g transform="matrix(1,0,0,1,-36.7304,-450.181)">
        <g>
            <path d="M962.331,810.922L1171.33,450.622L1291.02,450.181L1472.8,764.23L1353.51,763.802L1230.74,556.572L1084.53,810.922L1203.37,1023.72L1142.93,1131.72L962.331,810.922Z" style="fill:rgb(26,26,26);"/>
            <path d="M1148.58,818.172L1500.98,817.303L1715.97,1177.45L1649.66,1289.26L1292.42,1289.56L1353.45,1182.87L1586.29,1180.52L1440.98,927.935L1208.13,927.935L1148.58,818.172Z" style="fill:rgb(26,26,26);"/>
            <path d="M931.112,867.47L991.837,973.861L872.424,1177.86L1171.7,1182.99L1284.24,975.754L1407.75,975.028L1231.56,1289.23L812.27,1289.23L749.198,1181.08L931.112,867.47ZM36.73,1633.71L36.73,1328.83L113.057,1328.83L113.057,1464.6L216.803,1328.83L302.338,1328.83L194.209,1469.86L329.095,1633.71L229.954,1633.71L113.044,1490.72L113.044,1633.71L36.73,1633.71ZM385.254,1530.63C385.254,1548.39 389.638,1562.43 398.198,1572.96C406.537,1583.49 417.938,1588.76 431.751,1588.76C445.797,1588.76 457.184,1583.51 465.524,1572.96C474.084,1562.43 478.247,1548.39 478.247,1530.63C478.247,1513.08 474.084,1499.05 465.524,1488.29C456.977,1477.76 445.797,1472.29 431.751,1472.29C417.938,1472.29 406.745,1477.78 398.198,1488.29C389.638,1499.05 385.254,1513.08 385.254,1530.63ZM318.576,1530.63C318.576,1499.05 328.874,1472.95 349.937,1452.99C371,1433.03 398.198,1423.16 431.751,1423.16C465.524,1423.16 492.942,1433.03 514.005,1453.2C535.275,1473.16 545.807,1499.05 545.807,1530.63C545.807,1562.22 535.275,1588.1 514.225,1607.84C493.162,1627.8 465.757,1637.45 431.763,1637.45C398.211,1637.45 371,1627.8 349.95,1608.04C328.887,1588.08 318.576,1562.43 318.576,1530.63ZM634.429,1530.63C634.429,1548.39 638.605,1562.43 647.152,1572.96C655.712,1583.49 666.892,1588.76 680.926,1588.76C694.959,1588.76 706.152,1583.51 714.699,1572.96C723.038,1562.43 727.202,1548.39 727.202,1530.63C727.202,1513.08 723.038,1499.05 714.478,1488.29C705.918,1477.76 694.738,1472.29 680.926,1472.29C667.113,1472.29 655.92,1477.78 647.373,1488.29C638.813,1499.05 634.429,1513.08 634.429,1530.63ZM567.531,1530.63C567.531,1499.05 578.062,1472.95 598.892,1452.99C619.955,1433.03 647.373,1423.16 680.926,1423.16C714.478,1423.16 741.896,1433.03 763.18,1453.2C784.243,1473.16 794.761,1499.05 794.761,1530.63C794.761,1562.22 784.23,1588.1 763.18,1607.84C742.117,1627.8 714.712,1637.45 680.926,1637.45C647.373,1637.45 619.955,1627.8 598.892,1608.04C578.049,1588.08 567.531,1562.43 567.531,1530.63ZM893.902,1485.66L893.902,1574.27C899.388,1578.43 905.303,1581.52 911.23,1583.71C917.377,1585.9 923.292,1587.01 929.426,1587.01C945.444,1587.01 957.947,1581.95 967.155,1571.87C976.364,1561.78 980.968,1547.95 980.968,1530.42C980.968,1513.09 976.364,1499.06 967.155,1488.53C958.167,1478 946.326,1472.74 931.398,1472.74C925.043,1472.74 918.687,1473.83 912.54,1476.02C906.185,1477.98 900.05,1481.28 893.902,1485.66ZM829.196,1734.85L829.196,1427.32L891.49,1427.32L891.49,1444.21C900.257,1436.77 909.479,1431.27 918.908,1427.76C928.557,1424.25 939.309,1422.7 951.151,1422.7C979.879,1422.7 1003.35,1432.58 1021.56,1452.54C1039.55,1472.73 1048.76,1498.6 1048.76,1530.63C1048.76,1562.65 1039.55,1588.54 1021.56,1608.5C1003.35,1628.24 979.879,1638.09 951.151,1638.09C939.737,1638.09 929.426,1636.34 919.79,1633.5C910.334,1630.13 901.564,1625.09 893.902,1618.6L893.902,1734.85L829.196,1734.85ZM1281.68,1611.13C1267.98,1620.17 1252.96,1627.05 1237.16,1631.52C1220.85,1635.89 1204.04,1638.1 1187.15,1638.09C1151.62,1638.09 1123.77,1628.46 1103.36,1608.92C1083.4,1589.63 1073.11,1562.65 1073.11,1528.21C1073.11,1496.41 1083.2,1470.75 1102.71,1451.67C1122.68,1432.58 1148.99,1423.16 1181.67,1423.16C1214.14,1423.16 1239.59,1433.47 1258.44,1454.09C1277.09,1474.91 1286.52,1503.44 1286.52,1539.63L1286.52,1541.82L1140.22,1541.82L1140.22,1542.7C1140.22,1559.15 1145.93,1572.09 1157.11,1581.74C1168.29,1591.18 1183.65,1596.01 1203.17,1596.01C1216.11,1596.01 1229.26,1593.58 1242.43,1588.99C1255.37,1584.39 1268.53,1577.37 1281.68,1568.15L1281.68,1611.13ZM1140.65,1510.23L1220.92,1509.99C1219.83,1496.62 1215.66,1486.31 1208.86,1478.63C1201.84,1471.17 1193.08,1467.45 1182.1,1467.45C1170.92,1467.45 1161.7,1471.17 1154.26,1478.63C1147.02,1486.32 1142.42,1496.63 1140.65,1510.23ZM1322.05,1633.74L1322.05,1427.32L1387.18,1427.32L1387.18,1482.59C1398.15,1461.77 1408.68,1446.62 1419,1437.62C1429.07,1428.42 1440.27,1424.03 1452.33,1424.03C1458.24,1424.03 1464.61,1425.35 1471.19,1427.76C1477.78,1430.18 1485.22,1434.12 1493.34,1439.16L1475.79,1498.6C1469.2,1493.55 1463.29,1489.82 1457.59,1487.42C1452.11,1485.22 1446.84,1483.91 1441.36,1483.91C1429.07,1483.91 1417.88,1489.41 1408.23,1500.37C1398.36,1511.12 1391.34,1526.04 1387.17,1544.91L1387.17,1633.74L1322.05,1633.74ZM1621.45,1584.36L1621.45,1533.91C1599.07,1541.59 1584.17,1548.6 1576.71,1554.53C1569.25,1560.22 1565.53,1567.24 1565.53,1575.36C1565.53,1582.16 1567.5,1587.42 1571.66,1591.36C1575.84,1595.32 1581.31,1597.29 1588.56,1597.29C1593.17,1597.29 1598.43,1596.19 1603.92,1594C1609.4,1591.81 1615.31,1588.52 1621.45,1584.36ZM1624.52,1614.63C1615.46,1622.11 1605.23,1628.04 1594.24,1632.18C1583.27,1635.76 1571.79,1637.54 1560.25,1637.45C1540.52,1637.45 1525.37,1632.84 1515.28,1623.18C1504.97,1613.53 1499.93,1599.26 1499.93,1580.2C1499.93,1563.74 1507.37,1550.15 1522.52,1539.39C1537.42,1528.64 1570.55,1515.92 1621.44,1501.24C1621.44,1500.58 1621.66,1499.71 1621.66,1499.05C1621.66,1498.16 1621.88,1496.84 1621.88,1495.31C1621.88,1485.66 1618.37,1478.2 1611.81,1473.59C1605.22,1468.77 1594.9,1466.35 1581.3,1466.35C1569.68,1466.35 1557.84,1469.2 1545.56,1474.9C1533.27,1480.6 1521.43,1488.94 1509.8,1499.47L1510.67,1448.15C1523.33,1439.72 1537.25,1433.35 1551.91,1429.28C1567.05,1425.13 1583.93,1423.15 1602.57,1423.15C1632.4,1423.15 1653.89,1428.84 1667.28,1440.24C1680.65,1451.86 1687.46,1470.08 1687.46,1495.3L1687.46,1577.55C1687.46,1582.38 1688.12,1585.67 1689.43,1587.64C1690.75,1589.39 1692.72,1590.5 1695.78,1590.5C1698.64,1590.5 1701.48,1590.05 1704.56,1589.39C1707.42,1588.73 1711.58,1587.2 1716.41,1585.23L1716.41,1621.41C1704.56,1627.12 1694.25,1631.3 1685.05,1633.7C1676.69,1636.05 1668.06,1637.31 1659.38,1637.43C1648.85,1637.43 1640.73,1635.67 1635.03,1631.95C1629.12,1628.24 1625.62,1622.31 1624.52,1614.63ZM1752.16,1472.29L1722.57,1472.29L1722.57,1458.24L1806.79,1366.78L1816.66,1366.78L1816.66,1427.32L1887.28,1427.32L1887.28,1472.29L1816.66,1472.29L1816.66,1548.62C1816.66,1564.41 1818.85,1575.16 1823.46,1580.42C1827.84,1585.68 1836.17,1588.32 1848.02,1588.32C1853.95,1588.32 1860.1,1587.43 1866.45,1585.68C1873.03,1584.15 1879.83,1581.52 1887.28,1578.01L1887.72,1626.69C1877.19,1630.65 1866.89,1633.49 1856.35,1635.25C1845.82,1637.01 1835.52,1638.09 1825.21,1638.09C1798.89,1638.09 1780.24,1631.52 1769.06,1617.93C1757.88,1604.54 1752.16,1581.07 1752.16,1548.17L1752.16,1472.29ZM1920.39,1633.71L1920.39,1427.32L1985.53,1427.32L1985.53,1633.71L1920.39,1633.71ZM1917.98,1360.2C1917.98,1350.56 1921.28,1342.21 1928.07,1335.63C1934.57,1328.94 1943.54,1325.2 1952.86,1325.32C1962.73,1325.32 1971.05,1328.83 1977.64,1335.41C1984.44,1342.2 1987.73,1350.31 1987.73,1360.19C1987.73,1370.06 1984.44,1378.18 1977.64,1384.96C1971.05,1391.55 1962.73,1395.05 1952.86,1395.05C1943.54,1395.16 1934.57,1391.43 1928.07,1384.74C1921.28,1378.19 1917.98,1369.85 1917.98,1360.2ZM2097.61,1637.45L2001.99,1427.32L2070.87,1427.32L2116.5,1539.19L2159.04,1427.32L2226.82,1427.32L2137.34,1637.45L2097.61,1637.45ZM2354.69,1584.36L2354.69,1533.91C2332.31,1541.59 2317.63,1548.6 2310.16,1554.53C2302.48,1560.22 2298.75,1567.24 2298.75,1575.36C2298.75,1582.16 2300.94,1587.42 2304.9,1591.36C2309.06,1595.32 2314.55,1597.29 2321.8,1597.29C2326.61,1597.29 2331.66,1596.19 2337.15,1594C2342.85,1591.82 2348.54,1588.52 2354.69,1584.36ZM2357.98,1614.63C2348.82,1622.07 2338.52,1627.99 2327.49,1632.18C2316.59,1635.76 2305.18,1637.54 2293.72,1637.45C2273.76,1637.45 2258.62,1632.84 2248.54,1623.18C2238.23,1613.53 2233.19,1599.26 2233.19,1580.2C2233.19,1563.74 2240.86,1550.15 2255.77,1539.39C2270.9,1528.64 2303.81,1515.92 2354.69,1501.24C2354.69,1500.58 2354.91,1499.71 2354.91,1499.05C2354.91,1498.16 2355.14,1496.84 2355.14,1495.31C2355.14,1485.66 2351.85,1478.2 2345.26,1473.59C2338.68,1468.77 2328.37,1466.35 2314.56,1466.35C2302.94,1466.35 2291.08,1469.2 2278.8,1474.9C2266.53,1480.6 2254.69,1488.94 2243.06,1499.47L2243.93,1448.15C2256.59,1439.72 2270.51,1433.35 2285.17,1429.28C2300.29,1425.13 2317.19,1423.15 2335.83,1423.15C2365.66,1423.15 2387.38,1428.84 2400.53,1440.24C2413.91,1451.86 2420.72,1470.08 2420.72,1495.3L2420.72,1577.55C2420.72,1582.38 2421.38,1585.67 2422.69,1587.64C2424.01,1589.39 2426.2,1590.5 2429.26,1590.5C2432.12,1590.5 2434.75,1590.05 2437.82,1589.39C2440.88,1588.73 2444.84,1587.2 2449.66,1585.23L2449.66,1621.41C2438.04,1627.12 2427.51,1631.3 2418.29,1633.7C2409.94,1636.06 2401.31,1637.32 2392.62,1637.43C2382.31,1637.43 2374.19,1635.67 2368.28,1631.95C2362.37,1628.22 2358.85,1622.31 2357.98,1614.63Z" style="fill:rgb(26,26,26);"/>
            <path d="M53.617,1859.63L53.617,1895.82L40.245,1895.82L40.245,1806.55L55.381,1806.55C63.5,1806.55 69.414,1807.21 72.929,1808.31C79.518,1810.5 84.342,1814.66 87.416,1820.81C89.167,1824.54 90.27,1828.71 90.27,1833.1C90.27,1840.77 87.637,1847.13 82.371,1852.17C77.105,1857.22 69.648,1859.63 59.778,1859.63L53.617,1859.63ZM53.617,1847.13L58.662,1847.13C65.03,1847.13 69.635,1846.04 72.709,1843.61C75.782,1840.98 77.092,1837.47 77.092,1832.86C77.092,1828.27 75.549,1824.52 72.047,1822.12C69.194,1820.15 64.369,1819.06 58.014,1819.06L53.617,1819.06L53.617,1847.13ZM272.08,1804.8C285.672,1804.8 297.085,1809.84 306.294,1820.15C314.302,1828.61 318.709,1839.86 318.576,1851.51C318.576,1859.63 316.605,1867.09 312.429,1874.34C308.265,1881.36 302.559,1887.05 295.542,1891.23C288.195,1895.41 279.876,1897.61 271.418,1897.58C263.678,1897.54 256.067,1895.58 249.266,1891.89C240.719,1887.06 234.364,1880.91 230.187,1872.8C226.6,1866.05 224.788,1858.5 224.922,1850.86C224.922,1838.15 229.746,1827.18 239.396,1818.18C248.176,1809.4 259.136,1805.02 272.08,1804.8ZM271.859,1817.52C261.328,1817.52 253.001,1821.47 246.426,1829.37C241.334,1835.45 238.606,1843.16 238.747,1851.08C238.747,1860.73 242.042,1868.84 248.617,1875.43C255.193,1881.58 262.871,1884.86 271.431,1884.86C277.786,1884.86 283.493,1883.34 288.759,1880.05C294.044,1877.14 298.328,1872.71 301.041,1867.32C303.674,1862.28 304.997,1857.23 304.997,1851.32C304.997,1841.88 301.923,1833.99 295.568,1827.41C289.407,1821.02 281.509,1817.74 271.859,1817.52ZM484.395,1806.55L484.395,1864.24C484.395,1871.25 483.954,1876.5 482.864,1880.24C481.321,1885.73 478.481,1890.11 474.525,1892.95C470.582,1896.02 465.757,1897.55 460.271,1897.55C454.61,1897.56 449.061,1895.96 444.266,1892.95L451.062,1881.55C454.136,1883.74 457.21,1884.83 460.271,1884.83C464.875,1884.83 468.17,1882.65 469.48,1878.05C470.569,1875.41 471.023,1870.8 471.023,1864.24L471.023,1806.55L484.395,1806.55ZM644.96,1806.55L644.96,1895.82L631.355,1895.82L631.355,1806.55L644.96,1806.55ZM842.36,1819.93L831.401,1826.29C830.262,1824.22 828.775,1822.36 827.004,1820.8C824.812,1818.61 821.751,1817.51 818.016,1817.51C814.073,1817.51 810.999,1818.61 808.367,1820.8C806.167,1822.84 804.896,1825.7 804.852,1828.7C804.852,1831.76 806.382,1834.17 809.236,1836.14C810.558,1837.03 811.648,1837.91 812.971,1838.35C814.06,1839.01 817.796,1840.31 823.71,1842.73C831.167,1845.79 836.433,1849.51 839.727,1853.7C843.009,1858.09 844.552,1862.91 844.552,1869.06C844.552,1877.61 841.478,1884.62 835.564,1890.34C830.298,1895.15 823.71,1897.58 815.824,1897.58C805.734,1897.58 797.835,1893.62 792.349,1885.74C789.716,1881.78 788.186,1876.96 787.304,1871.04L800.896,1868.18C801.337,1872.58 802.219,1875.86 803.308,1877.83C804.631,1880.03 806.369,1881.78 808.795,1882.89C810.986,1884.2 813.619,1884.84 816.252,1884.84C820.856,1884.84 824.592,1883.33 827.432,1880.03C829.844,1877.17 830.947,1873.88 830.947,1869.94C830.947,1864.9 828.975,1860.95 824.799,1858.32C823.269,1857.45 821.946,1856.57 820.636,1855.91C819.313,1855.47 815.811,1853.72 809.664,1851.3C797.381,1846.05 791.246,1838.59 791.246,1828.49C791.246,1820.61 794.541,1814.22 801.557,1809.84C806.404,1806.54 812.139,1804.78 818.003,1804.8C823.489,1804.8 828.094,1806.12 832.049,1808.52C835.772,1810.94 839.286,1814.66 842.36,1819.93ZM837.756,1779.8L817.355,1798.45L796.966,1779.8L805.734,1773.01L817.355,1783.98L828.975,1773.01L837.756,1779.8ZM1010.81,1819.28L1010.81,1895.82L997.219,1895.82L997.219,1819.28L976.818,1819.28L976.818,1806.56L1031.43,1806.56L1031.43,1819.28L1010.81,1819.28ZM1024.4,1779.8L1004,1798.45L983.601,1779.8L992.369,1773.01L1003.99,1783.98L1015.61,1773.01L1024.4,1779.8ZM1211.29,1804.8C1224.89,1804.8 1236.29,1809.84 1245.5,1820.15C1253.84,1828.93 1258,1839.45 1258,1851.51C1258,1859.63 1255.81,1867.09 1251.65,1874.34C1247.47,1881.36 1242,1887.05 1234.75,1891.23C1227.41,1895.44 1219.09,1897.63 1210.62,1897.58C1202.88,1897.54 1195.27,1895.58 1188.47,1891.89C1179.92,1887.06 1173.56,1880.91 1169.39,1872.8C1165.99,1865.99 1164.26,1858.47 1164.35,1850.86C1164.35,1838.15 1169.18,1827.18 1178.61,1818.18C1187.59,1809.4 1198.56,1805.02 1211.29,1804.8ZM1211.29,1817.52C1200.75,1817.52 1192.21,1821.47 1185.85,1829.37C1180.7,1835.42 1177.89,1843.13 1177.95,1851.08C1177.95,1860.73 1181.25,1868.84 1187.82,1875.43C1194.62,1881.58 1202.09,1884.86 1210.86,1884.86C1216.99,1884.86 1222.71,1883.34 1228.18,1880.05C1233.45,1876.97 1237.61,1872.59 1240.47,1867.32C1243.1,1862.28 1244.2,1857.23 1244.2,1851.32C1244.2,1841.88 1241.13,1833.99 1234.76,1827.41C1228.61,1821.02 1220.93,1817.74 1211.29,1817.52ZM1401.01,1806.55L1425.79,1868.41L1450.8,1806.55L1465.7,1806.55L1425.56,1902.61L1386.31,1806.55L1401.01,1806.55ZM1602.14,1895.82L1602.14,1800.41L1667.28,1868.41L1667.28,1806.55L1680.87,1806.55L1680.87,1901.3L1615.73,1833.32L1615.73,1895.82L1602.14,1895.82ZM1880.71,1874.11L1842.54,1874.11L1832.46,1895.82L1817.99,1895.82L1862.29,1800.85L1905.06,1895.82L1890.15,1895.82L1880.71,1874.11ZM1875.22,1861.39L1862.06,1831.12L1848.01,1861.39L1875.22,1861.39ZM2182.72,1874.11L2144.56,1874.11L2134.49,1895.82L2120.01,1895.82L2164.32,1800.85L2207.09,1895.82L2192.4,1895.82L2182.72,1874.11ZM2177.47,1861.39L2164.08,1831.12L2150.28,1861.39L2177.47,1861.39ZM2245.03,1881.36C2247.22,1881.36 2249.19,1882.22 2250.72,1883.77C2252.25,1885.31 2253.13,1887.28 2253.13,1889.46C2253.13,1891.67 2252.26,1893.62 2250.72,1895.15C2249.23,1896.7 2247.17,1897.57 2245.02,1897.57C2242.87,1897.57 2240.82,1896.7 2239.32,1895.15C2237.79,1893.66 2236.93,1891.6 2236.93,1889.46C2236.93,1887.32 2237.79,1885.27 2239.32,1883.77C2240.87,1882.3 2242.9,1881.44 2245.03,1881.36ZM2419.17,1819.93L2408.2,1826.29C2407.07,1824.22 2405.58,1822.36 2403.8,1820.8C2401.61,1818.61 2398.55,1817.51 2394.82,1817.51C2390.87,1817.51 2387.8,1818.61 2385.17,1820.8C2382.97,1822.84 2381.7,1825.7 2381.65,1828.7C2381.65,1831.76 2383.19,1834.17 2386.05,1836.14C2387.37,1837.03 2388.46,1837.91 2389.77,1838.35C2391.09,1839.01 2394.6,1840.31 2400.52,1842.73C2407.97,1845.79 2413.23,1849.51 2416.53,1853.7C2419.82,1858.09 2421.35,1862.91 2421.35,1869.06C2421.35,1877.61 2418.28,1884.62 2412.36,1890.34C2407.1,1895.15 2400.52,1897.58 2392.62,1897.58C2382.55,1897.58 2374.63,1893.62 2369.15,1885.74C2366.51,1881.78 2364.99,1876.96 2364.1,1871.04L2377.71,1868.18C2378.14,1872.58 2379.03,1875.86 2380.33,1877.83C2381.43,1880.03 2383.19,1881.78 2385.59,1882.89C2387.79,1884.2 2390.42,1884.84 2393.05,1884.84C2397.66,1884.84 2401.39,1883.33 2404.23,1880.03C2406.66,1877.17 2407.75,1873.88 2407.75,1869.94C2407.75,1864.9 2405.78,1860.95 2401.6,1858.32C2400.07,1857.45 2398.74,1856.57 2397.43,1855.91C2396.11,1855.47 2392.61,1853.72 2386.46,1851.3C2374.18,1846.05 2368.05,1838.59 2368.05,1828.49C2368.05,1820.61 2371.34,1814.22 2378.36,1809.84C2383.2,1806.54 2388.94,1804.78 2394.8,1804.8C2400.29,1804.8 2404.89,1806.12 2408.85,1808.52C2412.6,1810.94 2416.1,1814.66 2419.17,1819.93ZM2455.15,1881.36C2457.34,1881.36 2459.09,1882.22 2460.64,1883.77C2462.26,1885.2 2463.14,1887.3 2463.05,1889.46C2463.05,1891.67 2462.39,1893.62 2460.64,1895.15C2459.23,1896.69 2457.24,1897.57 2455.15,1897.58C2452.93,1897.59 2450.8,1896.71 2449.22,1895.15C2447.75,1893.64 2446.95,1891.58 2447.03,1889.46C2447.03,1887.27 2447.69,1885.3 2449.22,1883.77C2450.86,1882.3 2452.95,1881.45 2455.15,1881.36Z" style="fill:rgb(26,26,26);"/>
        </g>
    </g>
</svg>
