<?xml version="1.0" encoding="UTF-8" standalone="no"?>
<!DOCTYPE svg PUBLIC "-//W3C//DTD SVG 1.1//EN" "http://www.w3.org/Graphics/SVG/1.1/DTD/svg11.dtd">
<svg width="100%" height="100%" viewBox="0 0 697 154" version="1.1" xmlns="http://www.w3.org/2000/svg" xmlns:xlink="http://www.w3.org/1999/xlink" xml:space="preserve" xmlns:serif="http://www.serif.com/" style="fill-rule:evenodd;clip-rule:evenodd;stroke-linejoin:round;stroke-miterlimit:2;">
    <g transform="matrix(1,0,0,1,-65.7746,-84.3491)">
        <g transform="matrix(4.16667,0,0,4.16667,0,0)">
            <g transform="matrix(1,0,0,-1,0,33.0797)">
                <path d="M163.236,-21.445L160.197,-21.445L160.197,-20.011C160.197,-19.099 160.753,-18.575 161.721,-18.575C162.684,-18.575 163.236,-19.099 163.236,-20.011L163.236,-21.445ZM161.721,-18.006C160.38,-18.006 159.58,-18.755 159.58,-20.011L159.58,-23.936L160.197,-23.936L160.197,-22.023L163.236,-22.023L163.236,-23.936L163.854,-23.936L163.854,-20.011C163.854,-18.755 163.057,-18.006 161.721,-18.006ZM155.699,-22.721L152.625,-18.142L152.588,-18.086L152.044,-18.086L152.044,-23.936L152.662,-23.936L152.662,-19.3L155.745,-23.88L155.782,-23.936L156.318,-23.936L156.318,-18.086L155.699,-18.086L155.699,-22.721ZM148.757,-18.165L146.857,-23.012L144.957,-18.165L144.926,-18.086L144.258,-18.086L144.324,-18.257L146.509,-23.856L146.539,-23.936L147.143,-23.936L147.173,-23.856L149.365,-18.257L149.432,-18.086L148.787,-18.086L148.757,-18.165ZM141.107,-21.891C141.107,-22.381 140.965,-22.765 140.684,-23.031C140.402,-23.297 139.981,-23.438 139.465,-23.438C138.955,-23.438 138.537,-23.297 138.257,-23.031C137.978,-22.768 137.83,-22.373 137.83,-21.891L137.83,-20.123C137.83,-19.14 138.429,-18.575 139.473,-18.575C140.512,-18.575 141.107,-19.14 141.107,-20.123L141.107,-21.891ZM139.473,-18.006C138.057,-18.006 137.212,-18.797 137.212,-20.123L137.212,-21.891C137.212,-23.222 138.055,-24.016 139.465,-24.016C140.881,-24.016 141.727,-23.222 141.727,-21.891L141.727,-20.123C141.727,-18.797 140.884,-18.006 139.473,-18.006ZM131.457,-17.971L131.494,-18.016L132.004,-18.016L132.041,-17.971L133.01,-16.811L133.18,-16.605L132.529,-16.605L132.492,-16.646L131.753,-17.464L131.014,-16.646L130.977,-16.605L130.318,-16.605L130.488,-16.811L131.457,-17.971ZM129.604,-18.655L131.443,-18.655L131.443,-21.811C131.443,-23.142 132.28,-23.936 133.682,-23.936L134.182,-23.936L134.182,-23.357L133.682,-23.357C133.173,-23.357 132.758,-23.218 132.481,-22.952C132.203,-22.685 132.063,-22.301 132.063,-21.811L132.063,-18.655L134.182,-18.655L134.182,-18.086L129.604,-18.086L129.604,-18.655ZM125.441,-20.792L124.313,-20.575C123.691,-20.459 123.391,-20.138 123.391,-19.595C123.391,-18.918 123.862,-18.575 124.793,-18.575C125.737,-18.575 126.196,-18.979 126.196,-19.811L126.196,-19.976L126.814,-19.976L126.814,-19.811C126.814,-18.68 126.166,-18.065 124.95,-18.016L125.027,-18.016L125.065,-17.971L126.033,-16.811L126.205,-16.605L125.554,-16.605L125.517,-16.646L124.777,-17.464L124.038,-16.646L124.001,-16.605L123.342,-16.605L123.514,-16.811L124.48,-17.971L124.519,-18.016L124.623,-18.016C123.422,-18.065 122.756,-18.626 122.756,-19.618C122.756,-20.449 123.25,-20.984 124.186,-21.166L125.314,-21.382C125.934,-21.506 126.236,-21.826 126.236,-22.362C126.236,-23.076 125.746,-23.438 124.777,-23.438C123.804,-23.438 123.311,-23.024 123.311,-22.211L123.311,-22.046L122.692,-22.046L122.692,-22.211C122.692,-23.375 123.433,-24.016 124.777,-24.016C126.107,-24.016 126.87,-23.404 126.87,-22.339C126.87,-21.502 126.39,-20.982 125.441,-20.792ZM116.564,-18.655L117.788,-18.655L117.788,-23.357L116.564,-23.357L116.564,-23.936L119.622,-23.936L119.622,-23.357L118.406,-23.357L118.406,-18.655L119.622,-18.655L119.622,-18.086L116.564,-18.086L116.564,-18.655ZM110.996,-18.655L112.836,-18.655L112.836,-22.123C112.836,-22.541 112.715,-22.867 112.475,-23.094C112.232,-23.321 111.882,-23.438 111.434,-23.438C110.994,-23.438 110.637,-23.318 110.398,-23.094C110.16,-22.867 110.038,-22.54 110.038,-22.123L110.038,-21.949L109.42,-21.949L109.42,-22.123C109.42,-22.706 109.607,-23.188 109.96,-23.518C110.309,-23.844 110.818,-24.016 111.434,-24.016C112.699,-24.016 113.454,-23.308 113.454,-22.123L113.454,-18.086L110.996,-18.086L110.996,-18.655ZM105.973,-21.891C105.973,-22.381 105.829,-22.765 105.547,-23.031C105.268,-23.297 104.846,-23.438 104.329,-23.438C103.819,-23.438 103.401,-23.297 103.121,-23.031C102.842,-22.768 102.694,-22.373 102.694,-21.891L102.694,-20.123C102.694,-19.14 103.293,-18.575 104.337,-18.575C105.376,-18.575 105.973,-19.14 105.973,-20.123L105.973,-21.891ZM104.337,-18.006C102.922,-18.006 102.076,-18.797 102.076,-20.123L102.076,-21.891C102.076,-23.222 102.918,-24.016 104.329,-24.016C105.745,-24.016 106.59,-23.222 106.59,-21.891L106.59,-20.123C106.59,-18.797 105.748,-18.006 104.337,-18.006ZM98.245,-20.823C98.038,-21.019 97.735,-21.117 97.345,-21.117L95.846,-21.117L95.846,-18.655L97.345,-18.655C98.16,-18.655 98.572,-19.071 98.572,-19.891C98.572,-20.304 98.462,-20.618 98.245,-20.823ZM97.361,-18.086L95.229,-18.086L95.229,-23.936L95.846,-23.936L95.846,-21.695L97.361,-21.695C98.534,-21.695 99.207,-21.037 99.207,-19.891C99.207,-18.744 98.534,-18.086 97.361,-18.086Z" style="fill:rgb(64,64,64);fill-rule:nonzero;"/>
            </g>
            <g transform="matrix(1,0,0,-1,0,3.89808)">
                <path d="M86.519,-33.732L82.255,-41.84L77.99,-33.732L77.99,-43.996L73.96,-43.996L73.96,-25.807L77.86,-25.807L82.255,-34.174L86.648,-25.807L90.548,-25.807L90.548,-43.996L86.519,-43.996L86.519,-33.732Z" style="fill:rgb(26,26,26);fill-rule:nonzero;"/>
            </g>
            <g transform="matrix(1,0,0,-1,0,3.63831)">
                <path d="M99.259,-36.253L105.706,-36.253L105.706,-32.407C105.706,-30.354 104.433,-29.314 102.509,-29.314C100.532,-29.314 99.259,-30.354 99.259,-32.407L99.259,-36.253ZM95.229,-44.256L95.229,-32.407C95.229,-28.041 98.089,-25.807 102.509,-25.807C106.876,-25.807 109.736,-28.041 109.736,-32.407L109.736,-44.256L105.706,-44.256L105.706,-39.761L99.259,-39.761L99.259,-44.256L95.229,-44.256Z" style="fill:rgb(26,26,26);fill-rule:nonzero;"/>
            </g>
            <g transform="matrix(1,0,0,-1,0,3.89808)">
                <path d="M121.046,-38.201L117.406,-43.996L112.856,-43.996L118.811,-35.006L112.856,-25.807L117.667,-25.807L121.229,-31.602L124.895,-25.807L129.444,-25.807L123.49,-34.797L129.444,-43.996L124.634,-43.996L121.046,-38.201Z" style="fill:rgb(26,26,26);fill-rule:nonzero;"/>
            </g>
            <g transform="matrix(1,0,0,-1,0,3.89808)">
                <path d="M139.584,-40.487L142.964,-40.487L142.964,-43.996L132.174,-43.996L132.174,-40.487L135.554,-40.487L135.554,-29.314L132.174,-29.314L132.174,-25.807L142.964,-25.807L142.964,-29.314L139.584,-29.314L139.584,-40.487Z" style="fill:rgb(26,26,26);fill-rule:nonzero;"/>
            </g>
            <g transform="matrix(1,0,0,-1,0,3.89808)">
                <path d="M159.812,-33.732L155.548,-41.84L151.284,-33.732L151.284,-43.996L147.254,-43.996L147.254,-25.807L151.153,-25.807L155.548,-34.174L159.942,-25.807L163.842,-25.807L163.842,-43.996L159.812,-43.996L159.812,-33.732Z" style="fill:rgb(26,26,26);fill-rule:nonzero;"/>
            </g>
            <g transform="matrix(1,0,0,-1,0,3.63831)">
                <path d="M172.552,-36.253L179,-36.253L179,-32.407C179,-30.354 177.726,-29.314 175.802,-29.314C173.825,-29.314 172.552,-30.354 172.552,-32.407L172.552,-36.253ZM168.522,-44.256L168.522,-32.407C168.522,-28.041 171.382,-25.807 175.802,-25.807C180.17,-25.807 183.03,-28.041 183.03,-32.407L183.03,-44.256L179,-44.256L179,-39.761L172.552,-39.761L172.552,-44.256L168.522,-44.256Z" style="fill:rgb(26,26,26);fill-rule:nonzero;"/>
            </g>
            <g transform="matrix(1,0,0,-1,0,-15.3812)">
                <path d="M50.013,-53.457C50.013,-53.457 54.771,-53.457 56.275,-48.946L59.213,-40.137C59.213,-40.137 60.718,-35.625 55.959,-35.625L47.634,-35.625C47.634,-35.625 42.875,-35.625 41.371,-40.137L38.433,-48.946C38.433,-48.946 36.929,-53.457 41.686,-53.457L50.013,-53.457Z" style="fill:rgb(26,26,26);fill-rule:nonzero;"/>
            </g>
            <g transform="matrix(1,0,0,-1,0,-15.3812)">
                <path d="M25.212,-53.457C25.212,-53.457 20.454,-53.457 18.95,-48.946L16.012,-40.137C16.012,-40.137 14.507,-35.625 19.265,-35.625L27.591,-35.625C27.591,-35.625 32.349,-35.625 33.853,-40.137L36.792,-48.946C36.792,-48.946 38.296,-53.457 33.539,-53.457L25.212,-53.457Z" style="fill:rgb(26,26,26);fill-rule:nonzero;"/>
            </g>
            <g transform="matrix(1,0,0,-1,0,22.6588)">
                <path d="M25.212,-16.605C25.212,-16.605 20.454,-16.605 18.95,-21.116L16.012,-29.925C16.012,-29.925 14.507,-34.437 19.265,-34.437L27.591,-34.437C27.591,-34.437 32.349,-34.437 33.853,-29.925L36.792,-21.116C36.792,-21.116 38.296,-16.605 33.539,-16.605L25.212,-16.605Z" style="fill:rgb(26,26,26);fill-rule:nonzero;"/>
            </g>
            <g transform="matrix(1,0,0,-1,0,22.6588)">
                <path d="M47.633,-34.437C47.633,-34.437 42.875,-34.437 41.371,-29.925L38.433,-21.116C38.433,-21.116 36.928,-16.605 41.687,-16.605L50.013,-16.605C50.013,-16.605 54.771,-16.605 56.275,-21.116L59.213,-29.925C59.213,-29.925 60.718,-34.437 55.96,-34.437L47.633,-34.437Z" style="fill:rgb(26,26,26);fill-rule:nonzero;"/>
            </g>
        </g>
    </g>
</svg>
