<?xml version="1.0" encoding="UTF-8" standalone="no"?>
<!DOCTYPE svg PUBLIC "-//W3C//DTD SVG 1.1//EN" "http://www.w3.org/Graphics/SVG/1.1/DTD/svg11.dtd">
<svg width="100%" height="100%" viewBox="0 0 164 36" version="1.1" xmlns="http://www.w3.org/2000/svg" xmlns:xlink="http://www.w3.org/1999/xlink" xml:space="preserve" xmlns:serif="http://www.serif.com/" style="fill-rule:evenodd;clip-rule:evenodd;stroke-linejoin:round;stroke-miterlimit:2;">
    <g transform="matrix(1,0,0,1,-0.500003,-0.499984)">
        <g transform="matrix(1,0,0,1,-258.305,-646.829)">
            <g id="g74" transform="matrix(0.352778,0,0,-0.352778,211.823,730.347)">
                <g id="g76">
                    <g id="g82" transform="matrix(1,0,0,1,563.447,179.837)">
                        <path id="path84" d="M0,0C0,0.986 0.212,1.984 0.643,3.005C1.066,4.021 1.689,4.955 2.513,5.809C3.33,6.663 4.369,7.366 5.616,7.926C6.86,8.485 8.304,8.765 9.948,8.765C11.584,8.765 12.998,8.485 14.181,7.926C15.364,7.366 16.346,6.663 17.136,5.809C17.923,4.955 18.512,4.021 18.905,3.005C19.302,1.984 19.495,0.986 19.495,0L0,0ZM26.098,-13.98C25.043,-14.77 23.369,-15.704 21.075,-16.789C18.773,-17.87 15.791,-18.414 12.113,-18.414C8.368,-18.414 5.431,-17.477 3.3,-15.606C1.168,-13.735 0.064,-11.554 0,-9.06L32.886,-9.06L32.886,-6.697C32.886,-2.823 32.398,0.741 31.412,3.987C30.429,7.238 28.966,10.027 27.031,12.359C25.096,14.687 22.711,16.509 19.892,17.82C17.068,19.136 13.788,19.79 10.046,19.79C6.304,19.79 2.956,19.117 0,17.771C-2.952,16.426 -5.446,14.638 -7.483,12.408C-9.517,10.174 -11.074,7.567 -12.159,4.577C-13.24,1.591 -13.784,-1.512 -13.784,-4.724C-13.784,-8.402 -13.209,-11.766 -12.06,-14.82C-10.911,-17.87 -9.237,-20.481 -7.037,-22.647C-4.842,-24.813 -2.162,-26.506 0.986,-27.719C4.139,-28.932 7.68,-29.541 11.622,-29.541C14.574,-29.541 17.197,-29.257 19.495,-28.702C21.797,-28.142 23.781,-27.504 25.455,-26.782C27.129,-26.06 28.49,-25.323 29.537,-24.567C30.591,-23.811 31.378,-23.271 31.903,-22.942L26.098,-13.98ZM-130.843,-15.655C-131.762,-16.312 -132.745,-16.887 -133.795,-17.378C-134.846,-17.87 -136.093,-18.119 -137.537,-18.119C-139.442,-18.119 -140.837,-17.511 -141.721,-16.294C-142.609,-15.08 -143.051,-13.357 -143.051,-11.127L-143.051,7.09L-131.134,7.09L-131.134,18.217L-143.051,18.217L-143.051,30.591L-157.228,30.591L-157.228,18.217L-164.538,18.217L-164.538,7.09L-157.228,7.09L-157.228,-10.337C-157.228,-13.228 -156.934,-15.851 -156.344,-18.217C-155.751,-20.58 -154.768,-22.598 -153.388,-24.272C-152.013,-25.946 -150.206,-27.258 -147.976,-28.21C-145.742,-29.159 -142.983,-29.639 -139.703,-29.639C-134.453,-29.639 -129.592,-27.866 -125.129,-24.321L-130.843,-15.655ZM-8.092,34.658C-10.193,36.431 -12.522,37.678 -15.08,38.4C-17.643,39.122 -20.171,39.485 -22.666,39.485C-25.024,39.485 -27.341,39.107 -29.605,38.351C-31.869,37.595 -33.887,36.446 -35.664,34.904C-37.436,33.362 -38.861,31.412 -39.942,29.046C-41.027,26.683 -41.571,23.86 -41.571,20.58L-41.571,18.217L-49.051,18.217L-49.051,7.09L-41.571,7.09L-41.571,-27.965L-27.492,-27.965L-27.492,7.09L-16.558,7.09L-16.558,18.217L-27.492,18.217L-27.492,20.776C-27.492,23.074 -26.899,24.847 -25.716,26.094C-24.537,27.337 -22.961,27.965 -20.991,27.965C-19.744,27.965 -18.531,27.768 -17.348,27.375C-16.165,26.978 -15.08,26.419 -14.098,25.701L-8.092,34.658ZM-70.405,-27.965L-56.228,-27.965L-56.228,18.217L-70.405,18.217L-70.405,-27.965ZM-119.822,-27.965L-76.622,-27.965L-76.622,-15.802L-104.954,-15.802L-104.954,37.712L-119.822,37.712L-119.822,-27.965ZM-200.818,0C-200.818,0.986 -200.606,1.984 -200.179,3.005C-199.752,4.021 -199.128,4.955 -198.308,5.809C-197.488,6.663 -196.452,7.366 -195.205,7.926C-193.958,8.485 -192.514,8.765 -190.874,8.765C-189.233,8.765 -187.82,8.485 -186.641,7.926C-185.458,7.366 -184.471,6.663 -183.685,5.809C-182.899,4.955 -182.306,4.021 -181.912,3.005C-181.519,1.984 -181.323,0.986 -181.323,-0L-200.818,0ZM-174.724,-13.98C-175.774,-14.77 -177.449,-15.704 -179.747,-16.789C-182.045,-17.87 -185.031,-18.414 -188.708,-18.414C-192.45,-18.414 -195.386,-17.477 -197.518,-15.606C-199.654,-13.735 -200.753,-11.554 -200.818,-9.06L-167.932,-9.06L-167.932,-6.697C-167.932,-2.823 -168.423,0.741 -169.406,3.987C-170.392,7.238 -171.855,10.027 -173.79,12.359C-175.725,14.687 -178.106,16.509 -180.93,17.82C-183.749,19.136 -187.034,19.79 -190.775,19.79C-194.517,19.79 -197.862,19.117 -200.818,17.771C-203.769,16.426 -206.268,14.638 -208.301,12.408C-210.338,10.174 -211.895,7.567 -212.976,4.577C-214.061,1.591 -214.602,-1.512 -214.602,-4.724C-214.602,-8.402 -214.031,-11.766 -212.878,-14.82C-211.733,-17.87 -210.059,-20.481 -207.859,-22.647C-205.659,-24.813 -202.983,-26.506 -199.835,-27.719C-196.683,-28.932 -193.138,-29.541 -189.199,-29.541C-186.244,-29.541 -183.621,-29.257 -181.323,-28.702C-179.025,-28.142 -177.037,-27.504 -175.363,-26.782C-173.692,-26.06 -172.328,-25.323 -171.281,-24.567C-170.23,-23.811 -169.44,-23.271 -168.915,-22.942L-174.724,-13.98ZM-288.847,-27.965L-274.67,-27.965L-272.995,14.672L-258.618,-10.636L-250.938,-10.636L-237.351,14.967L-235.48,-27.965L-220.611,-27.965L-223.665,37.712L-237.846,37.712L-254.581,6.894L-271.714,37.712L-285.797,37.712L-288.847,-27.965ZM-63.318,23.497C-67.695,23.497 -71.308,27.111 -71.308,31.491C-71.308,35.871 -67.695,39.485 -63.318,39.485C-58.828,39.485 -55.325,35.981 -55.325,31.491C-55.325,27.111 -58.938,23.497 -63.318,23.497" style="fill:rgb(26,26,26);fill-rule:nonzero;"/>
                    </g>
                    <g id="g86" transform="matrix(1,0,0,1,187.192,203.089)">
                        <path id="path88" d="M0,0C11.153,-14.767 17.771,-33.158 17.771,-53.106C17.771,-57.917 17.382,-62.638 16.637,-67.245L48.93,-67.245C51.738,-67.245 54.013,-64.963 54.013,-62.147L54.013,27.129C54.013,30.455 50.88,32.916 47.671,32.069C28.388,26.978 11.698,15.489 0,0" style="fill:rgb(26,26,26);fill-rule:nonzero;"/>
                    </g>
                    <g id="g90" transform="matrix(1,0,0,1,170.553,135.845)">
                        <path id="path92" d="M0,0C-0.741,4.603 -1.134,9.324 -1.134,14.139C-1.134,34.084 5.488,52.479 16.637,67.245C4.94,82.734 -11.751,94.224 -31.034,99.311C-34.243,100.157 -37.376,97.701 -37.376,94.375L-37.376,5.095C-37.376,2.283 -35.097,0 -32.288,0L0,0Z" style="fill:rgb(26,26,26);fill-rule:nonzero;"/>
                    </g>
                    <g id="g94" transform="matrix(1,0,0,1,187.192,203.089)">
                        <path id="path96" d="M0,0C-11.153,-14.767 -17.771,-33.158 -17.771,-53.106C-17.771,-57.917 -17.382,-62.638 -16.637,-67.245L16.637,-67.245C17.382,-62.638 17.771,-57.917 17.771,-53.106C17.771,-33.158 11.153,-14.767 0,0" style="fill:rgb(51,51,51);fill-rule:nonzero;"/>
                    </g>
                </g>
            </g>
        </g>
    </g>
</svg>
