<?xml version="1.0" encoding="UTF-8" standalone="no"?>
<!DOCTYPE svg PUBLIC "-//W3C//DTD SVG 1.1//EN" "http://www.w3.org/Graphics/SVG/1.1/DTD/svg11.dtd">
<svg width="100%" height="100%" viewBox="0 0 943 725" version="1.1" xmlns="http://www.w3.org/2000/svg" xmlns:xlink="http://www.w3.org/1999/xlink" xml:space="preserve" xmlns:serif="http://www.serif.com/" style="fill-rule:evenodd;clip-rule:evenodd;stroke-linejoin:round;stroke-miterlimit:2;">
    <g transform="matrix(1,0,0,1,-21.8014,-21.7358)">
        <g>
            <path id="path4772" d="M648.292,527.599C587.277,527.599 537.817,576.547 537.817,636.94C537.817,697.322 587.277,746.264 648.292,746.264C671.514,746.264 693.021,739.167 710.812,727.061L728.846,745.077L754.038,719.886L736.686,702.535C750.564,684.26 758.766,661.556 758.766,636.94C758.766,576.547 709.318,527.599 648.292,527.599ZM21.801,534.198L21.801,656.414C21.801,703.895 57.407,744.449 112.587,744.449C167.778,744.449 203.372,703.895 203.372,656.414L203.372,534.198L164.677,534.198L164.677,648.233C164.677,685.886 142.472,708.469 112.587,708.469C83.035,708.469 60.514,685.886 60.514,648.233L60.514,534.198L21.801,534.198ZM246.688,534.198L246.688,739.665L284.987,739.665L284.987,611.785L397.099,740.025L418.28,740.025L418.28,534.198L379.981,534.198L379.981,662.599L267.6,534.198L246.688,534.198ZM464.078,534.198L464.078,739.665L503.833,739.665L503.833,534.198L464.078,534.198ZM849.947,534.198L760.079,739.665L801.328,739.665L817.492,700.97L906.102,700.97L921.782,739.665L964.199,739.665L876.596,534.198L849.947,534.198ZM648.292,561.906C687.913,561.906 720.036,595.501 720.036,636.94C720.036,651.107 716.282,664.335 709.769,675.636L685.98,651.883L660.789,677.074L685.081,701.348C674.321,708.08 661.745,711.957 648.292,711.957C608.671,711.957 576.548,678.368 576.548,636.94C576.548,595.501 608.671,561.906 648.292,561.906ZM862.498,593.282L892.437,667.166L831.625,667.166L862.498,593.282Z" style="fill:rgb(26,26,26);fill-rule:nonzero;"/>
            <path id="path4790" d="M418.154,21.742C390.526,22.018 368.142,27.905 355.095,33.357C305.083,54.267 274.717,84.51 254.348,119.378C230.792,159.736 225.991,201.918 229.121,235.463C229.95,243.553 230.463,249.359 231.602,255.044C239.37,304.033 270.114,349.012 312.175,381.36C347.228,408.323 389.675,429.438 434.75,429.53C450.436,429.53 467.536,427.62 484.935,423.327L490.186,421.817C465.042,413.589 440.61,401.853 417.111,384.74C416.264,384.133 415.416,383.509 414.576,382.888C404.553,384.304 382.462,385.146 362.611,381.36C328.283,374.823 305.602,359.511 305.36,359.153C296.222,345.942 271.848,306.764 272.527,252.401C273.337,189.844 302.891,146.614 305.918,142.034C319.681,121.217 337.434,103.126 357.631,88.811C389.3,66.036 427.338,52.372 467.098,53.154C470.735,53.246 474.388,53.403 478.012,53.716C558.452,60.724 605.443,121.792 605.443,121.792C574.809,77.418 527.167,43.615 472.654,28.597C453.201,23.431 434.731,21.579 418.154,21.746L418.154,21.742ZM421.409,71.441C397.956,77.84 384.081,84.411 364.679,98.646C353.01,107.197 337.169,120.476 325.247,136.46C296.454,206.807 336.247,274.027 354.43,301.669C370.645,326.342 392.562,351.927 424.231,374.977C490.62,423.31 565.354,427.053 645.667,431.311C695.219,433.935 801.849,433.522 801.849,433.522L770.419,373.7L756.77,373.608C743.951,373.608 670.57,373.231 634.734,371.288C590.487,368.918 556.19,366.116 533.934,360.374C486.418,348.13 440.25,324.266 403.517,268.384C389.087,246.427 374.705,210.943 373.22,180.655C370.043,116.176 400.546,82.664 421.409,71.421L421.409,71.441ZM548.336,88.164C576.128,116.99 599.084,178.444 579.245,245.155C565.54,291.255 537.324,324.789 516.438,342.557C523.216,344.905 530.054,346.917 536.936,348.689C550.607,352.21 569.488,354.618 593.378,356.528C611.307,332.258 641.946,277.375 638.24,227.408C635.87,186.842 616.152,131.686 548.336,88.164ZM145.599,382.511L119.222,429.495L372.123,429.495C347.543,420.185 324.814,406.33 304.803,390.943C301.269,388.228 297.811,385.399 294.427,382.511L145.599,382.511Z" style="fill:rgb(26,26,26);fill-rule:nonzero;"/>
        </g>
    </g>
</svg>
